<svg width="720.69" height="919.19" version="1.1" viewBox="0 0 190.68 243.2" xmlns="http://www.w3.org/2000/svg">
 <g transform="translate(-422.67 8.8011)" opacity=".998">
  <rect x="-474.64" y="-342.38" width="473.42" height="663.97" fill="#666" stroke-width="2.7316"/>
  <path d="m-208.31 111.12 12.264 30.319 27.423 2e-5 -19.844 20.338 4.6845 28.718-24.528-16.002-24.528 16.002 4.6845-28.718-19.844-20.338 27.423-1e-5z" color="#000000" color-rendering="auto" dominant-baseline="auto" fill="#fd5" fill-rule="evenodd" image-rendering="auto" opacity="1" shape-rendering="auto" solid-color="#000000" stop-color="#000000" style="font-feature-settings:normal;font-variant-alternates:normal;font-variant-caps:normal;font-variant-east-asian:normal;font-variant-ligatures:normal;font-variant-numeric:normal;font-variant-position:normal;font-variation-settings:normal;inline-size:0;isolation:auto;mix-blend-mode:normal;shape-margin:0;shape-padding:0;text-decoration-color:#000000;text-decoration-line:none;text-decoration-style:solid;text-indent:0;text-orientation:mixed;text-transform:none;white-space:normal"/>
  <path d="m-79.878 142.59-21.889 31.392-1e-5 -19.188s-2.1664-4.478-17.719-1.4567c-33.759 6.5578-38.899 39.081-39.264 37.159-0.72508-3.8098 0.49439-40.365 21.187-53.217 15.17-9.4222 35.797-6.8933 35.797-6.8933l1e-5 -19.188z" fill="#f2f2f2" fill-rule="evenodd" stroke-width=".2487"/>
  <g>
   <rect x="-261.77" y="-26.254" width="79.375" height="79.375" fill="#5f5fd3"/>
   <path d="m-228.69-13.025v19.844h-19.844v13.229h19.844v19.844h13.229v-19.844h19.844v-13.229h-19.844v-19.844z" fill="#f9f9f9" opacity=".997"/>
  </g>
  <g>
   <rect x="-160.32" y="-27.083" width="79.375" height="79.375" fill="#5f5fd3"/>
   <path d="m-147.09 19.219v-13.229h52.917v13.229z" fill="#f9f9f9" opacity=".997"/>
  </g>
  <g fill="#f2f2f2">
   <path transform="matrix(.78115 0 0 .67649 -71.568 15.405)" d="m-25.84-165.77-67.742 39.111 2e-6 -39.111-2e-6 -39.111 33.871 19.555z" opacity=".997" style="mix-blend-mode:normal"/>
   <path transform="matrix(-.78115 0 0 .67649 -258.37 15.405)" d="m-25.84-165.77-67.742 39.111 2e-6 -39.111-2e-6 -39.111 33.871 19.555z" opacity=".997" style="mix-blend-mode:normal"/>
   <g transform="translate(-145.32 -66.021)">
    <path d="m23.904-137.65a7.9375 7.9375 0 0 1-7.9375 7.9375 7.9375 7.9375 0 0 1-7.9375-7.9375 7.9375 7.9375 0 0 1 7.9375-7.9375 7.9375 7.9375 0 0 1 7.9375 7.9375z" opacity=".997"/>
    <path d="m49.337-137.73a7.9375 7.9375 0 0 1-7.9375 7.9375 7.9375 7.9375 0 0 1-7.9375-7.9375 7.9375 7.9375 0 0 1 7.9375-7.9375 7.9375 7.9375 0 0 1 7.9375 7.9375z" opacity=".997"/>
    <path d="m76.248-137.73a7.9375 7.9375 0 0 1-7.9375 7.9375 7.9375 7.9375 0 0 1-7.9375-7.9375 7.9375 7.9375 0 0 1 7.9375-7.9375 7.9375 7.9375 0 0 1 7.9375 7.9375z" opacity=".997"/>
   </g>
   <path d="m-236.39-240.18v33.073h6.6146v-26.458h26.458v-6.6146zm46.302 0v6.6146h26.458v26.458h6.6146v-33.073zm-46.302 46.302v33.073h33.073v-6.6146h-26.458v-26.458zm72.76 0v26.458h-26.458v6.6146h33.073v-33.073z" opacity=".997"/>
  </g>
  <g transform="translate(-62.424 -61.86)">
   <path d="m208.44-136.51a71.586 71.586 0 0 1-71.586 71.586 71.586 71.586 0 0 1-71.586-71.586 71.586 71.586 0 0 1 71.586-71.586 71.586 71.586 0 0 1 71.586 71.586z" fill="#e6ffe9" opacity=".997"/>
   <g transform="matrix(.66769 0 0 .66769 -68.31 -56.403)" fill="none" stroke="#7c4ea3" stroke-width="6.3403">
    <path d="m334.58-154.11c0 9.2658-4.0462 17.104-8.8551 23.176-4.8089 6.0721-10.38 10.378-17.718 10.378s-12.734-4.3694-17.543-10.442c-4.8089-6.0721-9.031-13.847-9.031-23.113 0-18.532 11.897-33.554 26.573-33.554s26.574 15.023 26.574 33.554z" opacity="1"/>
    <path d="m361.76-76.443c0 21.022-20.768 16.22-50.454 16.22-29.686 0-57.048 4.8013-57.048-16.22 0-21.022 24.065-38.063 53.751-38.063s53.751 17.042 53.751 38.063z" opacity=".997"/>
   </g>
  </g>
 </g>
 <g transform="translate(-422.67 8.8011)" style="mix-blend-mode:normal">
  <g transform="matrix(1.2954 0 0 1.3487 -70.87 -34.907)">
   <path d="m171.76 39.988c-2.5902 0.02151-4.6705 1.8389-4.6396 4.0346 0.0308 2.1957 2.2705 6.0411 4.8132 6.0213 2.5427-0.01976 4.4922-3.9012 4.4988-6.0979 7e-3 -2.1966-2.0821-3.9796-4.6723-3.958zm32.633 14.508c-0.93259-0.0036-1.9744 0.09042-3.1328 0.30039-5.0431 0.91415-6.7055 5.9325-7.7557 9.5294-4.1315-0.93415-11.406-1.5765-15.872-1.5905-1.1178-0.0035-2.2281 0.02611-3.3319 0.08353-3.1709-3.9637-8.401-6.2653-14.001-6.1002-0.0297 7.95e-4 -0.0593 0.0017-0.089 0.0027-9.4954 0.32463-15.283 3.8467-16.217 15.702 0.0152 0.24546 0.037 0.49058 0.0658 0.73489-1.4082 0.67641-2.698 1.5676-3.3004 2.5518-2.6759-1.6845-5.4623-3.8626-8.3222-3.5158-5.1402 1.0648-8.6175 4.3953-7.5957 9.2999 0.10476 0.98493 0.41257 1.9399 0.90358 2.8169-7.5774-0.07035-9.9692 6.5742-9.1452 15.254 0.56883 4.3411 3.1464 8.206 6.9163 10.617-0.11689 2.6833-0.0143 5.4047 0.31198 8.1524 1.1397 9.5986 7.1747 21.432 14.242 32.807-0.70349 2.0825-0.68623 8.0518-0.47752 10.264 0.30738 3.2583 1.9542 7.7052 3.7205 9.8739 1.9618 2.4086 7.3261 2.4245 10.593 0.22223 0.0265-6e-3 0.054-3e-3 0.081-5e-3 1.1246 0.23861 1.9666 1.2419 2.4323 3.2308-1.6944 2.9756-2.5983 3.9636-2.8947 7.8627-0.0707 4.1319 3.5983 4.5107 5.3449 9.134 2.2025 5.6386 1.2504 13.471 4.6277 11.978 1.6271-0.71902 1.3218-5.362 1.4134-7.8562 0.0588-4.2668 1.141-5.4801 2.763-7.2362 6.2213 7.915 7.5462 7.8345 10.61 7.8577 4.1957 0.0318 11.559-6.7275 20.042-17.03 0.92973 0.5514 2.2025 2.4326 3.2545 2.4936 2.1411 0.22212 8.2356-6.2937 8.5428-9.6474 0.14014-1.9462-0.5805-3.7576-1.6711-5.3002 5.3811-7.3655 10.823-15.585 15.142-23.49 1.0922 0.77091 2.356 1.2435 3.6754 1.374 4.2671 0.42159 8.1257-2.7481 8.619-7.1408 0.43507-3.8733-1.9661-7.5004-5.7076-8.5428 1.344-3.7648 2.2682-7.3812 2.6178-10.746 0.37981-3.655 0.37023-7.2599-0.012-10.78 6.2067-8.5121 12.783-8.1322 14.794-14.07 2.8393-8.3868-4.1484-14.64-16.656-15.507-3.6488-0.2529-7.2829 0.49095-10.299 2.3641-3.4814-3.8864-7.622-7.2846-12.318-10.042 0.78144-1.1399 2.7069-2.7184 4.2375-6.0228 1.6935-3.3669 1.4848-9.6282-5.7582-9.8781v3.84e-4c-0.12879-0.0044-0.25974-0.0068-0.39295-0.0073zm15.896 11.854c-2.2254 0.0288-4.0782 1.5966-4.2283 3.653-0.82106 3.5425-0.29333 4.2678 4.042 4.3013 2.39 0.1908 4.4773-1.4151 4.668-3.6062 0.19076-2.1911-1.6115-4.1397-4.032-4.3327-0.15127-0.01207-0.30123-0.01725-0.44961-0.01533zm18.254 46.665c-2.0064-6e-3 -3.403 1.5777-4.0352 3.5258-1.1536 3.5547-0.53609 4.066 3.5665 4.4093 2.208 0.25649 4.2115-1.2918 4.478-3.4737 0.26634-2.1817-1.3263-4.1739-3.5613-4.4342-0.0128-2e-3 -0.0259-3e-3 -0.0387-4e-3v-3.8e-4c-0.13914-0.0149-0.27556-0.0222-0.4093-0.0226zm-119.14 21.396c-0.0742 1e-3 -0.14537 6e-3 -0.21304 0.0153-0.0124 2e-3 -0.0247 3e-3 -0.0371 5e-3v3.9e-4c-2.1146 0.31125-3.5587 2.3212-3.241 4.4798 0.31919 2.1679 4.0388 3.8662 6.1779 3.1947 2.4809-0.77892 2.8681-1.1487 3.9291-2.5897 0.98604-1.4209-4.3155-5.1439-6.6159-5.1055zm70.346 58.93c-1.8182 0.0361-3.3066 1.7297-3.3666 3.858-0.0621 2.1977 0.32801 4.2773 2.0234 5.1526 1.6347 0.84409 4.6899-2.6811 4.7864-4.884 0.0964-2.1963-1.3688-4.0503-3.2665-4.1246-0.0593-2e-3 -0.11807-3e-3 -0.17672-2e-3z" fill="#fffe2a" stroke-width="2.0666"/>
   <path transform="scale(.26458)" d="m649.11 139.14c-17.775 0.14926-31.87 12.548-31.555 27.524 0.26453 12.6 12.753 34.618 32.338 34.467 20.097-0.15426 30.819-22.642 30.938-34.99 0.14564-14.989-13.948-27.151-31.722-27.001zm125.26 54.852c-5.1561-0.1774-10.692 0.27791-16.579 1.3476-21.398 3.8883-30.859 20.249-35.901 33.862-16.642-2.53-36.884-4.0497-50.46-4.0908-2.1222-6e-3 -4.2006 0.0965-6.3014 0.1468-14.672-14.99-36.404-23.561-59.606-22.874-0.12456 3e-3 -0.25012 7e-3 -0.37466 0.0111-6e-3 1.8e-4 -0.012 3.5e-4 -0.018 5.3e-4l-0.018 5.4e-4c-42.242 1.4481-69.495 18.899-74.019 67.692-0.137 0.0907-0.27212 0.18267-0.40867 0.2749-8.5203-5.412-19.187-10.907-31.707-9.3884-0.21332 0.0257-0.42665 0.0515-0.63998 0.0773-0.20958 0.0431-0.41916 0.0862-0.62874 0.12935-25.201 5.2241-43.702 23.104-39.11 47.981-26.655 8.6136-33.855 38.013-30.708 68.449l0.0211 0.19808 0.0275 0.1972c2.4666 17.67 12.226 33.523 26.441 44.517-0.0269 8.6758 0.36192 17.391 1.4831 26.21 2.2055 17.348 8.3853 36.076 16.714 55.25-7.9849-5.3675-17.276-8.6802-23.719-7.7991-0.0666 9e-3 -0.13218 0.0178-0.19876 0.0272-0.01 1e-3 -0.0191 3e-3 -0.0287 4e-3 -0.01 1e-3 -0.0191 3e-3 -0.0287 4e-3 -14.555 2.1388-24.299 15.839-22.003 30.556 2.5865 16.579 24.744 26.037 38.24 21.797 11.709-3.6795 15.691-7.2682 20.626-13.928 0.0326-0.0443 0.0653-0.0886 0.098-0.13294 0.032-0.0449 0.0639-0.0898 0.0959-0.13468 0.3553-0.50835 0.54697-1.0357 0.82737-1.5531 7.1219 13.486 15.047 27.105 23.351 40.497-2.049 12.161-1.4491 29.892-0.64038 37.789 1.5116 14.761 8.4097 33.545 17.203 44.269 9.6917 11.821 28.134 13.167 42.975 8.0263-3.4351 6.5281-6.1621 13.542-6.9773 25.463-9e-3 0.13486-0.0187 0.26972-0.028 0.40457-9e-4 0.1356-2e-3 0.27119-3e-3 0.40679-0.20632 21.818 16.238 26.381 21.357 39.714 9e-3 0.023 0.0178 0.0459 0.0267 0.0689 9e-3 0.0236 0.0178 0.0473 0.0267 0.0709 2.9316 7.3912 4.3084 23.108 8.0168 35.551 3.7233 12.494 9.6681 21.559 22.031 16.094 13.766-6.0851 11.56-31.851 11.93-40.252 3e-3 -0.0547 5e-3 -0.1094 8e-3 -0.1641 9.4e-4 -0.0547 2e-3 -0.10933 3e-3 -0.16399 0.0936-4.4634 0.43872-7.2626 1.2001-9.6714 22.149 25.758 30.171 23.55 39.253 23.621 8.0499 0.0626 17.642-4.5396 28.295-12.363-0.10586 0.94709-0.28397 1.8639-0.30528 2.8406-0.22893 10.473 2.0029 24.684 13.779 30.777 13.694 7.0876 31.72-13.431 32.495-28.957 0.70637-14.139-8.1232-26.03-20.09-27.766 7.2906-7.4105 14.83-15.695 22.52-24.676 2.9219 2.4683 6.6081 4.8543 10.519 5.1592 15.21 1.2815 42.401-29.647 44.122-47.33 4e-3 -0.0422 8e-3 -0.0844 0.0117-0.12654l0.01-0.12667c0.58096-7.4785-1.1629-14.222-3.8904-20.143 17.028-23.515 33.937-48.99 48.402-74.109 2.6465 0.83834 5.3549 1.4797 8.1354 1.7545 22.465 2.2181 42.772-14.363 45.499-37.598 1.8935-16.129-5.5555-31.332-18.596-39.852 1.8049-5.7408 3.2736-11.405 4.5097-17.013 4.3066 2.1494 9.9076 3.4356 16.889 4.0398 14.951 1.6823 28.436-8.6988 30.322-23.542 1.8885-14.874-8.8658-28.412-24.189-30.199-0.0682-8e-3 -0.13735-0.0163-0.2056-0.024-9e-3 -1e-3 -0.0186-2e-3 -0.0279-3e-3 -9e-3 -1e-3 -0.0186-2e-3 -0.0279-3e-3 -7.722-0.82789-14.014 1.4944-18.898 5.3581-0.0942-3.2929-0.27113-6.5689-0.52514-9.8308 21.378-26.459 46.163-26.88 55.216-53.236 14.162-41.232-20.875-70.757-74.196-74.455-3.2841-0.22762-6.5796-0.1449-9.8678-5e-3 3.597-4.031 5.9732-9.0843 6.4961-14.74 1.3823-14.942-10.775-28.202-27.373-29.526-16.336-1.3033-30.353 9.4903-31.746 24.104-0.23383 1.254-0.39468 2.4476-0.56394 3.6472-1.4773-1.0622-2.9635-2.1118-4.4744-3.1394 3.0696-3.9387 6.5304-8.9507 9.4679-15.165 9.76-19.37 5.1762-52.975-33.559-54.307-9e-5 -1e-5 -1.9e-4 -2e-5 -2.9e-4 -3e-5zm33.559 54.307c-0.0201 0.0398-0.0277 0.0884-0.0479 0.128 0.053-0.10872 0.10608-0.21744 0.15913-0.32616-0.0344 0.0733-0.0768 0.12513-0.11128 0.19815 2e-5 0 4e-5 0 6e-5 1e-5zm90.592 220.76c-0.0328-4e-3 -0.064 3e-3 -0.0968-1e-3 0.12976 0.013 0.25952 0.0261 0.38928 0.0392-0.10475-9e-3 -0.1877-0.0288-0.29244-0.038zm-145.09 230.5c-0.0712-6e-3 -0.14992 0.0122-0.22071 5e-3 0.14399 0.0116 0.28799 0.0233 0.43198 0.035-0.0717-4e-3 -0.13982-0.034-0.21128-0.0397zm-294.86-390.11c0.0215 0.18771 0.0979 0.36436 0.12217 0.55166 0.0356 0.17382 0.0156 0.32993 0.0532 0.50446-0.0585-0.35204-0.11693-0.70408-0.17541-1.0561zm93.826 37.039c44.43-2.686 88.777-3.6707 132.94-3.1565-4.86 15.973-9.6073 31.962-14.239 47.966-4.9011-0.0242-9.8033-0.0291-14.707-0.0146l-0.0525-23.665c-5.467 0.0175-10.936 0.0589-16.407 0.12455l0.88748 80.223c5.1702-0.0579 10.341-0.093 15.512-0.10574-2.4434 7.9132-4.8541 15.831-7.2317 23.753-18.045 0.11445-36.079 0.50782-54.094 1.1971-2.6881-7.8053-5.4102-15.604-8.1666-23.395 5.1025-0.21842 10.206-0.41331 15.31-0.58504l-2.6883-80.153c-5.6079 0.19225-11.217 0.41099-16.827 0.65663l1.0199 23.627c-4.9102 0.21425-9.8207 0.44945-14.731 0.7059-5.3791-15.753-10.888-31.479-16.528-47.179zm202.17 17.268c0.32433 8.0803 0.64041 16.161 0.94828 24.241-3.3643-0.16126-6.7296-0.31425-10.096-0.45886l-3.4624 79.386c7.8752 0.34381 15.75 0.73502 23.622 1.1722l1.2889-23.222c7.1154 0.39397 14.228 0.8252 21.338 1.2927 2.2097 16.052 4.3451 32.108 6.4076 48.166-33.757-2.3836-67.535-3.947-101.28-4.5762 3.4628-8.0492 6.97-16.089 10.521-24.12l1.8844-79.409c-3.5007-0.0803-7.0022-0.15123-10.504-0.2126 1.5181-7.917 3.0531-15.833 4.6047-23.747 18.269 0.24529 36.513 0.74587 54.725 1.4871z" color="#000000" color-rendering="auto" dominant-baseline="auto" fill="#8787de" image-rendering="auto" shape-rendering="auto" solid-color="#000000" stop-color="#000000" style="font-feature-settings:normal;font-variant-alternates:normal;font-variant-caps:normal;font-variant-east-asian:normal;font-variant-ligatures:normal;font-variant-numeric:normal;font-variant-position:normal;font-variation-settings:normal;inline-size:0;isolation:auto;mix-blend-mode:normal;shape-margin:0;shape-padding:0;text-decoration-color:#000000;text-decoration-line:none;text-decoration-style:solid;text-indent:0;text-orientation:mixed;text-transform:none;white-space:normal"/>
   <path transform="scale(.26458)" d="m649.18 151.13c-9.7899 0.0813-17.652 6.9501-17.535 15.249 0.1163 8.2988 8.5813 22.833 18.192 22.757 9.6102-0.0747 16.979-14.744 17.004-23.047 0.0254-8.3023-7.8697-15.041-17.66-14.959zm124.82 54.86c-3.894-0.13429-8.3227 0.20015-13.326 1.1071-19.061 3.4551-25.343 22.422-29.312 36.017-15.615-3.5307-43.107-5.958-59.988-6.011-4.2249-0.0132-8.4215 0.0988-12.593 0.31582-11.985-14.981-31.752-23.679-52.919-23.055-0.11221 3e-3 -0.22431 6e-3 -0.33646 0.01-35.888 1.227-57.762 14.539-61.294 59.346 0.0575 0.92771 0.14065 1.8537 0.24942 2.777-5.3223 2.5565-10.197 5.9243-12.474 9.6441-10.114-6.3665-20.646-14.598-31.455-13.288-19.427 4.0244-32.569 16.612-28.707 35.149 0.39594 3.7226 1.5589 7.3318 3.4147 10.647-28.639-0.26587-37.679 24.848-34.564 57.652 2.1499 16.407 11.892 31.015 26.14 40.128-0.44182 10.142-0.0543 20.427 1.1788 30.812 4.3075 36.278 27.118 81.002 53.829 124-2.6589 7.8708-2.5946 30.433-1.8057 38.793 1.1618 12.315 7.3873 29.122 14.063 37.318 7.4145 9.1033 27.688 9.1631 40.033 0.83968 0.10004-0.022 0.20402-0.0112 0.306-0.0173 4.2503 0.90185 7.4336 4.6948 9.1937 12.212-6.4043 11.246-9.821 14.98-10.941 29.717-0.26714 15.617 13.601 17.048 20.202 34.522 8.3244 21.311 4.7246 50.912 17.489 45.271 6.1497-2.7176 4.9968-20.266 5.3429-29.693 0.22223-16.126 4.3123-20.711 10.443-27.349 23.513 29.915 28.52 29.611 40.102 29.699 15.858 0.12028 43.689-25.426 75.749-64.364 3.5139 2.084 8.3239 9.1942 12.3 9.4245 8.0923 0.8395 31.127-23.788 32.288-36.463 0.52968-7.3557-2.1944-14.203-6.3165-20.033 20.338-27.838 40.906-58.904 57.23-88.779 4.128 2.9137 8.9047 4.6993 13.891 5.1925 16.128 1.5934 30.712-10.387 32.576-26.99 1.6444-14.639-7.4302-28.347-21.571-32.286 5.0797-14.229 8.5721-27.898 9.8935-40.614 1.4355-13.814 1.3992-27.439-0.0454-40.745 23.458-32.172 48.315-30.736 55.913-53.179 10.731-31.698-15.679-55.331-62.953-58.609-13.791-0.95585-27.526 1.855-38.924 8.9345-13.158-14.689-28.808-27.532-46.556-37.952 2.9535-4.3082 10.231-10.274 16.016-22.763 6.4005-12.725 5.612-36.391-21.763-37.335zm60.295 44.83c-9.1485-0.72999-17.075 5.4592-17.68 13.75-3.1032 13.389-1.1086 16.13 15.277 16.257 9.0329 0.72112 16.922-5.3495 17.643-13.631 0.72096-8.2814-6.0914-15.646-15.24-16.375zm-281.89 95.667c44.43-2.686 88.777-3.6707 132.94-3.1565-4.86 15.973-9.6073 31.962-14.239 47.966-4.9011-0.0242-9.8033-0.0291-14.707-0.0146l-0.0525-23.665c-5.467 0.0175-10.936 0.0589-16.407 0.12455l0.88748 80.223c5.1702-0.0579 10.341-0.093 15.512-0.10574-2.4434 7.9132-4.8541 15.831-7.2317 23.753-18.045 0.11445-36.079 0.50782-54.094 1.1971-2.6881-7.8053-5.4102-15.604-8.1666-23.395 5.1025-0.21842 10.206-0.41331 15.31-0.58504l-2.6883-80.153c-5.6079 0.19225-11.217 0.41099-16.827 0.65663l1.0199 23.627c-4.9102 0.21425-9.8207 0.44945-14.731 0.7059-5.3791-15.753-10.888-31.479-16.528-47.179zm202.17 17.268c0.32433 8.0803 0.64041 16.161 0.94828 24.241-3.3643-0.16126-6.7296-0.31425-10.096-0.45886l-3.4624 79.386c7.8752 0.34381 15.75 0.73502 23.622 1.1722l1.2889-23.222c7.1154 0.39397 14.228 0.8252 21.338 1.2927 2.2097 16.052 4.3451 32.108 6.4076 48.166-33.757-2.3836-67.535-3.947-101.28-4.5762 3.4628-8.0492 6.97-16.089 10.521-24.12l1.8844-79.409c-3.5007-0.0803-7.0022-0.15123-10.504-0.2126 1.5181-7.917 3.0531-15.833 4.6047-23.747 18.269 0.24529 36.513 0.74587 54.725 1.4871zm148.57 63.466c-8.4136-0.90088-14.25 5.3865-16.799 13.24-4.36 13.435-2.0263 15.368 13.48 16.666 8.3451 0.9694 15.919-4.8831 16.926-13.13 1.0067-8.2458-5.0143-15.775-13.461-16.759-0.0483-6e-3 -0.0967-0.0115-0.14502-0.0169zm-452.79 80.86c-7.9919 1.1764-13.45 8.7731-12.249 16.932 1.2064 8.1938 15.264 14.612 23.349 12.074 9.3764-2.9439 10.84-4.3414 14.85-9.7878 3.847-5.5437-17.627-20.358-25.809-19.237-0.0468 6e-3 -0.0935 0.0126-0.14022 0.0192zm267.49 222.66c-7.1723-0.28149-13.158 6.2719-13.393 14.575-0.23465 8.3063 1.2403 16.166 7.6481 19.474 6.1784 3.1903 17.725-10.134 18.09-18.46 0.36424-8.3011-5.1731-15.308-12.345-15.589z" color="#000000" color-rendering="auto" dominant-baseline="auto" fill="#5f5fd3" image-rendering="auto" shape-rendering="auto" solid-color="#000000" stop-color="#000000" style="font-feature-settings:normal;font-variant-alternates:normal;font-variant-caps:normal;font-variant-east-asian:normal;font-variant-ligatures:normal;font-variant-numeric:normal;font-variant-position:normal;font-variation-settings:normal;inline-size:0;isolation:auto;mix-blend-mode:normal;shape-margin:0;shape-padding:0;text-decoration-color:#000000;text-decoration-line:none;text-decoration-style:solid;text-indent:0;text-orientation:mixed;text-transform:none;white-space:normal"/>
  </g>
  <g transform="matrix(8.4775 0 0 8.4775 -1199.9 -209.88)" fill="#808080" style="shape-inside:url(#rect83);white-space:pre" aria-label="TL">
   <g fill="#808080" stroke-width=".096862" aria-label="TL"></g>
  </g>
  <path d="m397.51-101.19 3.4604 12.726h3.7346v-6.265h4.2093v21.242h-4.0135l1.903 6.2799h14.371l1.9339-6.2799h-4.0625v-21.242h4.1114v6.265h3.7346l3.4604-12.726z" stroke-width=".12236"/>
  <path d="m428.87-76.257h2.6633v21.016l-2.6633 6.4404h27.117l-2.5536-12.59h-5.5816v6.1498h-6.2467v-21.016h2.5665l-0.53266-6.3919-13.725 0.087z" stroke-width=".12106"/>
  <g transform="matrix(.99712 -.25544 .25544 .99712 17.167 9.0443)">
   <path d="m3.5915 139.72-0.02013 0.55767s15.925 53.552 24.769 89.471c2.5848 10.499 4.1633 22.151 5.1211 31.936-1.1911-6.7699-3.1656-14.981-6.4214-24.436-10.599-30.781-42.706-95.143-42.706-95.143l-0.51116-0.36044 0.05426 0.73504s30.947 65.769 41.949 95.294c3.4527 9.2655 5.4236 18.47 6.5482 26.181-1.4217-6.2991-5.2265-21.045-10.16-32.83-9.3198-22.263-47.552-86.748-47.584-86.779-0.40464 0.17529-4.4131 0.90429-4.8177 1.0796 0 0 32.157 64.012 41.973 86.672 9.8162 22.66 21.099 55.078 21.099 55.078s1.0677-0.83778 1.857-1.687l149.33 0.88933-0.83329-11.035c-113.86-25.649-126.12-17.99-141.21-1.5135-3.2543 3.5816-5.9709 8.0637-5.9709 8.0637s-1.7882-31.338-6.4314-52.465c-7.3899-33.625-25.58-89.514-25.58-89.514z" fill="#b3b3b3" stroke-width=".15985"/>
   <path d="m-29.311 142.46c-2.2302 0.41549-3.7503 1.1651-4.8519 2.1115 0 0 29.482 56.165 47.377 94.768 8.5818 18.512 14.106 35.876 15.337 47.014 0.26875 2.4313-3.1796 1.6843 0.67845 4.342 4.6612 3.2109 2.8829-0.49058 5.0982-1.097 0 0 15.248-3.8529 40.492-3.8529 26.262 0 112.59 5.6179 112.59 5.6179 0.77771-1.5889 1.1198-4.6237 0.52464-6.5215 0 0-84.874-6.089-111.14-6.089-25.189 0-43.216 6.089-43.216 6.089-1.1067-6.8019-4.3946-26.277-14.351-48.341-17.825-39.501-48.546-94.04-48.546-94.04z" fill="#959558" stroke-width=".33014"/>
  </g>
  <g transform="matrix(1.2954 0 0 1.3487 283.28 -51.744)" shape-rendering="auto">
   <path transform="matrix(.20425 0 0 .19617 -218.69 38.365)" d="m1911.3-33.262c-35.372 0.30926-66.73 26.997-66.002 62.988 0.1425 7.0644 1.7355 14.842 4.584 22.586-53.762 2.9074-94.509 26.639-110.24 80.521-7.8157-1.9151-16.434-2.7548-25.754-1.5801-0.3182 0.04-0.5958 0.0757-0.8321 0.10547l-2.1406 0.36328c-0.2552 0.0546-0.5338 0.11353-0.8242 0.17578l-0.035 8e-3c-36.874 7.9589-68.528 35.521-71.291 74.053-35.349 22.779-43.064 69.627-39.029 110.27l0.01 0.0684 0.027 0.26758 0.088 0.75586 0.035 0.26562 0.01 0.0391c3.5269 26.307 16.041 50.092 34.291 68.148 0.2492 8.834 0.7223 17.777 1.8418 26.945 1.4705 12.043 4.2445 24.376 7.7617 36.771-31.164 7.0563-50.299 37.641-45.576 69.17 5.7349 38.275 50.072 60.343 82.492 49.738 4.8855-1.5985 9.086-3.3085 12.858-5.125 3.7278 6.7054 7.6206 13.344 11.506 19.98-1.5958 17.441-1.0033 37.872-0.02 47.873 2.2233 22.604 13.748 55.325 27.596 72.91 10.923 13.872 26.058 20.919 41.768 23.264-0.1519 1.5673-0.4076 2.8714-0.5176 4.5469-0.015 0.22719-0.026 0.41037-0.035 0.54688l-0.055 1.6699v0.31836c-0.3507 38.626 26.684 55.664 29.229 62.564l0.086 0.22657 0.018 0.0449 0.061 0.16992c2.1393 5.6157 4.3508 27.2 9.7031 45.9 6.6438 23.211 26.307 54.886 63.514 37.762 16.829-7.7455 24.266-23.759 27.625-39.189 18.519 9.5524 29.436 5.5937 29.436 5.5937 5.7524 0.0466 11.573-1.0526 17.34-2.8301 4.5435 11.034 12.106 21.549 24.941 28.465 39.001 21.017 77.751-24.826 79.445-60.16 0.6835-14.244-3.3092-28.319-10.885-39.709 0.1618 0.0135 0.3161 0.0265 0.4648 0.0391v-0.0605c37.302 2.9076 80.742-52.303 84.201-86.35-0.01-0.0258 0.088-0.68946 0.088-0.68946l0.016-0.18554 0.014-0.16993 0.012-0.15039c0.6798-9.1125-0.4128-17.45-2.3535-25.107 16.664-24.433 33.013-50.141 47.978-76.045 41.582 1.4203 76.629-30.842 81.422-73.357 1.9681-17.457-1.6877-34.429-9.5664-49.021 27.245-3.4368 48.937-25.004 52.445-53.748 3.1152-25.546-9.5589-49.497-30.648-61.463 17.581-12.248 35.099-24.512 44.254-52.264 22.911-69.452-28.098-119.06-99.113-131.21 0.1453-32.647-25.746-59.387-58.803-62.131-2.5434-0.21126-5.0605-0.22935-7.5586-0.15234-4.847-30.969-27.574-58.813-72.488-60.422-1.1276-0.0404-2.2427-0.06021-3.3378-0.06445-7.7751-0.03008-15.741 0.7918-23.758 2.3086-29.819 5.6416-46.956 24.55-57.113 42.98-12.451-1.4068-25.182-2.3962-36.424-2.8887 15.48-15.438 23.754-37.729 23.908-54.324 0.3367-36.087-31.104-62.32-66.666-62.008zm217.7 720.11c0.021 0.0616 0.1203-0.24922-0.2129 1.6465l0.2734-2.0293c-0.012 0.12304-0.048 0.25922-0.061 0.38282zm-479.68-238.38-0.4453 0.0527c-0.024 3e-3 -0.048 6.3e-4 -0.072 4e-3z" color="#000000" color-rendering="auto" dominant-baseline="auto" fill="#5f5fd3" image-rendering="auto" solid-color="#000000" stop-color="#000000" style="font-feature-settings:normal;font-variant-alternates:normal;font-variant-caps:normal;font-variant-east-asian:normal;font-variant-ligatures:normal;font-variant-numeric:normal;font-variant-position:normal;font-variation-settings:normal;inline-size:0;isolation:auto;mix-blend-mode:normal;shape-margin:0;shape-padding:0;text-decoration-color:#000000;text-decoration-line:none;text-decoration-style:solid;text-indent:0;text-orientation:mixed;text-transform:none;white-space:normal"/>
   <path transform="scale(.26458)" d="m649.18 151.13c-9.7899 0.0813-17.652 6.9501-17.535 15.249 0.1163 8.2988 8.5813 22.833 18.192 22.757 9.6102-0.0747 16.979-14.744 17.004-23.047 0.0254-8.3023-7.8697-15.041-17.66-14.959zm124.82 54.86c-3.894-0.13429-8.3227 0.20015-13.326 1.1071-19.061 3.4551-25.343 22.422-29.312 36.017-15.615-3.5307-43.107-5.958-59.988-6.011-4.2249-0.0132-8.4215 0.0988-12.593 0.31582-11.985-14.981-31.752-23.679-52.919-23.055-0.11221 3e-3 -0.22431 6e-3 -0.33646 0.01-35.888 1.227-57.762 14.539-61.294 59.346 0.0575 0.92771 0.14065 1.8537 0.24942 2.777-5.3223 2.5565-10.197 5.9243-12.474 9.6441-10.114-6.3665-20.646-14.598-31.455-13.288-19.427 4.0244-32.569 16.612-28.707 35.149 0.39594 3.7226 1.5589 7.3318 3.4147 10.647-28.639-0.26587-37.679 24.848-34.564 57.652 2.1499 16.407 11.892 31.015 26.14 40.128-0.44182 10.142-0.0543 20.427 1.1788 30.812 4.3075 36.278 27.118 81.002 53.829 124-2.6589 7.8708-2.5946 30.433-1.8057 38.793 1.1618 12.315 7.3873 29.122 14.063 37.318 7.4145 9.1033 27.688 9.1631 40.033 0.83968 0.10004-0.022 0.20402-0.0112 0.306-0.0173 4.2503 0.90185 7.4336 4.6948 9.1937 12.212-6.4043 11.246-9.821 14.98-10.941 29.717-0.26714 15.617 13.601 17.048 20.202 34.522 8.3244 21.311 4.7246 50.912 17.489 45.271 6.1497-2.7176 4.9968-20.266 5.3429-29.693 0.22223-16.126 4.3123-20.711 10.443-27.349 23.513 29.915 28.52 29.611 40.102 29.699 15.858 0.12028 43.689-25.426 75.749-64.364 3.5139 2.084 8.3239 9.1942 12.3 9.4245 8.0923 0.8395 31.127-23.788 32.288-36.463 0.52968-7.3557-2.1944-14.203-6.3165-20.033 20.338-27.838 40.906-58.904 57.23-88.779 4.128 2.9137 8.9047 4.6993 13.891 5.1925 16.128 1.5934 30.712-10.387 32.576-26.99 1.6444-14.639-7.4302-28.347-21.571-32.286 5.0797-14.229 8.5721-27.898 9.8935-40.614 1.4355-13.814 1.3992-27.439-0.0454-40.745 23.458-32.172 48.315-30.736 55.913-53.179 10.731-31.698-15.679-55.331-62.953-58.609-13.791-0.95585-27.526 1.855-38.924 8.9345-13.158-14.689-28.808-27.532-46.556-37.952 2.9535-4.3082 10.231-10.274 16.016-22.763 6.4005-12.725 5.612-36.391-21.763-37.335zm60.295 44.83c-9.1485-0.72999-17.075 5.4592-17.68 13.75-3.1032 13.389-1.1086 16.13 15.277 16.257 9.0329 0.72112 16.922-5.3495 17.643-13.631 0.72096-8.2814-6.0914-15.646-15.24-16.375zm-281.89 95.667c44.43-2.686 88.777-3.6707 132.94-3.1565-4.86 15.973-9.6073 31.962-14.239 47.966-4.9011-0.0242-9.8033-0.0291-14.707-0.0146l-0.0525-23.665c-5.467 0.0175-10.936 0.0589-16.407 0.12455l0.88748 80.223c5.1702-0.0579 10.341-0.093 15.512-0.10574-2.4434 7.9132-4.8541 15.831-7.2317 23.753-18.045 0.11445-36.079 0.50782-54.094 1.1971-2.6881-7.8053-5.4102-15.604-8.1666-23.395 5.1025-0.21842 10.206-0.41331 15.31-0.58504l-2.6883-80.153c-5.6079 0.19225-11.217 0.41099-16.827 0.65663l1.0199 23.627c-4.9102 0.21425-9.8207 0.44945-14.731 0.7059-5.3791-15.753-10.888-31.479-16.528-47.179zm202.17 17.268c0.32433 8.0803 0.64041 16.161 0.94828 24.241-3.3643-0.16126-6.7296-0.31425-10.096-0.45886l-3.4624 79.386c7.8752 0.34381 15.75 0.73502 23.622 1.1722l1.2889-23.222c7.1154 0.39397 14.228 0.8252 21.338 1.2927 2.2097 16.052 4.3451 32.108 6.4076 48.166-33.757-2.3836-67.535-3.947-101.28-4.5762 3.4628-8.0492 6.97-16.089 10.521-24.12l1.8844-79.409c-3.5007-0.0803-7.0022-0.15123-10.504-0.2126 1.5181-7.917 3.0531-15.833 4.6047-23.747 18.269 0.24529 36.513 0.74587 54.725 1.4871zm148.57 63.466c-8.4136-0.90088-14.25 5.3865-16.799 13.24-4.36 13.435-2.0263 15.368 13.48 16.666 8.3451 0.9694 15.919-4.8831 16.926-13.13 1.0067-8.2458-5.0143-15.775-13.461-16.759-0.0483-6e-3 -0.0967-0.0115-0.14502-0.0169zm-452.79 80.86c-7.9919 1.1764-13.45 8.7731-12.249 16.932 1.2064 8.1938 15.264 14.612 23.349 12.074 9.3764-2.9439 10.84-4.3414 14.85-9.7878 3.847-5.5437-17.627-20.358-25.809-19.237-0.0468 6e-3 -0.0935 0.0126-0.14022 0.0192zm267.49 222.66c-7.1723-0.28149-13.158 6.2719-13.393 14.575-0.23465 8.3063 1.2403 16.166 7.6481 19.474 6.1784 3.1903 17.725-10.134 18.09-18.46 0.36424-8.3011-5.1731-15.308-12.345-15.589z" color="#000000" color-rendering="auto" dominant-baseline="auto" fill="#fff" image-rendering="auto" solid-color="#000000" stop-color="#000000" style="font-feature-settings:normal;font-variant-alternates:normal;font-variant-caps:normal;font-variant-east-asian:normal;font-variant-ligatures:normal;font-variant-numeric:normal;font-variant-position:normal;font-variation-settings:normal;inline-size:0;isolation:auto;mix-blend-mode:normal;shape-margin:0;shape-padding:0;text-decoration-color:#000000;text-decoration-line:none;text-decoration-style:solid;text-indent:0;text-orientation:mixed;text-transform:none;white-space:normal"/>
  </g>
 </g>
</svg>
