<svg id="svg" version="1.1" xmlns="http://www.w3.org/2000/svg" xmlns:xlink="http://www.w3.org/1999/xlink" width="400" height="266.8" viewBox="0, 0, 400,266.8"><g id="svgg"><path id="path0" d="M296.998 4.485 C 296.373 4.690,296.206 5.105,296.202 6.460 C 296.199 7.152,296.047 7.844,295.864 8.000 C 294.647 9.030,294.221 9.340,294.022 9.340 C 293.898 9.340,293.796 9.505,293.796 9.707 C 293.796 9.909,293.629 10.213,293.425 10.382 C 292.853 10.857,292.739 12.032,293.149 13.209 C 293.354 13.796,293.523 14.726,293.525 15.277 C 293.530 16.436,294.132 16.544,297.525 15.993 C 299.546 15.665,299.617 15.620,299.183 14.925 C 298.932 14.523,298.926 14.261,299.160 13.825 C 299.581 13.039,299.503 9.536,299.031 8.037 C 298.818 7.359,298.573 6.383,298.488 5.868 C 298.323 4.878,297.665 4.267,296.998 4.485 M348.232 21.614 C 348.232 21.761,348.063 21.881,347.855 21.881 C 347.648 21.881,346.840 22.302,346.060 22.815 C 345.280 23.329,344.489 23.749,344.302 23.749 C 344.115 23.749,343.963 23.867,343.963 24.011 C 343.963 24.155,343.676 24.345,343.326 24.432 C 342.973 24.521,342.470 24.999,342.198 25.505 C 341.928 26.007,341.614 26.418,341.500 26.418 C 341.387 26.418,341.294 26.655,341.294 26.946 C 341.294 27.288,341.058 27.534,340.627 27.642 C 339.732 27.867,339.715 27.823,341.746 30.515 C 343.294 32.569,343.469 32.912,343.078 33.130 C 342.831 33.269,342.628 33.513,342.628 33.673 C 342.628 33.833,343.049 33.518,343.562 32.974 C 344.076 32.429,344.496 31.872,344.496 31.736 C 344.496 31.599,344.676 31.488,344.897 31.488 C 345.117 31.488,345.297 31.368,345.297 31.221 C 345.297 31.074,345.486 30.954,345.718 30.954 C 346.999 30.954,347.772 29.435,347.641 27.177 L 347.517 25.027 348.408 24.161 C 349.394 23.203,349.642 21.803,348.877 21.510 C 348.308 21.291,348.232 21.303,348.232 21.614 M241.601 22.255 C 241.372 22.852,241.711 24.488,242.090 24.615 C 242.507 24.754,242.490 26.666,242.070 26.926 C 241.884 27.040,241.669 27.952,241.582 28.987 L 241.426 30.844 242.647 32.065 C 243.319 32.736,243.948 33.602,244.044 33.988 C 244.141 34.374,244.328 34.690,244.459 34.690 C 244.589 34.690,244.696 34.876,244.696 35.104 C 244.696 35.479,245.699 37.566,246.036 37.891 C 246.112 37.965,246.353 38.376,246.570 38.805 C 247.329 40.304,247.493 40.560,247.695 40.560 C 247.807 40.560,247.899 40.685,247.899 40.838 C 247.899 41.078,248.840 42.574,249.235 42.962 C 249.310 43.035,249.670 43.545,250.036 44.094 C 250.401 44.644,250.791 45.094,250.901 45.095 C 251.011 45.096,251.101 45.264,251.101 45.468 C 251.101 45.672,251.386 45.911,251.735 45.999 C 252.084 46.086,252.583 46.489,252.845 46.895 C 253.841 48.440,257.817 53.062,260.016 55.231 C 261.277 56.475,262.308 57.637,262.308 57.812 C 262.308 57.988,262.652 58.475,263.073 58.896 C 263.799 59.622,263.848 59.822,264.034 62.786 C 264.141 64.505,264.337 65.979,264.469 66.060 C 265.003 66.390,264.711 68.026,263.976 68.822 C 262.557 70.359,261.508 72.332,261.508 73.462 C 261.508 73.841,261.397 74.220,261.262 74.303 C 261.127 74.386,261.063 75.144,261.119 75.986 C 261.288 78.509,261.766 82.560,261.945 82.989 C 262.317 83.882,262.310 84.840,261.932 84.695 C 261.728 84.617,261.482 84.682,261.385 84.838 C 261.289 84.995,260.766 85.125,260.224 85.128 C 259.683 85.130,259.070 85.239,258.864 85.369 C 258.470 85.619,257.261 85.222,256.912 84.729 C 256.506 84.154,255.792 85.087,254.435 87.963 L 253.044 90.914 254.204 92.355 C 254.842 93.147,256.015 94.485,256.811 95.327 C 257.921 96.503,258.302 97.123,258.448 97.996 C 258.552 98.621,258.713 99.193,258.805 99.266 C 258.897 99.340,259.206 99.857,259.490 100.416 C 260.486 102.373,264.908 106.204,266.170 106.204 C 266.594 106.204,266.510 107.306,266.038 107.939 C 265.928 108.085,265.751 108.626,265.644 109.139 C 265.536 109.653,265.346 110.201,265.221 110.358 C 265.095 110.514,264.913 111.355,264.815 112.226 C 264.717 113.097,264.550 113.929,264.444 114.076 C 263.665 115.150,263.947 116.285,265.065 116.582 C 271.253 118.226,271.217 118.232,272.824 115.225 C 273.349 114.243,274.112 112.862,274.520 112.157 C 274.927 111.451,275.498 110.365,275.789 109.743 C 276.248 108.761,276.430 108.611,277.169 108.609 C 277.637 108.607,278.115 108.456,278.230 108.272 C 278.592 107.697,279.368 105.295,279.378 104.723 C 279.382 104.422,279.497 104.062,279.633 103.923 C 279.768 103.783,280.002 103.069,280.153 102.335 C 280.430 100.982,280.803 99.259,281.266 97.194 C 281.610 95.658,281.589 91.711,281.229 90.358 C 280.531 87.734,279.823 85.505,279.613 85.270 C 279.488 85.131,279.386 84.789,279.386 84.510 C 279.386 84.231,279.215 83.625,279.007 83.162 C 278.798 82.700,278.207 81.061,277.692 79.520 C 276.781 76.787,276.158 75.132,275.636 74.049 C 275.128 72.998,275.300 72.167,276.389 70.400 C 277.603 68.433,279.386 64.757,279.386 64.224 C 279.386 64.036,279.529 63.739,279.704 63.565 C 279.885 63.384,280.072 62.179,280.138 60.776 C 280.202 59.417,280.347 58.245,280.461 58.172 C 280.704 58.015,281.913 56.271,285.457 50.967 C 287.973 47.201,290.527 42.544,291.503 39.944 C 291.768 39.238,292.391 38.218,292.889 37.676 C 294.015 36.450,294.140 34.612,293.226 32.730 C 292.684 31.615,292.677 31.512,293.092 30.680 C 293.638 29.587,293.653 28.583,293.128 28.382 C 292.463 28.127,291.441 28.518,291.257 29.099 C 291.162 29.399,290.583 30.176,289.971 30.826 C 289.360 31.476,288.711 32.183,288.530 32.398 C 288.166 32.832,287.566 35.220,287.770 35.424 C 287.841 35.495,287.755 35.705,287.579 35.890 C 287.403 36.074,287.078 36.492,286.858 36.817 C 286.497 37.350,285.963 38.043,285.294 38.846 C 285.163 39.004,284.972 39.395,284.871 39.714 C 284.770 40.033,284.585 40.294,284.460 40.294 C 284.334 40.294,284.153 40.654,284.056 41.094 C 283.959 41.534,283.797 41.895,283.696 41.895 C 283.594 41.895,283.214 42.465,282.850 43.162 C 282.486 43.859,282.098 44.470,281.988 44.519 C 281.878 44.567,281.788 44.778,281.788 44.986 C 281.788 45.193,281.308 45.844,280.720 46.431 L 279.653 47.498 279.068 46.914 C 278.673 46.519,278.502 46.053,278.541 45.479 C 278.599 44.613,278.184 44.310,276.927 44.300 C 276.675 44.298,276.101 43.936,275.650 43.496 C 274.619 42.487,274.664 42.481,273.309 43.797 C 272.029 45.039,271.990 45.158,271.829 48.323 C 271.713 50.607,271.493 51.351,270.700 52.144 C 269.516 53.328,261.208 47.188,260.443 44.563 C 260.293 44.049,259.781 43.193,259.305 42.660 C 258.828 42.127,257.964 41.128,257.384 40.440 C 256.804 39.751,256.084 38.911,255.783 38.573 C 255.483 38.234,254.937 37.563,254.570 37.081 C 254.203 36.599,253.542 35.826,253.102 35.364 C 252.662 34.903,251.821 33.934,251.234 33.211 C 250.647 32.489,249.765 31.483,249.274 30.977 C 248.301 29.972,247.899 29.141,247.899 28.135 C 247.899 27.777,247.792 27.485,247.661 27.485 C 247.530 27.485,247.352 27.215,247.266 26.885 C 246.813 25.150,242.000 21.216,241.601 22.255 M309.540 27.763 C 309.540 28.018,309.381 28.253,308.591 29.162 C 308.436 29.340,308.227 29.704,308.126 29.970 C 308.025 30.236,307.821 30.379,307.674 30.288 C 307.526 30.197,307.405 30.234,307.405 30.371 C 307.405 30.508,307.045 30.692,306.604 30.781 C 305.364 31.029,305.609 32.822,306.883 32.822 C 307.125 32.822,307.540 33.062,307.805 33.356 C 309.548 35.281,312.446 31.256,311.186 28.662 C 310.655 27.568,309.540 26.960,309.540 27.763 M311.732 33.031 C 311.451 33.312,311.140 34.055,311.039 34.684 C 310.800 36.182,309.595 37.358,308.300 37.358 C 307.043 37.358,306.088 38.232,306.545 38.964 C 306.725 39.251,306.871 39.846,306.871 40.287 C 306.871 41.705,307.664 42.315,308.251 41.350 C 308.852 40.361,309.270 40.339,309.282 41.294 L 309.291 42.028 309.791 41.428 C 310.471 40.613,310.607 40.668,310.607 41.761 C 310.607 42.886,310.731 42.898,313.051 42.012 L 314.840 41.328 314.829 39.410 L 314.818 37.492 313.780 36.760 C 312.668 35.977,312.446 35.156,313.073 34.152 C 313.721 33.114,312.592 32.171,311.732 33.031 M163.976 91.464 C 163.536 91.691,163.135 91.979,163.087 92.103 C 163.038 92.227,162.827 92.328,162.620 92.328 C 162.412 92.328,162.241 92.508,162.241 92.728 C 162.241 92.949,162.131 93.129,161.996 93.129 C 161.116 93.129,160.605 94.997,160.593 98.259 C 160.578 102.347,160.561 102.201,161.041 102.201 C 161.261 102.201,161.441 102.372,161.441 102.580 C 161.441 102.788,161.507 103.130,161.587 103.340 C 161.809 103.918,157.810 107.805,156.995 107.805 C 156.781 107.805,156.680 107.925,156.771 108.072 C 156.862 108.219,156.795 108.339,156.622 108.339 C 156.037 108.339,152.635 111.434,152.635 111.967 C 152.635 112.141,152.455 112.354,152.235 112.438 C 152.015 112.523,151.835 112.784,151.835 113.019 C 151.835 113.255,151.654 113.627,151.434 113.847 C 151.214 114.067,151.034 114.659,151.034 115.162 C 151.034 115.666,150.933 116.077,150.810 116.077 C 150.511 116.077,150.501 119.782,150.800 119.967 C 150.929 120.046,151.034 120.335,151.034 120.609 C 151.034 120.883,151.461 121.666,151.984 122.351 C 153.061 123.763,153.009 123.983,151.124 125.943 C 150.634 126.452,150.233 127.023,150.233 127.210 C 150.233 127.398,150.130 127.552,150.005 127.552 C 149.879 127.552,149.316 128.302,148.755 129.219 C 148.194 130.137,147.660 130.947,147.569 131.021 C 147.477 131.094,147.141 131.664,146.822 132.287 C 146.502 132.911,145.719 133.957,145.082 134.612 C 144.445 135.267,143.693 136.259,143.410 136.814 C 143.127 137.370,142.790 137.901,142.662 137.995 C 142.202 138.329,142.323 142.090,142.809 142.579 C 143.289 143.060,144.096 143.189,144.096 142.783 C 144.096 142.648,144.456 142.458,144.897 142.362 C 145.337 142.265,145.697 142.075,145.697 141.940 C 145.697 141.805,145.868 141.694,146.077 141.694 C 146.570 141.694,148.099 140.165,148.099 139.673 C 148.099 139.464,148.213 139.293,148.353 139.293 C 148.494 139.293,148.687 138.873,148.783 138.359 C 148.880 137.845,149.065 137.425,149.196 137.425 C 149.326 137.425,149.433 137.235,149.433 137.004 C 149.433 136.610,151.472 134.490,151.850 134.490 C 151.946 134.490,152.323 134.219,152.690 133.889 C 153.056 133.559,154.004 132.752,154.797 132.097 C 156.478 130.705,159.192 128.001,162.843 124.078 C 167.281 119.310,168.109 118.357,168.110 118.012 C 168.111 117.829,168.232 117.678,168.379 117.678 C 168.784 117.678,168.696 116.840,168.197 115.944 C 166.665 113.191,168.214 103.202,169.944 104.682 C 171.567 106.071,174.437 103.781,173.876 101.545 C 173.792 101.210,173.916 100.548,174.152 100.074 C 174.855 98.665,174.180 95.956,172.774 94.550 C 172.565 94.341,172.301 94.010,172.187 93.815 C 172.074 93.620,171.536 93.161,170.992 92.794 C 170.448 92.427,170.074 92.057,170.160 91.970 C 170.247 91.883,169.822 91.733,169.215 91.636 C 168.608 91.539,168.112 91.355,168.112 91.227 C 168.112 90.835,164.830 91.023,163.976 91.464 M177.071 99.657 C 176.613 102.096,178.018 104.295,182.340 107.905 C 183.194 108.619,183.998 109.478,184.126 109.815 C 184.343 110.385,188.728 113.499,190.360 114.243 C 190.923 114.499,191.063 114.750,191.070 115.520 C 191.076 116.047,191.383 117.799,191.754 119.413 C 192.125 121.027,192.545 122.889,192.689 123.549 C 192.833 124.209,193.050 124.934,193.172 125.159 C 193.294 125.384,193.479 125.953,193.582 126.423 C 193.686 126.894,193.881 127.347,194.017 127.431 C 194.340 127.631,194.336 129.153,194.012 129.153 C 193.875 129.153,193.685 129.723,193.592 130.420 C 193.499 131.117,193.355 131.868,193.273 132.088 C 193.030 132.739,192.985 134.069,193.197 134.356 C 193.304 134.503,193.470 135.054,193.565 135.580 C 193.733 136.516,194.987 138.225,195.505 138.225 C 195.782 138.225,197.113 136.801,197.999 135.556 C 198.464 134.904,198.532 134.378,198.532 131.462 C 198.532 129.622,198.647 128.046,198.787 127.960 C 199.421 127.568,198.776 116.523,198.024 114.877 C 197.890 114.583,197.507 113.742,197.174 113.009 C 196.841 112.275,196.498 111.614,196.414 111.541 C 196.329 111.468,195.960 110.958,195.595 110.409 C 195.229 109.859,194.840 109.409,194.730 109.408 C 194.620 109.407,194.530 109.270,194.530 109.103 C 194.530 108.318,187.645 102.040,185.499 100.867 C 184.827 100.500,184.114 100.050,183.914 99.867 C 183.714 99.683,183.329 99.533,183.059 99.533 C 182.788 99.533,182.521 99.398,182.466 99.232 C 182.405 99.049,181.359 98.878,179.811 98.797 L 177.257 98.664 177.071 99.657 M291.127 117.486 C 291.127 118.760,292.598 119.894,294.069 119.752 C 295.752 119.591,296.197 119.206,296.197 117.913 L 296.197 116.878 293.662 116.878 C 291.202 116.878,291.127 116.896,291.127 117.486 M307.672 119.028 C 307.672 120.093,307.681 120.104,308.265 119.695 C 308.612 119.452,309.418 119.280,310.207 119.280 C 310.996 119.280,311.802 119.452,312.149 119.695 C 312.728 120.100,312.742 120.088,312.742 119.183 C 312.742 118.674,312.892 118.196,313.075 118.122 C 313.259 118.048,312.118 117.978,310.540 117.966 L 307.672 117.945 307.672 119.028 M283.389 123.149 C 283.389 123.494,284.323 123.549,290.193 123.549 C 296.064 123.549,296.998 123.494,296.998 123.149 C 296.998 122.803,296.064 122.748,290.193 122.748 C 284.323 122.748,283.389 122.803,283.389 123.149 M306.671 124.416 C 306.752 124.660,307.704 124.750,310.207 124.750 C 312.709 124.750,313.661 124.660,313.742 124.416 C 313.828 124.160,313.006 124.083,310.207 124.083 C 307.408 124.083,306.586 124.160,306.671 124.416 M118.239 135.925 C 117.931 136.296,116.495 136.736,115.877 136.648 C 115.694 136.622,115.544 136.739,115.544 136.908 C 115.544 137.077,115.372 137.149,115.161 137.068 C 114.171 136.688,112.342 139.145,112.342 140.854 C 112.342 141.732,112.270 142.671,112.183 142.940 C 112.051 143.347,112.073 143.362,112.312 143.029 C 112.552 142.696,112.601 142.730,112.604 143.229 C 112.607 143.559,112.720 143.829,112.856 143.829 C 112.992 143.829,113.057 144.193,113.001 144.638 C 112.943 145.092,113.007 145.380,113.146 145.295 C 113.696 144.955,113.726 146.502,113.187 147.416 L 112.641 148.340 113.225 148.503 C 113.546 148.593,114.049 148.764,114.343 148.884 C 116.622 149.816,117.242 150.122,117.757 150.574 C 118.081 150.857,118.531 151.227,118.758 151.395 C 120.935 153.012,121.404 155.074,121.456 163.255 C 121.485 167.713,121.560 169.242,121.690 167.979 C 121.795 166.951,121.888 164.610,121.896 162.775 C 121.909 159.620,121.826 158.504,121.185 153.239 C 120.870 150.650,121.243 149.433,122.352 149.433 C 122.700 149.433,123.058 149.313,123.149 149.166 C 123.239 149.019,123.543 148.899,123.822 148.899 C 124.102 148.899,124.466 148.646,124.631 148.337 C 124.963 147.719,124.745 145.964,124.337 145.964 C 123.923 145.964,124.047 144.967,124.483 144.800 C 124.966 144.615,125.034 143.029,124.558 143.029 C 124.051 143.029,123.015 141.678,123.015 141.016 C 123.015 140.689,122.836 140.077,122.617 139.657 C 122.397 139.237,122.217 138.511,122.216 138.044 C 122.216 137.578,122.035 137.016,121.815 136.796 C 121.594 136.576,121.414 136.280,121.414 136.138 C 121.414 135.496,118.744 135.317,118.239 135.925 M138.552 147.862 C 137.378 148.511,137.119 148.573,136.989 148.236 C 136.834 147.832,135.557 147.652,135.557 148.035 C 135.557 148.146,135.287 148.543,134.957 148.915 C 133.977 150.021,133.689 150.695,133.685 151.898 C 133.683 152.523,133.574 153.204,133.444 153.409 C 133.271 153.684,133.608 154.125,134.707 155.063 C 136.995 157.016,137.375 157.167,137.983 156.365 C 138.258 156.001,138.845 155.331,139.288 154.875 C 139.731 154.418,140.093 153.918,140.093 153.763 C 140.093 153.607,140.236 153.432,140.411 153.374 C 140.598 153.312,140.776 152.535,140.842 151.484 C 140.905 150.503,141.049 149.700,141.162 149.700 C 141.452 149.700,141.740 147.993,141.538 147.467 C 141.290 146.822,140.165 146.971,138.552 147.862 M90.727 174.767 C 90.727 174.939,90.367 175.463,89.928 175.932 C 89.488 176.401,89.128 176.935,89.127 177.118 C 89.127 177.302,89.006 177.452,88.859 177.452 C 88.705 177.452,88.592 178.297,88.592 179.453 C 88.592 180.609,88.705 181.454,88.859 181.454 C 89.006 181.454,89.126 181.694,89.126 181.986 C 89.126 187.484,94.881 183.273,95.689 177.185 C 95.872 175.804,95.634 175.580,93.396 175.033 C 91.162 174.487,90.727 174.444,90.727 174.767 M102.050 178.185 C 101.948 178.883,101.701 179.777,101.500 180.174 C 101.299 180.570,101.134 181.267,101.134 181.724 C 101.134 182.180,101.029 182.488,100.901 182.409 C 100.623 182.237,100.291 188.143,100.292 193.262 C 100.292 196.256,100.222 196.931,99.912 196.931 C 99.704 196.931,99.533 197.038,99.533 197.169 C 99.533 197.300,99.263 197.475,98.933 197.559 C 97.852 197.832,91.018 204.345,90.986 205.133 C 90.981 205.245,90.561 205.751,90.052 206.258 C 89.543 206.765,89.126 207.322,89.126 207.497 C 89.126 207.672,88.967 207.876,88.772 207.951 C 88.005 208.245,87.438 210.476,87.801 211.772 C 88.597 214.617,93.368 214.863,96.271 212.208 C 96.472 212.025,96.807 211.875,97.017 211.875 C 97.227 211.875,97.398 211.755,97.398 211.608 C 97.398 211.461,97.505 211.341,97.635 211.341 C 98.011 211.341,100.867 209.421,100.867 209.168 C 100.867 209.042,101.022 208.939,101.210 208.939 C 101.612 208.939,102.826 207.975,104.654 206.204 C 105.374 205.507,106.067 204.937,106.194 204.937 C 106.322 204.937,106.825 204.426,107.313 203.803 C 107.801 203.179,108.473 202.368,108.806 202.001 C 109.139 201.634,109.487 201.094,109.579 200.801 C 109.670 200.507,109.829 200.207,109.933 200.133 C 110.109 200.008,110.368 198.990,111.068 195.664 C 111.231 194.893,111.450 194.263,111.555 194.263 C 111.660 194.263,111.829 193.602,111.930 192.795 C 112.031 191.988,112.225 191.328,112.361 191.328 C 112.497 191.328,112.610 191.057,112.612 190.727 C 112.623 188.895,113.669 188.919,115.544 190.794 C 115.781 191.031,116.725 191.595,117.545 191.989 C 117.985 192.201,118.225 192.381,118.079 192.389 C 117.932 192.397,117.965 192.500,118.153 192.619 C 118.405 192.780,118.517 194.213,118.586 198.152 C 118.681 203.566,118.834 205.627,119.318 208.005 C 119.467 208.739,119.655 209.820,119.735 210.407 C 119.815 210.994,120.095 211.747,120.356 212.080 C 120.618 212.413,120.914 213.283,121.015 214.014 C 121.115 214.745,121.306 215.410,121.439 215.492 C 121.572 215.575,121.681 216.061,121.681 216.574 C 121.681 218.017,125.471 219.052,125.912 217.729 C 125.970 217.554,126.236 217.193,126.503 216.926 C 126.770 216.659,127.071 215.984,127.171 215.425 C 127.272 214.867,127.468 214.266,127.607 214.091 C 127.868 213.761,128.228 210.666,128.594 205.604 C 128.896 201.434,128.815 188.951,128.486 188.716 C 128.339 188.611,127.979 188.045,127.685 187.458 C 126.738 185.565,124.612 182.900,121.584 179.812 C 120.683 178.893,120.104 179.289,120.089 180.837 C 120.049 184.828,113.288 183.916,105.756 178.903 C 102.230 176.557,102.285 176.567,102.050 178.185 M54.010 189.031 C 53.836 189.485,54.088 190.828,54.391 191.058 C 54.489 191.133,54.761 191.614,54.995 192.128 C 55.229 192.642,55.799 193.843,56.262 194.797 C 57.276 196.883,57.276 196.885,56.438 197.790 C 56.071 198.185,55.771 198.628,55.771 198.774 C 55.771 198.920,55.618 199.136,55.431 199.253 C 55.244 199.370,54.897 199.767,54.661 200.133 C 54.424 200.500,54.007 201.060,53.733 201.376 C 53.459 201.693,53.055 202.218,52.835 202.543 C 52.615 202.868,52.265 203.310,52.058 203.526 C 51.614 203.987,52.130 205.060,53.420 206.358 C 53.832 206.773,54.169 207.194,54.169 207.293 C 54.169 207.392,54.711 208.073,55.374 208.806 C 57.170 210.796,57.205 210.846,56.925 211.036 C 54.713 212.539,54.266 213.307,54.718 214.832 C 55.432 217.240,56.609 223.814,56.962 227.360 C 57.185 229.614,57.628 230.396,57.636 228.552 C 57.642 227.160,58.506 220.891,58.978 218.813 C 60.105 213.847,60.384 212.818,61.654 208.939 C 63.720 202.633,68.912 191.838,69.565 192.491 C 69.647 192.574,69.563 193.620,69.376 194.817 C 69.157 196.225,69.101 197.964,69.216 199.749 C 69.521 204.467,68.895 206.845,66.724 209.206 C 64.940 211.146,64.705 211.826,64.804 214.743 C 64.860 216.355,64.997 216.247,67.516 212.621 C 68.760 210.830,70.949 208.133,72.381 206.628 C 75.364 203.491,75.238 203.802,74.113 202.361 C 73.638 201.752,73.009 200.916,72.715 200.504 C 72.422 200.092,71.668 199.118,71.041 198.339 L 69.901 196.924 70.417 195.927 C 74.320 188.381,74.301 188.300,68.755 189.071 C 67.932 189.185,67.355 189.143,67.167 188.955 C 66.772 188.560,62.175 188.555,62.175 188.949 C 62.175 189.255,57.112 189.134,55.173 188.782 C 54.388 188.640,54.140 188.693,54.010 189.031 M350.140 202.926 C 349.649 203.273,348.448 203.756,347.472 203.998 C 346.496 204.241,345.272 204.548,344.752 204.682 C 343.188 205.084,335.742 205.265,332.889 204.971 C 328.504 204.519,326.831 204.077,323.871 202.589 C 323.655 202.481,323.817 203.471,324.213 204.670 C 324.333 205.037,324.944 207.469,325.569 210.075 L 326.706 214.813 325.840 217.680 C 323.584 225.156,323.125 228.518,324.151 230.045 C 324.860 231.099,326.106 232.155,326.641 232.155 C 326.904 232.155,327.189 232.266,327.273 232.403 C 327.358 232.539,328.115 232.735,328.957 232.837 C 329.798 232.939,330.607 233.094,330.754 233.181 C 331.787 233.798,340.505 233.762,344.096 233.126 C 344.390 233.074,345.230 232.939,345.964 232.826 C 346.698 232.713,347.451 232.499,347.638 232.350 C 347.825 232.201,348.044 232.144,348.124 232.225 C 348.204 232.305,348.583 232.208,348.966 232.009 C 349.348 231.811,349.790 231.722,349.948 231.811 C 350.105 231.900,350.144 231.875,350.035 231.755 C 349.926 231.634,350.060 231.379,350.334 231.187 C 351.571 230.320,352.072 227.367,351.413 224.817 C 350.733 222.184,350.644 221.776,350.586 221.003 C 350.551 220.553,350.428 220.243,350.312 220.314 C 350.195 220.386,350.099 220.168,350.098 219.829 C 350.098 219.490,349.934 218.901,349.736 218.521 C 349.537 218.140,349.289 217.375,349.185 216.820 C 349.081 216.265,348.860 215.594,348.694 215.327 C 348.468 214.966,348.469 214.686,348.697 214.226 C 348.865 213.887,349.084 212.949,349.183 212.141 C 349.283 211.334,349.447 210.614,349.549 210.540 C 349.651 210.467,349.866 209.746,350.028 208.939 C 350.462 206.774,350.879 205.140,351.151 204.536 C 352.058 202.523,351.644 201.863,350.140 202.926 M72.382 213.404 C 72.191 213.470,72.048 213.969,72.048 214.565 C 72.048 215.607,72.052 215.610,73.115 215.610 C 74.005 215.610,74.183 215.521,74.183 215.077 C 74.183 214.783,74.071 214.543,73.934 214.543 C 73.797 214.543,73.612 214.314,73.524 214.034 C 73.345 213.473,72.895 213.225,72.382 213.404 M45.256 232.913 C 45.166 233.059,45.273 233.360,45.495 233.582 C 45.716 233.803,45.897 234.058,45.897 234.148 C 45.897 234.379,47.057 236.006,47.298 236.113 C 47.408 236.162,47.498 236.317,47.498 236.457 C 47.498 236.757,48.607 238.385,48.899 238.515 C 49.009 238.563,49.099 238.734,49.099 238.894 C 49.099 239.053,49.293 239.398,49.530 239.660 C 49.927 240.099,49.927 240.171,49.530 240.568 C 49.293 240.805,49.099 241.170,49.099 241.380 C 49.099 241.590,48.989 241.761,48.854 241.761 C 48.719 241.761,48.529 242.121,48.432 242.562 C 48.336 243.002,48.175 243.362,48.076 243.362 C 47.867 243.362,46.698 245.828,46.698 246.269 C 46.698 246.431,46.587 246.564,46.452 246.564 C 46.317 246.564,46.127 246.925,46.031 247.365 C 45.934 247.805,45.750 248.165,45.621 248.165 C 45.493 248.165,45.309 248.586,45.213 249.099 C 45.116 249.613,44.931 250.033,44.800 250.033 C 44.670 250.033,44.563 250.694,44.563 251.501 C 44.563 252.308,44.683 252.969,44.830 252.969 C 44.977 252.969,45.097 253.149,45.097 253.369 C 45.097 253.589,45.237 253.769,45.408 253.769 C 45.579 253.769,45.636 253.853,45.534 253.955 C 43.965 255.524,67.073 255.717,69.067 254.152 C 69.239 254.017,69.445 252.549,69.446 251.446 C 69.448 250.560,68.904 249.233,66.858 245.131 L 64.269 239.938 66.424 236.722 C 67.609 234.952,68.579 233.445,68.579 233.373 C 68.579 233.300,64.226 233.185,58.906 233.115 C 53.586 233.046,48.375 232.913,47.327 232.818 C 46.157 232.713,45.357 232.750,45.256 232.913 " stroke="none" fill="#ed9744" fill-rule="evenodd"></path><path id="path1" d="M297.265 16.024 C 296.604 16.142,295.494 16.247,294.797 16.258 C 294.083 16.269,293.529 16.403,293.529 16.564 C 293.529 16.761,294.306 16.796,295.997 16.676 C 298.772 16.478,299.400 16.352,299.400 15.993 C 299.400 15.712,298.988 15.718,297.265 16.024 M339.693 28.506 C 339.693 28.627,340.356 29.602,341.167 30.672 L 342.641 32.618 341.651 33.854 C 341.062 34.588,340.931 34.846,341.328 34.490 C 341.695 34.159,342.078 33.889,342.179 33.889 C 342.279 33.889,342.608 33.643,342.909 33.342 L 343.457 32.794 341.775 30.541 C 340.221 28.459,339.693 27.943,339.693 28.506 M306.338 40.052 C 306.338 41.470,307.485 43.182,308.096 42.676 C 308.303 42.504,308.472 42.198,308.472 41.995 C 308.472 41.536,308.915 41.512,309.096 41.961 C 309.170 42.145,309.240 41.905,309.252 41.428 C 309.278 40.348,308.879 40.317,308.251 41.350 C 307.644 42.348,306.871 41.688,306.871 40.173 C 306.871 39.669,306.751 39.183,306.604 39.093 C 306.443 38.993,306.338 39.371,306.338 40.052 M309.929 41.294 C 309.698 41.828,309.762 43.001,310.038 43.290 C 310.399 43.670,314.877 42.088,314.877 41.580 C 314.877 41.286,314.940 41.271,313.009 42.028 C 310.767 42.907,310.607 42.889,310.607 41.761 C 310.607 40.764,310.261 40.526,309.929 41.294 M176.651 100.482 C 176.651 103.043,177.703 104.688,181.171 107.544 C 181.969 108.201,182.960 109.065,183.372 109.464 C 183.852 109.927,184.123 110.053,184.123 109.813 C 184.123 109.607,183.372 108.800,182.455 108.021 C 178.049 104.279,176.564 102.021,177.050 99.807 C 177.162 99.297,177.121 98.999,176.939 98.999 C 176.768 98.999,176.651 99.599,176.651 100.482 M173.908 100.521 C 173.793 100.698,173.774 101.138,173.864 101.498 C 174.424 103.728,171.279 106.302,169.951 104.702 C 169.687 104.383,169.578 104.411,169.248 104.881 C 169.034 105.188,168.928 105.508,169.013 105.592 C 169.097 105.677,169.241 105.553,169.333 105.315 C 169.478 104.935,169.545 104.930,169.892 105.277 C 170.823 106.209,173.002 105.475,173.821 103.953 C 174.282 103.098,174.365 99.817,173.908 100.521 M168.186 106.805 C 167.523 108.018,167.495 114.410,168.146 115.811 C 168.385 116.324,168.656 116.925,168.749 117.145 C 168.841 117.365,168.864 117.017,168.801 116.372 C 168.738 115.728,168.527 115.102,168.332 114.981 C 167.903 114.716,167.881 108.281,168.308 107.742 C 168.567 107.414,168.928 105.937,168.749 105.937 C 168.700 105.937,168.446 106.328,168.186 106.805 M290.594 117.367 C 290.594 117.801,290.751 118.215,290.944 118.289 C 291.197 118.387,291.262 118.209,291.180 117.648 C 291.025 116.595,290.594 116.389,290.594 117.367 M296.197 117.845 C 296.197 118.674,296.254 118.764,296.598 118.479 C 296.818 118.296,296.998 117.861,296.998 117.512 C 296.998 117.126,296.841 116.878,296.598 116.878 C 296.316 116.878,296.197 117.163,296.197 117.845 M307.138 118.864 C 307.138 119.369,307.258 119.856,307.405 119.947 C 307.566 120.046,307.672 119.683,307.672 119.028 C 307.672 118.433,307.552 117.945,307.405 117.945 C 307.258 117.945,307.138 118.358,307.138 118.864 M312.746 119.213 C 312.749 119.957,312.816 120.111,313.009 119.813 C 313.349 119.287,313.349 118.212,313.009 118.212 C 312.862 118.212,312.744 118.662,312.746 119.213 M296.921 123.015 C 297.058 123.539,296.929 123.549,290.225 123.549 C 284.326 123.549,283.389 123.494,283.389 123.149 C 283.389 122.929,283.269 122.748,283.122 122.748 C 282.818 122.748,282.783 123.050,283.017 123.661 C 283.159 124.031,284.043 124.083,290.189 124.083 C 297.543 124.083,298.127 123.990,297.703 122.885 C 297.464 122.261,296.754 122.379,296.921 123.015 M306.231 124.039 C 306.124 124.213,306.112 124.593,306.205 124.886 C 306.471 125.726,313.949 125.705,314.216 124.863 C 314.443 124.147,314.114 123.814,313.776 124.419 C 313.332 125.211,306.937 125.108,306.640 124.304 C 306.496 123.917,306.361 123.829,306.231 124.039 M331.070 129.326 C 330.969 129.427,328.755 129.669,326.150 129.865 C 321.751 130.195,318.846 130.417,305.804 131.421 C 303.089 131.630,298.466 131.990,295.530 132.221 C 292.595 132.453,287.912 132.813,285.123 133.022 C 276.811 133.645,269.780 134.192,267.578 134.386 L 265.510 134.568 265.510 186.014 C 265.510 214.309,265.600 237.509,265.710 237.570 C 265.900 237.673,266.821 237.603,273.516 236.977 C 275.057 236.832,276.888 236.690,277.585 236.660 C 278.282 236.631,278.853 236.518,278.853 236.410 C 278.853 236.302,280.744 236.127,283.055 236.021 C 285.367 235.916,287.396 235.719,287.564 235.584 C 287.732 235.449,287.972 235.366,288.097 235.399 C 288.223 235.433,289.947 235.354,291.928 235.224 C 293.909 235.095,295.738 234.996,295.991 235.004 C 296.245 235.013,296.399 234.933,296.334 234.828 C 296.210 234.627,300.304 234.293,302.920 234.291 C 303.755 234.290,304.504 234.183,304.584 234.053 C 304.665 233.923,306.443 233.729,308.536 233.622 C 310.629 233.516,312.566 233.310,312.841 233.165 C 313.211 232.970,313.289 232.985,313.142 233.222 C 312.995 233.460,313.073 233.474,313.443 233.278 C 313.920 233.025,320.853 232.506,320.906 232.719 C 320.920 232.776,321.104 232.679,321.315 232.504 C 321.525 232.329,322.565 232.161,323.624 232.130 C 325.825 232.066,325.875 232.000,324.657 230.781 C 322.835 228.958,323.103 225.824,325.809 217.312 L 326.668 214.610 325.577 210.107 C 324.976 207.630,324.374 205.243,324.238 204.803 C 323.110 201.148,323.212 200.520,325.088 199.564 C 325.675 199.264,326.067 198.895,325.988 198.716 C 324.916 196.299,324.495 194.815,324.236 192.553 C 323.874 189.383,323.455 188.412,321.895 187.134 C 320.373 185.887,319.991 185.111,319.676 182.626 C 319.396 180.420,318.083 177.322,315.953 173.849 C 315.324 172.822,315.034 172.166,315.309 172.392 C 317.228 173.966,320.363 176.847,322.232 178.754 L 324.440 181.007 324.885 179.963 C 326.210 176.857,325.653 174.666,323.128 173.057 C 319.854 170.971,318.939 169.040,318.211 162.676 C 318.113 161.814,317.868 160.644,317.667 160.074 C 317.214 158.792,317.396 158.785,319.041 160.021 C 322.767 162.824,325.925 166.223,327.734 169.380 C 328.679 171.029,328.801 171.063,329.531 169.882 C 330.293 168.649,330.232 167.308,329.286 164.510 C 328.315 161.637,328.248 159.693,329.048 157.557 C 329.357 156.730,329.709 156.156,329.830 156.279 C 330.065 156.520,330.840 158.526,331.070 159.488 C 331.147 159.809,331.378 160.136,331.584 160.215 C 331.904 160.337,331.949 158.075,331.890 144.845 C 331.824 129.917,331.756 128.639,331.070 129.326 M112.608 148.554 C 112.608 148.678,113.510 149.114,114.612 149.524 C 118.102 150.821,120.139 152.891,120.629 155.634 C 121.050 157.997,121.242 167.221,120.923 169.782 C 120.763 171.067,120.729 172.380,120.847 172.698 C 121.503 174.472,121.669 157.640,121.020 155.149 C 120.644 153.707,119.650 152.058,118.758 151.395 C 118.531 151.227,118.081 150.857,117.757 150.574 C 117.242 150.122,116.622 149.816,114.343 148.884 C 113.322 148.467,112.608 148.331,112.608 148.554 M133.050 154.081 C 133.277 154.670,136.880 157.477,137.176 157.294 C 137.318 157.206,136.724 156.613,135.858 155.975 C 134.991 155.336,134.202 154.685,134.104 154.527 C 133.787 154.014,132.877 153.629,133.050 154.081 M151.630 173.983 C 151.630 174.496,151.685 174.706,151.752 174.450 C 151.819 174.193,151.819 173.773,151.752 173.516 C 151.685 173.259,151.630 173.469,151.630 173.983 M90.994 174.191 C 90.994 174.389,92.310 174.828,94.063 175.214 C 94.503 175.311,95.016 175.511,95.203 175.659 C 95.390 175.806,95.612 175.857,95.697 175.773 C 95.990 175.480,95.520 175.090,94.660 174.913 C 94.185 174.815,93.281 174.565,92.652 174.359 C 91.350 173.930,90.994 173.894,90.994 174.191 M151.630 177.985 C 151.630 178.499,151.685 178.709,151.752 178.452 C 151.819 178.195,151.819 177.775,151.752 177.518 C 151.685 177.262,151.630 177.472,151.630 177.985 M238.426 179.320 C 238.335 179.466,237.673 179.586,236.955 179.586 C 236.237 179.586,233.632 179.761,231.167 179.973 C 228.702 180.186,224.103 180.550,220.947 180.783 C 217.792 181.015,213.889 181.320,212.275 181.461 C 210.660 181.602,207.538 181.838,205.337 181.986 C 203.135 182.134,200.794 182.318,200.133 182.394 C 199.473 182.470,197.252 182.656,195.197 182.806 C 190.936 183.117,183.509 183.676,177.452 184.140 C 175.177 184.314,173.165 184.576,172.982 184.722 C 172.718 184.933,172.648 191.946,172.648 218.178 L 172.648 251.368 174.183 251.363 C 175.027 251.360,176.798 251.230,178.119 251.074 C 179.440 250.919,182.322 250.626,184.523 250.425 C 186.724 250.224,188.946 250.002,189.460 249.932 C 190.285 249.820,196.035 249.425,197.265 249.396 C 197.522 249.390,197.732 249.313,197.732 249.226 C 197.732 249.138,198.302 249.042,198.999 249.014 C 202.520 248.869,205.006 248.586,205.513 248.273 C 205.711 248.150,205.747 248.201,205.613 248.418 C 205.455 248.672,205.526 248.689,205.905 248.486 C 206.180 248.340,208.025 248.133,210.007 248.026 C 211.988 247.920,213.849 247.773,214.143 247.701 C 214.841 247.529,218.748 247.166,220.947 247.068 C 221.901 247.026,222.802 246.908,222.949 246.806 C 223.153 246.663,227.610 246.316,230.475 246.219 C 230.652 246.213,230.734 246.106,230.656 245.981 C 230.579 245.855,230.854 245.772,231.268 245.796 C 233.214 245.910,238.689 245.405,239.013 245.082 C 239.559 244.535,239.522 179.053,238.975 179.053 C 238.764 179.053,238.516 179.173,238.426 179.320 M151.630 181.988 C 151.630 182.502,151.685 182.712,151.752 182.455 C 151.819 182.198,151.819 181.778,151.752 181.521 C 151.685 181.264,151.630 181.474,151.630 181.988 M151.630 185.991 C 151.630 186.504,151.685 186.714,151.752 186.458 C 151.819 186.201,151.819 185.781,151.752 185.524 C 151.685 185.267,151.630 185.477,151.630 185.991 M151.630 189.993 C 151.630 190.507,151.685 190.717,151.752 190.460 C 151.819 190.203,151.819 189.783,151.752 189.526 C 151.685 189.270,151.630 189.480,151.630 189.993 M151.630 193.996 C 151.630 194.510,151.685 194.720,151.752 194.463 C 151.819 194.206,151.819 193.786,151.752 193.529 C 151.685 193.272,151.630 193.482,151.630 193.996 M151.630 197.999 C 151.630 198.512,151.685 198.722,151.752 198.466 C 151.819 198.209,151.819 197.789,151.752 197.532 C 151.685 197.275,151.630 197.485,151.630 197.999 M151.630 202.001 C 151.630 202.515,151.685 202.725,151.752 202.468 C 151.819 202.211,151.819 201.791,151.752 201.534 C 151.685 201.278,151.630 201.488,151.630 202.001 M151.630 206.004 C 151.630 206.518,151.685 206.728,151.752 206.471 C 151.819 206.214,151.819 205.794,151.752 205.537 C 151.685 205.280,151.630 205.490,151.630 206.004 M82.830 209.553 C 82.629 210.185,82.939 211.886,83.346 212.393 C 83.595 212.703,83.578 212.734,83.256 212.554 C 82.930 212.372,82.918 212.397,83.189 212.689 C 83.372 212.887,83.522 213.260,83.522 213.519 C 83.522 213.777,83.763 214.213,84.057 214.487 C 84.483 214.884,85.764 218.229,87.171 222.615 C 87.253 222.872,87.559 223.082,87.852 223.082 C 88.216 223.082,88.334 222.955,88.227 222.678 C 87.316 220.302,84.056 210.085,84.056 209.604 C 84.056 208.824,83.074 208.784,82.830 209.553 M151.630 210.007 C 151.630 210.520,151.685 210.730,151.752 210.474 C 151.819 210.217,151.819 209.797,151.752 209.540 C 151.685 209.283,151.630 209.493,151.630 210.007 M151.630 214.009 C 151.630 214.523,151.685 214.733,151.752 214.476 C 151.819 214.219,151.819 213.799,151.752 213.542 C 151.685 213.286,151.630 213.496,151.630 214.009 M90.193 214.276 C 90.193 214.423,90.374 214.543,90.594 214.543 C 90.814 214.543,90.994 214.423,90.994 214.276 C 90.994 214.129,90.814 214.009,90.594 214.009 C 90.374 214.009,90.193 214.129,90.193 214.276 M121.147 216.113 C 121.147 216.553,121.268 216.987,121.414 217.078 C 121.570 217.174,121.681 216.908,121.681 216.442 C 121.681 216.002,121.561 215.568,121.414 215.477 C 121.259 215.381,121.147 215.647,121.147 216.113 M151.630 218.012 C 151.630 218.526,151.685 218.736,151.752 218.479 C 151.819 218.222,151.819 217.802,151.752 217.545 C 151.685 217.288,151.630 217.498,151.630 218.012 M120.747 221.481 C 120.315 222.180,121.146 222.282,127.283 222.282 C 133.376 222.282,135.262 222.083,134.890 221.481 C 134.666 221.118,120.972 221.118,120.747 221.481 M151.630 222.015 C 151.630 222.528,151.685 222.738,151.752 222.482 C 151.819 222.225,151.819 221.805,151.752 221.548 C 151.685 221.291,151.630 221.501,151.630 222.015 M151.630 226.017 C 151.630 226.531,151.685 226.741,151.752 226.484 C 151.819 226.227,151.819 225.807,151.752 225.550 C 151.685 225.294,151.630 225.504,151.630 226.017 M145.163 225.767 C 144.356 225.885,141.294 226.174,138.359 226.409 C 132.859 226.851,126.972 227.330,118.612 228.018 C 115.971 228.235,111.528 228.594,108.739 228.816 C 105.951 229.038,102.348 229.340,100.734 229.488 C 99.119 229.637,96.057 229.878,93.929 230.025 C 91.801 230.172,89.640 230.352,89.126 230.425 C 88.612 230.498,86.691 230.668,84.857 230.802 C 83.022 230.937,81.311 231.129,81.054 231.229 C 80.507 231.443,80.312 261.660,80.855 262.202 C 81.025 262.372,81.679 262.388,82.656 262.244 C 83.499 262.120,85.630 261.910,87.392 261.777 C 91.152 261.493,92.793 261.312,93.065 261.153 C 93.173 261.090,94.809 260.955,96.700 260.852 C 98.592 260.750,100.393 260.571,100.703 260.454 C 101.014 260.337,102.092 260.224,103.101 260.204 C 104.109 260.183,105.013 260.116,105.111 260.056 C 105.208 259.996,106.327 259.914,107.597 259.874 C 108.868 259.835,109.859 259.724,109.799 259.628 C 109.740 259.533,110.378 259.434,111.217 259.409 C 112.056 259.384,113.987 259.247,115.509 259.105 C 117.030 258.963,118.411 258.924,118.577 259.019 C 118.751 259.118,118.784 259.088,118.655 258.949 C 118.521 258.805,119.932 258.580,122.124 258.395 C 129.014 257.816,132.485 257.507,133.823 257.353 C 134.556 257.269,136.478 257.094,138.092 256.964 C 141.470 256.692,142.427 256.563,143.139 256.282 C 143.534 256.126,143.601 256.166,143.434 256.459 C 143.258 256.766,143.286 256.774,143.577 256.504 C 143.777 256.319,144.609 256.171,145.455 256.171 C 146.594 256.171,147.015 256.065,147.136 255.749 C 147.483 254.844,147.317 225.482,146.965 225.518 C 146.781 225.537,145.971 225.649,145.163 225.767 M151.630 230.020 C 151.630 230.534,151.685 230.744,151.752 230.487 C 151.819 230.230,151.819 229.810,151.752 229.553 C 151.685 229.296,151.630 229.506,151.630 230.020 M67.105 232.887 C 67.982 232.941,68.791 233.129,68.902 233.304 C 69.039 233.519,69.106 233.470,69.109 233.155 C 69.112 232.751,68.870 232.695,67.312 232.739 L 65.510 232.789 67.105 232.887 M151.630 234.023 C 151.630 234.536,151.685 234.746,151.752 234.490 C 151.819 234.233,151.819 233.813,151.752 233.556 C 151.685 233.299,151.630 233.509,151.630 234.023 M65.633 242.523 C 66.245 243.749,66.793 244.703,66.853 244.644 C 66.990 244.507,65.206 240.945,64.814 240.572 C 64.653 240.419,65.022 241.297,65.633 242.523 M67.779 246.666 C 67.779 247.008,69.194 249.775,69.310 249.659 C 69.388 249.580,69.116 248.852,68.705 248.040 C 68.042 246.731,67.779 246.339,67.779 246.666 " stroke="none" fill="#39abdd" fill-rule="evenodd"></path><path id="path2" d="M310.444 26.608 C 309.874 27.223,309.837 27.355,310.200 27.483 C 310.435 27.565,310.904 28.110,311.241 28.693 C 312.608 31.054,309.545 35.394,307.871 33.469 C 307.562 33.113,307.114 32.822,306.876 32.822 C 306.639 32.822,306.293 32.672,306.108 32.488 C 305.839 32.221,305.806 32.243,305.942 32.601 C 306.046 32.874,305.897 33.263,305.558 33.602 C 305.185 33.974,305.003 34.499,305.003 35.201 C 305.003 35.776,304.913 36.297,304.803 36.358 C 304.693 36.420,304.771 36.427,304.975 36.374 C 305.180 36.321,305.565 36.475,305.832 36.716 C 307.694 38.401,310.398 37.145,311.132 34.254 C 311.462 32.951,311.976 32.446,312.729 32.684 C 313.306 32.868,313.501 33.985,313.009 34.290 C 312.351 34.696,312.739 35.995,313.742 36.743 C 314.293 37.153,314.827 37.606,314.929 37.749 C 315.031 37.893,315.153 37.953,315.200 37.884 C 317.672 34.244,317.958 33.953,318.643 34.380 C 319.341 34.816,320.114 34.765,320.957 34.229 C 323.255 32.767,322.159 29.242,319.454 29.397 C 318.538 29.449,318.234 29.354,318.005 28.941 C 316.494 26.226,312.065 24.859,310.444 26.608 M266.127 41.680 C 265.513 42.018,264.732 42.535,264.393 42.829 C 263.228 43.836,262.326 44.296,261.517 44.296 C 259.241 44.296,262.548 48.020,267.407 50.927 C 270.885 53.009,271.396 52.633,271.648 47.808 L 271.792 45.049 272.921 43.996 C 274.234 42.771,274.338 42.242,273.316 41.992 C 272.912 41.893,272.496 41.681,272.392 41.520 C 271.981 40.889,267.351 41.007,266.127 41.680 M249.233 46.090 C 248.866 46.155,248.452 46.319,248.312 46.454 C 248.173 46.588,247.813 46.702,247.512 46.707 C 247.211 46.712,246.484 46.948,245.897 47.231 C 245.310 47.515,244.702 47.751,244.545 47.756 C 243.978 47.774,242.295 49.521,242.295 50.091 C 242.295 50.409,242.175 50.743,242.028 50.834 C 241.701 51.036,241.673 52.482,241.993 52.680 C 242.120 52.759,242.303 53.315,242.399 53.915 C 242.645 55.451,244.600 58.172,245.457 58.172 C 245.626 58.172,245.764 58.290,245.764 58.434 C 245.764 58.578,246.064 58.771,246.431 58.863 C 246.798 58.955,247.098 59.124,247.098 59.239 C 247.098 59.353,247.548 59.531,248.099 59.634 C 248.649 59.737,249.223 59.923,249.374 60.047 C 249.849 60.440,253.574 60.631,255.103 60.340 C 258.900 59.620,259.640 59.436,259.640 59.213 C 259.640 59.081,259.891 58.973,260.199 58.973 C 260.844 58.973,262.308 58.172,262.308 57.818 C 262.308 57.687,260.894 56.182,259.165 54.474 C 257.436 52.765,255.082 50.137,253.933 48.632 C 251.680 45.682,251.636 45.659,249.233 46.090 M292.069 69.425 C 291.909 69.880,291.770 73.010,291.277 87.258 C 290.520 109.169,290.327 115.945,290.452 116.278 C 290.651 116.809,297.156 116.746,297.361 116.211 C 297.446 115.991,297.685 115.811,297.893 115.811 C 298.142 115.811,298.333 115.375,298.450 114.543 C 298.548 113.846,298.740 112.915,298.877 112.475 C 299.659 109.960,300.441 102.463,300.455 97.347 C 300.462 94.898,300.579 92.824,300.715 92.740 C 300.852 92.656,301.046 91.927,301.147 91.120 C 301.247 90.313,301.427 89.593,301.545 89.520 C 301.663 89.447,301.844 88.578,301.947 87.589 C 302.207 85.086,302.437 84.935,302.653 87.125 C 302.961 90.249,303.619 95.513,304.053 98.332 C 304.279 99.800,304.641 102.322,304.857 103.936 C 306.033 112.723,306.381 114.748,306.782 115.150 C 306.981 115.349,307.219 116.059,307.311 116.728 L 307.477 117.945 310.310 117.941 C 311.868 117.939,313.322 117.823,313.542 117.684 C 314.088 117.339,314.150 96.397,313.607 95.742 C 313.370 95.456,313.189 93.040,312.990 87.495 C 312.624 77.273,312.373 72.386,312.208 72.235 C 312.053 72.093,305.661 71.082,297.532 69.912 C 295.404 69.606,293.332 69.292,292.928 69.213 C 292.452 69.120,292.150 69.195,292.069 69.425 M245.497 80.795 C 245.497 81.625,245.778 82.188,246.193 82.188 C 246.397 82.188,246.564 82.308,246.564 82.455 C 246.564 82.602,246.463 82.722,246.339 82.722 C 245.967 82.722,244.696 83.915,244.696 84.265 C 244.696 84.443,244.576 84.590,244.430 84.590 C 244.283 84.590,244.162 84.740,244.161 84.923 C 244.160 85.107,243.974 85.612,243.748 86.045 C 243.522 86.479,243.266 87.350,243.180 87.980 C 243.094 88.610,242.919 89.126,242.792 89.126 C 242.207 89.126,242.550 91.729,243.156 91.888 C 243.786 92.052,244.963 91.448,244.963 90.961 C 244.963 90.612,246.387 89.186,247.540 88.380 C 248.551 87.673,249.419 87.633,250.308 88.250 C 250.932 88.684,251.244 89.004,252.382 90.374 C 252.861 90.952,252.869 90.943,254.032 88.372 C 254.675 86.952,255.421 85.469,255.691 85.075 C 256.202 84.328,255.659 83.522,254.644 83.522 C 254.456 83.522,254.303 83.402,254.303 83.256 C 254.303 83.109,254.171 82.989,254.010 82.989 C 253.848 82.989,253.338 82.817,252.876 82.608 C 250.334 81.456,249.491 81.121,249.136 81.121 C 248.920 81.121,248.704 81.005,248.655 80.863 C 248.449 80.267,245.497 80.203,245.497 80.795 M263.909 116.830 C 263.909 117.091,263.778 117.436,263.618 117.596 C 263.417 117.797,263.410 118.045,263.596 118.393 C 263.789 118.753,263.721 119.619,263.357 121.423 C 262.552 125.413,262.766 128.340,263.679 125.817 C 264.081 124.704,264.285 124.661,264.878 125.566 C 265.945 127.194,273.516 128.602,273.516 127.172 C 273.516 126.931,273.306 126.670,273.049 126.592 C 268.742 125.282,267.212 122.271,269.398 119.406 C 270.370 118.133,270.389 117.678,269.469 117.678 C 268.809 117.678,265.350 116.920,264.510 116.591 C 264.024 116.401,263.909 116.446,263.909 116.830 M186.717 118.021 C 186.642 118.217,185.097 119.256,183.283 120.331 C 181.470 121.406,179.063 122.870,177.933 123.584 C 176.804 124.299,175.582 124.883,175.217 124.883 C 174.697 124.883,174.439 125.129,174.026 126.017 C 172.988 128.247,172.648 129.106,172.648 129.504 C 172.648 129.727,172.557 129.949,172.445 129.998 C 172.180 130.113,170.247 135.929,170.247 136.608 C 170.247 136.893,170.141 137.192,170.011 137.272 C 169.881 137.353,169.695 137.990,169.599 138.689 C 169.502 139.388,169.308 140.260,169.168 140.627 C 168.095 143.442,168.099 156.815,169.173 159.173 C 169.307 159.466,169.495 160.457,169.591 161.375 C 169.687 162.292,169.862 163.102,169.979 163.175 C 170.096 163.247,170.277 164.148,170.380 165.177 C 170.484 166.205,170.676 167.113,170.808 167.195 C 170.940 167.276,171.047 167.533,171.047 167.765 C 171.047 167.997,171.248 168.333,171.492 168.512 C 171.996 168.881,172.030 170.179,171.580 171.853 C 171.240 173.114,170.061 174.324,167.233 176.315 C 164.133 178.498,165.090 179.249,169.874 178.388 C 172.372 177.938,172.562 177.856,173.525 176.815 L 174.540 175.717 175.195 176.466 C 175.556 176.878,175.851 177.388,175.851 177.600 C 175.851 177.833,176.114 177.985,176.518 177.985 L 177.185 177.985 177.185 173.235 C 177.185 169.919,177.281 168.390,177.502 168.168 C 178.276 167.395,178.522 158.641,177.861 155.439 C 177.462 153.506,177.525 151.509,178.005 150.894 C 178.122 150.743,178.301 149.990,178.404 149.220 C 178.506 148.450,178.694 147.755,178.821 147.677 C 178.948 147.598,179.053 147.240,179.053 146.882 C 179.053 146.524,179.160 146.231,179.291 146.231 C 179.608 146.231,179.805 147.085,180.019 149.389 C 180.117 150.441,180.283 151.301,180.389 151.301 C 180.495 151.301,180.655 151.839,180.745 152.496 C 180.835 153.153,181.023 153.904,181.163 154.164 C 181.304 154.424,181.870 155.572,182.423 156.716 C 182.976 157.859,183.584 158.925,183.775 159.083 C 183.966 159.242,184.123 159.537,184.123 159.739 C 184.123 159.941,184.243 160.107,184.390 160.107 C 184.536 160.107,184.656 160.268,184.656 160.466 C 184.656 160.783,184.901 161.144,185.986 162.430 C 186.135 162.608,186.258 162.817,186.258 162.895 C 186.258 163.095,188.137 165.544,188.438 165.734 C 188.574 165.821,188.704 166.138,188.727 166.439 C 188.750 166.749,188.909 166.932,189.093 166.861 C 189.757 166.607,190.527 167.787,190.527 169.059 C 190.527 171.179,189.451 172.505,186.535 173.977 C 183.340 175.590,184.066 176.518,188.526 176.518 C 191.544 176.518,192.340 176.209,192.966 174.795 C 193.502 173.584,194.528 173.818,195.341 175.338 C 196.380 177.279,196.616 175.440,195.984 170.317 C 195.705 168.047,195.659 166.876,195.842 166.693 C 196.133 166.402,195.934 163.369,195.593 162.909 C 195.485 162.762,195.313 161.951,195.211 161.107 C 195.108 160.264,194.914 159.573,194.777 159.573 C 194.641 159.573,194.526 159.303,194.521 158.973 C 194.516 158.642,194.280 157.892,193.996 157.305 C 193.712 156.718,193.476 156.087,193.471 155.904 C 193.466 155.720,193.342 155.570,193.195 155.570 C 193.049 155.570,192.929 155.384,192.929 155.156 C 192.929 154.690,191.836 152.550,191.528 152.413 C 191.418 152.364,191.328 152.176,191.328 151.995 C 191.328 151.815,190.787 150.861,190.127 149.877 C 188.770 147.854,188.783 147.901,189.325 146.862 C 189.544 146.441,189.724 145.827,189.725 145.497 C 189.726 145.167,189.841 144.897,189.981 144.897 C 190.121 144.897,190.317 144.446,190.416 143.896 C 190.515 143.346,190.690 142.775,190.805 142.628 C 191.028 142.343,191.466 140.427,191.903 137.825 C 192.051 136.945,192.291 135.804,192.436 135.290 C 192.944 133.492,192.328 125.742,191.598 124.750 C 191.490 124.603,191.315 124.124,191.210 123.685 C 191.105 123.246,190.938 122.826,190.839 122.751 C 190.741 122.676,190.365 122.049,190.004 121.357 C 188.984 119.402,186.971 117.359,186.717 118.021 M290.217 118.882 C 289.549 119.387,287.907 119.953,285.966 120.347 C 284.303 120.684,283.389 121.347,283.389 122.215 C 283.389 122.733,283.567 122.748,289.642 122.748 C 297.641 122.748,297.552 122.781,296.976 120.096 C 296.714 118.872,296.650 118.789,296.268 119.171 C 295.086 120.353,292.980 120.405,291.928 119.280 C 291.083 118.375,290.933 118.340,290.217 118.882 M308.093 120.064 C 307.115 120.709,306.967 120.979,306.733 122.548 L 306.544 123.816 310.200 123.816 L 313.856 123.816 313.680 122.682 C 313.398 120.869,313.297 120.670,312.363 120.093 C 311.201 119.375,309.159 119.361,308.093 120.064 M119.013 135.290 C 119.013 135.437,119.380 135.557,119.829 135.557 C 120.305 135.557,120.577 135.446,120.480 135.290 C 120.390 135.143,120.022 135.023,119.664 135.023 C 119.306 135.023,119.013 135.143,119.013 135.290 M121.343 136.091 C 121.594 136.384,121.892 136.624,122.005 136.624 C 122.117 136.624,122.004 136.384,121.753 136.091 C 121.501 135.797,121.203 135.557,121.091 135.557 C 120.978 135.557,121.091 135.797,121.343 136.091 M122.277 137.692 C 122.277 138.205,122.332 138.416,122.399 138.159 C 122.466 137.902,122.466 137.482,122.399 137.225 C 122.332 136.968,122.277 137.178,122.277 137.692 M113.090 137.967 C 112.207 138.936,111.603 140.360,112.075 140.360 C 112.221 140.360,112.342 140.124,112.342 139.836 C 112.342 139.547,112.714 138.887,113.170 138.368 C 114.005 137.417,113.931 137.043,113.090 137.967 M121.312 150.649 C 121.219 150.890,121.385 153.127,121.679 155.620 C 122.420 161.888,122.190 169.380,121.141 173.182 C 120.817 174.357,120.801 176.918,121.119 176.918 C 121.249 176.918,121.439 176.589,121.540 176.187 C 121.641 175.785,121.858 175.373,122.022 175.271 C 122.186 175.170,122.369 174.268,122.429 173.267 C 122.489 172.266,122.634 171.344,122.752 171.218 C 122.870 171.092,122.899 167.700,122.817 163.680 C 122.734 159.660,122.753 156.371,122.859 156.371 C 122.964 156.371,123.313 156.494,123.633 156.645 C 124.203 156.914,124.203 156.910,123.616 156.479 C 123.198 156.173,123.015 155.764,123.015 155.134 C 123.015 154.636,122.865 153.975,122.682 153.664 C 122.415 153.212,122.415 153.075,122.682 152.978 C 123.037 152.850,123.155 151.568,122.812 151.568 C 122.700 151.568,122.490 151.305,122.345 150.985 C 122.009 150.241,121.528 150.085,121.312 150.649 M72.910 153.436 C 72.910 153.949,72.965 154.159,73.033 153.903 C 73.100 153.646,73.100 153.225,73.033 152.969 C 72.965 152.712,72.910 152.922,72.910 153.436 M356.699 161.602 C 356.592 161.709,356.504 161.981,356.504 162.206 C 356.504 162.506,356.583 162.536,356.801 162.318 C 356.964 162.155,357.052 161.883,356.996 161.714 C 356.940 161.546,356.806 161.495,356.699 161.602 M69.313 164.293 C 69.004 164.374,68.856 164.657,68.877 165.130 C 68.901 165.682,68.938 165.724,69.041 165.317 C 69.115 165.027,69.371 164.641,69.611 164.458 C 70.071 164.108,70.055 164.099,69.313 164.293 M69.574 165.338 C 69.467 165.445,69.383 165.783,69.388 166.089 C 69.395 166.602,69.417 166.608,69.673 166.167 C 69.972 165.654,69.896 165.017,69.574 165.338 M58.196 170.736 C 57.998 171.106,58.028 171.225,58.320 171.225 C 58.532 171.225,58.706 171.005,58.706 170.736 C 58.706 170.467,58.650 170.247,58.582 170.247 C 58.514 170.247,58.340 170.467,58.196 170.736 M70.752 172.153 C 70.564 172.454,70.469 172.759,70.540 172.831 C 70.612 172.902,70.810 172.700,70.981 172.382 C 71.384 171.628,71.197 171.441,70.752 172.153 M69.513 173.182 C 69.604 173.329,69.941 173.447,70.263 173.445 C 70.738 173.442,70.772 173.392,70.447 173.182 C 69.921 172.842,69.303 172.842,69.513 173.182 M69.380 175.317 C 69.168 175.448,69.083 175.643,69.192 175.752 C 69.300 175.860,69.529 175.808,69.700 175.637 C 70.103 175.234,69.878 175.009,69.380 175.317 M97.936 176.328 C 97.931 177.444,100.325 180.646,101.168 180.652 C 101.437 180.655,101.896 179.292,102.083 177.942 C 102.292 176.429,101.775 176.019,99.666 176.023 C 98.933 176.025,98.244 175.896,98.136 175.738 C 98.028 175.580,97.938 175.845,97.936 176.328 M68.312 183.597 C 68.312 183.740,68.439 183.856,68.595 183.856 C 68.750 183.856,68.792 183.995,68.687 184.164 C 68.569 184.355,68.614 184.400,68.805 184.282 C 69.230 184.019,69.190 183.676,68.712 183.493 C 68.492 183.408,68.312 183.455,68.312 183.597 M99.978 195.238 C 99.891 195.775,99.932 196.405,100.069 196.639 C 100.245 196.941,100.320 196.659,100.325 195.664 C 100.335 194.027,100.201 193.863,99.978 195.238 M347.684 199.757 C 345.593 201.933,343.241 202.536,336.853 202.532 C 330.948 202.529,329.715 202.232,327.217 200.212 L 326.081 199.295 324.948 199.918 C 317.428 204.055,341.566 207.403,349.415 203.311 C 350.012 203.000,350.770 202.608,351.099 202.440 C 352.399 201.777,351.730 199.919,349.919 199.162 C 348.737 198.668,348.727 198.671,347.684 199.757 M86.324 208.406 C 86.234 208.552,85.746 208.672,85.241 208.672 C 83.915 208.672,83.990 209.196,86.345 216.308 C 88.601 223.121,88.565 223.049,89.279 222.259 C 90.039 221.418,90.070 213.743,89.313 213.743 C 87.808 213.742,86.859 210.276,87.940 208.732 C 88.346 208.153,88.334 208.139,87.422 208.139 C 86.909 208.139,86.415 208.259,86.324 208.406 M41.977 214.676 C 41.979 215.557,42.029 215.885,42.088 215.405 C 42.147 214.926,42.146 214.205,42.085 213.804 C 42.024 213.403,41.976 213.796,41.977 214.676 M125.997 217.760 C 125.236 218.724,123.922 218.815,122.348 218.012 C 121.772 217.718,121.275 217.478,121.244 217.478 C 121.212 217.478,121.103 218.140,121.002 218.948 C 120.690 221.443,120.517 221.403,130.153 221.038 C 134.313 220.880,134.757 220.818,134.757 220.391 C 134.757 219.702,133.574 218.883,132.280 218.678 C 130.547 218.402,128.491 217.773,127.927 217.347 C 127.176 216.778,126.690 216.882,125.997 217.760 M350.905 223.133 C 350.913 223.803,351.426 224.355,351.430 223.698 C 351.432 223.377,351.314 223.039,351.167 222.949 C 351.021 222.858,350.902 222.941,350.905 223.133 M326.484 232.422 C 326.575 232.568,326.829 232.688,327.050 232.688 C 327.270 232.688,327.376 232.568,327.285 232.422 C 327.194 232.275,326.940 232.155,326.720 232.155 C 326.500 232.155,326.394 232.275,326.484 232.422 M343.429 233.222 C 343.117 233.424,343.191 233.482,343.763 233.485 C 344.166 233.487,344.496 233.369,344.496 233.222 C 344.496 232.885,343.951 232.885,343.429 233.222 M333.622 233.673 C 333.879 233.740,334.300 233.740,334.556 233.673 C 334.813 233.606,334.603 233.551,334.089 233.551 C 333.576 233.551,333.366 233.606,333.622 233.673 " stroke="none" fill="#070606" fill-rule="evenodd"></path><path id="path3" d="M293.126 16.589 C 292.702 17.694,293.515 34.341,294.009 34.666 C 294.140 34.753,294.326 35.412,294.422 36.131 C 294.518 36.850,294.703 37.570,294.833 37.732 C 294.963 37.893,295.154 38.536,295.257 39.159 C 295.360 39.783,295.540 40.294,295.657 40.294 C 295.774 40.294,295.955 40.864,296.060 41.561 C 296.164 42.258,296.377 42.907,296.533 43.004 C 296.723 43.122,296.671 43.484,296.373 44.112 C 296.130 44.624,295.931 45.236,295.931 45.471 C 295.931 45.705,295.815 45.897,295.673 45.897 C 295.531 45.897,295.336 46.495,295.239 47.226 C 295.142 47.957,294.971 48.499,294.860 48.430 C 294.748 48.361,294.575 48.962,294.475 49.765 C 294.374 50.569,294.186 51.291,294.056 51.371 C 293.927 51.452,293.739 52.234,293.640 53.110 C 293.541 53.986,293.367 54.703,293.253 54.703 C 293.138 54.703,292.958 55.874,292.853 57.305 C 292.747 58.736,292.564 59.968,292.447 60.043 C 292.331 60.119,292.150 62.175,292.045 64.613 L 291.855 69.046 293.559 69.192 C 294.497 69.272,296.404 69.520,297.799 69.743 C 301.569 70.346,305.577 70.943,308.857 71.392 C 310.623 71.634,311.958 71.955,312.233 72.204 C 312.914 72.821,312.985 72.492,313.158 67.879 C 313.246 65.549,313.419 63.402,313.544 63.109 C 313.668 62.815,313.823 61.788,313.888 60.826 C 313.953 59.864,314.138 58.844,314.299 58.558 C 314.782 57.699,315.677 55.553,315.677 55.251 C 315.677 55.097,315.796 54.970,315.941 54.970 C 316.086 54.970,316.281 54.492,316.374 53.907 C 316.468 53.323,316.649 52.910,316.778 52.989 C 316.906 53.069,317.011 52.881,317.011 52.572 C 317.011 52.127,317.498 51.781,319.346 50.911 C 320.630 50.306,321.721 49.712,321.770 49.589 C 321.819 49.467,322.011 49.366,322.197 49.366 C 322.383 49.366,323.032 49.006,323.640 48.566 C 324.248 48.125,324.848 47.765,324.974 47.765 C 325.173 47.765,325.475 47.548,326.772 46.469 C 326.930 46.337,327.309 46.150,327.614 46.053 C 327.920 45.956,328.237 45.701,328.319 45.487 C 328.402 45.272,328.601 45.097,328.763 45.097 C 328.925 45.097,329.208 44.947,329.391 44.763 C 329.575 44.580,330.184 44.069,330.744 43.629 C 331.304 43.189,331.895 42.707,332.058 42.558 C 332.221 42.409,332.895 41.870,333.556 41.361 C 334.216 40.851,334.887 40.313,335.046 40.164 C 335.205 40.015,335.661 39.653,336.058 39.360 C 337.105 38.586,338.893 36.897,338.893 36.682 C 338.893 36.580,339.377 36.072,339.970 35.552 C 340.562 35.033,341.404 34.158,341.840 33.607 L 342.633 32.606 341.163 30.666 C 340.355 29.599,339.693 28.629,339.693 28.510 C 339.693 28.391,339.213 28.544,338.626 28.850 C 338.039 29.156,337.558 29.502,337.558 29.618 C 337.558 29.734,337.258 29.904,336.891 29.996 C 336.524 30.088,336.224 30.281,336.224 30.425 C 336.224 30.569,336.062 30.687,335.865 30.687 C 335.548 30.687,335.187 30.931,333.901 32.016 C 333.723 32.166,333.500 32.288,333.405 32.288 C 333.175 32.288,328.644 35.813,328.530 36.081 C 328.481 36.197,328.295 36.291,328.117 36.291 C 327.939 36.291,326.972 36.711,325.969 37.225 C 324.966 37.738,323.991 38.159,323.803 38.159 C 323.614 38.159,323.420 38.249,323.371 38.359 C 323.236 38.664,319.284 40.560,318.784 40.560 C 318.543 40.560,318.346 40.671,318.346 40.806 C 318.346 40.941,317.985 41.131,317.545 41.227 C 317.105 41.324,316.744 41.514,316.744 41.649 C 316.744 42.021,315.474 41.943,315.319 41.561 C 315.220 41.317,315.125 41.308,314.964 41.530 C 314.477 42.199,310.530 43.644,310.032 43.336 C 309.908 43.260,309.807 42.908,309.807 42.554 C 309.807 42.092,309.694 41.955,309.406 42.065 C 309.186 42.149,309.006 42.086,309.006 41.923 C 309.006 41.761,308.886 41.628,308.739 41.628 C 308.592 41.628,308.472 41.793,308.472 41.995 C 308.472 42.198,308.303 42.504,308.096 42.676 C 307.470 43.195,306.338 41.468,306.338 39.994 C 306.338 39.124,306.199 38.710,305.814 38.433 C 305.526 38.225,305.216 37.718,305.125 37.306 C 305.035 36.895,304.864 36.558,304.745 36.558 C 304.626 36.558,304.450 36.137,304.354 35.624 C 304.257 35.110,304.079 34.690,303.957 34.690 C 303.835 34.690,303.666 34.340,303.580 33.912 C 303.495 33.485,302.919 32.314,302.301 31.311 C 301.252 29.610,301.169 29.333,301.072 27.218 C 301.014 25.971,300.865 24.710,300.740 24.416 C 300.616 24.123,300.372 22.451,300.199 20.701 C 299.815 16.810,299.624 16.221,298.803 16.390 C 296.982 16.766,293.711 16.838,293.506 16.507 C 293.337 16.234,293.255 16.252,293.126 16.589 M175.971 99.244 C 175.831 99.378,175.417 99.528,175.050 99.577 C 174.425 99.661,174.378 99.776,174.311 101.401 C 174.176 104.641,171.565 106.950,169.909 105.294 C 169.483 104.868,168.646 105.949,168.646 106.926 C 168.646 107.204,168.510 107.568,168.344 107.734 C 167.893 108.184,167.873 114.697,168.321 114.974 C 168.666 115.187,169.238 117.942,168.939 117.949 C 168.761 117.954,169.284 118.271,171.210 119.328 C 172.387 119.973,172.620 120.268,173.582 122.325 C 174.964 125.278,174.407 125.344,180.886 121.462 C 186.265 118.239,187.113 117.540,186.274 117.022 C 185.743 116.694,184.683 113.978,184.621 112.790 C 184.586 112.103,184.452 111.541,184.324 111.541 C 184.196 111.541,184.164 111.423,184.253 111.280 C 184.621 110.684,183.877 109.794,181.054 107.454 C 177.699 104.674,176.651 103.014,176.651 100.482 C 176.651 99.038,176.489 98.744,175.971 99.244 M302.735 115.277 C 302.840 115.447,302.067 115.544,300.603 115.544 C 297.569 115.544,296.183 116.975,297.032 119.230 C 297.160 119.570,297.265 120.382,297.265 121.035 C 297.265 121.688,297.408 122.451,297.582 122.730 C 298.360 123.976,297.776 124.083,290.189 124.083 C 282.357 124.083,282.602 124.147,283.122 122.215 C 283.467 120.934,284.067 120.564,286.793 119.952 C 289.877 119.261,290.649 118.750,290.543 117.473 L 290.460 116.478 286.191 116.576 C 283.843 116.630,281.801 116.767,281.654 116.880 C 281.508 116.994,279.166 117.173,276.451 117.279 C 273.736 117.385,271.474 117.578,271.425 117.708 C 271.376 117.839,271.210 117.945,271.056 117.945 C 270.284 117.945,268.446 120.854,268.446 122.075 C 268.446 123.359,269.880 124.903,272.077 125.985 C 274.847 127.348,274.166 127.997,270.232 127.743 C 267.374 127.559,266.231 127.187,265.129 126.085 L 264.223 125.179 263.779 126.114 C 262.714 128.360,262.387 125.343,263.238 121.109 C 263.747 118.573,263.630 118.212,262.295 118.212 C 261.733 118.212,261.208 118.316,261.129 118.443 C 261.051 118.570,258.732 118.762,255.977 118.869 C 252.879 118.990,250.820 119.182,250.583 119.372 C 250.272 119.620,250.244 119.602,250.434 119.280 C 250.626 118.953,250.597 118.938,250.276 119.198 C 250.057 119.374,248.912 119.539,247.699 119.568 C 246.498 119.597,245.267 119.754,244.963 119.917 L 244.410 120.213 244.418 170.914 C 244.425 214.604,244.479 221.670,244.809 222.015 C 245.262 222.487,245.659 222.798,246.564 223.387 C 246.931 223.626,247.490 224.045,247.807 224.319 C 248.124 224.593,248.645 224.997,248.966 225.217 C 249.287 225.437,249.767 225.797,250.033 226.017 C 250.300 226.237,250.781 226.598,251.103 226.818 C 251.425 227.038,252.067 227.547,252.529 227.949 C 252.991 228.352,253.579 228.750,253.836 228.835 C 254.093 228.919,254.303 229.101,254.303 229.237 C 254.303 229.374,254.443 229.486,254.614 229.486 C 254.785 229.486,255.115 229.668,255.348 229.890 C 255.580 230.112,256.851 231.092,258.172 232.068 C 259.493 233.044,260.614 233.943,260.663 234.066 C 260.712 234.189,260.895 234.290,261.070 234.290 C 261.246 234.290,261.595 234.530,261.846 234.823 C 262.097 235.117,262.471 235.357,262.677 235.357 C 262.883 235.357,263.121 235.537,263.205 235.757 C 263.290 235.977,263.479 236.157,263.625 236.157 C 263.771 236.157,264.259 236.518,264.710 236.958 C 265.160 237.398,265.555 237.759,265.586 237.759 C 265.618 237.759,265.613 214.541,265.576 186.163 L 265.508 134.568 267.577 134.386 C 269.780 134.192,276.810 133.645,285.123 133.022 C 287.912 132.813,292.595 132.453,295.530 132.221 C 300.557 131.825,302.941 131.641,316.077 130.631 C 328.822 129.651,330.779 129.478,331.219 129.293 C 331.561 129.149,331.751 129.264,331.936 129.725 C 332.074 130.071,332.191 130.173,332.196 129.953 C 332.209 129.327,331.661 128.805,330.287 128.133 C 329.590 127.793,329.019 127.412,329.019 127.287 C 329.019 127.163,328.659 126.981,328.219 126.885 C 327.779 126.788,327.418 126.606,327.418 126.481 C 327.418 126.356,327.154 126.169,326.830 126.067 C 326.507 125.964,326.091 125.746,325.906 125.582 C 325.014 124.792,324.746 124.626,324.106 124.465 C 323.726 124.370,323.416 124.185,323.416 124.054 C 323.416 123.923,323.254 123.816,323.056 123.816 C 322.858 123.816,322.447 123.599,322.142 123.335 C 321.837 123.071,321.129 122.620,320.567 122.334 C 320.006 122.048,319.506 121.724,319.457 121.614 C 319.408 121.504,319.226 121.414,319.051 121.414 C 318.876 121.414,318.106 121.001,317.339 120.496 C 316.572 119.990,315.940 119.660,315.935 119.762 C 315.931 119.863,315.780 119.754,315.601 119.518 C 315.422 119.283,315.005 119.005,314.675 118.900 C 314.346 118.795,314.076 118.598,314.076 118.461 C 314.076 117.815,313.272 118.278,313.233 118.946 C 313.173 120.003,313.174 120.009,313.787 122.332 C 314.628 125.516,314.743 125.417,310.217 125.417 C 307.033 125.417,306.369 125.349,306.238 125.009 C 306.083 124.604,306.721 121.072,307.044 120.550 C 307.301 120.134,307.142 116.050,306.847 115.498 C 306.629 115.092,306.250 115.010,304.578 115.010 C 303.307 115.010,302.631 115.108,302.735 115.277 M332.031 133.022 C 332.033 133.756,332.085 134.024,332.146 133.619 C 332.207 133.213,332.206 132.613,332.142 132.285 C 332.079 131.956,332.029 132.288,332.031 133.022 M332.031 137.025 C 332.033 137.759,332.085 138.027,332.146 137.621 C 332.207 137.216,332.206 136.615,332.142 136.287 C 332.079 135.959,332.029 136.291,332.031 137.025 M332.031 141.027 C 332.033 141.761,332.085 142.030,332.146 141.624 C 332.207 141.218,332.206 140.618,332.142 140.290 C 332.079 139.962,332.029 140.294,332.031 141.027 M332.031 145.030 C 332.033 145.764,332.085 146.032,332.146 145.627 C 332.207 145.221,332.206 144.621,332.142 144.293 C 332.079 143.964,332.029 144.296,332.031 145.030 M332.031 149.033 C 332.033 149.767,332.085 150.035,332.146 149.629 C 332.207 149.224,332.206 148.623,332.142 148.295 C 332.079 147.967,332.029 148.299,332.031 149.033 M332.031 153.035 C 332.033 153.769,332.085 154.038,332.146 153.632 C 332.207 153.226,332.206 152.626,332.142 152.298 C 332.079 151.970,332.029 152.302,332.031 153.035 M332.031 157.038 C 332.033 157.772,332.085 158.040,332.146 157.635 C 332.207 157.229,332.206 156.629,332.142 156.301 C 332.079 155.972,332.029 156.304,332.031 157.038 M332.017 159.306 C 332.017 159.820,332.071 160.030,332.139 159.773 C 332.206 159.516,332.206 159.096,332.139 158.839 C 332.071 158.582,332.017 158.793,332.017 159.306 M214.492 164.777 C 214.447 164.819,213.389 164.929,212.141 165.021 C 210.894 165.113,209.513 165.239,209.073 165.301 C 208.632 165.363,206.831 165.489,205.070 165.581 C 203.309 165.673,201.448 165.803,200.934 165.869 C 199.250 166.088,197.879 166.215,197.027 166.230 C 195.865 166.250,195.835 166.456,196.281 171.322 C 196.498 173.685,196.605 175.731,196.520 175.868 C 196.221 176.353,195.567 176.108,195.130 175.347 C 194.329 173.951,193.798 173.836,193.158 174.921 C 192.072 176.760,188.596 177.497,185.857 176.468 C 183.874 175.724,184.039 175.227,186.791 173.650 C 189.729 171.966,190.127 171.428,190.127 169.135 C 190.127 168.157,190.035 167.265,189.923 167.153 C 189.728 166.957,184.396 166.971,183.363 167.170 C 183.086 167.224,181.793 167.348,180.489 167.448 C 179.186 167.547,177.999 167.743,177.852 167.883 C 177.558 168.164,177.253 171.935,177.212 175.802 C 177.182 178.553,176.580 179.126,175.595 177.342 C 175.073 176.396,174.237 175.830,174.064 176.304 C 173.507 177.831,171.987 178.475,168.401 178.708 C 164.458 178.963,164.050 178.249,167.006 176.266 C 170.409 173.982,171.364 172.799,171.666 170.491 C 171.894 168.743,171.425 168.149,169.923 168.286 C 169.294 168.343,166.978 168.514,164.777 168.665 C 162.575 168.816,160.354 168.984,159.840 169.038 C 159.326 169.092,157.585 169.213,155.971 169.308 C 154.356 169.402,152.765 169.535,152.435 169.602 L 151.835 169.723 151.835 202.757 L 151.835 235.790 152.624 236.374 C 153.059 236.695,153.475 236.958,153.549 236.958 C 153.623 236.958,154.042 237.288,154.479 237.692 C 155.617 238.742,155.912 238.964,156.438 239.165 C 156.694 239.263,156.905 239.459,156.905 239.600 C 156.905 239.742,157.170 239.942,157.495 240.045 C 157.819 240.148,158.429 240.576,158.849 240.997 C 159.270 241.417,159.792 241.761,160.010 241.761 C 160.227 241.761,160.331 241.881,160.240 242.028 C 160.149 242.175,160.258 242.295,160.482 242.295 C 160.706 242.295,161.257 242.655,161.708 243.095 C 162.158 243.536,162.588 243.896,162.662 243.896 C 162.825 243.896,164.353 244.965,164.855 245.430 C 165.053 245.614,165.333 245.764,165.478 245.764 C 165.623 245.764,165.668 245.884,165.577 246.031 C 165.486 246.177,165.581 246.298,165.787 246.298 C 165.994 246.298,166.451 246.535,166.804 246.826 C 167.976 247.793,169.131 248.665,169.991 249.233 C 170.324 249.453,170.785 249.843,171.015 250.100 C 171.245 250.357,171.586 250.567,171.774 250.567 C 171.961 250.567,172.115 250.687,172.115 250.834 C 172.115 250.981,172.235 251.101,172.382 251.101 C 172.558 251.101,172.648 239.904,172.648 218.045 C 172.648 191.920,172.718 184.933,172.982 184.722 C 173.165 184.576,175.177 184.314,177.452 184.140 C 183.509 183.676,190.936 183.117,195.197 182.806 C 197.252 182.656,199.473 182.470,200.133 182.394 C 200.794 182.318,203.135 182.134,205.337 181.986 C 207.538 181.838,210.660 181.602,212.275 181.461 C 213.889 181.320,217.792 181.015,220.947 180.783 C 224.103 180.550,228.702 180.186,231.167 179.973 C 233.632 179.761,236.214 179.583,236.904 179.578 C 238.529 179.567,239.497 178.942,238.532 178.528 C 238.180 178.377,237.141 177.780,236.224 177.202 C 235.307 176.623,234.556 176.213,234.556 176.291 C 234.556 176.368,234.221 176.151,233.810 175.808 C 233.400 175.464,232.591 174.943,232.013 174.650 C 231.435 174.356,230.831 173.996,230.672 173.849 C 230.512 173.702,229.910 173.342,229.333 173.049 C 228.757 172.755,228.245 172.425,228.197 172.315 C 228.148 172.205,227.989 172.115,227.844 172.115 C 227.700 172.115,227.077 171.785,226.461 171.381 C 225.845 170.977,225.103 170.504,224.812 170.330 C 222.029 168.661,220.572 167.845,220.378 167.845 C 220.251 167.845,220.147 167.725,220.147 167.578 C 220.147 167.432,220.015 167.312,219.854 167.312 C 219.694 167.312,219.243 167.089,218.854 166.816 C 217.213 165.668,214.765 164.524,214.492 164.777 M115.277 212.045 C 115.057 212.087,113.916 212.181,112.742 212.255 C 110.880 212.373,107.516 212.602,101.134 213.047 C 100.180 213.114,99.039 213.233,98.599 213.311 C 98.159 213.389,96.798 213.521,95.576 213.602 C 94.353 213.684,93.032 213.915,92.640 214.116 C 92.249 214.317,91.589 214.480,91.174 214.479 C 89.818 214.474,89.560 215.595,90.018 219.505 C 90.225 221.272,90.198 221.445,89.616 222.107 C 88.805 223.029,87.398 223.338,87.179 222.641 C 87.094 222.370,86.447 220.467,85.741 218.412 L 84.456 214.676 81.582 214.645 C 80.000 214.628,78.642 214.718,78.564 214.845 C 78.485 214.973,77.542 215.077,76.468 215.077 C 75.058 215.077,74.423 215.188,74.183 215.477 C 74.000 215.697,73.595 215.879,73.283 215.881 C 72.361 215.888,72.158 216.199,72.101 217.690 C 72.026 219.652,71.357 220.791,68.964 223.028 L 66.898 224.958 67.073 227.829 C 67.254 230.821,67.106 231.423,65.954 232.355 C 65.615 232.630,65.857 232.688,67.327 232.688 C 68.413 232.688,69.113 232.800,69.113 232.973 C 69.113 233.298,68.586 234.357,68.325 234.556 C 68.229 234.630,67.863 235.170,67.512 235.757 C 67.160 236.344,66.800 236.885,66.711 236.958 C 66.622 237.031,66.260 237.572,65.907 238.159 C 65.553 238.746,65.109 239.385,64.920 239.579 C 64.524 239.985,64.480 240.336,64.799 240.533 C 65.239 240.805,69.358 249.394,69.625 250.595 C 69.805 251.404,69.810 252.133,69.639 252.728 C 69.259 254.051,69.310 254.275,70.027 254.455 C 70.384 254.545,70.740 254.787,70.820 254.994 C 70.899 255.201,71.086 255.370,71.236 255.370 C 71.496 255.370,72.194 255.877,73.024 256.670 C 73.235 256.870,73.471 256.971,73.549 256.894 C 73.627 256.816,74.011 257.075,74.403 257.469 C 74.796 257.864,75.566 258.483,76.116 258.846 C 76.665 259.209,77.115 259.596,77.116 259.706 C 77.117 259.817,77.298 259.907,77.518 259.907 C 77.738 259.907,77.919 260.001,77.919 260.117 C 77.919 260.232,78.549 260.752,79.320 261.271 L 80.720 262.214 80.650 246.814 C 80.583 232.305,80.606 231.404,81.050 231.231 C 81.309 231.130,83.022 230.937,84.857 230.802 C 86.691 230.668,88.612 230.498,89.126 230.425 C 89.640 230.352,91.801 230.172,93.929 230.026 C 96.057 229.880,99.059 229.642,100.600 229.497 C 102.141 229.352,105.804 229.046,108.739 228.816 C 111.674 228.586,116.117 228.227,118.612 228.018 C 121.107 227.808,125.490 227.451,128.352 227.223 C 131.214 226.995,134.877 226.688,136.491 226.540 C 138.105 226.392,140.936 226.158,142.781 226.020 C 146.633 225.733,147.190 225.596,146.739 225.052 C 146.570 224.849,146.335 224.683,146.216 224.683 C 145.947 224.683,143.290 223.070,142.809 222.615 C 142.616 222.432,142.285 222.282,142.076 222.282 C 141.866 222.282,141.694 222.188,141.694 222.073 C 141.694 221.959,141.364 221.714,140.961 221.529 C 139.608 220.910,139.026 220.555,139.026 220.350 C 139.026 220.238,138.892 220.147,138.729 220.147 C 138.565 220.147,137.239 219.426,135.781 218.546 C 134.323 217.665,133.045 216.945,132.939 216.945 C 132.834 216.945,132.124 216.524,131.361 216.011 C 130.598 215.497,129.850 215.077,129.697 215.077 C 129.544 215.077,129.420 214.970,129.420 214.839 C 129.420 214.708,129.119 214.526,128.753 214.433 C 128.386 214.341,128.085 214.125,128.085 213.953 C 128.085 213.781,127.909 213.874,127.694 214.158 C 127.271 214.718,127.160 216.334,127.507 216.881 C 127.746 217.257,130.469 218.279,131.233 218.279 C 133.163 218.279,134.762 219.395,134.875 220.820 C 134.987 222.225,134.570 222.301,127.188 222.219 L 120.747 222.148 120.773 221.348 C 120.788 220.907,120.892 219.373,121.006 217.937 C 121.202 215.461,121.166 215.114,120.431 212.331 C 120.313 211.886,117.067 211.705,115.277 212.045 M278.976 236.408 C 279.061 236.546,279.385 236.609,279.695 236.550 C 280.614 236.373,280.607 236.157,279.682 236.157 C 279.208 236.157,278.891 236.270,278.976 236.408 M180.254 250.834 L 179.453 251.038 180.171 251.069 C 180.566 251.087,180.963 250.981,181.054 250.834 C 181.145 250.687,181.182 250.581,181.136 250.599 C 181.091 250.616,180.694 250.722,180.254 250.834 M101.134 260.440 C 101.134 260.587,101.307 260.707,101.519 260.707 C 101.730 260.707,101.977 260.587,102.068 260.440 C 102.159 260.294,101.986 260.173,101.684 260.173 C 101.381 260.173,101.134 260.294,101.134 260.440 " stroke="none" fill="#0b74e3" fill-rule="evenodd"></path><path id="path4" d="M340.816 34.960 C 340.185 35.545,339.765 36.023,339.882 36.022 C 340.105 36.019,342.095 34.206,342.095 34.006 C 342.095 33.794,341.972 33.886,340.816 34.960 M260.457 44.626 C 260.448 44.880,260.771 45.426,261.174 45.839 C 261.578 46.252,261.705 46.344,261.457 46.043 C 261.209 45.743,260.886 45.197,260.740 44.830 C 260.557 44.371,260.469 44.307,260.457 44.626 M271.739 47.632 C 271.740 48.806,271.787 49.253,271.843 48.625 C 271.900 47.998,271.899 47.037,271.842 46.491 C 271.784 45.944,271.738 46.458,271.739 47.632 M255.071 50.126 C 255.518 50.690,256.095 51.321,256.353 51.527 C 256.612 51.733,256.297 51.271,255.655 50.500 C 254.307 48.884,253.861 48.598,255.071 50.126 M258.172 53.636 C 258.895 54.370,259.546 54.970,259.620 54.970 C 259.693 54.970,259.162 54.370,258.439 53.636 C 257.716 52.902,257.065 52.302,256.991 52.302 C 256.918 52.302,257.449 52.902,258.172 53.636 M293.018 69.210 C 293.079 69.264,293.789 69.376,294.596 69.459 C 295.544 69.557,295.828 69.532,295.397 69.389 C 294.736 69.168,292.804 69.023,293.018 69.210 M298.666 70.097 C 298.923 70.164,299.343 70.164,299.600 70.097 C 299.857 70.030,299.646 69.975,299.133 69.975 C 298.619 69.975,298.409 70.030,298.666 70.097 M304.003 70.898 C 304.260 70.965,304.680 70.965,304.937 70.898 C 305.193 70.831,304.983 70.776,304.470 70.776 C 303.956 70.776,303.746 70.831,304.003 70.898 M309.028 71.612 C 309.089 71.665,309.800 71.777,310.607 71.861 C 311.555 71.959,311.838 71.934,311.408 71.790 C 310.746 71.570,308.814 71.425,309.028 71.612 M254.086 88.205 C 253.282 89.860,253.372 90.091,254.200 88.500 C 254.570 87.788,254.828 87.160,254.772 87.105 C 254.716 87.049,254.408 87.544,254.086 88.205 M297.339 116.202 C 297.170 116.504,296.390 116.613,293.924 116.678 L 290.727 116.763 293.987 116.821 C 297.005 116.874,297.267 116.838,297.532 116.344 C 297.857 115.737,297.675 115.602,297.339 116.202 M307.200 117.145 C 307.200 117.658,307.255 117.869,307.322 117.612 C 307.389 117.355,307.389 116.935,307.322 116.678 C 307.255 116.421,307.200 116.631,307.200 117.145 M186.485 117.904 C 186.433 118.046,183.869 119.675,180.787 121.523 C 177.705 123.371,175.339 124.883,175.530 124.883 C 175.720 124.883,176.561 124.445,177.398 123.910 C 178.235 123.374,180.540 121.979,182.522 120.808 C 186.251 118.604,187.003 118.068,186.736 117.802 C 186.650 117.716,186.537 117.762,186.485 117.904 M295.849 119.165 C 295.437 119.521,295.204 119.813,295.332 119.813 C 295.459 119.813,295.819 119.575,296.132 119.283 L 296.701 118.753 296.977 119.883 L 297.253 121.014 297.135 119.970 C 296.976 118.556,296.730 118.402,295.849 119.165 M308.072 119.754 C 307.218 120.244,306.882 120.594,306.875 120.998 C 306.873 121.136,307.021 121.064,307.205 120.837 C 308.332 119.444,310.755 119.099,312.377 120.102 C 312.871 120.407,313.273 120.557,313.269 120.435 C 313.240 119.453,309.459 118.957,308.072 119.754 M287.392 119.813 C 286.855 119.985,286.829 120.028,287.258 120.035 C 287.552 120.039,288.032 119.939,288.326 119.813 C 289.006 119.521,288.304 119.521,287.392 119.813 M293.195 120.002 C 293.526 120.065,294.066 120.065,294.396 120.002 C 294.726 119.938,294.456 119.886,293.796 119.886 C 293.135 119.886,292.865 119.938,293.195 120.002 M244.293 170.914 C 244.293 198.652,244.325 209.960,244.363 196.043 C 244.401 182.125,244.401 159.430,244.363 145.609 C 244.325 131.788,244.293 143.175,244.293 170.914 M283.381 121.428 C 283.220 121.729,283.126 122.157,283.172 122.379 C 283.218 122.601,283.388 122.354,283.549 121.831 C 283.879 120.763,283.817 120.614,283.381 121.428 M313.709 122.682 L 313.856 123.816 310.249 123.816 C 306.850 123.816,306.635 123.785,306.521 123.278 C 306.420 122.831,306.406 122.842,306.435 123.345 C 306.470 123.939,306.534 123.951,310.274 124.023 L 314.076 124.097 314.049 123.490 C 314.035 123.155,313.919 122.582,313.792 122.215 C 313.623 121.725,313.600 121.849,313.709 122.682 M269.380 124.306 C 269.820 124.795,270.420 125.320,270.714 125.473 C 271.007 125.625,271.127 125.644,270.981 125.516 C 270.834 125.387,270.234 124.862,269.647 124.349 L 268.580 123.416 269.380 124.306 M262.682 125.749 C 262.707 126.829,263.353 127.433,263.533 126.544 C 263.571 126.357,263.541 126.327,263.467 126.478 C 263.179 127.058,262.868 126.706,262.764 125.682 L 262.656 124.612 262.682 125.749 M263.828 125.484 C 263.701 126.011,263.721 126.028,263.991 125.623 C 264.274 125.201,264.351 125.223,264.927 125.890 L 265.554 126.618 264.981 125.751 C 264.305 124.729,264.024 124.664,263.828 125.484 M269.855 127.748 C 270.556 127.803,271.637 127.803,272.256 127.747 C 272.876 127.691,272.302 127.646,270.981 127.646 C 269.660 127.647,269.153 127.693,269.855 127.748 M111.812 140.961 C 111.814 141.291,111.932 141.741,112.075 141.961 C 112.267 142.259,112.334 142.105,112.337 141.361 C 112.340 140.811,112.221 140.360,112.075 140.360 C 111.928 140.360,111.810 140.630,111.812 140.961 M53.836 146.674 C 53.432 146.887,53.102 147.234,53.102 147.446 C 53.102 147.658,52.966 147.832,52.800 147.832 C 52.600 147.832,52.553 148.170,52.660 148.833 C 53.007 150.973,53.382 152.479,53.604 152.620 C 53.731 152.702,53.920 153.159,54.024 153.636 C 54.127 154.113,54.313 154.503,54.436 154.503 C 54.560 154.503,54.740 154.863,54.837 155.304 C 54.933 155.744,55.123 156.104,55.258 156.104 C 55.393 156.104,55.504 156.336,55.504 156.619 C 55.504 156.902,55.692 157.322,55.923 157.553 C 56.154 157.783,56.221 157.972,56.072 157.972 C 55.924 157.972,55.728 157.852,55.637 157.705 C 54.832 156.403,51.768 158.193,51.768 159.965 C 51.768 161.884,56.200 167.331,58.442 168.166 C 58.629 168.236,58.821 170.861,58.736 172.197 C 58.700 172.766,58.172 172.535,58.172 171.951 C 58.172 169.183,54.783 166.980,52.553 168.297 C 51.512 168.912,51.114 171.314,52.053 171.314 C 52.190 171.314,52.302 171.471,52.302 171.663 C 52.302 172.568,57.107 177.281,58.372 177.617 C 58.783 177.726,58.973 177.978,58.973 178.415 C 58.973 178.766,59.077 179.053,59.205 179.053 C 59.333 179.053,59.517 179.648,59.613 180.376 C 59.710 181.104,59.905 181.771,60.048 181.859 C 60.190 181.947,60.307 182.298,60.307 182.638 C 60.307 182.978,60.487 183.406,60.707 183.589 C 61.193 183.992,61.209 184.634,60.747 185.242 C 60.434 185.654,60.367 185.631,59.976 184.975 C 58.765 182.944,56.776 181.851,55.095 182.294 C 51.968 183.117,52.528 187.331,55.962 188.820 C 57.350 189.422,61.959 189.333,62.357 188.696 C 62.580 188.338,63.139 188.146,64.352 188.008 C 65.279 187.903,66.099 187.725,66.174 187.612 C 66.249 187.499,66.630 187.329,67.019 187.234 C 67.744 187.057,67.857 187.973,67.167 188.429 C 66.634 188.782,67.319 189.193,68.441 189.193 C 70.362 189.193,74.280 185.115,74.850 182.522 C 75.192 180.966,73.711 179.549,72.225 180.011 C 71.669 180.184,71.665 180.172,72.115 179.668 C 72.372 179.380,72.582 179.070,72.582 178.978 C 72.582 178.887,72.923 178.296,73.340 177.665 C 75.681 174.120,75.525 171.047,73.003 171.047 C 72.061 171.047,70.714 172.238,70.714 173.069 C 70.714 173.278,70.611 173.449,70.485 173.449 C 70.359 173.449,70.149 173.950,70.018 174.562 C 69.674 176.170,69.287 176.079,68.804 174.275 C 68.398 172.761,68.401 172.687,68.880 172.562 C 69.155 172.490,69.380 172.540,69.380 172.673 C 69.380 173.158,70.329 172.899,70.697 172.315 C 72.700 169.132,74.983 163.558,74.983 161.849 C 74.983 160.049,73.121 158.607,72.106 159.622 C 71.563 160.165,71.477 159.688,71.898 158.473 C 73.429 154.059,72.722 149.425,70.685 150.516 C 70.407 150.664,70.180 150.717,70.180 150.634 C 70.180 150.550,69.940 150.610,69.646 150.767 C 69.353 150.924,69.113 151.219,69.113 151.421 C 69.113 151.624,68.963 151.840,68.779 151.901 C 68.536 151.982,68.409 153.304,68.311 156.793 C 68.181 161.430,68.164 161.546,67.752 160.640 C 67.131 159.275,66.618 158.946,65.374 159.113 C 64.356 159.249,62.982 158.863,62.977 158.439 C 62.976 158.329,62.735 158.239,62.442 158.239 C 61.788 158.239,61.788 158.232,62.416 156.687 C 63.559 153.871,63.776 153.098,63.776 151.840 C 63.776 150.274,63.081 149.433,61.788 149.433 C 60.859 149.433,59.506 150.515,59.506 151.258 C 59.506 151.517,59.373 151.861,59.211 152.023 C 59.048 152.186,58.851 153.114,58.773 154.085 C 58.589 156.377,58.176 156.623,58.159 154.452 C 58.142 152.377,57.915 150.455,57.644 150.100 C 57.533 149.953,57.360 149.383,57.261 148.833 C 57.162 148.282,56.966 147.832,56.826 147.832 C 56.686 147.832,56.571 147.678,56.571 147.489 C 56.571 147.145,55.217 146.206,54.795 146.259 C 54.671 146.275,54.239 146.461,53.836 146.674 M110.874 149.511 C 109.993 149.946,109.233 150.407,109.184 150.535 C 109.135 150.663,108.963 150.767,108.801 150.767 C 108.393 150.767,106.107 151.878,105.907 152.173 C 105.818 152.305,105.664 152.397,105.566 152.376 C 105.320 152.324,102.905 153.518,102.705 153.792 C 102.616 153.914,102.463 153.999,102.366 153.980 C 100.672 153.644,94.336 158.295,94.052 160.083 C 93.969 160.610,93.795 161.236,93.666 161.475 C 93.537 161.714,93.354 162.374,93.260 162.942 C 93.165 163.511,93.015 164.156,92.926 164.376 C 92.728 164.867,92.137 167.465,91.773 169.446 C 91.625 170.254,91.403 171.099,91.281 171.325 C 90.950 171.938,90.638 174.734,90.952 174.277 C 91.170 173.959,91.398 173.965,92.502 174.317 C 93.214 174.544,94.194 174.814,94.681 174.915 C 95.238 175.032,95.645 175.313,95.779 175.675 C 95.983 176.227,97.127 174.954,97.130 174.170 C 97.131 174.054,97.535 173.093,98.029 172.036 C 98.523 170.978,99.206 169.333,99.548 168.379 C 99.891 167.425,100.252 166.584,100.352 166.511 C 100.452 166.438,100.618 165.987,100.722 165.510 C 100.825 165.033,101.020 164.643,101.155 164.643 C 101.290 164.643,101.401 164.463,101.401 164.243 C 101.401 164.023,101.581 163.843,101.801 163.843 C 102.021 163.843,102.201 163.732,102.201 163.597 C 102.201 163.462,102.560 163.272,102.999 163.176 C 103.438 163.080,103.865 162.890,103.949 162.755 C 104.032 162.619,104.216 162.508,104.357 162.508 C 104.626 162.508,104.411 163.778,104.063 164.243 C 103.954 164.390,103.781 164.900,103.679 165.377 C 103.577 165.854,103.398 166.244,103.282 166.244 C 103.165 166.244,102.993 166.730,102.898 167.323 C 102.739 168.315,102.512 168.909,101.883 169.980 C 101.754 170.200,101.506 170.710,101.333 171.114 C 101.159 171.518,100.936 171.848,100.838 171.848 C 100.739 171.848,100.586 172.118,100.499 172.448 C 100.411 172.779,99.979 173.469,99.539 173.983 C 98.228 175.512,98.199 175.551,98.199 175.802 C 98.199 175.935,98.829 176.041,99.600 176.038 C 101.215 176.031,102.034 176.419,106.106 179.123 C 109.950 181.677,111.863 182.508,114.860 182.926 C 119.110 183.520,120.080 183.142,120.080 180.894 C 120.080 180.458,120.254 179.835,120.466 179.510 C 120.826 178.958,120.882 177.849,120.842 171.981 C 120.839 171.541,120.923 169.067,121.029 166.484 C 121.521 154.514,120.380 151.647,114.209 149.361 L 112.475 148.719 110.874 149.511 M121.220 153.169 C 121.220 153.829,121.272 154.099,121.336 153.769 C 121.399 153.439,121.399 152.899,121.336 152.568 C 121.272 152.238,121.220 152.508,121.220 153.169 M132.150 154.503 C 131.834 154.797,131.517 155.037,131.444 155.037 C 131.371 155.037,130.635 155.697,129.808 156.504 C 128.981 157.312,128.232 157.972,128.143 157.972 C 128.054 157.972,127.665 158.275,127.279 158.644 L 126.577 159.317 125.664 158.440 C 124.474 157.299,123.270 156.371,122.979 156.371 C 122.852 156.371,122.748 158.828,122.748 161.830 L 122.748 167.290 123.482 167.971 C 123.886 168.345,124.426 168.718,124.683 168.800 C 124.940 168.882,125.150 169.061,125.150 169.197 C 125.150 169.574,128.576 169.499,129.056 169.113 C 130.344 168.076,132.444 165.765,132.694 165.110 C 132.792 164.853,132.996 164.643,133.147 164.643 C 133.298 164.643,133.422 164.472,133.422 164.262 C 133.422 164.052,133.572 163.720,133.756 163.524 C 133.939 163.328,134.330 162.698,134.623 162.124 C 134.917 161.550,135.277 160.951,135.424 160.793 C 135.965 160.213,136.935 157.938,136.797 157.576 C 136.718 157.371,135.866 156.585,134.904 155.829 C 133.942 155.073,133.155 154.345,133.155 154.212 C 133.155 153.818,132.762 153.932,132.150 154.503 M343.462 156.492 C 343.178 157.133,342.867 157.938,342.771 158.282 C 342.674 158.625,342.491 159.146,342.364 159.440 C 342.066 160.128,340.598 164.953,340.212 166.511 C 339.501 169.377,339.131 171.009,338.878 172.382 C 338.729 173.189,338.494 174.390,338.355 175.050 C 338.215 175.710,337.966 177.452,337.801 178.919 C 337.635 180.387,337.423 182.248,337.329 183.055 L 337.158 184.523 336.835 183.456 C 336.658 182.869,336.437 181.247,336.344 179.853 C 336.251 178.459,336.082 177.198,335.967 177.051 C 335.852 176.905,335.672 175.765,335.567 174.519 C 335.462 173.273,335.297 172.132,335.200 171.984 C 335.103 171.836,334.884 170.994,334.714 170.113 C 334.199 167.455,333.813 165.866,333.578 165.433 C 333.455 165.208,333.270 164.518,333.165 163.900 C 333.061 163.283,332.873 162.715,332.747 162.637 C 332.622 162.559,332.439 161.963,332.341 161.311 C 332.244 160.659,332.087 160.136,331.992 160.148 C 331.453 160.217,331.201 160.041,331.074 159.506 C 330.843 158.534,330.067 156.523,329.830 156.279 C 329.709 156.156,329.357 156.730,329.048 157.557 C 328.248 159.693,328.315 161.637,329.286 164.510 C 330.232 167.308,330.293 168.649,329.531 169.882 C 328.801 171.063,328.679 171.029,327.734 169.380 C 325.925 166.223,322.767 162.824,319.041 160.021 C 317.396 158.785,317.214 158.792,317.667 160.074 C 317.868 160.644,318.113 161.814,318.211 162.676 C 318.939 169.040,319.854 170.971,323.128 173.057 C 325.653 174.666,326.210 176.857,324.885 179.963 L 324.440 181.007 322.232 178.754 C 320.363 176.847,317.228 173.966,315.309 172.392 C 315.034 172.166,315.324 172.822,315.953 173.849 C 318.083 177.322,319.396 180.420,319.676 182.626 C 319.991 185.111,320.373 185.887,321.895 187.134 C 323.465 188.420,323.837 189.304,324.290 192.819 C 324.550 194.835,324.902 196.281,325.395 197.355 C 326.057 198.799,326.080 198.955,325.669 199.199 C 323.865 200.270,323.547 200.585,323.502 201.343 L 323.455 202.135 323.637 201.338 C 323.768 200.769,324.142 200.364,324.950 199.918 L 326.081 199.295 327.217 200.212 C 329.715 202.232,330.948 202.529,336.853 202.532 C 346.957 202.538,349.878 200.349,350.601 192.230 C 350.787 190.144,352.010 188.134,353.099 188.127 C 353.557 188.124,354.678 185.851,354.823 184.631 C 354.909 183.902,355.082 183.243,355.208 183.165 C 355.334 183.087,355.437 182.649,355.437 182.191 C 355.437 181.345,356.457 177.962,356.786 177.718 C 356.885 177.645,357.059 177.285,357.171 176.918 C 357.284 176.551,357.457 176.191,357.555 176.117 C 357.653 176.044,358.025 175.504,358.381 174.917 C 359.018 173.868,359.514 173.224,360.707 171.902 C 361.310 171.233,361.521 170.247,361.061 170.247 C 360.430 170.247,355.934 174.014,352.502 177.420 C 350.353 179.551,349.954 179.847,349.881 179.360 C 349.834 179.044,349.684 178.786,349.548 178.786 C 349.411 178.786,349.300 177.996,349.300 177.031 C 349.300 175.369,350.160 173.716,351.024 173.716 C 351.295 173.716,352.836 172.573,353.732 171.709 C 354.680 170.794,355.704 168.735,355.704 167.742 C 355.704 167.376,355.813 167.009,355.946 166.927 C 356.079 166.844,356.273 165.635,356.378 164.238 C 356.483 162.842,356.674 161.634,356.803 161.555 C 356.932 161.475,357.039 161.146,357.040 160.825 C 357.041 160.503,357.220 159.897,357.439 159.479 C 359.394 155.728,351.804 161.327,348.124 166.349 C 347.360 167.392,346.448 168.717,346.098 169.293 C 345.692 169.962,345.420 170.203,345.347 169.961 C 345.284 169.751,345.050 169.183,344.827 168.698 C 344.521 168.032,344.491 167.673,344.707 167.230 C 344.863 166.908,345.071 166.164,345.168 165.577 C 345.265 164.990,345.484 164.341,345.654 164.135 C 346.077 163.624,346.080 157.491,345.657 157.228 C 345.489 157.124,345.309 156.751,345.257 156.400 C 345.070 155.126,344.043 155.179,343.462 156.492 M122.052 162.508 C 122.052 164.490,122.095 165.300,122.146 164.310 C 122.197 163.319,122.197 161.698,122.146 160.707 C 122.095 159.716,122.052 160.527,122.052 162.508 M64.310 164.140 C 64.310 164.688,64.926 166.211,66.061 168.470 C 66.852 170.043,66.862 170.141,66.161 169.488 C 65.344 168.727,63.601 168.779,62.531 169.596 C 61.006 170.758,59.813 170.413,60.841 169.107 C 61.134 168.733,61.374 168.297,61.374 168.137 C 61.374 167.976,61.464 167.843,61.574 167.841 C 61.684 167.838,62.253 166.828,62.837 165.595 C 63.857 163.445,64.310 162.998,64.310 164.140 M69.662 166.214 C 69.507 166.505,69.380 167.251,69.380 167.872 C 69.380 169.635,69.203 168.998,69.026 166.595 C 68.884 164.669,68.919 164.401,69.323 164.321 C 69.879 164.212,70.094 165.409,69.662 166.214 M195.725 166.845 C 195.658 167.028,195.711 167.959,195.843 168.913 L 196.082 170.647 196.040 168.581 C 195.997 166.500,195.949 166.233,195.725 166.845 M121.743 167.578 C 121.743 168.092,121.798 168.302,121.865 168.045 C 121.932 167.789,121.932 167.368,121.865 167.111 C 121.798 166.855,121.743 167.065,121.743 167.578 M190.127 169.179 C 190.127 170.179,190.215 170.858,190.323 170.688 C 190.431 170.519,190.519 169.840,190.519 169.179 C 190.519 168.519,190.431 167.840,190.323 167.671 C 190.215 167.501,190.127 168.180,190.127 169.179 M177.297 168.471 C 177.222 168.668,177.197 169.718,177.242 170.805 L 177.324 172.782 177.455 170.446 C 177.585 168.119,177.558 167.790,177.297 168.471 M121.340 170.247 C 121.238 170.614,121.166 171.334,121.180 171.848 C 121.205 172.746,121.215 172.736,121.446 171.581 C 121.715 170.232,121.633 169.195,121.340 170.247 M196.193 171.848 C 196.193 172.362,196.248 172.572,196.315 172.315 C 196.382 172.058,196.382 171.638,196.315 171.381 C 196.248 171.124,196.193 171.334,196.193 171.848 M63.768 174.501 C 64.058 175.043,63.653 176.384,63.199 176.384 C 62.932 176.384,62.916 175.945,63.142 174.817 C 63.337 173.840,63.398 173.810,63.768 174.501 M196.438 174.983 C 196.390 176.010,195.864 176.125,195.222 175.250 L 194.781 174.650 195.073 175.265 C 195.682 176.549,196.798 176.267,196.592 174.882 C 196.479 174.129,196.477 174.130,196.438 174.983 M166.973 176.260 C 166.425 176.633,165.977 176.995,165.977 177.065 C 165.977 177.135,166.458 176.875,167.045 176.486 C 167.977 175.869,168.292 175.584,168.041 175.584 C 168.001 175.584,167.521 175.888,166.973 176.260 M173.146 177.195 C 172.759 177.630,172.531 177.985,172.638 177.985 C 172.844 177.985,173.505 177.278,173.824 176.718 C 174.126 176.187,173.904 176.344,173.146 177.195 M186.469 176.699 C 187.042 176.927,189.923 176.922,190.744 176.691 C 191.083 176.596,190.157 176.518,188.687 176.518 C 187.217 176.518,186.219 176.599,186.469 176.699 M170.647 178.252 C 169.921 178.437,169.908 178.457,170.514 178.469 C 170.881 178.476,171.421 178.378,171.714 178.252 C 172.372 177.969,171.758 177.969,170.647 178.252 M68.379 178.624 C 68.674 178.919,68.704 179.427,68.526 181.092 C 68.333 182.887,68.363 183.233,68.734 183.504 C 68.972 183.678,69.088 183.947,68.992 184.102 C 68.881 184.281,68.610 184.191,68.248 183.853 C 67.934 183.561,67.550 183.309,67.395 183.294 C 66.364 183.191,65.375 183.482,64.345 184.190 C 63.056 185.077,63.092 184.919,64.630 182.963 C 65.189 182.252,66.076 180.901,66.602 179.961 C 67.610 178.158,67.783 178.028,68.379 178.624 M44.614 191.563 C 44.363 191.718,44.359 192.152,44.592 193.480 C 45.044 196.050,45.199 200.934,44.829 200.934 C 44.663 200.934,44.592 201.144,44.672 201.401 C 44.751 201.658,44.931 202.895,45.072 204.150 C 45.305 206.229,45.986 208.133,46.498 208.137 C 46.608 208.138,46.698 208.309,46.698 208.518 C 46.698 208.727,47.252 209.452,47.930 210.130 C 49.102 211.301,49.169 211.450,49.297 213.153 C 49.457 215.289,48.955 215.065,47.783 212.475 C 47.634 212.145,47.397 211.875,47.258 211.875 C 47.118 211.875,46.965 211.701,46.917 211.489 C 46.719 210.602,42.553 205.921,40.176 203.914 C 39.220 203.107,38.159 203.297,38.159 204.275 C 38.159 204.639,38.266 204.937,38.397 204.937 C 38.695 204.937,41.361 210.209,41.361 210.799 C 41.361 211.038,41.505 211.378,41.681 211.554 C 41.892 211.765,42.021 213.120,42.060 215.543 C 42.136 220.264,42.741 221.582,45.787 223.669 C 46.917 224.443,47.606 226.016,47.380 227.303 C 46.914 229.950,46.920 230.454,47.424 231.370 C 48.423 233.185,48.655 233.221,59.173 233.222 C 64.346 233.222,68.579 233.318,68.579 233.436 C 68.579 233.553,68.429 233.817,68.245 234.023 C 67.962 234.341,67.982 234.344,68.379 234.044 C 69.326 233.327,68.939 232.955,67.245 232.955 C 66.355 232.955,65.644 232.837,65.644 232.688 C 65.644 232.542,65.754 232.422,65.889 232.422 C 66.787 232.422,67.244 230.631,67.071 227.792 L 66.897 224.959 68.964 223.028 C 71.392 220.758,72.051 219.619,72.104 217.599 C 72.139 216.252,72.199 216.118,72.829 215.981 C 74.033 215.718,74.073 215.653,73.049 215.631 C 72.090 215.611,71.431 213.789,72.252 213.431 C 72.364 213.382,72.673 212.622,72.938 211.741 C 73.447 210.052,75.715 205.185,76.124 204.906 C 76.599 204.583,76.205 203.472,75.584 203.384 C 75.254 203.337,74.983 203.432,74.983 203.595 C 74.983 203.758,73.812 205.123,72.381 206.628 C 70.949 208.133,68.760 210.830,67.516 212.621 C 64.997 216.247,64.860 216.355,64.804 214.743 C 64.705 211.826,64.940 211.146,66.724 209.206 C 68.895 206.845,69.521 204.467,69.216 199.749 C 69.101 197.964,69.157 196.225,69.376 194.817 C 69.563 193.620,69.647 192.574,69.565 192.491 C 68.912 191.838,63.720 202.633,61.654 208.939 C 60.384 212.818,60.105 213.847,58.978 218.813 C 58.506 220.891,57.642 227.160,57.636 228.552 C 57.628 230.396,57.185 229.614,56.962 227.360 C 56.612 223.841,55.431 217.236,54.730 214.872 C 54.588 214.393,54.539 213.584,54.622 213.074 C 54.704 212.563,54.650 211.995,54.501 211.810 C 54.352 211.625,54.146 210.965,54.043 210.342 C 53.940 209.719,53.760 209.150,53.643 209.077 C 53.525 209.005,53.348 208.511,53.249 207.981 C 53.149 207.451,52.905 206.639,52.707 206.177 C 52.251 205.116,51.678 203.733,51.203 202.548 C 49.182 197.504,45.347 191.110,44.614 191.563 M84.195 210.093 C 84.263 210.800,84.447 211.581,84.604 211.827 C 84.827 212.176,84.849 212.099,84.702 211.474 C 84.049 208.692,84.066 208.737,84.195 210.093 M85.037 213.075 C 85.124 213.516,85.296 214.056,85.418 214.276 C 85.818 214.995,85.680 213.976,85.256 213.075 L 84.878 212.275 85.037 213.075 M88.443 213.328 C 88.728 213.556,89.148 213.733,89.377 213.721 C 89.737 213.703,89.739 213.680,89.393 213.552 C 89.173 213.470,88.753 213.293,88.459 213.158 C 87.934 212.916,87.934 212.919,88.443 213.328 M85.838 215.477 C 85.925 215.917,86.096 216.458,86.219 216.678 C 86.619 217.396,86.481 216.378,86.056 215.477 L 85.679 214.676 85.838 215.477 M86.622 217.879 C 86.716 218.319,86.911 218.799,87.056 218.946 C 87.228 219.121,87.251 218.984,87.122 218.546 C 86.806 217.468,86.425 216.960,86.622 217.879 M124.350 218.279 L 123.149 218.466 124.267 218.506 C 124.882 218.528,125.460 218.426,125.550 218.279 C 125.641 218.132,125.678 218.030,125.633 218.052 C 125.587 218.074,125.010 218.176,124.350 218.279 M87.439 220.280 C 87.526 220.720,87.697 221.261,87.820 221.481 C 88.220 222.200,88.082 221.181,87.657 220.280 L 87.280 219.480 87.439 220.280 M89.994 220.547 C 89.997 221.134,90.052 221.343,90.115 221.011 C 90.179 220.679,90.177 220.199,90.110 219.944 C 90.043 219.688,89.991 219.960,89.994 220.547 M134.757 220.636 C 134.757 220.852,133.799 220.965,131.621 221.004 L 128.486 221.061 131.532 221.147 C 134.350 221.226,135.451 221.019,134.939 220.507 C 134.839 220.407,134.757 220.465,134.757 220.636 M324.102 222.968 C 324.004 223.359,323.975 223.730,324.038 223.793 C 324.101 223.856,324.232 223.587,324.331 223.196 C 324.429 222.805,324.457 222.434,324.395 222.371 C 324.332 222.308,324.200 222.577,324.102 222.968 M323.483 227.485 C 323.486 228.072,323.541 228.281,323.604 227.949 C 323.668 227.617,323.666 227.137,323.599 226.881 C 323.532 226.626,323.480 226.898,323.483 227.485 M67.101 235.690 C 66.690 236.314,66.524 236.684,66.732 236.512 C 67.133 236.180,68.155 234.556,67.962 234.556 C 67.900 234.556,67.513 235.067,67.101 235.690 M65.500 238.092 C 65.089 238.716,64.923 239.085,65.131 238.913 C 65.532 238.582,66.554 236.958,66.361 236.958 C 66.299 236.958,65.912 237.468,65.500 238.092 " stroke="none" fill="#107d5c" fill-rule="evenodd"></path></g></svg>