<?xml version="1.0" standalone="no"?>
<!DOCTYPE svg PUBLIC "-//W3C//DTD SVG 20010904//EN"
 "http://www.w3.org/TR/2001/REC-SVG-20010904/DTD/svg10.dtd">
<svg version="1.0" xmlns="http://www.w3.org/2000/svg"
 width="186.000000pt" height="191.000000pt" viewBox="0 0 186.000000 191.000000"
 preserveAspectRatio="xMidYMid meet">
<metadata>
Created by potrace 1.15, written by Peter Selinger 2001-2017
</metadata>
<g transform="translate(0.000000,191.000000) scale(0.100000,-0.100000)"
fill="#000000" stroke="none">
<path d="M51 1896 c-52 -29 -50 3 -51 -942 0 -873 0 -882 20 -907 30 -38 77
-47 235 -46 l140 0 275 349 c244 310 278 350 303 350 l28 0 -19 -27 c-11 -16
-128 -172 -261 -348 -223 -297 -238 -320 -215 -323 14 -2 31 -1 38 1 7 3 60
71 117 151 97 137 105 146 136 146 18 0 33 -2 33 -5 0 -3 -43 -69 -95 -148
l-95 -142 31 -3 c17 -2 36 1 42 7 5 5 105 162 221 348 186 296 215 338 239
341 15 2 27 1 27 -2 0 -3 -90 -159 -200 -347 -110 -188 -200 -343 -200 -346 0
-2 17 -3 38 -1 l37 3 95 177 c93 173 96 177 128 178 17 0 32 -2 32 -5 0 -3
-38 -82 -85 -175 -47 -93 -85 -172 -85 -175 0 -4 16 -5 36 -3 l36 3 138 300
c135 293 139 300 169 303 29 3 30 2 22 -20 -5 -13 -61 -147 -125 -298 -64
-151 -116 -278 -116 -283 0 -5 16 -7 36 -5 l36 3 41 108 c40 107 40 107 74
107 18 0 33 -4 33 -8 0 -5 -13 -48 -30 -97 -16 -49 -30 -95 -30 -102 0 -8 13
-13 34 -13 40 0 28 -27 111 255 83 280 72 255 106 255 24 0 29 -4 25 -18 -3
-9 -30 -116 -61 -237 -30 -121 -58 -228 -61 -237 -4 -15 1 -18 34 -18 l39 0
32 148 c129 605 113 547 144 550 15 2 27 0 27 -5 0 -10 -108 -640 -115 -671
-5 -20 -2 -22 35 -22 37 0 40 2 40 28 0 59 9 72 52 72 l40 0 -7 -50 -7 -49 32
9 c40 12 55 24 69 58 8 19 11 272 9 904 l-3 878 -28 27 -27 28 -863 2 c-703 2
-866 0 -886 -11z m192 -147 c29 -16 37 -28 37 -61 0 -23 -4 -28 -25 -28 -20 0
-25 5 -25 25 0 18 -5 25 -20 25 -19 0 -20 -7 -20 -90 0 -82 2 -90 19 -90 14 0
21 8 23 28 2 19 9 28 26 30 19 3 22 -1 22 -32 0 -62 -60 -95 -108 -59 -25 19
-27 26 -30 109 -3 107 1 127 30 142 30 14 45 14 71 1z m127 -99 c0 -92 3 -112
16 -117 26 -10 34 17 34 125 0 101 0 103 23 100 21 -3 22 -7 25 -116 3 -108 2
-113 -22 -137 -32 -32 -70 -32 -101 0 -24 23 -25 31 -25 133 0 60 3 112 7 115
3 4 15 7 25 7 16 0 18 -10 18 -110z m204 45 l21 -60 5 60 c4 52 8 60 25 60 19
0 20 -8 23 -132 l3 -133 -25 0 c-21 0 -27 9 -49 73 l-25 72 -1 -72 c-1 -71 -2
-73 -26 -73 l-25 0 0 128 c0 71 3 132 7 136 4 4 16 6 27 4 14 -2 25 -20 40
-63z m157 28 c18 -59 21 -60 36 -10 10 34 19 47 32 47 30 0 30 -9 5 -83 -14
-43 -24 -93 -24 -129 0 -58 0 -58 -30 -58 -30 0 -30 0 -30 58 0 36 -10 86 -24
129 -25 74 -25 83 5 83 11 0 22 -13 30 -37z m-471 -318 c0 -18 -5 -25 -20 -25
-19 0 -20 -7 -20 -110 l0 -110 -25 0 -25 0 0 110 0 110 -25 0 c-20 0 -25 5
-25 25 0 24 2 25 70 25 68 0 70 -1 70 -25z m150 0 c0 -22 -4 -25 -40 -25 -38
0 -40 -2 -40 -30 0 -27 3 -30 30 -30 25 0 30 -4 30 -25 0 -21 -5 -25 -30 -25
-28 0 -30 -3 -30 -35 0 -34 1 -35 40 -35 33 0 40 -3 40 -20 0 -18 -7 -20 -65
-20 l-65 0 0 135 0 135 65 0 c63 0 65 -1 65 -25z m154 6 c9 -10 18 -31 19 -47
2 -23 -3 -30 -19 -32 -16 -2 -23 4 -28 22 -3 15 -13 26 -21 26 -12 0 -15 -17
-15 -90 0 -74 3 -90 15 -90 9 0 18 13 22 31 4 23 10 29 27 27 17 -2 21 -9 19
-37 -2 -44 -24 -65 -68 -65 -57 0 -69 21 -73 127 -3 82 -1 95 18 120 26 33 78
37 104 8z m116 -36 c0 -48 2 -55 20 -55 18 0 20 7 20 55 0 52 1 55 25 55 l25
0 0 -135 0 -135 -25 0 c-24 0 -25 3 -25 55 0 48 -2 55 -20 55 -18 0 -20 -7
-20 -55 0 -52 -1 -55 -25 -55 l-25 0 0 135 0 135 25 0 c24 0 25 -3 25 -55z
m628 -442 l2 -222 -80 -161 c-77 -153 -81 -160 -110 -160 -17 0 -30 3 -30 6 0
3 36 72 80 153 l80 147 0 225 c0 124 3 229 7 233 4 4 16 6 28 4 19 -3 20 -10
23 -225z m100 2 c2 -183 0 -227 -14 -262 -13 -37 -20 -43 -45 -43 -29 0 -29 0
-14 30 12 23 15 72 15 258 0 126 3 232 7 236 4 4 16 6 28 4 19 -3 20 -10 23
-223z m404 -17 c2 -117 0 -240 -4 -273 -4 -33 -10 -90 -13 -127 -6 -67 -7 -68
-36 -68 -34 0 -34 -2 -14 135 9 63 14 183 15 323 l0 222 25 0 25 0 2 -212z
m-1548 161 c54 -43 24 -139 -44 -139 -30 0 -30 -1 -30 -55 0 -52 -1 -55 -25
-55 l-25 0 0 135 0 135 49 0 c34 0 56 -6 75 -21z m181 -4 c29 -28 32 -70 9
-103 -14 -20 -14 -27 0 -76 20 -68 20 -66 -8 -66 -20 0 -26 8 -38 52 -20 72
-38 74 -38 4 0 -53 -1 -56 -25 -56 l-25 0 0 135 0 135 50 0 c41 0 56 -5 75
-25z m185 0 c0 -22 -4 -25 -35 -25 -32 0 -35 -2 -35 -30 0 -25 4 -30 25 -30
18 0 25 -5 25 -20 0 -15 -7 -20 -25 -20 -22 0 -25 -4 -25 -40 l0 -40 40 0 c34
0 40 -3 40 -20 0 -19 -5 -21 -67 -18 l-68 3 -3 119 c-1 66 0 126 2 133 4 9 25
13 66 13 57 0 60 -1 60 -25z m165 0 c50 -49 21 -135 -45 -135 -30 0 -30 -1
-30 -55 0 -52 -1 -55 -25 -55 l-25 0 0 135 0 135 50 0 c41 0 56 -5 75 -25z
m640 -592 c-41 -119 -75 -218 -75 -220 0 -2 -16 -3 -36 -3 -20 0 -34 4 -32 9
2 4 39 103 83 220 77 204 81 211 107 211 l28 0 -75 -217z m351 -80 c-2 -10 -7
-58 -11 -108 -10 -151 -12 -155 -51 -155 -40 0 -39 -8 -17 156 l16 124 34 0
c28 0 33 -3 29 -17z"/>
</g>
</svg>
