<?xml version="1.0" standalone="no"?>
<!DOCTYPE svg PUBLIC "-//W3C//DTD SVG 20010904//EN"
 "http://www.w3.org/TR/2001/REC-SVG-20010904/DTD/svg10.dtd">
<svg version="1.0" xmlns="http://www.w3.org/2000/svg"
 width="1077.000000pt" height="1504.000000pt" viewBox="0 0 1077.000000 1504.000000"
 preserveAspectRatio="xMidYMid meet">
<metadata>
Created by potrace 1.15, written by Peter Selinger 2001-2017
</metadata>
<g transform="translate(0.000000,1504.000000) scale(0.100000,-0.100000)"
fill="#000000" stroke="none">
<path d="M4948 14377 c-11 -4 -54 -9 -96 -12 -42 -3 -79 -9 -82 -14 -3 -6 -46
-10 -95 -10 -109 0 -152 -4 -162 -15 -4 -5 21 -6 57 -3 92 9 63 0 -52 -16 -54
-7 -99 -10 -100 -5 -2 4 -29 1 -61 -7 -32 -8 -76 -15 -98 -15 -22 0 -38 -4
-35 -8 3 -5 -18 -17 -47 -26 -29 -10 -61 -24 -72 -31 -11 -6 -37 -17 -57 -24
-24 -8 -35 -17 -32 -25 6 -14 -40 -56 -61 -56 -7 0 -18 -6 -24 -14 -7 -8 -27
-22 -46 -31 -19 -9 -35 -19 -35 -24 0 -4 -56 -27 -125 -52 -69 -24 -121 -45
-115 -47 15 -5 -19 -42 -38 -42 -11 0 -13 -8 -9 -29 5 -25 1 -32 -33 -55 -43
-28 -51 -39 -22 -30 22 7 -74 -81 -107 -98 -36 -18 -148 -140 -200 -218 -24
-36 -78 -101 -121 -145 -42 -44 -91 -105 -108 -136 -17 -30 -41 -64 -52 -74
-20 -18 -28 -41 -10 -30 13 8 13 2 -2 -30 -6 -14 -15 -25 -19 -25 -5 0 -6 -6
-3 -14 3 -8 -8 -40 -25 -71 -17 -32 -31 -65 -31 -74 0 -10 -7 -26 -15 -37 -16
-21 -20 -38 -6 -30 5 3 8 -13 8 -37 -1 -29 -8 -49 -24 -64 -21 -20 -23 -60 -2
-47 5 3 5 -6 -1 -20 -11 -31 0 -34 18 -6 7 11 17 20 24 20 6 0 4 -8 -6 -19 -9
-10 -18 -31 -19 -47 -1 -16 -6 -32 -11 -36 -5 -3 -11 -12 -12 -20 -2 -7 -6
-24 -9 -38 -6 -23 -5 -24 8 -7 22 26 30 20 11 -8 -9 -15 -13 -25 -8 -24 27 5
36 -3 14 -13 -15 -6 -20 -12 -12 -15 17 -6 15 -24 -5 -53 -17 -24 -26 -83 -11
-74 4 3 8 -2 8 -10 0 -9 5 -16 11 -16 8 0 8 -4 1 -13 -6 -7 -13 -31 -16 -55
-4 -34 -2 -42 11 -42 14 0 14 -3 -2 -20 -10 -11 -15 -20 -11 -20 4 0 2 -9 -4
-19 -7 -14 -7 -20 2 -23 8 -3 8 -10 -1 -26 -9 -18 -9 -22 1 -20 7 2 11 -4 9
-12 -5 -22 -11 -89 -11 -119 0 -14 0 -37 1 -51 0 -14 -5 -26 -11 -28 -5 -2
-10 -8 -10 -13 0 -6 4 -8 9 -5 5 4 16 3 25 0 12 -5 13 -9 3 -24 -9 -15 -8 -26
5 -53 9 -19 14 -38 10 -42 -11 -10 -8 -304 2 -297 5 3 7 -2 3 -11 -3 -10 -2
-17 3 -17 5 0 7 -7 4 -15 -4 -9 1 -18 11 -21 9 -4 14 -13 11 -20 -3 -8 -1 -14
5 -14 6 0 8 -4 5 -8 -3 -5 -7 -20 -10 -35 -3 -18 -1 -24 8 -21 24 9 43 -30 49
-104 4 -44 2 -70 -4 -67 -5 4 -9 12 -9 19 0 8 -7 19 -15 26 -12 10 -15 9 -16
-6 -1 -11 -2 -26 -3 -34 0 -8 14 -30 32 -47 28 -28 31 -36 22 -53 -10 -18 -14
-19 -28 -8 -13 11 -15 11 -7 -2 7 -13 6 -13 -7 -2 -9 7 -19 24 -22 38 -4 13
-15 39 -26 57 l-20 32 0 -42 c0 -23 6 -62 14 -85 19 -57 36 -164 36 -222 0
-26 4 -45 8 -42 4 3 17 -15 28 -40 10 -24 23 -44 27 -44 5 0 6 -4 3 -9 -3 -5
0 -11 8 -14 9 -3 12 -15 9 -31 -3 -14 -1 -26 4 -26 6 0 9 19 8 43 -2 23 1 47
7 54 6 8 5 19 -2 33 -6 11 -8 25 -4 31 4 6 11 2 18 -12 15 -30 36 -36 36 -10
0 23 15 32 55 35 14 0 25 4 25 9 0 4 9 7 20 7 14 0 18 5 13 17 -5 13 -3 15 13
9 10 -5 24 -9 30 -9 7 0 20 -16 29 -36 26 -54 87 -153 91 -148 3 3 -15 44 -39
93 -24 49 -49 103 -55 119 -21 55 -40 155 -31 161 5 3 9 -2 9 -10 0 -9 4 -16
9 -16 5 0 9 -6 8 -12 -1 -39 5 -58 18 -58 9 0 12 -6 9 -15 -5 -11 -2 -13 10
-9 9 3 16 13 16 21 0 11 7 13 25 9 14 -4 25 -2 25 4 0 5 -4 10 -10 10 -5 0
-10 8 -10 18 1 14 3 14 20 -6 l18 -22 20 25 c11 14 25 25 32 25 6 0 9 4 6 8
-9 15 34 42 67 42 25 0 29 3 17 11 -11 8 -7 9 16 4 22 -4 35 -1 44 10 7 9 22
13 34 10 12 -3 15 -2 9 1 -18 8 -16 24 2 24 8 0 15 -7 15 -15 0 -8 5 -15 11
-15 6 0 9 6 6 13 -3 8 -1 20 4 28 7 12 9 12 9 0 0 -10 7 -8 24 8 21 20 36 23
137 26 63 2 127 4 142 4 16 1 26 5 23 10 -3 5 18 9 47 9 66 0 150 10 182 22
14 5 29 9 33 8 20 -4 84 16 89 29 3 7 -3 23 -12 33 -18 19 -17 20 6 19 34 -1
54 -12 54 -29 0 -10 12 -16 33 -18 17 -2 32 -5 32 -8 0 -3 -11 -26 -24 -52
-34 -68 -51 -155 -34 -181 8 -13 23 -21 38 -20 l25 1 -25 7 c-14 4 -26 15 -28
25 -5 25 7 66 19 66 6 0 7 -4 4 -10 -3 -5 1 -10 9 -10 9 0 16 -4 16 -9 0 -18
39 2 46 23 4 11 11 24 17 28 12 7 19 101 17 231 0 48 3 87 9 87 11 0 24 -125
16 -160 -3 -14 -8 -54 -11 -90 -7 -68 -38 -200 -55 -232 -5 -10 -8 -18 -5 -18
7 0 -74 -153 -92 -173 -8 -9 -20 -27 -26 -40 -7 -12 -16 -22 -21 -23 -6 0 -30
-10 -55 -22 -25 -12 -50 -22 -57 -22 -6 0 -19 -8 -29 -17 -13 -14 -33 -18 -78
-17 -36 0 -51 -2 -36 -6 34 -9 -116 -27 -285 -36 -143 -7 -324 8 -340 29 -5 7
-21 13 -35 14 -14 0 -36 4 -49 8 -38 13 -21 -15 25 -39 36 -19 56 -21 249 -21
260 0 325 4 463 26 174 27 250 72 324 191 33 54 52 99 123 293 12 34 27 59 34
57 7 -1 10 2 6 8 -4 6 -2 16 3 23 14 17 35 162 27 187 -4 11 -2 20 4 20 6 0
11 11 11 25 0 21 45 68 68 71 4 0 20 6 35 12 16 7 32 12 37 12 5 0 11 6 13 13
4 8 6 7 6 -3 1 -10 13 -16 38 -18 31 -2 65 -28 69 -52 0 -3 10 -25 22 -50 12
-25 31 -76 43 -115 24 -81 112 -253 174 -340 71 -100 158 -170 235 -188 66
-16 224 -17 350 -3 150 17 344 43 404 54 55 10 41 27 -19 25 l-50 -2 55 18
c127 41 202 98 235 176 9 22 27 85 40 140 13 55 24 92 24 83 1 -17 21 -22 69
-21 15 1 15 -3 2 -28 -9 -15 -7 -19 5 -19 9 0 13 4 10 10 -3 5 -2 17 3 27 8
14 11 13 17 -8 l8 -24 13 30 c7 17 13 25 14 19 0 -13 50 -14 50 -1 0 4 7 7 15
7 8 0 15 -4 15 -10 0 -5 4 -10 10 -10 5 0 7 7 4 15 -4 8 -1 15 5 15 6 0 11 7
11 16 0 12 7 15 26 11 18 -3 24 -1 20 8 -7 19 27 45 59 45 23 0 26 -3 17 -12
-7 -7 -12 -17 -12 -22 0 -6 4 -5 8 2 6 9 14 6 29 -12 12 -13 19 -26 17 -29 -2
-2 -6 -29 -9 -59 -3 -42 -1 -59 10 -68 8 -7 15 -9 15 -4 0 5 7 -2 16 -14 9
-13 14 -32 11 -43 -3 -10 -1 -19 4 -19 4 0 13 -10 20 -21 8 -16 8 -23 -1 -29
-9 -6 -9 -9 0 -15 6 -4 9 -13 6 -21 -3 -8 -1 -14 5 -14 6 0 7 -5 4 -10 -4 -6
-1 -17 5 -25 10 -12 9 -16 -4 -21 -9 -3 -16 -11 -16 -16 0 -6 7 -8 14 -5 16 6
12 -17 -7 -41 -8 -10 -7 -16 1 -21 12 -7 13 -131 1 -131 -3 0 -10 5 -17 12 -9
9 -12 9 -12 0 0 -7 4 -12 10 -12 5 0 6 -7 3 -17 -4 -11 -3 -14 5 -9 16 10 14
-5 -3 -28 -21 -28 -20 -57 2 -49 12 5 15 2 10 -10 -4 -11 -2 -14 7 -11 9 3 15
-5 18 -25 4 -31 -6 -43 -15 -18 -7 15 -27 -10 -26 -33 0 -10 2 -11 6 -2 2 6 9
10 14 6 16 -9 10 -24 -10 -24 -37 0 -50 -10 -43 -33 4 -12 7 -33 7 -47 -1 -22
-5 -25 -33 -24 -25 2 -32 -2 -32 -16 0 -22 20 -37 29 -22 3 6 18 13 32 17 19
5 25 12 22 24 -3 12 2 20 16 24 15 4 19 10 15 22 -6 16 -9 15 -24 -5 l-17 -22
0 31 c0 31 12 37 55 32 6 -1 12 6 12 15 0 10 3 15 6 11 10 -10 13 -98 3 -92
-5 4 -9 -1 -9 -9 0 -9 -5 -16 -11 -16 -5 0 -7 -5 -4 -11 5 -6 12 -4 20 8 13
17 14 16 8 -4 -4 -19 -1 -23 20 -23 13 0 30 -7 37 -15 9 -10 9 -15 1 -15 -6 0
-11 5 -11 10 0 6 -5 10 -11 10 -7 0 -9 -10 -5 -25 4 -14 2 -25 -4 -25 -5 0
-10 -4 -10 -10 0 -5 7 -10 15 -10 8 0 15 -7 15 -15 0 -8 -3 -14 -7 -14 -23 4
-24 -4 -3 -26 17 -18 21 -31 17 -54 -4 -19 -2 -31 6 -35 7 -2 4 -5 -6 -5 -12
-1 -16 -5 -10 -13 9 -16 5 -62 -8 -106 -8 -25 -8 -37 2 -48 10 -13 10 -17 -2
-25 -11 -7 -11 -11 -2 -17 9 -6 6 -15 -12 -36 -14 -16 -22 -33 -19 -37 3 -5 1
-9 -3 -9 -5 0 -8 -26 -7 -57 1 -49 -3 -63 -26 -93 -18 -23 -30 -54 -35 -88 -4
-29 -11 -52 -16 -52 -5 0 -9 -11 -9 -23 0 -26 -32 -61 -45 -50 -4 5 -6 1 -3
-7 2 -8 -8 -33 -23 -55 -24 -34 -26 -42 -13 -51 13 -10 13 -12 -1 -18 -8 -3
-15 -12 -15 -21 0 -8 -4 -15 -9 -15 -12 0 -81 -106 -81 -125 0 -8 -6 -15 -14
-15 -8 0 -22 -18 -32 -40 -10 -22 -24 -40 -32 -40 -7 0 -10 -4 -7 -10 3 -5 1
-10 -5 -10 -6 0 -9 -4 -6 -9 3 -5 -6 -12 -20 -15 -17 -5 -24 -12 -20 -21 3 -9
-1 -15 -9 -15 -8 0 -19 -10 -26 -21 -8 -15 -13 -18 -19 -10 -5 9 -9 8 -14 -4
-9 -24 -8 -25 12 -18 11 4 8 -3 -10 -21 -15 -14 -34 -26 -42 -26 -10 0 -13 -6
-10 -15 4 -10 0 -15 -15 -15 -24 0 -79 -50 -73 -68 2 -6 -8 -14 -22 -18 -14
-3 -32 -17 -41 -30 -18 -28 -37 -32 -28 -6 6 15 5 15 -10 3 -9 -7 -15 -17 -12
-21 3 -5 -4 -11 -15 -15 -11 -3 -25 -15 -30 -26 -6 -10 -17 -19 -25 -19 -8 0
-15 -7 -15 -15 0 -8 -9 -15 -21 -15 -11 0 -17 -4 -14 -10 3 -6 -4 -10 -16 -10
-12 0 -20 -3 -16 -6 10 -10 -27 -44 -48 -44 -11 0 -32 -11 -47 -24 -14 -14
-29 -22 -34 -18 -4 4 -4 1 0 -6 7 -12 -41 -78 -71 -95 -12 -8 -13 -5 -3 13 15
27 7 36 -13 15 -26 -25 -32 -17 -7 10 13 14 19 25 14 25 -5 0 -2 6 6 13 24 19
51 67 45 77 -4 6 -18 7 -33 3 -25 -6 -26 -6 -9 11 23 23 22 26 -13 26 -23 0
-28 -3 -23 -17 5 -13 2 -15 -11 -10 -10 4 -15 3 -11 -3 3 -6 0 -10 -7 -10 -7
0 -18 -10 -23 -22 -6 -13 -20 -27 -32 -33 -13 -5 -23 -13 -23 -17 0 -14 -171
-178 -188 -181 -9 -1 -23 -6 -29 -10 -7 -5 -13 -5 -13 -1 0 4 -10 -2 -22 -13
-39 -34 -98 -50 -98 -26 0 7 4 13 8 13 8 0 32 43 32 56 0 3 -12 4 -27 2 -16
-2 -27 -8 -26 -15 2 -7 0 -13 -5 -12 -15 2 -52 -14 -52 -22 0 -16 -18 -9 -23
9 -3 11 -5 8 -6 -9 0 -15 -7 -31 -14 -37 -10 -8 -13 -5 -15 16 -3 37 -22 54
-22 19 0 -15 -6 -27 -12 -27 -8 -1 -6 -6 4 -14 16 -12 15 -15 -12 -35 -33 -24
-39 -22 -14 4 19 19 11 33 -9 17 -8 -7 -17 -9 -20 -5 -4 3 -7 -1 -7 -10 0 -9
-4 -16 -9 -14 -5 1 -17 -7 -25 -18 -9 -11 -15 -15 -14 -10 1 6 -2 35 -6 65 -6
41 -10 50 -16 35 -4 -11 -4 -22 1 -25 4 -3 4 -21 -1 -40 -4 -19 -8 -31 -9 -25
-1 5 -9 -1 -18 -14 l-16 -24 -24 29 c-19 24 -23 26 -23 10 0 -14 -3 -16 -13
-8 -10 8 -16 7 -26 -7 -9 -12 -23 -17 -40 -14 -14 1 -59 5 -99 7 -75 4 -118
25 -108 53 3 7 0 15 -6 19 -12 8 -28 -14 -22 -31 3 -6 -2 -18 -11 -25 -15 -12
-16 -11 -13 5 1 10 -3 20 -10 22 -7 3 -10 -1 -6 -10 7 -20 -22 -29 -40 -12
-16 17 -41 20 -31 5 3 -5 -1 -10 -9 -10 -8 0 -18 5 -21 11 -6 9 -50 31 -67 33
-4 1 -13 7 -20 14 -6 6 -18 12 -25 12 -8 0 -18 12 -23 26 -6 14 -14 22 -20 19
-5 -3 -10 -1 -10 5 0 7 -7 9 -16 6 -14 -5 -15 -4 -4 9 7 8 10 16 6 16 -3 1
-10 3 -16 4 -5 1 -14 3 -20 4 -5 0 -10 8 -10 16 0 9 -6 12 -17 8 -11 -4 -14
-3 -9 5 4 7 2 12 -4 12 -14 0 -40 25 -40 37 0 5 -13 22 -28 39 -16 16 -32 37
-35 48 -5 11 -13 16 -23 12 -11 -4 -15 -2 -11 7 3 7 -3 19 -14 25 -11 7 -16
18 -13 27 4 9 0 15 -9 15 -8 0 -17 5 -19 11 -3 8 -10 8 -26 -2 -22 -14 -30
-39 -13 -39 11 0 26 -39 23 -57 -2 -8 4 -10 15 -7 15 5 16 4 3 -5 -21 -15 -28
-14 -35 9 -4 13 -15 20 -31 20 -13 0 -24 4 -24 10 0 5 -24 34 -54 64 -30 30
-51 58 -48 61 4 3 -1 3 -11 -1 -12 -4 -17 -1 -17 9 0 18 -18 32 -28 22 -3 -3
0 -10 8 -15 9 -6 10 -10 3 -10 -17 0 -43 29 -43 48 0 9 -5 24 -10 32 -9 13
-11 13 -20 0 -8 -13 -12 -11 -26 8 -11 15 -23 22 -35 19 -12 -3 -19 0 -19 9 0
8 -7 14 -16 14 -11 0 -14 5 -10 17 4 10 4 14 0 10 -4 -4 -15 0 -25 9 -10 9
-26 14 -36 12 -18 -3 -61 38 -56 54 2 5 -3 8 -11 8 -8 0 -22 10 -30 22 -9 12
-16 17 -16 10 0 -7 -5 -10 -10 -7 -6 4 -8 11 -5 16 4 5 1 9 -5 9 -17 0 -147
129 -173 170 -11 19 -29 41 -40 49 -10 7 -16 19 -14 25 3 7 -12 30 -34 51 -21
20 -37 41 -34 45 3 4 -2 13 -9 20 -8 6 -18 25 -21 41 -4 16 -11 29 -16 29 -15
0 -49 81 -49 118 0 17 -4 32 -9 32 -5 0 -17 25 -26 55 -10 30 -19 55 -20 55
-2 0 -3 -16 -3 -35 0 -19 4 -32 9 -29 6 3 7 -5 3 -22 -4 -15 -3 -25 2 -21 5 3
9 -11 10 -31 1 -52 72 -223 139 -333 135 -221 309 -420 613 -700 l114 -104 33
-135 c28 -119 31 -138 19 -162 -8 -14 -25 -71 -40 -125 -22 -87 -25 -110 -19
-199 l7 -100 -44 -18 c-24 -10 -50 -22 -58 -27 -68 -40 -325 -148 -438 -185
-30 -9 -66 -27 -80 -39 -98 -79 -409 -222 -602 -276 -25 -6 -76 -27 -115 -45
-38 -18 -101 -44 -140 -59 -38 -14 -86 -33 -105 -42 -19 -8 -66 -26 -105 -38
-38 -13 -95 -35 -125 -50 -58 -27 -64 -31 -237 -136 -59 -37 -124 -74 -143
-84 -42 -21 -216 -129 -319 -199 -41 -27 -113 -68 -160 -91 -47 -23 -93 -50
-101 -60 -8 -10 -55 -45 -105 -78 -125 -84 -355 -314 -438 -440 -156 -234
-182 -327 -173 -603 l6 -171 -69 -209 c-38 -115 -74 -236 -80 -269 -6 -33 -20
-91 -31 -130 -39 -135 -60 -267 -60 -383 0 -101 -3 -119 -26 -170 -15 -31 -44
-110 -65 -175 l-39 -118 0 -1690 0 -1689 5385 0 5385 0 0 2888 c0 2845 0 2887
-20 2919 -35 57 -453 459 -475 457 -8 -1 -13 2 -12 7 1 5 -27 34 -62 64 -63
53 -186 115 -229 115 -11 0 -31 16 -46 39 -27 38 -102 89 -261 176 -38 21 -96
60 -128 87 -66 55 -126 88 -158 88 -12 0 -69 26 -128 57 -158 84 -187 99 -207
106 -20 7 -56 28 -64 38 -3 3 -21 14 -40 24 -19 10 -67 37 -106 61 -39 24 -77
44 -84 44 -7 0 -22 9 -34 21 -12 11 -52 39 -91 62 -61 35 -250 174 -287 210
-16 16 -227 155 -289 191 -25 14 -71 35 -102 45 -32 11 -67 27 -79 35 -12 9
-33 16 -46 16 -12 0 -34 8 -48 17 -19 12 -47 16 -107 16 -94 -2 -101 2 -219
116 -61 58 -70 71 -89 135 -34 117 -64 169 -114 200 -25 16 -48 40 -54 56 -5
16 -27 40 -48 53 -37 23 -39 28 -62 128 -31 142 -54 191 -113 244 l-49 44 6
123 c5 94 15 153 41 248 43 160 77 328 100 503 17 135 19 139 51 168 19 16 43
29 55 29 56 0 159 77 157 118 0 13 -2 12 -9 -4 -15 -37 -68 -74 -108 -74 -20
0 -44 -4 -52 -10 -30 -19 -41 9 -41 104 0 50 -2 136 -5 192 -4 75 -2 112 9
144 14 43 12 84 -3 75 -17 -10 -19 13 -5 58 10 35 11 46 2 44 -7 -1 -15 -6
-18 -10 -3 -4 -6 10 -7 33 -2 42 10 52 27 23 7 -12 10 -14 11 -4 0 9 4 10 13
4 25 -20 56 -21 73 -2 9 10 22 19 27 19 17 0 36 34 37 63 0 15 -4 27 -9 27 -5
0 -16 15 -24 32 -14 29 -14 35 -1 49 11 12 12 18 4 21 -7 2 -13 16 -13 30 -2
22 -8 28 -34 33 -49 9 -55 47 -9 64 14 6 25 23 33 53 6 24 28 65 48 91 30 39
40 47 58 41 36 -11 47 -35 63 -129 1 -5 3 -12 4 -15 2 -3 4 -30 5 -60 2 -30 6
-75 9 -100 3 -25 6 -113 6 -197 0 -119 -3 -161 -16 -193 -21 -52 -83 -100
-129 -100 -30 0 -33 -3 -37 -35 -6 -54 4 -62 48 -39 90 46 144 128 144 220 0
22 5 57 10 79 12 47 13 323 2 412 -5 40 -5 60 2 56 5 -4 7 0 3 9 -3 9 1 28 9
43 8 15 14 38 14 51 0 31 14 30 39 -2 23 -29 23 -28 21 71 -1 33 -5 61 -11 63
-5 2 -9 14 -9 27 0 13 -4 27 -10 30 -5 3 -10 14 -10 24 0 18 -49 41 -86 41
-21 0 -72 -50 -120 -116 -40 -56 -130 -154 -137 -148 -2 3 -1 23 4 45 5 23 7
56 3 74 -4 24 -2 34 10 38 9 4 16 13 16 21 0 17 56 66 75 66 7 0 20 11 28 24
14 21 14 26 2 36 -17 14 -20 34 -4 24 8 -4 9 1 4 15 -4 13 -1 28 6 37 7 9 14
25 14 37 1 11 7 23 14 25 9 3 9 7 0 18 -8 9 -8 18 -2 27 6 6 9 36 8 65 -1 38
2 52 12 52 11 0 11 5 3 20 -6 11 -8 25 -4 31 3 6 -2 19 -12 30 -16 17 -16 19
-1 19 20 0 22 11 5 28 -9 9 -8 12 7 12 17 0 17 1 0 20 -10 11 -14 20 -9 20 14
0 15 62 1 78 -9 12 -9 16 1 20 10 3 8 8 -5 18 -17 13 -17 13 0 14 11 0 15 4
11 11 -4 7 -8 45 -9 85 -2 41 -8 81 -15 89 -7 8 -8 15 -2 15 5 0 8 14 7 30 -1
17 1 30 6 30 17 0 9 19 -11 25 -20 6 -20 7 2 25 22 18 22 19 5 38 -14 16 -16
25 -8 40 6 11 8 22 5 25 -10 10 -12 161 -3 173 5 6 4 36 -1 70 -13 76 -13 107
0 99 6 -3 10 1 10 9 0 9 -4 16 -8 16 -5 0 -8 15 -8 33 0 27 -9 88 -29 197 -4
22 -3 22 10 -5 8 -16 14 -25 15 -18 0 17 -37 101 -59 132 -17 24 -33 51 -83
141 -70 126 -87 152 -119 187 -19 21 -35 41 -35 46 1 4 -13 16 -31 27 -17 10
-37 28 -43 40 -6 11 -15 18 -21 14 -5 -3 -29 9 -52 28 -55 44 -105 75 -196
122 -57 30 -81 37 -107 33 -32 -5 -48 6 -21 16 6 2 -21 7 -61 12 -40 4 -71 9
-68 12 3 3 0 11 -7 17 -17 19 -77 -1 -71 -23 6 -19 -41 63 -56 101 -13 30 -46
50 -36 21 4 -11 -4 -7 -19 10 -14 15 -25 24 -25 19 0 -19 24 -78 37 -91 8 -7
12 -15 9 -18 -2 -2 -21 12 -43 33 -21 21 -30 35 -21 31 12 -4 15 -2 12 7 -3 8
-13 13 -22 12 -11 -1 -25 16 -39 43 -13 25 -27 48 -33 53 -7 5 -7 4 0 -4 28
-33 4 -25 -39 14 -60 54 -114 94 -214 160 -97 63 -164 124 -145 131 7 3 0 6
-15 6 -15 1 -40 7 -56 15 -27 15 -161 48 -321 82 -88 19 -313 26 -352 11z
m-34 -1176 c6 -9 48 -19 109 -25 32 -3 36 -1 25 12 -12 13 -10 14 10 3 13 -7
26 -10 29 -7 3 3 19 -2 34 -11 16 -9 32 -13 36 -9 4 5 2 11 -4 13 -7 3 -13 9
-13 14 0 5 35 -12 77 -37 46 -27 70 -37 59 -25 -23 25 -17 26 30 6 19 -8 39
-14 43 -12 4 1 20 -11 35 -28 15 -16 24 -23 20 -15 -7 13 -6 13 10 0 10 -8 30
-16 45 -17 20 -3 23 -1 11 7 -10 6 -11 10 -3 10 7 0 17 -8 22 -19 7 -13 18
-17 38 -14 20 3 24 2 14 -5 -11 -8 -10 -14 9 -33 19 -20 22 -20 16 -5 -4 13
-2 17 8 13 22 -9 28 5 8 19 -16 12 -15 13 3 8 12 -3 27 -20 35 -37 18 -42 40
-65 40 -43 0 9 6 16 13 16 7 1 5 6 -5 14 -22 16 -23 27 -3 19 10 -3 15 0 13 8
-6 30 27 12 36 -18 5 -18 13 -33 17 -33 5 0 6 7 3 15 -4 8 -2 15 4 15 5 0 12
-10 16 -22 5 -19 8 -20 15 -8 5 8 7 18 5 22 -3 5 2 11 11 14 30 12 75 -57 54
-83 -18 -21 -3 -27 18 -6 22 21 66 33 46 12 -7 -7 -13 -20 -13 -28 1 -13 3
-13 15 2 17 23 60 14 51 -10 -5 -11 -2 -13 10 -9 10 4 26 -5 45 -25 23 -25 31
-28 48 -20 32 17 38 13 35 -24 -3 -35 9 -48 20 -20 3 8 10 15 16 15 6 0 8 -4
5 -10 -4 -6 5 -10 20 -10 21 0 26 -4 21 -16 -4 -10 -1 -14 6 -12 7 3 30 -13
51 -34 25 -24 46 -37 62 -36 14 1 21 7 18 15 -3 7 -1 13 5 13 6 0 13 -13 17
-29 3 -15 17 -34 30 -41 14 -7 25 -17 25 -22 0 -4 4 -8 9 -8 4 0 6 12 4 28
l-4 27 25 -30 c14 -16 26 -33 26 -36 0 -4 8 -10 18 -14 14 -5 15 -4 5 6 -7 7
-13 19 -13 26 0 20 48 -28 52 -52 2 -11 9 -26 16 -33 12 -13 16 -32 7 -32 -2
0 -13 10 -25 22 -15 17 -17 24 -8 31 9 6 8 7 -3 4 -9 -3 -21 -1 -27 5 -7 7
-10 2 -9 -16 2 -18 6 -24 16 -21 9 3 11 0 7 -10 -7 -19 23 -97 35 -90 11 8 56
-22 64 -43 5 -13 2 -12 -17 4 -13 10 -26 24 -30 29 -4 6 -8 7 -8 4 0 -14 26
-55 55 -87 17 -19 31 -43 31 -54 1 -10 6 -24 13 -31 15 -15 14 -27 -3 -21 -8
3 -17 0 -22 -7 -5 -8 -3 -10 5 -5 13 8 43 -23 35 -36 -3 -4 2 -5 11 -2 11 5
14 2 9 -10 -4 -11 0 -16 13 -16 20 0 45 -53 48 -99 0 -13 7 -28 15 -35 8 -6
15 -22 15 -36 0 -16 5 -24 14 -22 8 2 11 -3 8 -12 -3 -7 5 -24 19 -37 13 -12
24 -30 24 -40 0 -9 6 -19 14 -22 11 -5 26 -63 40 -165 2 -13 -4 -27 -13 -32
-12 -7 -13 -9 -2 -10 8 0 12 -3 8 -6 -6 -6 -229 79 -265 103 l-24 15 7 -101
c6 -83 5 -101 -6 -101 -11 0 -14 18 -15 73 -1 106 -10 144 -37 151 -12 3 -57
6 -99 6 -44 0 -80 5 -83 11 -4 6 -13 8 -19 6 -7 -3 -18 4 -24 14 -9 15 -9 19
0 19 6 0 3 6 -7 14 -11 8 -26 11 -34 8 -8 -3 -12 -1 -8 5 4 6 -6 16 -23 22
-17 5 -30 15 -30 22 0 7 -3 10 -6 6 -4 -3 -26 7 -50 24 -57 39 -123 69 -153
69 -29 0 -20 -12 12 -17 12 -2 26 -8 31 -13 10 -10 -34 -6 -71 6 -26 7 -12 -7
20 -22 32 -15 32 -15 3 -9 -59 13 -122 16 -106 5 11 -7 5 -10 -25 -10 -22 0
-47 -5 -55 -10 -13 -8 -12 -10 4 -10 11 0 17 -3 14 -6 -4 -3 -36 2 -72 11 -41
10 -71 13 -81 8 -9 -5 -45 -6 -82 -1 -36 4 -71 4 -77 0 -6 -4 -20 -8 -31 -8
-48 -4 -207 -58 -198 -68 4 -4 1 -7 -7 -5 -8 2 -28 -4 -45 -14 -21 -11 -24
-16 -12 -17 21 0 22 -16 1 -24 -8 -3 -12 -2 -9 4 3 6 1 10 -4 10 -6 0 -11 -5
-11 -11 0 -12 -29 -38 -42 -39 -4 0 -5 6 -2 14 3 9 -4 19 -16 26 -17 9 -21 9
-15 0 12 -19 13 -60 2 -53 -7 4 -8 0 -4 -12 4 -9 2 -25 -5 -33 -10 -12 -10
-14 0 -8 8 5 12 0 12 -13 0 -12 -3 -21 -7 -21 -5 0 -19 -3 -33 -6 -20 -4 -22
-3 -10 5 12 9 11 11 -7 11 -23 0 -32 15 -14 22 5 2 2 10 -7 18 -14 13 -15 12
-9 -3 3 -9 2 -19 -4 -22 -5 -4 -2 -13 7 -22 12 -13 13 -17 2 -24 -7 -5 -19 -9
-25 -9 -7 0 -44 -14 -83 -31 -79 -36 -98 -59 -116 -139 -10 -51 -12 -53 -22
-30 -9 22 -11 23 -17 8 -4 -10 -16 -18 -26 -18 -10 0 -19 -5 -19 -11 0 -5 5
-7 10 -4 6 3 10 2 10 -3 0 -13 -51 -22 -119 -21 -40 0 -50 3 -36 9 11 5 34 10
50 11 23 1 25 3 8 6 -24 5 -21 33 3 33 8 0 14 6 14 13 0 19 -108 21 -137 2
-21 -14 -23 -14 -23 3 0 21 -43 72 -59 72 -6 0 -8 8 -5 18 5 13 4 14 -4 3 -7
-10 -14 -10 -29 -2 -11 5 -23 8 -26 5 -3 -3 -15 -3 -27 1 -12 4 -19 9 -16 13
4 3 -4 16 -16 29 -12 13 -16 23 -10 23 7 0 12 -4 12 -10 0 -5 9 -10 19 -10 14
0 7 12 -33 53 -28 30 -60 59 -71 65 -14 8 -16 11 -5 12 8 0 2 8 -15 19 -42 26
-63 10 -30 -23 17 -17 38 -66 28 -66 -14 0 -43 34 -43 51 0 13 -10 20 -35 25
-41 7 -57 24 -23 24 22 0 22 1 -5 19 -16 10 -28 22 -27 27 4 19 -90 40 -227
50 -48 4 -98 1 -153 -10 -45 -10 -85 -15 -88 -12 -3 4 4 6 16 6 12 0 22 5 22
11 0 8 -11 9 -31 5 -17 -3 -39 -6 -48 -6 -11 0 -13 -2 -4 -8 8 -5 -1 -8 -21
-8 -24 0 -32 4 -29 13 6 14 -8 13 -82 -5 -43 -10 -125 -65 -120 -79 2 -7 -1
-13 -9 -13 -7 0 -19 -11 -26 -25 -7 -13 -16 -22 -20 -20 -4 2 -17 -10 -30 -27
-12 -17 -17 -27 -10 -23 9 5 11 4 6 -3 -4 -7 -14 -12 -21 -12 -8 0 -17 -11
-21 -25 -3 -14 -10 -25 -15 -25 -5 0 -9 -5 -9 -11 0 -5 5 -7 10 -4 19 12 10
-11 -17 -39 -25 -27 -25 -29 -6 -24 15 4 20 2 16 -8 -3 -7 -21 -16 -41 -20
-21 -3 -76 -14 -124 -23 l-87 -18 5 35 c2 20 8 40 13 46 5 6 11 26 14 43 3 18
13 40 22 49 12 12 13 19 5 24 -8 5 -7 9 5 14 9 3 14 10 10 15 -3 5 -1 13 5 16
6 4 10 24 8 44 -1 23 7 54 20 80 12 23 22 49 22 59 0 15 2 15 10 2 8 -12 10
-9 11 13 2 40 3 45 12 53 4 4 7 18 7 32 0 14 11 32 25 44 17 13 24 26 20 38
-3 10 -1 22 6 25 8 6 7 10 -2 17 -11 7 -11 11 -1 15 6 2 12 12 12 20 0 14 -3
13 -22 -3 l-23 -19 18 22 c11 12 17 26 14 30 -8 13 10 39 20 30 4 -5 1 -12 -7
-17 -9 -6 -10 -10 -3 -10 19 0 25 18 14 39 -9 15 -6 24 14 43 14 12 25 33 25
45 0 12 5 25 10 28 6 3 10 11 10 16 0 6 -4 7 -10 4 -5 -3 -10 -1 -10 4 0 6 5
11 10 11 6 0 10 7 10 15 0 8 6 15 14 15 8 0 18 4 21 10 4 6 -1 7 -12 3 -10 -3
1 13 25 35 48 47 52 49 52 25 1 -17 1 -17 11 0 5 9 8 21 4 26 -7 12 12 24 43
29 14 2 22 -2 22 -13 0 -8 5 -15 10 -15 6 0 10 5 10 10 0 6 6 10 14 10 8 0 24
16 36 35 12 20 29 42 37 50 8 8 12 15 8 15 -3 0 6 11 21 25 21 19 29 22 36 13
6 -10 8 -9 8 2 0 9 9 22 20 30 11 8 20 19 20 26 0 10 78 53 123 68 10 3 15 11
12 16 -4 6 -3 10 2 9 25 -4 35 1 24 15 -9 11 -5 15 21 21 23 5 27 9 16 12 -24
6 -23 24 3 30 12 3 18 11 15 19 -3 9 2 14 14 14 11 0 20 5 20 11 0 8 20 10 63
6 34 -3 52 -3 39 0 -31 6 -17 23 21 24 28 1 27 2 -12 10 -66 13 -64 22 4 14
56 -6 59 -6 40 9 -19 16 -19 16 9 10 20 -5 27 -3 22 4 -4 6 8 16 29 23 19 7
35 16 35 21 0 4 7 4 17 1 12 -5 14 -3 8 7 -6 10 -3 12 14 7 18 -4 20 -3 11 8
-14 16 3 30 27 21 10 -4 14 -2 10 8 -6 16 12 26 49 26 17 0 22 4 18 15 -5 13
-2 14 20 5 18 -7 26 -6 26 1 0 11 12 10 55 -6 12 -4 8 2 -10 15 -25 18 -26 21
-8 17 12 -3 24 0 26 6 4 13 65 -3 135 -35 24 -11 47 -17 50 -14 7 7 6 8 -38
27 l-35 16 32 -1 c17 0 29 -4 27 -7 -2 -4 4 -9 14 -12 9 -2 26 -8 36 -13 15
-6 18 -4 13 9 -5 13 1 12 30 -6 20 -12 33 -16 29 -9 -10 17 5 15 32 -4 28 -19
39 -13 17 10 -9 9 -12 16 -7 16 5 0 15 -7 22 -15 18 -22 26 -19 40 15 7 17 18
30 24 31 6 0 32 1 59 1 38 1 45 3 36 14 -8 10 -8 14 -1 14 6 0 13 -4 16 -9z
m1150 -1546 c63 -7 139 -35 152 -57 13 -21 14 -42 1 -50 -8 -5 -4 -8 11 -8 18
0 25 -8 21 -22 0 -2 4 -16 10 -31 9 -22 8 -29 -3 -33 -9 -3 -12 -13 -9 -22 3
-9 -3 -6 -12 8 -10 14 -20 27 -22 29 -2 3 -17 6 -33 7 -15 1 -33 5 -39 9 -6 3
-11 -1 -11 -9 0 -9 -4 -16 -10 -16 -5 0 -10 7 -10 16 0 9 -5 12 -12 8 -6 -4
-18 2 -26 12 -10 13 -16 15 -19 7 -3 -7 -18 -13 -34 -13 -18 0 -28 4 -24 10 4
6 -2 7 -17 1 -15 -6 -31 -5 -42 1 -24 14 -32 3 -18 -27 7 -14 17 -36 24 -50 6
-14 17 -25 25 -25 7 0 13 -11 13 -25 0 -26 -24 -35 -33 -12 -4 9 -8 9 -15 -2
-8 -12 -18 -12 -54 -3 -25 7 -90 10 -158 8 -158 -6 -280 3 -280 20 0 8 -6 11
-15 8 -23 -9 -18 12 8 33 13 10 29 28 36 41 6 12 21 22 31 22 30 0 24 16 -16
39 -40 24 -48 26 -38 10 4 -8 1 -8 -13 -1 -11 6 -25 7 -33 2 -9 -5 -19 -5 -27
2 -7 5 -20 8 -28 4 -8 -3 -15 -1 -15 3 0 5 6 11 13 14 9 3 8 8 -3 22 -10 12
-10 16 -2 11 7 -4 23 -1 35 6 12 8 51 20 87 27 36 7 74 15 85 18 21 6 406 20
440 16 11 -1 46 -5 79 -8z m-2162 -41 c29 -15 78 -19 78 -6 0 9 47 8 70 -1 8
-3 26 -8 40 -10 14 -2 -18 -5 -70 -5 -52 0 -156 -5 -230 -11 -74 -6 -165 -13
-202 -16 -60 -4 -67 -3 -61 11 5 14 1 16 -25 12 -21 -3 -33 0 -37 9 -4 12 9
13 73 9 43 -3 86 -8 95 -12 9 -3 17 -2 17 4 0 6 9 8 20 5 12 -3 22 1 25 9 6
16 89 18 136 3 22 -7 23 -7 9 10 -14 17 -13 17 10 10 14 -4 37 -14 52 -21z
m211 -153 c21 -11 33 -22 27 -26 -5 -3 -10 -15 -10 -25 0 -14 -5 -18 -17 -13
-10 4 -21 11 -25 17 -4 5 -10 -3 -14 -19 -6 -25 -8 -26 -20 -11 -7 11 -15 13
-19 7 -8 -14 55 -53 77 -47 10 2 33 -12 57 -36 47 -45 51 -57 18 -51 -17 3
-27 -2 -35 -19 -7 -13 -10 -15 -8 -5 3 9 1 17 -4 17 -6 0 -10 -4 -10 -10 0 -5
-14 -10 -31 -10 -16 0 -28 3 -25 8 7 11 -207 -5 -299 -23 -44 -8 -98 -15 -121
-15 -22 0 -45 -5 -52 -12 -9 -9 -12 -9 -12 1 0 7 -4 10 -9 6 -22 -13 -18 15 5
41 15 16 23 22 19 14 -5 -8 9 2 30 23 22 21 50 40 63 44 15 3 21 11 18 20 -4
11 3 13 33 11 23 -1 47 4 57 13 9 8 19 13 21 12 1 -2 17 -3 33 -3 24 0 30 4
30 21 0 12 -5 19 -12 16 -7 -2 -21 0 -30 5 -14 7 -18 5 -18 -9 0 -11 -3 -14
-8 -7 -8 13 -73 11 -124 -4 -21 -6 -46 -8 -57 -5 -12 3 -33 -4 -51 -17 -19
-14 -30 -17 -30 -9 0 9 -4 8 -12 -2 -7 -9 -34 -23 -59 -33 -25 -9 -55 -25 -66
-36 -21 -19 -61 -18 -75 4 -4 6 -10 7 -13 4 -12 -12 19 -35 40 -31 11 2 14 1
8 -3 -7 -3 -13 -12 -13 -20 0 -21 -18 -17 -30 6 -15 28 -28 25 -41 -7 -7 -16
-13 -23 -16 -15 -9 24 -22 12 -18 -18 2 -16 -1 -32 -6 -35 -5 -4 -9 1 -9 9 0
9 -4 16 -10 16 -17 0 -11 -36 9 -54 16 -15 18 -21 8 -37 -9 -15 -9 -24 2 -40
9 -16 10 -24 2 -29 -7 -3 -9 -14 -6 -22 9 -23 -8 -29 -39 -15 -30 14 -34 27
-8 27 13 1 11 4 -8 15 -14 8 -19 14 -12 15 8 0 10 8 6 25 -4 17 -1 27 9 31 12
4 13 12 6 36 -9 34 2 58 27 58 8 0 14 5 14 10 0 6 -4 10 -9 10 -6 0 -13 -4
-16 -10 -3 -5 -14 -10 -23 -10 -12 0 -13 3 -4 12 7 7 12 17 12 23 -1 19 -30
-29 -30 -49 0 -16 -2 -18 -9 -7 -6 9 -5 24 0 39 8 22 8 23 -6 12 -41 -34 4 47
49 88 27 24 42 31 58 26 15 -4 18 -3 13 6 -5 9 -4 11 3 6 12 -7 119 17 130 30
4 4 -5 4 -20 0 -16 -3 -40 -9 -55 -12 -16 -4 -26 -4 -23 -1 10 11 161 47 172
41 6 -4 13 -2 17 4 6 10 157 39 241 45 25 2 108 4 185 5 121 2 146 -1 178 -17z
m1161 -241 c-6 -29 -5 -30 32 -31 67 -3 70 -4 86 -17 13 -10 17 -10 21 0 4 10
7 10 15 -1 7 -9 12 -10 16 -2 4 6 10 9 14 7 4 -2 42 -7 84 -10 59 -4 77 -3 75
7 -1 8 13 13 40 15 36 3 42 1 37 -13 -5 -13 -2 -15 17 -11 13 3 50 8 82 10 33
3 61 7 64 9 5 6 117 -19 156 -34 15 -6 27 -15 27 -20 0 -5 5 -9 11 -9 5 0 7 5
4 10 -3 6 -1 10 4 10 6 0 11 -5 11 -11 0 -5 4 -8 9 -5 5 3 11 -1 15 -9 3 -8
12 -12 21 -9 14 6 13 8 -2 20 -16 12 -16 13 11 14 21 0 27 -4 22 -15 -6 -17 9
-21 19 -5 11 18 26 10 23 -12 -3 -20 2 -22 36 -23 22 -1 42 -7 44 -13 6 -20
20 -14 25 11 3 14 5 10 5 -13 2 -51 -25 -169 -49 -217 -42 -81 -158 -138 -378
-183 -77 -15 -127 -30 -116 -33 11 -3 -9 -4 -45 -1 -49 3 -59 1 -40 -6 20 -8
15 -9 -24 -5 -29 3 -55 0 -62 -6 -20 -16 -236 -5 -300 15 -118 37 -256 214
-326 419 -19 56 -21 69 -9 76 7 5 10 14 6 21 -6 9 -9 9 -15 0 -6 -9 -10 -6
-15 9 -10 34 0 35 28 5 23 -24 26 -37 16 -69 -6 -20 12 -83 28 -96 14 -12 15
-11 9 9 -5 14 -3 22 5 22 9 0 8 4 -1 15 -10 12 -10 15 3 15 33 0 76 -13 71
-21 -3 -5 -1 -9 5 -9 6 0 19 16 29 36 l19 37 22 -45 c28 -59 18 -95 -31 -101
l-33 -4 32 -1 c25 -2 37 4 49 23 21 31 12 71 -32 152 -36 67 -33 79 17 68 21
-5 29 -11 25 -21 -3 -8 -1 -14 4 -14 5 0 7 -8 4 -17 -5 -17 -5 -17 9 0 8 9 19
17 25 17 8 0 9 8 2 26 -13 33 -1 50 47 63 1 1 0 -12 -3 -29z m1214 -3253 c-13
-10 -17 -15 -9 -11 9 4 12 2 9 -7 -3 -8 -12 -13 -21 -11 -8 1 -18 -2 -22 -8
-11 -18 55 -1 77 20 24 22 38 19 17 -3 -8 -8 -30 -34 -49 -58 -19 -23 -47 -56
-62 -72 -16 -16 -28 -30 -28 -32 0 -20 -90 -85 -173 -126 -56 -28 -126 -68
-155 -90 -30 -23 -58 -37 -65 -33 -6 4 -9 4 -5 -1 15 -16 -156 -117 -206 -121
-22 -2 -43 -8 -46 -14 -4 -6 -14 -8 -23 -4 -10 4 -19 0 -22 -8 -4 -10 -15 -13
-31 -10 -30 6 -31 18 -1 26 18 5 20 8 7 16 -13 8 -12 10 4 10 10 0 27 9 37 21
10 11 22 18 28 15 5 -4 15 3 21 14 8 14 8 20 0 20 -6 0 -8 5 -4 11 4 8 9 7 15
-2 8 -11 13 -10 27 7 10 11 23 19 30 16 19 -6 26 26 12 56 l-12 27 28 -25 28
-25 -18 28 c-19 31 -15 47 7 28 11 -8 18 -6 32 9 18 20 18 21 1 14 -14 -5 -17
-3 -14 7 3 8 18 14 36 14 18 0 32 3 32 6 0 7 63 48 93 61 11 5 15 13 11 19 -4
7 -3 9 2 6 6 -3 27 14 49 39 22 24 47 44 57 44 10 0 18 7 18 15 0 8 9 15 20
15 13 0 18 5 13 16 -4 10 1 17 16 21 11 3 21 9 21 15 0 5 33 24 74 44 41 19
77 40 80 47 3 6 3 -1 0 -18 l-6 -30 21 27 c12 14 21 31 21 38 0 6 5 8 10 5 6
-4 8 -16 4 -27 -4 -15 -2 -19 7 -16 8 3 16 18 19 34 4 29 4 29 8 -5 3 -27 -2
-39 -20 -54z m-868 -1627 c80 -57 51 -178 -49 -203 -30 -7 -86 15 -111 45 -23
27 -26 92 -6 127 29 51 114 68 166 31z m-1333 -72 c27 -34 19 -144 -13 -179
-19 -21 -71 -13 -85 14 -14 26 -7 140 10 161 16 19 74 21 88 4z"/>
<path d="M5334 11095 c-9 -24 5 -38 24 -23 9 7 13 8 9 2 -4 -7 -1 -16 6 -22
15 -12 77 -3 77 12 0 6 7 3 15 -8 9 -12 22 -17 35 -13 11 3 20 2 20 -2 0 -7
61 -15 158 -23 6 -1 12 -5 12 -10 0 -5 8 -7 18 -4 20 6 157 20 187 19 11 -1
30 1 43 3 19 4 21 8 12 24 -8 15 -15 18 -28 12 -28 -14 -223 -6 -234 9 -8 11
-9 10 -5 -2 5 -15 -2 -17 -46 -15 -28 2 -53 8 -55 14 -2 7 -10 12 -18 12 -9 0
-12 -4 -9 -10 3 -5 0 -10 -9 -10 -8 0 -16 6 -19 13 -3 9 -9 9 -26 -1 -18 -10
-21 -10 -21 4 0 12 -6 15 -22 11 -12 -3 -28 -2 -37 2 -35 18 -82 21 -87 6z"/>
<path d="M5337 10389 c-9 -6 -17 -21 -17 -35 0 -14 -4 -22 -10 -19 -5 3 -10
-1 -10 -10 0 -12 -5 -15 -16 -11 -15 6 -15 4 -3 -11 7 -10 10 -15 5 -11 -4 3
-23 0 -41 -8 -43 -18 -46 -17 -39 1 4 8 1 15 -5 15 -6 0 -15 -15 -20 -32 -5
-18 -10 -25 -10 -15 -1 17 -21 25 -21 8 0 -13 -84 -4 -140 14 -25 8 -54 16
-65 18 -11 2 -28 7 -37 11 -9 4 -26 2 -37 -4 -12 -6 -26 -8 -31 -5 -11 7 -86
-44 -82 -56 3 -13 -5 -11 -22 7 -15 14 -16 14 -16 -1 0 -13 -7 -16 -30 -13
-18 3 -31 0 -34 -9 -3 -7 -12 -10 -22 -6 -13 5 -16 3 -11 -10 4 -12 1 -17 -9
-17 -12 0 -15 7 -12 30 4 24 1 30 -14 30 -10 0 -18 4 -18 8 0 4 -10 8 -22 9
-13 1 -27 8 -32 16 -7 11 -19 10 -71 -8 -35 -11 -69 -26 -77 -33 -8 -6 -18 -9
-21 -5 -4 3 -7 1 -7 -6 0 -7 -4 -10 -9 -7 -5 4 -11 1 -13 -6 -4 -10 -14 -9
-48 2 -23 8 -48 19 -54 25 -6 5 -23 16 -39 24 -15 8 -23 17 -18 20 5 4 4 13
-3 23 -11 15 -13 8 -12 -42 1 -33 -2 -60 -6 -60 -14 0 4 -54 24 -74 11 -10 17
-24 14 -32 -3 -8 1 -14 8 -14 8 0 16 -6 19 -14 3 -8 22 -19 41 -26 20 -6 36
-18 36 -26 0 -8 5 -14 10 -14 6 0 10 5 10 11 0 6 5 7 13 2 6 -4 19 -6 28 -5 9
2 19 -4 22 -13 4 -8 12 -15 18 -15 9 0 9 4 0 14 -16 19 -4 26 58 32 45 4 50 3
44 -13 -5 -15 -3 -16 8 -5 17 16 44 15 58 -2 6 -7 27 -13 46 -13 24 1 41 -7
61 -26 42 -42 71 -45 100 -12 13 16 24 34 24 42 0 7 9 13 19 13 11 0 21 5 23
11 2 6 26 20 53 31 38 16 78 21 170 23 66 2 133 6 148 9 30 5 136 101 167 151
18 29 21 48 9 70 -3 6 -6 26 -8 45 -4 42 -2 41 -24 29z"/>
<path d="M2942 9978 c0 -109 4 -184 9 -173 8 19 8 19 15 -2 8 -29 20 -29 27
-2 3 13 1 19 -6 16 -17 -5 -36 24 -36 53 l1 25 7 -24 c4 -14 13 -27 20 -29 10
-3 12 1 7 13 -4 12 1 26 15 42 13 12 17 23 11 23 -18 0 -15 60 3 66 12 5 10
10 -8 24 -12 10 -18 22 -14 26 4 5 12 2 17 -6 5 -8 12 -11 16 -7 4 4 0 15 -10
25 -9 11 -14 26 -10 36 5 12 2 15 -10 10 -9 -3 -16 -15 -16 -26 0 -11 -5 -18
-12 -15 -8 2 -13 23 -13 54 0 28 -3 54 -7 58 -3 4 -6 -80 -6 -187z"/>
<path d="M5767 10083 c-8 -12 1 -22 55 -66 26 -21 53 -44 60 -51 7 -6 21 -15
31 -19 10 -4 15 -11 12 -17 -4 -6 -11 -8 -16 -5 -5 4 -9 2 -9 -4 0 -15 18 -23
22 -10 3 8 10 6 21 -5 9 -10 17 -14 17 -10 0 4 9 -2 20 -14 11 -12 20 -24 20
-27 0 -3 11 -22 24 -41 20 -30 25 -33 29 -17 3 10 4 42 3 71 -2 47 -7 58 -38
86 -36 33 -132 96 -146 96 -4 0 -13 5 -20 12 -6 6 -17 13 -24 14 -7 2 -23 6
-34 9 -12 4 -24 3 -27 -2z"/>
<path d="M3788 10013 c-10 -3 -18 -9 -18 -14 0 -6 -4 -8 -9 -4 -5 3 -12 1 -16
-5 -3 -5 -13 -10 -21 -10 -8 0 -35 -20 -60 -45 -25 -25 -49 -43 -54 -40 -6 3
-10 -1 -10 -9 0 -8 -11 -23 -23 -33 -21 -16 -28 -35 -43 -113 -3 -14 12 -29
28 -30 4 0 15 13 24 29 10 17 21 28 26 25 4 -3 8 1 8 9 0 10 7 13 19 10 13 -3
26 5 43 27 12 18 22 36 21 41 -2 5 2 9 7 9 6 0 16 11 22 25 6 14 17 25 25 25
7 0 13 3 13 8 0 4 18 26 40 50 21 23 38 42 37 43 -12 4 -46 5 -59 2z"/>
<path d="M5687 9731 c-3 -14 -1 -18 9 -14 8 3 14 1 14 -5 0 -16 -26 -22 -40
-9 -9 9 -11 7 -8 -8 3 -19 -3 -20 -144 -20 -82 0 -148 3 -148 6 0 4 -15 6 -32
5 -18 -1 -48 2 -67 6 -27 5 -38 3 -48 -10 -12 -16 -12 -16 -13 1 0 22 -20 23
-20 0 0 -15 -1 -15 -13 2 -13 17 -14 17 -20 -4 -3 -12 -13 -21 -24 -21 -15 0
-16 2 -3 10 8 5 11 10 5 10 -15 0 -31 -13 -38 -30 -4 -10 -6 -8 -6 8 -1 20
-21 33 -21 13 0 -14 -39 -20 -43 -7 -3 7 -12 4 -26 -9 -18 -15 -24 -17 -31 -6
-5 9 -17 11 -35 7 -20 -5 -31 -2 -41 11 -12 16 -13 16 -14 2 0 -22 -52 -30
-70 -11 -9 11 -14 11 -20 2 -6 -9 -9 -9 -15 0 -5 8 -20 10 -44 6 -26 -5 -32
-4 -21 3 16 11 14 12 -42 15 -24 1 -35 16 -12 16 19 1 19 1 0 15 -19 15 -68
10 -74 -7 -5 -12 -30 -10 -36 5 -5 10 -7 10 -12 0 -8 -17 -24 -16 -24 1 0 15
-36 14 -67 -3 -11 -6 -41 -10 -66 -9 -25 0 -50 -3 -57 -7 -12 -8 -42 -14 -107
-22 -24 -3 -43 -9 -43 -14 0 -5 -16 -9 -36 -9 -19 0 -43 -4 -53 -9 -25 -14
-129 -22 -136 -11 -3 4 -18 7 -33 5 -16 -2 -35 1 -43 6 -10 6 -11 9 -1 9 7 0
11 4 8 9 -3 5 -16 7 -28 3 -16 -4 -19 -2 -12 9 6 10 1 9 -18 -3 -26 -17 -26
-17 -25 10 1 15 6 31 12 35 6 5 1 7 -10 5 -12 -2 -21 -12 -23 -26 -2 -12 -7
-20 -12 -17 -5 3 -6 20 -3 38 6 28 5 30 -9 19 -13 -10 -17 -10 -20 0 -3 8 -11
5 -24 -10 -23 -27 -28 -63 -8 -55 8 3 14 1 14 -5 0 -6 -6 -12 -12 -15 -8 -3
-1 -9 15 -16 32 -12 35 -27 8 -36 -19 -6 -19 -7 -3 -26 9 -10 24 -19 34 -19
10 0 23 -10 30 -21 7 -12 45 -36 83 -54 39 -18 82 -44 97 -58 15 -14 36 -31
46 -39 10 -7 25 -26 33 -43 8 -16 24 -34 36 -40 13 -5 27 -22 32 -37 6 -16 13
-28 16 -28 3 0 3 5 -1 11 -4 7 -1 10 6 7 7 -2 17 -14 21 -27 6 -14 5 -20 -1
-16 -6 3 -10 0 -10 -8 0 -8 7 -17 15 -21 8 -3 15 -11 15 -18 0 -7 20 -33 46
-58 25 -25 53 -53 63 -63 10 -10 28 -19 39 -20 12 -1 24 -7 26 -14 3 -7 12
-13 21 -13 8 0 15 -5 15 -11 0 -6 7 -8 17 -5 10 4 14 4 11 0 -10 -9 17 -34 36
-34 9 0 15 3 15 8 -3 20 4 20 41 1 21 -11 44 -18 49 -14 16 9 51 -13 45 -29
-7 -19 4 -24 72 -32 61 -8 98 -8 197 -4 50 2 56 4 45 18 -11 13 -10 15 6 9 12
-5 23 -3 28 5 11 19 10 30 -4 22 -17 -11 -67 -13 -73 -4 -3 5 -16 3 -29 -4
-28 -14 -87 -15 -84 -1 2 6 11 9 21 9 10 -1 17 6 17 16 0 13 6 17 21 13 11 -3
32 0 45 8 16 8 28 9 32 4 29 -41 106 -34 218 19 41 20 81 36 89 36 8 0 17 5
20 10 3 6 17 10 29 10 13 0 35 9 50 21 14 11 26 17 26 13 0 -4 11 5 25 20 13
14 29 26 34 26 6 0 13 11 17 24 3 14 12 27 21 30 9 4 12 13 8 27 -5 15 -2 22
14 26 12 3 21 11 21 18 0 7 10 19 23 27 12 9 67 60 123 114 55 55 116 113 136
131 20 17 44 46 54 62 13 22 24 29 36 25 10 -3 18 -1 18 5 0 6 -7 11 -15 11
-11 0 -6 9 15 30 34 33 32 59 -6 52 -13 -2 -32 2 -41 9 -21 18 -65 19 -59 2 8
-20 -3 -15 -28 12 -22 24 -24 24 -29 6z m-706 -181 c10 -6 26 -24 34 -40 20
-39 34 -38 68 5 15 19 36 35 47 35 40 0 70 -23 82 -62 6 -21 14 -38 17 -38 3
0 14 12 26 26 19 24 75 37 92 21 3 -4 8 -31 11 -60 8 -95 -35 -141 -100 -106
-17 9 -23 8 -30 -4 -20 -36 -140 -46 -160 -14 -5 8 -12 5 -23 -10 -9 -13 -32
-25 -53 -29 -20 -4 -41 -13 -47 -20 -5 -8 -28 -20 -50 -29 l-40 -14 67 1 c38
1 71 -2 75 -5 10 -11 25 -8 18 3 -4 6 10 10 34 10 30 0 39 -3 35 -14 -4 -10 2
-12 20 -9 16 3 26 13 28 27 2 16 10 21 38 22 26 1 28 1 8 -3 -28 -4 -38 -18
-15 -21 53 -7 62 -10 62 -23 0 -8 -8 -13 -17 -13 -10 1 -18 -2 -18 -8 0 -5 -4
-7 -9 -4 -12 8 -41 -4 -41 -16 0 -16 -29 -40 -40 -33 -5 3 -10 1 -10 -4 0 -6
-3 -10 -7 -9 -14 4 -53 -13 -53 -23 0 -5 -11 -9 -25 -9 -17 0 -29 -8 -36 -24
-7 -14 -17 -22 -25 -19 -8 3 -14 1 -14 -5 0 -5 -13 -12 -29 -14 -17 -2 -28 -1
-25 4 9 15 -43 8 -56 -7 -10 -13 -9 -15 9 -15 12 0 20 -4 16 -10 -3 -5 -12 -7
-20 -3 -11 4 -13 1 -9 -12 6 -14 3 -16 -14 -10 -14 4 -22 2 -22 -5 0 -6 -5 -8
-10 -5 -6 4 -8 10 -5 15 7 12 -21 32 -42 28 -10 -2 -17 2 -17 7 1 6 -7 19 -17
29 -11 12 -19 15 -19 7 0 -7 -4 -9 -10 -6 -5 3 -10 0 -10 -8 0 -10 -7 -13 -20
-10 -11 3 -19 11 -18 19 2 7 0 12 -4 11 -4 -1 -19 13 -33 32 -20 28 -25 31
-26 15 0 -17 -1 -16 -9 4 -10 24 -26 29 -33 10 -3 -7 -6 -1 -6 13 -1 33 19 51
55 47 16 -2 29 2 32 11 3 10 -1 12 -17 8 -11 -3 -24 -1 -27 5 -3 5 -12 7 -19
4 -7 -2 -18 1 -24 7 -8 8 -14 8 -22 0 -14 -14 -4 -47 11 -38 5 3 10 2 10 -4 0
-5 -9 -13 -20 -16 -11 -3 -20 -12 -20 -18 0 -7 -7 -4 -14 6 -16 21 -11 53 10
61 25 9 15 23 -16 23 -17 0 -27 -3 -22 -6 12 -8 -4 -51 -18 -51 -5 0 -10 4
-10 10 0 5 -7 7 -15 4 -8 -3 -23 1 -34 8 -20 15 -20 15 7 28 62 29 71 32 81
26 6 -4 47 -11 92 -16 46 -5 85 -14 89 -19 3 -6 26 -8 50 -5 25 3 53 6 63 6
22 -1 22 3 -3 28 -13 13 -33 20 -57 20 -26 0 -34 -3 -24 -9 19 -12 5 -30 -19
-24 -21 6 -27 28 -10 38 6 3 10 11 10 17 0 6 -6 5 -16 -3 -9 -8 -41 -13 -75
-14 -46 0 -61 4 -72 19 -11 15 -17 17 -35 7 -11 -6 -25 -11 -31 -11 -18 0 -38
52 -45 115 -4 33 -10 70 -13 83 -8 33 30 29 77 -8 21 -16 40 -30 43 -30 2 0 7
18 11 39 9 57 55 69 96 26 32 -34 50 -31 84 11 29 36 30 36 88 31 42 -4 64
-11 73 -24 13 -17 14 -17 37 3 48 44 97 56 139 34z"/>
</g>
</svg>
