<?xml version="1.0" standalone="no"?>
<!DOCTYPE svg PUBLIC "-//W3C//DTD SVG 20010904//EN"
 "http://www.w3.org/TR/2001/REC-SVG-20010904/DTD/svg10.dtd">
<svg version="1.0" xmlns="http://www.w3.org/2000/svg"
 width="512.000000pt" height="512.000000pt" viewBox="0 0 512.000000 512.000000"
 preserveAspectRatio="xMidYMid meet">
<metadata>
Created by potrace 1.15, written by Peter Selinger 2001-2017
</metadata>
<g transform="translate(0.000000,512.000000) scale(0.100000,-0.100000)"
fill="#000000" stroke="none">
<path d="M2470 4856 c-115 -19 -225 -45 -267 -62 -65 -27 -214 -104 -269 -139
-45 -29 -173 -148 -199 -186 -6 -7 -24 -32 -41 -54 -55 -70 -177 -278 -199
-340 -12 -33 -25 -67 -28 -75 -9 -22 -35 -176 -42 -245 -6 -59 -10 -90 -41
-295 -8 -58 -17 -125 -20 -150 -2 -25 -9 -46 -14 -48 -37 -13 -51 -41 -71
-145 -22 -117 -21 -124 25 -232 17 -41 26 -79 26 -118 0 -33 5 -114 11 -180
10 -105 15 -126 35 -147 15 -17 30 -55 44 -120 12 -52 35 -149 51 -215 20 -78
28 -131 24 -152 -4 -24 -2 -33 7 -33 8 0 9 -3 3 -8 -15 -10 -45 -72 -36 -72 4
0 18 11 31 25 49 53 55 21 6 -38 -86 -106 -90 -317 -10 -463 90 -164 232 -330
336 -392 31 -18 66 -44 78 -57 14 -15 43 -28 79 -36 48 -10 64 -20 118 -73 35
-33 63 -66 63 -73 0 -7 -23 -13 -57 -15 -51 -4 -66 0 -123 30 -36 19 -71 39
-78 45 -7 5 -16 6 -20 2 -4 -4 -1 -10 5 -12 7 -3 23 -13 35 -24 23 -19 23 -19
-14 -2 -23 10 -38 24 -38 34 0 10 -8 20 -17 23 -10 3 -31 18 -47 33 -35 32
-49 26 -86 -37 -27 -46 -109 -110 -142 -110 -10 0 -17 -4 -14 -9 3 -4 -7 -6
-22 -4 l-27 4 24 -14 c17 -10 20 -16 11 -22 -7 -4 -16 -2 -21 6 -7 11 -9 11
-9 1 0 -7 -4 -10 -10 -7 -5 3 -10 1 -10 -5 0 -7 7 -10 15 -6 8 3 15 1 15 -4 0
-6 10 -10 23 -10 18 0 19 -2 7 -10 -10 -7 -11 -10 -2 -10 7 0 15 6 18 14 3 8
19 14 37 14 43 0 117 16 144 30 39 21 69 14 97 -23 31 -40 115 -99 196 -138
30 -14 65 -34 78 -43 21 -16 22 -16 15 2 -3 11 -11 22 -17 26 -7 5 -6 13 5 24
16 15 21 15 72 0 31 -9 86 -32 123 -51 46 -24 74 -33 90 -29 26 7 84 -12 84
-27 0 -14 -77 -49 -108 -49 -16 0 -43 5 -61 11 -23 8 -44 8 -76 0 -36 -9 -51
-9 -73 2 -44 23 -98 27 -210 15 -95 -9 -817 -21 -1217 -21 -82 1 -215 8 -295
17 -80 8 -218 18 -307 22 l-163 7 0 -55 0 -55 238 -7 c130 -3 273 -11 317 -16
135 -17 924 -24 1180 -11 127 7 295 15 375 18 80 3 148 10 151 15 4 6 39 12
79 14 50 2 79 9 91 20 15 14 21 14 34 4 14 -12 14 -24 -1 -65 -5 -12 153 -12
274 0 78 8 185 -6 197 -25 2 -4 48 0 102 7 62 9 280 17 588 23 270 6 634 15
810 21 284 9 599 6 663 -7 21 -4 22 -1 22 55 l0 60 -182 3 c-101 2 -286 -2
-413 -8 -237 -12 -1302 -28 -1294 -20 3 3 34 15 69 28 l65 23 -1 40 c-1 22 -2
67 -4 100 -6 113 -5 115 38 115 20 0 46 7 56 15 14 11 47 15 113 15 51 0 93 4
93 8 0 5 -30 19 -66 32 -80 28 -117 57 -138 110 -15 39 -40 60 -53 46 -4 -3 1
-30 10 -60 25 -78 23 -90 -20 -110 -67 -32 -165 -66 -174 -61 -4 3 -16 31 -25
63 -9 31 -20 67 -25 80 -5 13 -9 41 -9 64 0 35 6 46 48 87 26 25 61 62 78 81
17 19 55 53 83 75 61 47 80 75 149 215 78 160 94 217 99 350 3 75 10 123 19
137 13 20 12 27 -5 61 -11 21 -27 44 -35 51 -23 19 -20 48 18 174 19 61 40
140 46 175 12 57 16 65 49 81 64 33 71 49 87 178 8 65 17 147 20 183 5 51 17
83 51 148 l45 83 -4 103 c-4 113 -10 127 -66 154 l-35 17 -3 115 c-2 63 -5
125 -8 137 -3 12 -7 66 -11 120 -6 102 -7 112 -19 203 -14 106 -47 215 -97
327 -29 63 -56 116 -60 119 -5 3 -18 22 -29 43 -24 49 -149 182 -237 254 -304
247 -582 340 -873 293z m-35 -480 c13 5 16 4 11 -5 -8 -12 33 -9 88 6 12 3 16
1 12 -6 -4 -6 -2 -11 3 -11 6 0 11 5 11 11 0 5 5 7 10 4 6 -4 8 -11 5 -16 -4
-5 2 -10 12 -11 10 -1 25 -2 33 -3 40 -4 96 -18 107 -27 7 -6 23 -8 35 -5 27
7 67 -17 46 -27 -10 -5 -10 -7 0 -12 6 -3 10 -10 6 -15 -8 -13 10 -11 24 3 10
10 14 8 18 -10 4 -12 10 -22 15 -22 5 0 6 -6 3 -14 -3 -8 4 -21 16 -29 12 -9
19 -20 15 -26 -3 -6 -1 -11 5 -11 6 0 9 -8 6 -17 -7 -22 2 -35 34 -50 14 -6
19 -12 13 -12 -7 -1 -13 -12 -13 -26 0 -14 6 -25 13 -26 6 0 -15 -9 -48 -19
-33 -10 -55 -19 -50 -20 44 -7 59 -13 77 -30 12 -11 18 -20 12 -20 -5 0 -2 -5
6 -10 12 -8 9 -10 -12 -10 -35 0 -36 -11 -3 -26 17 -8 25 -9 28 -1 2 8 6 7 11
-1 4 -6 -3 -21 -14 -32 -28 -28 -18 -38 15 -16 14 9 25 12 25 6 0 -5 -4 -10
-10 -10 -14 0 -6 -40 11 -51 12 -8 11 -11 -3 -23 -13 -10 -15 -15 -6 -24 9 -9
8 -12 -6 -12 -12 0 -16 -5 -12 -15 4 -11 -2 -15 -22 -15 -15 0 -37 -3 -49 -6
-17 -5 -23 -2 -23 9 0 14 -4 14 -32 3 -18 -8 -50 -16 -72 -19 -21 -3 -43 -11
-47 -19 -5 -7 -9 -9 -9 -5 0 5 -15 -1 -34 -12 -36 -22 -76 -27 -92 -11 -12 12
-53 15 -76 5 -11 -4 -18 -3 -18 4 0 6 -8 11 -17 11 -10 1 -36 8 -58 16 -22 9
-50 15 -63 15 -13 0 -21 3 -18 8 4 5 -30 9 -76 9 -46 0 -91 1 -100 3 -32 5
-27 27 14 54 42 28 45 47 3 25 -14 -7 -28 -11 -31 -7 -9 8 58 48 73 43 6 -3
17 2 25 11 12 15 10 16 -14 9 -17 -4 -28 -2 -28 4 0 5 -7 10 -16 10 -13 0 -11
5 7 24 13 14 27 22 32 19 5 -3 4 -10 -2 -16 -6 -6 -11 -15 -11 -20 0 -5 7 -1
16 8 10 9 25 14 36 12 10 -3 16 -1 13 3 -3 4 13 6 35 3 32 -5 40 -2 40 10 0
18 40 34 90 36 11 1 11 4 2 13 -17 17 -15 33 2 19 12 -10 13 -9 9 7 -3 13 3
25 18 36 13 9 19 16 13 16 -5 0 -15 -5 -21 -11 -6 -6 -17 -9 -23 -7 -9 3 -7 9
6 22 17 18 16 18 -27 13 -40 -6 -41 -5 -16 5 29 13 36 28 12 28 -25 0 -17 30
8 31 21 1 21 1 -3 9 -23 7 -23 8 -3 9 33 2 39 21 6 22 -15 0 -22 3 -15 6 6 2
10 9 6 14 -8 13 -38 11 -52 -3 -6 -6 -21 -13 -32 -15 -19 -3 -25 6 -21 36 2
10 -2 10 -19 -2 -12 -8 -30 -12 -41 -10 -12 4 -25 -2 -34 -13 -13 -17 -14 -17
-15 -2 0 15 -4 16 -37 4 -21 -7 -51 -16 -68 -20 l-30 -6 23 19 c21 18 21 20 5
30 -13 8 -14 10 -4 11 11 0 10 4 -4 14 -17 12 -15 13 18 11 20 -2 37 1 37 6 0
5 4 9 10 9 5 0 7 -7 3 -16 -4 -12 -1 -15 13 -12 10 2 17 7 16 12 -2 5 2 13 10
18 10 7 9 12 -7 24 -17 13 -18 16 -5 24 20 13 43 13 35 0 -4 -6 1 -7 11 -3 11
4 13 8 6 11 -17 5 -15 22 3 22 8 0 15 8 15 19 0 26 22 42 40 30 13 -8 13 -10
0 -19 -8 -5 -11 -10 -7 -10 5 0 20 9 34 20 14 11 34 20 44 20 11 0 19 6 19 13
0 9 2 9 8 -1 5 -8 16 -10 27 -6z m121 -1074 c11 -8 17 -120 6 -136 -3 -6 -7
-17 -8 -26 -1 -8 -6 -26 -10 -39 -5 -16 -4 -22 4 -17 16 10 9 -88 -8 -109 -14
-17 -13 -18 4 -12 17 7 18 3 14 -53 -3 -45 -1 -60 9 -60 21 0 15 -20 -10 -29
-13 -5 -29 -16 -36 -25 -12 -14 -16 -14 -43 0 -24 13 -29 20 -26 47 2 18 8 36
13 40 7 6 6 10 -2 13 -9 4 -9 13 -2 31 5 15 8 32 5 39 -3 7 0 15 7 18 9 3 8 8
-3 15 -10 7 -11 11 -2 11 6 0 12 7 12 15 0 8 6 15 13 15 7 1 5 6 -6 14 -18 14
-18 15 0 24 12 7 18 22 18 51 0 23 -4 41 -8 41 -5 0 -5 4 -2 10 9 14 17 51 16
74 0 22 16 56 27 56 4 0 12 -4 18 -8z m-671 -258 c-10 -8 -15 -17 -11 -21 4
-4 10 -2 14 4 8 12 72 6 72 -7 0 -5 3 -15 6 -23 4 -11 -4 -16 -30 -19 -20 -2
-36 0 -36 4 0 15 -18 8 -24 -8 -9 -22 -4 -25 41 -29 21 -2 39 -9 41 -14 2 -7
10 -5 19 5 22 22 30 8 8 -16 -10 -11 -15 -20 -10 -20 4 0 13 7 19 15 13 18 76
38 76 25 0 -5 7 -6 17 -3 11 4 14 3 9 -5 -12 -19 12 -14 33 7 15 15 21 16 25
6 3 -8 0 -16 -7 -19 -7 -2 -4 -5 6 -5 9 -1 17 4 17 10 0 5 5 7 10 4 11 -7 -12
-35 -29 -35 -6 0 -11 -4 -11 -10 0 -5 7 -10 15 -10 8 0 15 -6 15 -14 0 -7 -7
-19 -15 -26 -9 -8 -15 -8 -15 -2 0 6 6 12 13 15 6 2 9 7 6 11 -13 14 -41 -26
-35 -50 5 -17 1 -26 -14 -34 -11 -6 -18 -15 -15 -21 4 -5 1 -8 -7 -7 -7 2 -12
-3 -10 -10 1 -8 -2 -11 -7 -8 -5 4 -12 0 -14 -6 -4 -10 -8 -9 -16 2 -6 8 -11
10 -11 5 0 -6 -9 -16 -21 -23 -12 -8 -18 -9 -15 -4 7 12 -28 24 -76 25 -20 1
-34 5 -31 10 2 4 -7 5 -22 3 -21 -4 -28 -1 -32 14 -6 22 -53 24 -53 3 0 -7 -5
-13 -11 -13 -6 0 -8 9 -4 20 4 12 2 20 -5 20 -7 0 -9 8 -5 19 3 10 8 33 10 51
3 24 0 30 -10 26 -9 -3 -20 4 -26 17 -7 12 -18 27 -25 35 -13 13 -8 46 5 37 4
-2 7 11 6 29 0 21 4 32 11 29 6 -2 17 3 24 12 14 17 50 21 50 4 0 -5 -4 -8 -9
-5 -5 3 -11 -1 -15 -9 -7 -20 3 -19 26 2 17 15 20 15 28 3 7 -10 10 -11 10 -2
0 6 9 12 20 12 11 0 20 5 20 11 0 5 5 7 12 3 8 -5 5 -11 -7 -20z m1395 -25 c0
-8 5 -7 15 1 13 10 19 10 35 -5 10 -9 23 -14 28 -11 6 3 9 -15 7 -45 -1 -36
-7 -54 -19 -61 -9 -5 -14 -13 -11 -19 4 -5 1 -10 -4 -10 -6 -1 -15 -2 -20 -3
-5 0 -18 -12 -30 -26 -11 -14 -20 -19 -21 -12 0 6 -4 12 -8 12 -5 0 -7 -13 -4
-30 2 -17 10 -30 18 -30 8 0 14 -4 14 -10 0 -5 -7 -10 -15 -10 -8 0 -15 -5
-15 -10 0 -6 -11 -15 -25 -20 -14 -5 -25 -14 -25 -20 0 -5 -7 -10 -15 -10 -8
0 -15 7 -15 15 0 8 -9 15 -20 15 -11 0 -20 -4 -20 -10 0 -5 7 -7 15 -4 9 4 15
0 15 -10 0 -17 -8 -20 -49 -18 -22 1 -22 0 -7 -11 17 -12 17 -14 0 -28 -16
-12 -17 -12 -12 1 4 12 -3 15 -33 16 -21 0 -36 -2 -34 -6 2 -3 -4 -6 -14 -6
-13 0 -16 6 -13 24 4 20 2 23 -15 18 -13 -4 -27 2 -43 19 -13 14 -21 28 -17
31 9 9 -21 36 -32 29 -6 -3 -8 6 -5 21 4 22 2 25 -13 20 -15 -6 -14 -4 3 15
17 20 17 22 2 16 -12 -4 -18 -1 -18 9 0 8 4 13 9 10 5 -3 15 2 22 11 10 12 10
14 2 9 -9 -5 -13 -1 -13 11 1 22 70 59 70 37 0 -7 5 -16 12 -20 7 -4 8 -3 4 4
-4 7 -1 12 8 12 9 0 16 -4 16 -10 0 -6 9 -6 23 -1 14 6 32 4 51 -6 22 -11 30
-12 36 -3 5 9 9 9 14 1 4 -6 12 -11 18 -11 6 0 9 3 5 6 -6 6 1 16 32 51 13 14
10 15 -32 12 -26 -2 -47 -1 -47 3 0 4 -9 10 -20 13 -29 9 -25 22 8 22 33 -1
92 9 100 17 11 11 102 6 102 -5z m-812 -552 c12 0 22 -5 22 -9 0 -13 27 -9 39
6 6 7 29 13 50 13 32 0 38 -3 34 -18 -3 -12 1 -21 11 -25 16 -6 15 -8 -1 -27
-10 -11 -12 -17 -5 -13 20 12 14 -11 -10 -36 -23 -23 -80 -48 -111 -48 -39 0
-97 25 -97 42 0 9 -8 22 -17 27 -10 6 -12 11 -5 11 6 0 12 5 12 11 0 6 -6 7
-12 2 -7 -4 -5 5 4 19 12 18 14 28 6 30 -24 8 4 30 31 23 14 -3 36 -7 49 -8z
m601 -1714 c41 -157 53 -133 -105 -209 -169 -81 -167 -80 -284 -114 -97 -29
-110 -30 -110 -4 0 8 -9 14 -22 14 -12 0 -31 8 -42 19 -12 10 -59 38 -106 61
-140 69 -164 82 -180 96 -12 12 -11 14 7 14 12 0 23 6 26 13 3 9 15 6 43 -11
22 -12 75 -41 119 -63 44 -23 97 -55 118 -71 33 -26 40 -28 55 -17 9 8 95 79
192 159 219 181 242 200 256 200 6 0 21 -39 33 -87z"/>
<path d="M3930 1337 c0 -32 30 -46 165 -76 77 -16 172 -35 210 -41 118 -18
517 -61 522 -57 4 5 -4 6 -322 62 -229 40 -243 43 -425 90 -155 40 -150 39
-150 22z"/>
<path d="M1078 1304 c-43 -36 -43 -36 -113 -31 -39 4 -94 12 -123 18 -51 12
-54 12 -121 -23 -38 -20 -120 -50 -182 -67 -128 -35 -250 -74 -204 -66 17 2
85 13 152 24 89 14 134 27 167 46 53 31 112 35 169 10 21 -9 67 -16 102 -17
58 -1 68 2 125 41 67 44 75 46 116 31 29 -12 38 -7 48 25 5 17 0 23 -27 33
-50 18 -61 15 -109 -24z"/>
<path d="M4620 925 c-268 -36 -403 -41 -543 -20 -65 9 -120 15 -122 14 -2 -2
-6 -20 -10 -40 l-7 -37 74 -13 c83 -14 303 -14 428 0 47 5 158 19 248 31 114
15 202 20 297 18 l135 -3 0 31 c0 30 -2 31 -52 38 -98 11 -272 4 -448 -19z"/>
<path d="M13 923 c-7 -2 -13 -18 -13 -34 l0 -29 83 0 c46 0 134 -6 197 -14 63
-8 171 -17 240 -21 74 -4 170 -16 235 -31 61 -14 144 -25 185 -25 67 -1 246
24 258 36 2 2 1 20 -2 40 -6 31 -10 35 -39 35 -18 0 -59 -7 -92 -15 -121 -30
-227 -30 -375 -1 -74 14 -187 30 -250 36 -63 6 -155 15 -205 20 -96 10 -202
12 -222 3z"/>
</g>
</svg>
