<?xml version="1.0" standalone="no"?>
<!DOCTYPE svg PUBLIC "-//W3C//DTD SVG 20010904//EN"
 "http://www.w3.org/TR/2001/REC-SVG-20010904/DTD/svg10.dtd">
<svg version="1.0" xmlns="http://www.w3.org/2000/svg"
 width="512.000000pt" height="512.000000pt" viewBox="0 0 512.000000 512.000000"
 preserveAspectRatio="xMidYMid meet">
<metadata>
Created by potrace 1.15, written by Peter Selinger 2001-2017
</metadata>
<g transform="translate(0.000000,512.000000) scale(0.100000,-0.100000)"
fill="#000000" stroke="none">
<path d="M2681 4983 c-25 -20 -33 -23 -28 -10 3 9 2 17 -4 17 -5 0 -12 -6 -15
-14 -4 -10 -15 -11 -44 -6 -29 5 -40 4 -44 -7 -3 -8 -11 -11 -18 -7 -8 5 -9 0
-4 -17 17 -55 19 -82 5 -77 -9 3 -13 16 -11 36 2 23 -1 32 -12 32 -8 0 -24 10
-36 22 -11 12 -20 17 -20 10 0 -6 5 -14 10 -17 13 -8 13 -72 1 -80 -9 -5 -31
53 -31 80 0 6 -16 10 -35 11 -32 0 -33 0 -15 -13 21 -15 27 -57 10 -68 -6 -4
-24 -1 -40 7 -24 10 -30 18 -27 38 2 14 2 19 0 11 -4 -9 -14 -11 -35 -7 -17 3
-35 6 -40 6 -5 0 -14 14 -19 30 -17 49 -25 35 -21 -39 3 -46 0 -77 -10 -95
l-14 -27 -32 41 c-34 41 -52 50 -52 26 0 -8 -6 -17 -12 -20 -9 -3 -8 -8 5 -16
9 -6 17 -19 17 -28 -1 -14 -4 -13 -19 6 -11 12 -24 22 -30 22 -7 0 -10 12 -9
26 2 15 -3 29 -9 31 -17 6 -17 -31 -1 -57 16 -26 8 -31 -31 -20 -29 8 -32 7
-26 -8 20 -48 19 -55 -6 -48 -70 21 -66 21 -46 -1 17 -19 23 -43 11 -43 -4 0
-24 10 -46 22 -33 19 -40 20 -48 8 -7 -12 -3 -16 17 -20 14 -3 28 -11 31 -19
3 -10 0 -12 -12 -8 -10 4 -16 1 -16 -8 0 -17 -35 -20 -45 -5 -3 6 -21 10 -39
10 -25 0 -35 -5 -39 -20 -6 -22 11 -39 22 -21 10 16 66 3 86 -20 30 -32 6 -44
-26 -13 -20 19 -32 25 -39 18 -8 -8 -6 -15 5 -24 15 -12 21 -40 8 -40 -3 0
-25 11 -49 25 -39 23 -74 25 -74 4 0 -5 -7 -9 -15 -9 -8 0 -15 -4 -15 -10 0
-5 5 -10 10 -10 6 0 10 -4 10 -10 0 -5 -29 -10 -65 -12 -71 -3 -88 -20 -29
-28 47 -6 58 -30 15 -30 -55 0 -32 -33 31 -44 35 -6 57 -29 38 -41 -4 -3 -20
-1 -34 5 -17 6 -26 6 -26 0 0 -6 4 -10 9 -10 21 0 19 -33 -5 -77 -14 -28 -24
-60 -22 -78 3 -26 -1 -30 -24 -33 -14 -2 -32 -9 -38 -17 -9 -11 -7 -12 11 -8
15 4 20 3 15 -5 -4 -7 -14 -12 -22 -12 -19 0 -18 -19 1 -26 21 -8 19 -28 -5
-49 -11 -10 -20 -25 -20 -34 0 -9 -9 -29 -20 -46 -14 -21 -16 -33 -9 -42 6 -6
8 -17 5 -22 -4 -6 -9 -34 -12 -63 -3 -29 -9 -57 -12 -63 -11 -17 -12 -76 -1
-70 5 4 9 1 9 -4 0 -6 -4 -11 -10 -11 -5 0 -10 -8 -10 -18 0 -10 -5 -23 -12
-30 -9 -9 -8 -15 7 -26 18 -13 18 -14 -4 -45 -18 -25 -21 -39 -16 -70 4 -25 2
-41 -5 -46 -6 -4 -8 -14 -5 -24 3 -9 6 -100 7 -202 1 -101 5 -188 8 -194 7 -9
20 -88 21 -125 1 -8 9 -34 19 -56 28 -61 33 -90 21 -111 -16 -30 -26 -131 -12
-117 6 6 16 33 21 60 12 66 36 160 45 174 6 9 24 120 51 305 3 22 12 47 19 55
7 8 15 26 18 40 4 14 20 33 37 42 16 9 30 24 30 33 0 8 5 15 10 15 6 0 10 9
10 20 0 11 7 20 15 20 17 0 92 99 87 114 -2 6 1 19 7 30 5 12 12 34 16 49 3
15 10 25 15 22 6 -4 10 7 10 24 0 21 5 31 15 31 11 0 15 11 15 38 0 21 6 46
13 57 7 11 14 35 15 53 2 19 14 65 27 104 19 54 35 80 67 110 59 53 77 62 237
119 30 11 62 25 70 33 22 19 124 48 144 40 8 -3 31 2 51 11 19 9 40 14 46 10
6 -4 16 -2 23 3 18 14 119 3 181 -19 30 -11 47 -11 98 0 35 8 68 13 73 13 44
-5 119 -23 130 -32 7 -6 25 -8 40 -4 30 7 75 -12 75 -32 0 -11 23 -24 55 -30
6 -1 27 -9 48 -18 33 -13 37 -19 31 -38 -3 -13 -11 -24 -15 -26 -5 -2 -9 -9
-9 -17 0 -7 -7 -18 -15 -25 -8 -7 -15 -19 -15 -28 0 -10 8 -7 25 12 14 15 25
30 25 34 1 4 11 20 24 35 18 23 24 25 29 14 3 -8 19 -18 35 -22 29 -6 102 -74
114 -107 4 -9 17 -18 30 -20 13 -2 27 -13 33 -25 5 -13 13 -23 18 -23 4 0 5
-4 2 -10 -3 -5 -18 -10 -33 -10 -20 0 -23 -3 -14 -12 7 -7 12 -22 12 -33 0
-25 29 -55 53 -55 19 0 31 -32 22 -61 -4 -13 -2 -25 5 -29 7 -5 14 -31 15 -61
3 -65 4 -70 15 -44 6 14 9 -5 9 -58 1 -70 3 -79 21 -84 11 -3 20 -12 20 -20 0
-8 11 -24 25 -37 14 -13 25 -30 25 -38 0 -9 7 -21 15 -28 8 -7 15 -22 16 -34
0 -20 1 -20 9 -1 10 25 16 11 24 -55 3 -25 10 -72 16 -105 6 -33 15 -96 20
-140 19 -145 59 -335 71 -335 4 0 1 28 -8 63 -8 34 -13 90 -11 125 3 46 1 62
-9 62 -16 0 -15 -6 -3 119 6 55 13 127 16 158 8 100 9 108 17 119 12 20 17 88
7 103 -5 9 -5 22 2 34 5 11 12 37 14 58 3 29 0 39 -11 39 -20 0 -19 9 2 32 14
15 15 23 6 37 -7 10 -9 29 -6 41 5 18 3 21 -8 15 -8 -5 -4 3 9 17 21 24 22 27
7 42 -9 9 -23 16 -31 16 -8 0 -14 7 -14 15 0 8 -5 15 -11 15 -6 0 -9 6 -6 13
2 6 10 11 16 9 23 -5 12 56 -14 76 -14 11 -25 25 -25 31 0 6 -5 11 -11 11 -16
0 -1 72 18 87 13 10 10 17 -22 48 -29 30 -35 42 -30 64 3 16 -2 41 -14 66 -18
37 -18 41 -3 46 12 4 6 9 -21 18 -37 13 -50 31 -22 31 8 0 15 7 15 15 0 20
-20 19 -36 -2 -7 -10 -16 -14 -21 -9 -4 5 -2 11 4 13 10 3 9 8 -2 20 -14 14
-12 21 16 72 l32 56 -36 -35 c-20 -19 -40 -34 -44 -32 -4 1 -10 -12 -13 -29
-5 -33 -30 -54 -30 -26 0 9 6 18 13 21 10 5 10 7 0 12 -16 7 -17 46 -2 61 8 8
7 17 -2 31 -11 17 -11 28 -1 55 16 44 15 57 -2 34 -13 -17 -15 -16 -21 12 -3
16 -4 47 -1 68 4 22 3 31 -2 20 -7 -17 -10 -16 -32 8 -13 14 -32 25 -42 25
-10 0 -18 4 -18 9 0 5 -9 7 -20 4 -14 -4 -20 0 -20 11 0 9 -4 16 -10 16 -5 0
-10 13 -10 29 0 53 -27 49 -49 -6 -7 -18 -20 -38 -27 -44 -17 -14 -32 -3 -18
11 7 7 7 27 0 60 -8 43 -7 52 9 70 18 20 18 20 -8 20 -20 0 -28 6 -33 25 -8
34 -23 32 -35 -5 -16 -44 -42 -40 -33 5 6 36 -3 44 -24 23 -9 -9 -12 -9 -12 1
0 9 -6 11 -17 6 -10 -4 -24 -9 -30 -12 -8 -3 -13 2 -13 12 0 11 -5 15 -16 11
-8 -3 -25 1 -38 9 -21 14 -25 13 -59 -18 -20 -18 -37 -38 -37 -45 0 -25 -20
-11 -21 16 l0 27 -16 -32 c-9 -18 -20 -33 -25 -33 -8 0 -13 35 -10 79 1 28
-39 66 -50 48 -5 -8 -8 -6 -8 6 0 24 -26 22 -33 -3 -7 -28 -42 -25 -66 6 -15
20 -21 22 -21 10 0 -21 -46 -22 -54 -1 -8 22 -26 18 -65 -12z"/>
<path d="M2160 3424 c-25 -7 -58 -14 -73 -14 -34 0 -124 -36 -153 -62 -11 -10
-24 -15 -27 -11 -8 7 -67 -46 -67 -60 0 -5 6 -4 14 2 11 9 15 9 19 -1 4 -10 8
-10 14 -1 17 23 60 30 173 26 163 -5 197 -8 215 -23 39 -32 4 -53 -115 -69
-121 -16 -177 -31 -196 -52 -9 -10 -22 -19 -27 -19 -13 0 -36 -32 -36 -50 0
-26 25 -49 60 -55 19 -3 46 -8 61 -11 22 -4 27 -2 22 10 -6 15 36 66 55 66 5
0 14 -15 20 -33 7 -19 24 -45 39 -59 22 -22 33 -25 62 -20 19 4 42 12 50 17
22 15 50 69 50 98 0 21 3 24 23 19 34 -11 87 -45 87 -58 0 -6 -18 -17 -40 -24
-22 -7 -40 -19 -40 -26 0 -10 18 -7 68 12 37 15 79 27 95 28 20 1 27 6 27 22
0 11 -6 26 -12 32 -10 10 -10 15 1 21 9 6 15 28 15 58 1 26 5 54 9 61 5 6 7
12 5 13 -2 0 -16 3 -32 5 -16 3 -38 10 -48 15 -17 9 -17 12 -3 32 8 12 15 28
15 36 0 16 -29 40 -49 41 -8 0 -30 12 -49 26 -32 25 -34 25 -27 5 6 -20 -4
-28 -19 -14 -7 7 -109 32 -131 32 -5 0 -30 -7 -55 -15z"/>
<path d="M3217 3423 c-4 -3 -26 -9 -49 -13 -24 -4 -50 -9 -58 -11 -9 -2 -14 2
-12 11 3 11 -2 10 -17 -4 -12 -11 -21 -14 -21 -8 0 23 -20 11 -26 -15 -10 -42
-12 -43 -42 -27 -41 21 -53 18 -48 -13 2 -16 5 -28 6 -28 9 0 6 -52 -5 -103
-19 -79 -19 -96 0 -136 18 -37 73 -101 81 -93 3 3 -2 18 -12 33 l-18 27 54 -6
c41 -5 50 -4 38 3 -10 6 -18 18 -18 25 0 8 8 15 18 15 9 0 30 7 46 15 33 17
60 20 51 5 -12 -19 16 -79 48 -106 54 -45 121 -19 143 56 11 38 27 44 62 22
24 -15 28 -42 12 -72 -10 -18 -9 -18 26 -4 20 8 42 13 49 11 6 -3 18 -1 26 4
20 14 -69 92 -124 109 -23 8 -48 18 -56 24 -8 6 -59 11 -118 11 -97 -1 -124 5
-87 19 9 3 66 4 128 2 125 -4 200 -29 246 -82 21 -25 25 -27 28 -11 9 43 -84
98 -193 115 -38 6 -94 14 -122 18 -82 9 -71 18 62 53 22 5 91 10 153 9 62 0
116 2 119 6 7 6 -63 76 -93 92 -11 6 -43 14 -70 18 -27 3 -67 13 -89 21 -42
15 -107 20 -118 8z"/>
<path d="M2559 2585 c-17 -9 -29 -26 -33 -46 -5 -29 -9 -31 -36 -25 -16 3 -30
2 -30 -3 0 -14 65 -41 97 -41 34 0 73 25 73 47 0 9 6 13 15 9 8 -3 15 -1 15 4
0 16 18 12 22 -5 2 -9 8 -12 16 -6 10 6 5 17 -21 45 -38 40 -72 46 -118 21z"/>
<path d="M2924 2584 c-34 -16 -100 -91 -90 -101 3 -4 18 -1 33 6 22 10 32 9
58 -5 21 -11 39 -14 51 -9 11 5 31 9 46 10 38 4 77 36 78 64 0 22 -2 22 -23
-10 -15 -22 -32 -35 -50 -37 -30 -4 -32 0 -15 28 10 16 9 23 -12 45 -27 29
-34 30 -76 9z"/>
<path d="M2886 2203 c-4 -4 -22 -9 -39 -10 -46 -3 -90 -10 -108 -18 -10 -3
-20 -2 -23 3 -3 6 -26 9 -51 6 -24 -2 -47 1 -50 6 -3 6 -32 10 -63 10 -43 -1
-72 -8 -117 -30 -68 -34 -78 -36 -95 -15 -24 29 -56 17 -103 -37 -48 -58 -80
-115 -71 -129 12 -20 44 -6 90 39 29 27 61 48 74 49 14 1 52 8 85 15 61 14 95
14 435 1 180 -7 198 -10 233 -31 23 -15 37 -31 37 -44 0 -15 4 -18 18 -12 9 4
31 9 47 10 17 1 34 3 39 3 4 1 5 17 1 37 -8 46 -70 113 -87 96 -18 -18 -32
-15 -89 23 -38 24 -60 33 -74 28 -25 -8 -45 -8 -66 1 -8 4 -19 3 -23 -1z"/>
<path d="M2423 1977 c-3 -6 12 -26 35 -46 22 -20 43 -46 47 -58 10 -35 28 -43
111 -49 44 -3 122 -10 174 -15 151 -15 190 -16 199 -4 10 12 22 62 22 90 0 10
5 25 11 32 16 20 -18 56 -42 43 -46 -25 -312 -37 -328 -15 -4 6 -23 11 -42 13
-19 1 -68 6 -108 10 -46 5 -75 5 -79 -1z"/>
<path d="M2018 1539 c-13 -3 -22 -11 -21 -17 2 -7 -8 -14 -21 -18 -29 -7 -36
-27 -24 -71 6 -25 12 -30 28 -26 25 7 26 -12 3 -26 -10 -6 -12 -11 -5 -11 6 0
12 -7 12 -17 0 -15 1 -15 18 0 14 13 21 14 30 5 9 -9 13 -7 18 5 9 24 23 21
36 -8 12 -26 34 -33 40 -14 3 9 9 9 25 0 12 -6 30 -11 40 -11 10 0 31 -7 46
-15 15 -8 43 -17 62 -21 19 -3 35 -10 35 -14 0 -4 18 -10 40 -14 22 -3 40 -11
40 -16 0 -6 15 -10 34 -10 26 0 36 -5 41 -20 3 -11 13 -20 21 -20 9 0 14 -10
14 -29 0 -23 -5 -30 -25 -34 -19 -3 -29 1 -36 15 -6 11 -17 17 -24 14 -7 -2
-19 1 -25 9 -8 10 -19 11 -43 4 -18 -5 -45 -7 -60 -3 -26 5 -28 4 -22 -15 7
-23 3 -25 -23 -12 -9 6 -45 22 -79 37 -35 15 -63 32 -63 39 0 10 -8 11 -32 3
-46 -14 -88 3 -88 36 0 14 -4 28 -10 31 -5 3 -10 1 -10 -4 0 -6 -6 -11 -14
-11 -8 0 -17 -8 -21 -17 -6 -17 -7 -17 -16 0 -6 9 -16 17 -24 17 -22 0 -29
-22 -11 -35 19 -15 19 -78 0 -71 -7 3 -17 -1 -23 -8 -8 -9 5 -28 49 -75 33
-34 58 -66 55 -72 -4 -5 -2 -9 4 -9 5 0 18 -17 28 -37 10 -21 23 -38 28 -38 6
-1 20 -5 33 -9 17 -6 21 -12 16 -24 -17 -38 -6 -80 29 -117 31 -34 35 -50 10
-41 -19 7 24 -35 54 -53 16 -9 16 -12 3 -21 -12 -8 -11 -10 8 -11 36 -2 38 -3
57 -23 19 -18 19 -18 -3 -12 -48 16 -18 -12 51 -45 134 -66 172 -82 196 -85
13 -2 28 -9 32 -16 6 -9 42 -13 131 -14 130 -2 168 6 168 32 0 13 6 14 33 8
47 -12 85 -9 105 8 9 9 30 19 47 22 16 4 32 12 36 17 3 5 29 12 57 16 48 5 51
7 54 37 2 20 9 31 18 31 14 0 50 41 50 58 0 4 -9 7 -20 7 -21 0 -27 15 -10 25
6 3 10 15 10 27 0 17 4 20 30 15 25 -5 30 -3 30 12 0 23 25 45 40 36 7 -4 14
2 17 14 3 12 9 22 14 22 5 1 14 2 21 3 6 0 13 7 16 14 2 7 -2 10 -10 7 -26 -8
-118 -14 -118 -7 0 4 11 16 25 26 14 10 25 27 25 36 0 9 11 29 25 44 14 15 25
31 25 36 0 4 6 10 13 13 9 3 9 7 -1 20 -10 12 -11 21 -2 36 9 17 7 25 -9 42
-12 13 -26 19 -35 16 -9 -4 -16 -1 -16 6 0 13 -58 15 -97 2 -18 -6 -22 -2 -28
24 -10 45 -25 48 -26 4 -1 -21 -3 -30 -6 -21 -2 9 -15 24 -29 33 -24 16 -26
16 -31 -5 -5 -20 -10 -22 -57 -15 -61 8 -64 10 -43 33 10 10 14 22 10 25 -3 4
5 17 18 29 26 25 59 26 59 2 0 -21 23 -17 55 8 32 25 61 32 70 18 4 -6 17 -2
32 10 15 12 34 18 45 15 22 -8 23 -1 2 31 -9 13 -14 27 -10 31 3 3 6 1 6 -5 0
-7 5 -12 10 -12 6 0 10 14 10 31 0 27 2 30 15 19 8 -7 12 -17 8 -24 -3 -6 1
-4 9 4 23 22 32 99 14 106 -9 3 -18 15 -22 26 -5 18 -7 19 -25 2 -10 -9 -16
-21 -13 -25 3 -5 1 -9 -5 -9 -5 0 -13 5 -16 10 -8 12 -45 13 -45 1 0 -11 -40
-27 -115 -45 -33 -8 -74 -19 -91 -24 -20 -6 -37 -6 -49 1 -35 19 -87 26 -114
14 -14 -6 -37 -12 -51 -13 -14 -2 -35 -6 -47 -9 -12 -3 -23 -1 -25 4 -4 11
-117 20 -124 9 -3 -4 -9 -6 -14 -3 -5 3 -27 1 -47 -5 -29 -8 -50 -8 -92 4 -30
7 -60 12 -67 9 -23 -9 -185 55 -200 78 -3 5 -15 9 -28 9 -12 0 -28 6 -34 13
-14 13 -56 16 -94 6z"/>
<path d="M1430 1456 c-167 -81 -315 -145 -415 -181 -44 -16 -84 -32 -90 -35
-5 -4 -28 -13 -50 -19 -39 -12 -49 -16 -110 -41 -16 -7 -64 -23 -105 -37 -41
-14 -86 -31 -100 -38 -23 -12 -88 -38 -100 -41 -11 -2 -68 -26 -115 -49 -27
-13 -79 -36 -114 -50 -35 -15 -80 -37 -100 -49 -20 -13 -53 -28 -73 -35 -21
-7 -41 -18 -45 -24 -13 -20 -13 -47 -2 -47 8 0 8 -5 -1 -15 -10 -12 -10 -15 0
-15 9 0 10 -4 2 -13 -8 -9 -11 -137 -12 -390 l0 -377 2560 0 2560 0 0 459 0
459 -45 13 c-25 7 -45 17 -45 21 0 4 -9 8 -20 8 -11 0 -20 5 -20 10 0 6 -4 10
-9 10 -5 0 -57 22 -115 50 -58 27 -108 50 -111 50 -2 0 -48 22 -102 48 -107
52 -322 137 -502 196 -62 21 -142 51 -178 67 -36 16 -71 29 -79 29 -8 0 -37
11 -64 25 -27 14 -51 25 -54 25 -2 0 -6 -48 -9 -107 -6 -132 -19 -204 -54
-289 -56 -142 -179 -291 -328 -398 -22 -16 -42 -32 -45 -36 -8 -12 -79 -50
-93 -50 -7 0 -30 -12 -51 -26 -31 -21 -40 -24 -48 -13 -7 10 -8 8 -3 -8 3 -12
-1 -35 -9 -52 -18 -35 -20 -45 -6 -36 5 3 10 2 10 -3 0 -19 -100 -79 -300
-178 -114 -57 -213 -104 -219 -104 -6 0 -33 14 -59 30 -27 17 -52 30 -56 30
-3 0 -23 10 -44 23 -20 13 -82 48 -137 77 -173 92 -181 97 -234 134 -28 20
-55 36 -60 36 -5 0 -34 20 -64 45 -31 25 -59 45 -63 45 -11 0 -135 130 -197
206 -31 39 -72 104 -90 145 -53 115 -64 173 -95 485 l-7 72 -85 -42z"/>
</g>
</svg>
