<?xml version="1.0" standalone="no"?>
<!DOCTYPE svg PUBLIC "-//W3C//DTD SVG 20010904//EN"
 "http://www.w3.org/TR/2001/REC-SVG-20010904/DTD/svg10.dtd">
<svg version="1.0" xmlns="http://www.w3.org/2000/svg"
 width="916.000000pt" height="600.000000pt" viewBox="0 0 916.000000 600.000000"
 preserveAspectRatio="xMidYMid meet">

<g transform="translate(0.000000,600.000000) scale(0.100000,-0.100000)"
fill="#000000" stroke="none">
<path d="M7098 5838 c-103 -90 -183 -165 -179 -168 11 -6 87 -658 78 -666 -5
-5 -536 -43 -618 -44 -15 0 -26 -6 -26 -14 0 -30 -97 -335 -108 -338 -12 -3
-475 -503 -475 -514 0 -4 -6 -12 -14 -18 -8 -6 -120 -200 -248 -431 -128 -231
-240 -430 -249 -443 l-16 -23 -317 77 c-179 43 -321 73 -326 68 -4 -5 -29
-101 -55 -214 -25 -112 -48 -206 -50 -208 -2 -2 -57 29 -122 68 -227 138 -335
202 -338 198 -2 -2 9 -102 25 -223 33 -248 37 -282 28 -290 -3 -4 -181 -24
-395 -46 -213 -22 -399 -42 -413 -45 -21 -5 -15 -9 40 -31 36 -13 79 -31 97
-39 17 -8 37 -14 45 -14 8 0 18 -4 23 -9 6 -5 37 -18 70 -29 33 -12 85 -31
115 -42 30 -12 66 -25 80 -30 14 -5 47 -17 73 -28 l49 -19 -109 -11 c-59 -6
-192 -19 -295 -28 l-187 -17 -273 -274 c-150 -151 -281 -279 -291 -284 -14 -8
-55 9 -191 81 l-174 90 -50 -92 c-27 -51 -86 -166 -132 -256 -45 -90 -88 -166
-94 -168 -12 -5 -108 28 -405 137 -74 27 -137 47 -139 44 -4 -4 -50 -565 -52
-627 0 -10 -4 -18 -8 -18 -4 0 -77 122 -162 270 -85 149 -158 269 -163 267 -5
-1 -44 -90 -87 -197 -43 -107 -84 -198 -91 -202 -29 -17 -572 -47 -754 -42
-99 3 -188 7 -197 10 -17 5 -18 -23 -18 -500 l0 -506 4580 0 4580 0 0 3000 0
3000 -937 0 -938 0 -187 -162z"/>
</g>
</svg>
