<?xml version="1.0" standalone="no"?>
<!DOCTYPE svg PUBLIC "-//W3C//DTD SVG 20010904//EN"
 "http://www.w3.org/TR/2001/REC-SVG-20010904/DTD/svg10.dtd">
<svg version="1.0" xmlns="http://www.w3.org/2000/svg"
 width="916.000000pt" height="600.000000pt" viewBox="0 0 916.000000 600.000000"
 preserveAspectRatio="xMidYMid meet">

<g transform="translate(0.000000,600.000000) scale(0.100000,-0.100000)"
fill="#000000" stroke="none">
<path d="M8430 4929 c-184 -111 -337 -204 -340 -208 -3 -3 -104 -80 -224 -170
l-219 -163 -451 3 -451 4 -212 -145 c-117 -80 -353 -230 -525 -335 -308 -187
-315 -192 -456 -325 -79 -74 -176 -164 -215 -200 l-70 -65 -389 99 c-214 55
-391 97 -394 93 -3 -3 -29 -174 -57 -380 -29 -207 -55 -378 -58 -381 -2 -3
-97 161 -209 365 -120 218 -207 366 -212 361 -5 -5 -44 -218 -86 -473 l-77
-464 10 -152 10 -152 -28 26 c-15 15 -27 33 -27 40 0 7 -7 13 -15 13 -8 0 -15
5 -15 12 0 6 -28 39 -63 73 -34 34 -71 74 -82 88 -10 14 -23 23 -27 21 -4 -3
-8 2 -8 10 0 8 -9 20 -20 26 -20 11 -20 8 -20 -309 l0 -320 -175 -128 c-96
-70 -174 -132 -175 -137 0 -4 -54 -139 -121 -298 -66 -159 -118 -292 -115
-295 3 -3 -1 -11 -8 -17 -8 -6 -44 -81 -81 -166 -185 -427 -179 -414 -212
-421 -17 -3 -134 -7 -259 -8 -126 -1 -229 -3 -231 -4 -1 -2 22 -101 50 -222
l53 -220 3467 -3 3467 -2 0 2470 0 2470 -190 95 c-104 52 -193 95 -197 95 -5
0 -159 -90 -343 -201z"/>
</g>
</svg>
