<?xml version="1.0" standalone="no"?>
<!DOCTYPE svg PUBLIC "-//W3C//DTD SVG 20010904//EN"
 "http://www.w3.org/TR/2001/REC-SVG-20010904/DTD/svg10.dtd">
<svg version="1.0" xmlns="http://www.w3.org/2000/svg"
 width="500.000000pt" height="275.000000pt" viewBox="0 0 500.000000 275.000000"
 preserveAspectRatio="xMidYMid meet">
<metadata>
Created by potrace 1.15, written by Peter Selinger 2001-2017
</metadata>
<g transform="translate(0.000000,275.000000) scale(0.100000,-0.100000)"
fill="#000000" stroke="none">
<path d="M0 1375 l0 -1375 2500 0 2500 0 0 1375 0 1375 -340 0 c-368 0 -374
-1 -302 -51 34 -23 40 -24 67 -13 63 27 215 11 215 -22 0 -8 6 -17 14 -20 23
-9 27 -32 14 -82 -12 -50 -22 -64 -53 -76 -19 -8 -19 -8 2 -19 26 -11 28 -21
11 -43 -35 -42 -64 -65 -142 -112 -16 -9 -38 -26 -50 -37 -19 -18 -122 -85
-131 -85 -8 0 -65 -62 -65 -71 0 -5 -6 -9 -14 -9 -8 0 -31 -9 -53 -19 -51 -26
-140 -51 -198 -57 -26 -2 -53 -11 -61 -19 -8 -8 -29 -17 -47 -20 -71 -13 -182
-23 -189 -18 -5 2 -20 -2 -33 -11 -13 -9 -40 -16 -60 -16 -20 0 -49 -7 -64
-15 -16 -8 -98 -21 -182 -30 -85 -9 -176 -21 -204 -28 -28 -6 -113 -11 -192
-10 -95 1 -143 -3 -143 -10 0 -7 -95 -8 -317 -2 -175 4 -338 8 -363 7 -113 -3
-349 -23 -380 -33 -60 -17 -316 -22 -550 -10 -184 10 -231 16 -264 32 -22 10
-49 19 -60 19 -12 0 -33 11 -47 24 -13 12 -42 26 -62 30 -20 4 -37 11 -37 16
0 5 -17 14 -37 21 -43 14 -80 46 -85 74 -2 14 -14 21 -45 27 -23 4 -59 16 -80
26 -21 11 -72 31 -113 44 -51 16 -76 29 -78 41 -3 12 3 17 20 17 13 0 39 10
58 21 l35 22 -23 15 c-12 8 -22 20 -22 27 0 6 -16 28 -36 48 -32 32 -36 40
-30 72 4 21 13 35 21 35 8 0 15 8 15 18 0 10 15 23 40 34 22 9 40 23 40 31 0
8 7 18 16 21 13 5 14 9 4 20 -9 12 -7 17 10 26 14 7 20 19 18 33 -3 24 -60 66
-100 74 -38 7 -54 28 -38 48 11 13 -7 15 -149 15 l-161 0 0 -1375z m4910 590
c11 -13 9 -20 -9 -38 -11 -13 -21 -31 -21 -40 0 -9 -8 -17 -17 -17 -26 -1 -59
-32 -67 -63 -4 -16 -19 -33 -39 -43 -17 -9 -58 -43 -90 -75 -39 -39 -67 -59
-83 -59 -19 0 -24 -5 -24 -24 0 -18 -7 -26 -27 -31 -30 -7 -97 -46 -143 -82
-15 -13 -37 -23 -49 -23 -12 0 -21 -6 -21 -14 0 -7 -29 -28 -65 -45 -35 -18
-67 -36 -70 -42 -4 -5 -22 -16 -41 -24 -19 -8 -34 -19 -34 -24 0 -6 -13 -11
-28 -11 -25 0 -31 -6 -42 -40 -15 -45 -5 -42 -210 -66 -80 -10 -147 -20 -150
-24 -10 -14 -220 -32 -248 -22 -26 10 -89 22 -145 27 -55 6 -87 25 -87 54 0
15 -10 35 -22 45 -21 18 -21 20 -4 26 14 5 9 10 -25 24 l-44 18 35 13 c19 7
53 23 75 34 21 12 50 21 62 21 31 0 29 12 -4 32 -26 16 -27 17 -6 18 12 0 25
4 28 10 11 17 124 79 177 96 30 11 65 32 88 56 21 21 48 38 59 38 27 0 35 17
14 29 -12 7 -13 10 -5 11 8 0 26 9 41 19 15 11 40 23 57 27 16 4 35 13 42 21
7 7 26 13 42 13 16 0 30 5 32 10 3 11 279 50 334 48 17 0 37 3 44 7 7 4 31 10
54 12 22 2 43 7 46 12 3 5 22 12 43 16 20 4 37 11 37 16 0 5 15 9 33 9 17 0
48 5 67 11 19 6 53 13 75 15 22 3 83 11 135 18 133 19 185 19 200 1z m-2322
-751 c34 -4 62 -11 62 -16 0 -5 -4 -6 -10 -3 -5 3 -10 2 -10 -4 0 -5 4 -12 10
-16 5 -3 7 -12 4 -20 -4 -8 -11 -12 -17 -8 -6 4 -7 1 -2 -7 21 -33 11 -66 -18
-61 -5 1 -6 -3 -2 -9 8 -14 18 -13 40 4 17 12 18 16 5 32 -13 15 -13 17 -1 13
8 -3 19 -12 25 -21 12 -20 -8 -48 -35 -48 -11 0 -19 -5 -19 -10 0 -6 6 -10 13
-9 24 3 37 -1 37 -12 0 -6 -9 -9 -20 -6 -11 3 -18 1 -15 -3 3 -5 -3 -14 -14
-19 -29 -16 -38 -13 -15 5 19 15 19 16 -1 9 -11 -4 -28 -10 -38 -13 -14 -4
-16 -7 -6 -13 10 -6 5 -11 -15 -18 -15 -6 -32 -9 -37 -6 -4 3 -19 -1 -32 -10
-13 -8 -26 -13 -29 -10 -3 3 -23 -4 -43 -15 -25 -14 -47 -19 -63 -15 -18 4
-23 3 -19 -8 3 -9 -7 -19 -29 -27 -19 -8 -34 -17 -34 -22 0 -4 -12 -8 -26 -8
-14 0 -34 -5 -46 -11 -11 -6 -23 -8 -26 -4 -3 3 4 8 16 12 12 3 22 9 22 14 0
5 12 9 26 9 15 0 23 4 19 11 -4 6 -13 8 -20 5 -7 -2 -18 1 -24 7 -16 16 -61
-10 -54 -32 3 -11 2 -12 -4 -4 -9 12 -37 12 -106 -2 -24 -5 -28 -4 -17 4 13 9
13 11 -2 11 -10 0 -18 -4 -18 -10 0 -5 -18 -10 -41 -10 -28 0 -38 -4 -33 -12
5 -8 2 -9 -10 -5 -10 4 -23 7 -29 7 -28 1 21 20 51 20 17 0 32 5 32 10 0 6 8
10 17 10 9 0 13 3 10 7 -4 3 -18 1 -31 -6 -13 -8 -30 -11 -38 -8 -13 5 70 44
85 39 5 -1 6 2 3 7 -4 5 -25 3 -53 -5 -60 -18 -90 -17 -38 1 22 8 41 15 43 15
1 0 2 7 2 15 0 18 -16 20 -23 3 -3 -7 -6 -3 -6 10 -1 16 5 22 20 22 12 0 27 6
33 14 15 20 107 67 117 60 5 -3 9 0 9 5 0 6 9 11 19 11 10 0 21 7 25 15 3 8
15 15 26 15 11 0 20 5 20 10 0 6 7 10 15 10 8 0 15 -4 15 -10 0 -5 -4 -10 -10
-10 -16 0 -12 -27 10 -62 21 -35 25 -49 13 -47 -27 4 -33 -2 -23 -22 6 -11 12
-33 12 -50 1 -21 6 -29 19 -29 12 0 16 5 13 14 -4 11 0 13 15 9 12 -3 21 -1
21 5 0 6 10 12 23 14 20 3 20 4 -5 9 -16 4 -26 2 -25 -4 1 -6 -11 -12 -27 -13
-22 -2 -26 0 -18 8 7 7 12 23 12 36 0 15 4 21 11 16 7 -4 21 -8 33 -9 36 -4
37 -5 31 -15 -4 -7 3 -9 22 -5 44 10 83 27 83 36 0 4 -17 1 -37 -8 -24 -10
-39 -11 -41 -5 -2 6 -10 8 -18 5 -8 -3 -14 1 -14 11 0 9 6 16 13 16 8 0 7 4
-3 10 -13 9 -13 10 0 11 8 1 18 1 23 0 4 0 8 5 9 12 0 6 2 17 2 22 1 6 5 16
10 23 9 16 8 17 -20 26 -15 5 -24 2 -28 -9 -5 -13 -1 -15 17 -10 19 5 20 4 4
-5 -9 -6 -21 -9 -26 -6 -5 3 -14 -1 -21 -9 -7 -8 -18 -15 -24 -15 -6 1 -1 9
12 19 12 11 22 24 22 31 0 9 -31 -24 -57 -59 -2 -2 -6 -2 -9 1 -3 4 0 17 7 30
7 12 12 28 11 34 -1 7 6 14 15 18 46 16 93 53 53 41 -14 -4 -29 -14 -33 -21
-4 -8 -15 -14 -22 -14 -28 0 -15 27 26 51 22 13 51 30 62 37 15 9 42 11 82 7
33 -3 88 -8 123 -11z"/>
</g>
</svg>
