<?xml version="1.0" standalone="no"?>
<!DOCTYPE svg PUBLIC "-//W3C//DTD SVG 20010904//EN"
 "http://www.w3.org/TR/2001/REC-SVG-20010904/DTD/svg10.dtd">
<svg version="1.0" xmlns="http://www.w3.org/2000/svg"
 width="916.000000pt" height="600.000000pt" viewBox="0 0 916.000000 600.000000"
 preserveAspectRatio="xMidYMid meet">

<g transform="translate(0.000000,600.000000) scale(0.100000,-0.100000)"
fill="#000000" stroke="none">
<path d="M8790 5991 c0 -5 23 -83 50 -174 l51 -165 -122 -329 c-67 -180 -125
-332 -129 -336 -6 -7 -349 -48 -400 -48 -8 0 -168 68 -355 151 -187 84 -360
160 -385 170 l-45 18 -105 -151 c-169 -242 -194 -279 -235 -337 -21 -30 -83
-118 -136 -195 -54 -77 -106 -149 -117 -160 -18 -18 -281 -347 -313 -392 -21
-28 -24 -30 -206 -77 -92 -24 -266 -69 -385 -100 -120 -31 -231 -62 -248 -69
-19 -9 -92 -87 -201 -218 -94 -112 -178 -211 -185 -219 -8 -8 -94 -125 -191
-260 -96 -135 -176 -246 -177 -247 -1 -2 -89 13 -196 32 -106 19 -198 32 -203
28 -6 -4 -123 -35 -260 -69 l-249 -61 -299 -334 c-165 -184 -308 -341 -317
-349 -11 -9 -60 -158 -126 -377 -60 -199 -112 -367 -116 -374 -6 -8 -94 17
-307 88 -170 57 -300 95 -300 89 0 -6 -86 -192 -190 -413 l-190 -403 -223
-297 c-201 -270 -254 -334 -270 -330 -3 0 -31 -7 -64 -17 -32 -9 -65 -15 -73
-12 -8 3 -12 2 -8 -3 7 -12 -51 -25 -66 -15 -8 5 -9 3 -4 -6 6 -10 3 -12 -13
-8 -12 4 -25 2 -28 -4 -3 -5 -13 -7 -21 -4 -8 3 -11 1 -8 -4 4 -7 1335 -10
3871 -10 l3864 0 0 3000 0 3000 -185 0 c-102 0 -185 -4 -185 -9z"/>
<path d="M411 79 l-42 -79 237 0 c131 0 235 2 233 5 -4 3 -233 95 -365 145
-19 7 -26 -1 -63 -71z"/>
</g>
</svg>
