<?xml version="1.0" standalone="no"?>
<!DOCTYPE svg PUBLIC "-//W3C//DTD SVG 20010904//EN"
 "http://www.w3.org/TR/2001/REC-SVG-20010904/DTD/svg10.dtd">
<svg version="1.0" xmlns="http://www.w3.org/2000/svg"
 width="512.000000pt" height="512.000000pt" viewBox="0 0 512.000000 512.000000"
 preserveAspectRatio="xMidYMid meet">
<metadata>
Created by potrace 1.15, written by Peter Selinger 2001-2017
</metadata>
<g transform="translate(0.000000,512.000000) scale(0.100000,-0.100000)"
fill="#000000" stroke="none">
<path d="M633 5103 c-35 -12 -43 -19 -43 -39 0 -13 -5 -24 -11 -24 -6 0 -9 9
-6 20 7 26 -16 23 -94 -13 -53 -24 -56 -27 -57 -66 -1 -22 2 -42 6 -44 4 -3
34 4 67 14 64 20 88 19 79 -5 -7 -18 -65 -27 -83 -12 -11 8 -13 8 -8 0 4 -8
-17 -20 -61 -35 l-67 -24 -3 -47 c-2 -27 1 -48 5 -48 4 0 37 10 73 23 50 17
65 27 66 42 2 47 5 55 15 55 5 0 8 -4 4 -10 -3 -5 -3 -20 1 -34 5 -22 9 -24
31 -15 35 13 53 -12 50 -71 -2 -39 -6 -47 -32 -61 -22 -12 -31 -25 -33 -48 -4
-36 -22 -32 -22 5 0 28 1 27 -65 10 -37 -10 -49 -18 -47 -30 2 -9 -4 -16 -12
-16 -8 0 -17 -10 -19 -22 -3 -17 -5 -15 -6 9 0 17 -7 33 -13 36 -7 2 2 7 20
11 17 4 32 11 33 14 8 54 7 92 -2 92 -25 0 -95 -24 -112 -39 -12 -10 -16 -23
-12 -42 3 -15 1 -30 -4 -34 -7 -4 -11 7 -11 29 0 43 -9 44 -90 16 -30 -11 -63
-19 -73 -20 -32 0 -9 17 38 29 38 9 45 15 45 36 0 13 4 27 10 30 6 4 10 -5 10
-20 0 -22 3 -26 17 -20 10 4 36 12 58 18 57 14 65 24 65 74 0 39 -2 44 -17 38
-10 -4 -27 -9 -38 -12 -11 -3 -36 -12 -55 -21 -19 -9 -46 -18 -59 -20 -13 -1
-42 -10 -65 -18 -23 -8 -56 -20 -73 -25 -31 -9 -33 -13 -33 -54 0 -25 1 -45 3
-45 1 0 17 4 35 9 43 13 41 -2 -3 -18 l-35 -12 0 -415 c0 -299 3 -414 11 -414
8 0 8 -4 1 -13 -14 -17 -17 -681 -2 -672 5 3 10 0 10 -9 0 -8 3 -23 6 -33 6
-16 5 -16 -9 2 -15 19 -16 9 -17 -138 0 -124 3 -157 12 -151 9 5 9 2 -1 -9
-23 -28 5 -20 43 13 19 17 37 27 40 22 2 -4 -18 -23 -45 -41 -39 -28 -49 -40
-49 -63 0 -24 4 -28 28 -29 l27 -1 -27 -10 -28 -10 0 -294 c1 -162 3 -294 6
-294 3 0 17 8 32 19 15 10 56 35 92 55 58 32 130 88 130 100 0 3 -15 8 -33 11
-59 11 -141 41 -145 53 -2 7 3 12 11 12 7 0 28 16 46 35 18 20 36 33 40 31 11
-7 154 23 166 35 5 5 6 9 2 9 -18 0 30 39 56 45 15 4 30 11 33 17 17 26 122
46 130 24 3 -8 12 -17 19 -20 9 -3 12 0 9 8 -6 16 11 29 43 32 14 2 23 -3 23
-12 0 -20 8 -18 49 14 38 28 99 54 112 46 4 -2 10 0 14 6 3 5 14 10 23 10 12
0 7 -9 -18 -30 -32 -28 -34 -31 -18 -44 17 -12 16 -15 -12 -36 -36 -28 -38
-38 -6 -46 24 -6 24 -6 5 -25 -15 -15 -24 -17 -37 -10 -10 6 -12 11 -4 11 20
0 13 20 -8 20 -10 0 -31 5 -45 12 -21 9 -28 9 -34 -1 -6 -9 -11 -10 -15 -3 -4
6 -13 9 -21 5 -8 -3 -15 -1 -15 5 0 6 -9 8 -20 5 -11 -3 -20 -14 -20 -24 0
-20 -24 -26 -35 -9 -9 14 -25 12 -25 -2 0 -7 4 -19 9 -27 8 -13 14 -13 38 -1
43 21 58 18 61 -13 2 -15 8 -25 13 -22 17 11 9 -4 -22 -40 -17 -19 -37 -35
-44 -35 -21 0 -71 -47 -85 -80 -10 -24 -19 -30 -42 -30 -29 0 -102 -32 -112
-49 -3 -5 1 -11 9 -15 9 -3 15 1 15 10 0 11 6 15 19 11 11 -3 29 2 40 10 19
13 21 12 21 -4 0 -12 -18 -30 -46 -48 -53 -33 -67 -50 -33 -40 23 7 8 -13 -69
-95 -3 -3 -2 26 1 63 4 38 2 65 -2 62 -5 -3 -11 -1 -13 4 -4 13 -136 -23 -155
-42 -27 -27 -10 -40 20 -17 16 12 30 20 33 17 5 -5 -50 -63 -124 -131 -27 -25
-38 -56 -23 -65 8 -5 3 -23 -14 -57 -19 -36 -25 -65 -25 -111 0 -34 5 -65 11
-68 6 -4 8 -13 5 -20 -3 -8 0 -16 7 -19 9 -3 8 -7 -2 -14 -7 -5 -10 -15 -7
-21 4 -6 2 -11 -3 -11 -6 0 -11 -13 -11 -30 0 -34 19 -41 27 -10 3 11 9 20 14
20 4 0 17 10 28 21 l20 21 -6 -23 c-3 -13 -10 -30 -16 -37 -13 -16 -3 -26 19
-18 9 4 14 14 12 24 -3 9 4 26 14 37 19 20 19 20 12 0 -7 -18 -6 -19 9 -6 10
8 20 11 24 7 4 -3 -2 -13 -13 -21 -16 -13 -17 -16 -4 -25 13 -9 13 -11 0 -20
-8 -5 -21 -10 -27 -10 -7 0 -13 -6 -13 -14 0 -7 -7 -19 -15 -26 -13 -10 -15
-9 -15 9 0 27 -8 26 -42 -4 -26 -23 -28 -29 -28 -110 0 -69 3 -85 15 -85 8 0
15 4 15 9 0 6 8 10 18 10 41 1 63 9 93 34 18 15 35 24 38 21 3 -3 0 -9 -7 -13
-7 -4 -10 -15 -6 -24 4 -12 1 -17 -14 -17 -10 0 -31 -11 -45 -25 -14 -15 -28
-22 -31 -16 -4 6 -14 7 -24 4 -20 -8 -42 -35 -36 -45 2 -4 0 -9 -6 -13 -16
-10 -14 -595 3 -595 8 0 7 -3 -3 -10 -8 -5 -12 -12 -9 -15 4 -3 66 24 140 59
74 36 172 75 219 87 47 12 87 26 90 30 3 4 50 21 106 38 l100 31 18 53 c59
171 109 289 134 315 6 7 12 26 12 41 0 21 6 29 32 36 28 9 39 26 104 155 76
152 164 373 164 414 0 13 7 43 16 67 23 63 54 195 54 229 0 16 11 64 25 107
14 43 25 96 25 118 0 39 29 161 52 218 14 35 4 45 -21 23 -11 -10 -26 -16 -33
-14 -7 3 5 14 28 26 22 11 45 32 52 46 l12 27 -44 -25 c-25 -14 -62 -28 -83
-32 -21 -3 -48 -13 -61 -21 -18 -11 -27 -12 -37 -3 -8 7 -19 9 -25 5 -5 -3
-10 1 -10 10 0 21 30 32 40 15 9 -14 25 -9 70 19 8 6 27 12 41 15 15 3 29 12
32 20 4 11 1 13 -11 9 -15 -6 -15 -4 -4 10 8 8 19 14 27 11 7 -3 16 -1 20 5 9
16 28 13 22 -3 -4 -10 2 -13 19 -12 13 0 24 6 24 12 0 6 7 17 15 24 9 7 29 32
45 56 24 37 26 44 12 44 -9 0 -24 -5 -32 -10 -12 -8 -13 -12 -2 -19 11 -6 9
-10 -7 -14 -12 -3 -24 -1 -27 4 -3 5 -10 7 -15 4 -5 -4 -9 -1 -9 4 0 6 -7 11
-16 11 -8 0 -12 5 -9 10 4 6 12 9 19 8 6 -2 11 2 11 7 0 6 -9 10 -20 9 -52 -3
-97 -12 -108 -23 -19 -19 -27 -12 -17 15 14 37 12 46 -8 39 -11 -3 -29 3 -45
15 -27 22 -47 26 -47 10 0 -5 -9 -10 -20 -10 -11 0 -20 -6 -20 -14 0 -20 -18
-30 -33 -17 -8 6 -18 6 -27 1 -32 -20 -42 0 -15 30 20 22 1 45 -44 54 -29 5
-32 4 -21 -9 15 -18 7 -30 -14 -22 -13 5 -13 11 1 46 13 32 20 40 37 36 32 -6
32 -6 11 -14 -37 -15 121 -24 161 -9 31 11 37 11 47 -3 7 -9 22 -19 35 -23 12
-4 20 -12 17 -17 -4 -5 3 -9 14 -9 10 0 22 6 25 13 4 8 10 5 21 -9 16 -22 62
-23 49 -2 -4 6 -1 14 7 18 10 7 10 11 0 24 -7 9 -18 13 -23 10 -6 -4 -8 2 -3
15 5 17 2 21 -17 21 -29 -1 -64 -25 -49 -35 6 -3 17 -3 24 1 9 5 9 4 0 -6 -7
-8 -22 -10 -38 -6 -20 5 -25 11 -20 25 7 24 -15 39 -26 18 -8 -13 -15 -14 -39
-6 -23 8 -34 7 -52 -5 -24 -17 -98 -22 -98 -6 0 5 10 19 23 30 17 17 33 21 77
20 87 -3 122 -1 116 9 -3 5 4 21 15 35 23 29 19 47 -6 26 -9 -7 -13 -15 -10
-18 4 -5 -24 -31 -35 -32 -3 0 -6 9 -7 20 -1 11 3 20 9 20 5 0 7 7 4 16 -4 12
-1 14 14 9 14 -4 20 -2 20 8 0 8 6 20 13 26 23 18 39 -29 24 -70 -10 -26 -9
-33 1 -37 10 -3 9 -8 -4 -23 -15 -17 -12 -16 25 3 28 16 44 20 49 12 4 -6 23
-14 42 -17 33 -6 34 -6 15 9 -14 11 -16 18 -7 21 6 3 12 11 12 19 0 19 46 18
54 -2 9 -22 8 -24 -9 -24 -8 0 -15 -4 -15 -10 0 -5 7 -7 15 -4 11 4 13 2 9 -9
-3 -8 -1 -18 5 -22 18 -10 12 -25 -9 -25 -11 0 -20 -3 -20 -7 0 -5 -11 -9 -25
-9 -25 -2 -33 10 -15 21 5 3 10 11 10 17 0 7 -6 6 -15 -2 -8 -7 -15 -23 -15
-36 0 -20 5 -24 31 -24 17 0 37 7 45 15 24 23 31 18 45 -30 11 -36 15 -42 22
-27 5 9 18 24 29 33 18 14 18 17 4 28 -13 11 -19 11 -31 1 -10 -9 -15 -9 -16
-1 -3 26 -4 30 -11 37 -15 14 -8 19 27 20 19 0 38 4 42 8 10 10 4 78 -9 93 -8
10 -8 17 0 25 13 13 18 392 6 422 -5 14 -29 16 -164 16 -143 0 -159 -2 -163
-17 -4 -17 -5 -17 -6 0 -1 18 -21 25 -21 7 0 -5 -9 -10 -19 -10 -11 0 -23 5
-26 10 -7 11 -215 14 -254 3 -24 -6 -24 -7 -16 -97 9 -107 9 -111 4 -198 -2
-38 -7 -68 -12 -68 -5 0 -3 -7 4 -17 14 -16 14 -24 4 -89 -4 -25 -9 -31 -24
-27 -13 3 -23 -3 -31 -17 -7 -13 -17 -19 -27 -16 -12 5 -14 1 -8 -21 6 -27 6
-27 -14 -9 -29 27 -15 52 27 47 6 -1 12 7 12 18 0 24 -34 18 -68 -12 -21 -19
-24 -20 -39 -4 -15 15 -14 17 15 34 l32 18 -3 222 c-1 122 -5 225 -9 229 -8 7
-467 -14 -480 -23 -5 -2 -8 -96 -8 -208 l0 -204 61 -3 61 -3 -32 -23 c-33 -25
-52 -23 -30 3 15 18 14 18 -41 1 -24 -8 -56 -17 -72 -20 -15 -4 -27 -13 -27
-22 0 -11 6 -14 23 -9 12 4 26 11 32 16 19 19 35 9 36 -23 1 -19 3 -25 6 -15
4 15 11 17 31 12 15 -4 30 -11 33 -17 4 -5 45 -12 93 -15 47 -3 86 -9 86 -12
-1 -13 -52 -42 -65 -37 -8 3 -16 -3 -20 -14 -9 -28 -32 -31 -70 -8 -24 14 -45
19 -64 15 -20 -4 -33 -1 -43 10 -11 15 -11 16 5 10 11 -4 17 -2 17 7 0 23 -31
29 -37 7 -8 -29 -35 -30 -60 -1 -16 19 -21 21 -19 8 1 -10 5 -21 9 -24 10 -11
9 -24 -3 -24 -5 0 -19 8 -30 17 -19 16 -19 18 -3 25 16 6 16 7 2 7 -9 1 -19
10 -22 22 -4 15 -2 19 9 15 8 -3 14 -1 14 4 0 6 -4 10 -10 10 -5 0 -10 11 -10
25 0 14 4 25 9 25 5 0 12 7 15 15 4 11 0 15 -12 13 -15 -3 -17 9 -17 119 0 94
3 124 14 128 10 4 11 8 1 19 -9 12 -4 19 29 38 23 13 41 25 41 28 0 3 -10 10
-22 15 -23 10 -43 71 -27 81 5 3 9 17 9 31 0 14 8 40 19 57 15 25 30 76 35
118 1 3 5 10 10 15 5 5 6 3 2 -4 -4 -8 -1 -13 8 -13 12 0 16 -12 18 -52 l2
-53 3 48 c6 73 23 55 23 -25 l0 -71 178 6 c97 4 205 10 240 13 l62 7 0 241 c0
160 4 246 11 253 12 12 -4 48 -30 69 -11 9 -7 12 19 18 19 3 38 2 43 -3 6 -6
16 -3 26 9 12 14 79 30 286 69 149 28 302 56 342 62 74 12 102 23 91 35 -8 7
-190 -21 -418 -66 -184 -36 -422 -73 -480 -74 -35 -1 -45 3 -48 16 -3 13 1 16
14 11 14 -5 16 -2 12 15 -7 23 -22 19 282 82 480 100 643 131 652 122 5 -5 9
-58 9 -116 -1 -96 1 -107 17 -105 49 5 57 -2 22 -19 -32 -16 -35 -21 -37 -62
-2 -71 3 -80 38 -68 32 11 99 3 99 -12 0 -6 -24 -10 -52 -10 -77 0 -82 -6 -79
-92 l1 -37 64 6 c71 6 106 -1 89 -18 -6 -6 -42 -11 -79 -12 l-69 -2 -3 -62 -3
-63 51 0 50 0 0 49 c0 28 3 52 8 55 4 2 6 -17 5 -44 -2 -35 1 -49 12 -54 8 -3
15 -12 15 -21 0 -12 -12 -15 -54 -15 -82 0 -86 -3 -86 -69 0 -41 3 -52 10 -41
9 13 12 13 23 0 8 -10 31 -15 65 -16 47 -1 53 2 58 23 4 13 4 46 2 72 -4 43
-3 48 13 44 14 -4 17 -13 13 -42 -4 -33 -1 -38 36 -61 22 -14 41 -28 41 -32 1
-5 2 -14 3 -20 1 -8 16 -13 39 -12 54 2 96 45 97 99 0 22 7 49 15 59 19 25 19
36 1 36 -7 0 -25 9 -39 20 -21 16 -43 21 -121 23 -53 1 -96 6 -96 11 0 6 5 36
12 68 8 40 17 58 27 58 12 0 12 3 3 12 -7 7 -12 26 -12 44 l0 32 60 0 c33 0
60 -4 60 -9 0 -5 7 -9 15 -9 8 0 24 -10 35 -22 12 -13 28 -23 35 -23 8 0 20
-8 27 -18 15 -19 108 -41 108 -24 0 5 6 5 14 -2 7 -6 20 -9 28 -6 9 4 23 -1
32 -10 9 -10 25 -15 36 -12 21 5 42 -13 38 -34 -2 -7 6 -17 17 -22 11 -6 28
-20 37 -32 16 -21 16 -22 0 -22 -179 0 -203 -3 -227 -27 -14 -14 -33 -30 -42
-35 -16 -9 -14 -10 8 -11 45 0 55 -23 36 -84 -10 -29 -17 -64 -17 -77 0 -14
-5 -30 -12 -37 -8 -8 -11 -37 -10 -77 3 -63 2 -66 -28 -83 -16 -9 -30 -20 -30
-24 0 -5 -10 -8 -22 -8 l-23 0 25 -23 c36 -33 96 -68 103 -60 7 6 11 -12 8
-31 -1 -4 9 -6 21 -3 30 8 50 -5 42 -27 -4 -12 -13 -15 -28 -10 -27 9 -139 6
-146 -4 -7 -10 -47 -7 -87 6 -22 7 -33 7 -33 1 0 -6 -5 -7 -12 -3 -7 5 -9 2
-5 -8 3 -9 1 -20 -5 -26 -14 -14 9 -27 25 -14 14 12 98 13 112 2 6 -5 26 -12
45 -17 41 -11 51 -37 18 -47 -21 -6 -22 -7 -5 -17 11 -6 39 -8 65 -5 126 15
121 15 101 -5 -10 -10 -27 -16 -40 -14 -12 2 -34 -2 -50 -10 -25 -13 -30 -13
-43 1 -15 14 -19 13 -45 -12 -25 -23 -28 -30 -18 -51 11 -24 31 -28 110 -24
20 2 37 -2 37 -8 0 -6 14 -7 35 -4 19 3 35 2 35 -3 0 -15 -16 -35 -26 -33 -5
1 -13 0 -19 -1 -5 -1 -19 -3 -30 -4 -13 0 -20 -8 -20 -20 0 -24 -24 -33 -36
-15 -7 11 -9 11 -9 -2 0 -16 -36 -19 -58 -5 -5 3 -25 -6 -45 -19 l-36 -25 -16
23 c-10 12 -14 15 -11 7 3 -8 9 -23 12 -32 4 -10 12 -18 20 -18 21 0 28 -22
10 -32 -9 -5 -16 -14 -16 -20 0 -11 -219 -227 -231 -228 -9 0 -39 69 -39 90 0
27 -14 25 -28 -2 -14 -27 -42 -170 -36 -180 3 -4 -2 -21 -11 -37 -8 -17 -15
-47 -15 -68 0 -36 3 -32 63 74 34 62 68 113 75 113 6 0 12 -4 12 -10 0 -5 9
-10 20 -10 11 0 20 4 20 8 0 13 56 72 68 72 7 0 12 6 12 14 0 14 62 67 83 70
7 1 27 12 44 24 32 23 59 30 48 12 -3 -5 -2 -10 4 -10 14 0 2 -72 -16 -90 -12
-13 -13 -13 -8 5 4 11 -3 6 -14 -11 -28 -41 -29 -76 -4 -144 32 -87 36 -110
18 -110 -9 0 -15 -9 -15 -25 0 -14 -5 -25 -11 -25 -19 0 -60 -38 -49 -45 5 -3
10 -1 10 5 0 6 8 10 18 8 9 -2 25 6 35 17 18 20 18 20 14 -7 -2 -15 0 -25 4
-22 14 8 11 -4 -7 -31 -9 -14 -20 -23 -24 -20 -5 3 -6 -5 -2 -17 3 -12 31 -49
63 -81 l57 -59 -19 -36 c-10 -21 -29 -64 -41 -97 l-23 -60 -10 141 c-10 141
-10 142 -49 198 l-39 56 -21 -22 c-15 -16 -19 -27 -13 -36 6 -7 7 -16 3 -19
-4 -4 -11 -1 -15 6 -7 11 -9 11 -13 0 -3 -8 4 -20 16 -27 20 -12 19 -13 -8 -7
l-28 6 7 -63 c7 -73 23 -130 39 -140 7 -4 4 -9 -7 -14 -9 -3 -14 -10 -11 -15
3 -5 10 -7 16 -3 5 4 8 -2 6 -13 -1 -11 13 -39 35 -64 38 -47 44 -59 29 -59
-5 0 -14 11 -20 24 -6 13 -24 31 -41 39 -29 14 -31 14 -31 -2 0 -18 20 -50 60
-94 14 -16 25 -34 25 -40 0 -6 -20 -21 -45 -34 -33 -18 -54 -23 -77 -18 -23 4
-33 2 -33 -6 0 -7 -2 -10 -4 -8 -2 2 -9 51 -16 109 -20 184 -78 478 -111 555
-7 17 -11 36 -10 43 1 6 -3 12 -9 12 -6 0 -8 -4 -5 -10 3 -5 1 -10 -4 -10 -6
0 -11 -6 -11 -12 0 -7 -12 -38 -26 -68 -30 -61 -32 -106 -9 -183 8 -27 14 -52
13 -55 -1 -4 3 -18 9 -32 21 -50 24 -68 13 -75 -7 -4 -14 2 -17 14 -3 11 -9
18 -14 16 -4 -3 -6 -12 -2 -20 8 -22 -29 -19 -74 5 -21 11 -44 20 -51 20 -7 0
-25 7 -40 16 -22 13 -24 13 -9 1 12 -10 19 -30 20 -55 2 -32 5 -38 20 -34 19
5 22 -5 8 -27 -5 -7 -14 -10 -20 -7 -6 4 -11 3 -11 -1 0 -11 59 -63 71 -63 5
0 9 -4 9 -9 0 -15 -100 -11 -131 5 -33 17 -60 9 -33 -10 15 -11 15 -14 0 -28
-9 -9 -16 -23 -16 -30 0 -13 123 -68 152 -68 30 -1 38 -15 23 -44 -8 -16 -15
-35 -15 -42 0 -8 -4 -14 -8 -14 -4 0 -18 -20 -30 -45 -12 -25 -36 -54 -54 -65
-18 -11 -28 -20 -23 -20 6 0 4 -4 -3 -9 -8 -5 -33 -6 -56 -4 -36 5 -43 2 -55
-19 -8 -16 -27 -28 -49 -34 -24 -6 -37 -15 -37 -26 0 -9 -3 -20 -7 -23 -12
-13 30 -46 109 -87 29 -15 49 -79 28 -90 -8 -5 -20 -14 -27 -22 -7 -7 -19 -11
-26 -8 -10 3 -14 -9 -11 -34 0 -4 -5 -10 -12 -15 -10 -6 -10 -11 -1 -22 10
-11 9 -17 -1 -25 -8 -7 -13 -32 -12 -66 0 -38 -4 -57 -13 -61 -7 -3 -10 -10
-6 -16 4 -8 9 -7 15 2 7 12 9 12 9 0 0 -8 -14 -27 -31 -42 -19 -17 -28 -32
-23 -40 4 -8 3 -10 -4 -5 -7 4 -12 1 -12 -9 0 -9 -11 -28 -24 -42 -14 -15 -22
-32 -18 -41 3 -10 1 -13 -7 -8 -14 9 -70 -50 -71 -74 0 -8 -18 -35 -40 -58
-30 -33 -39 -50 -36 -68 3 -13 1 -22 -4 -19 -5 3 -11 1 -15 -5 -3 -5 0 -10 7
-10 7 -1 2 -7 -12 -15 -14 -8 -20 -14 -13 -15 7 0 5 -12 -7 -37 -9 -21 -20
-45 -23 -53 -4 -12 -6 -11 -6 3 -1 9 -6 17 -12 17 -6 0 -9 -6 -6 -14 4 -10 -2
-16 -16 -18 -12 -2 -23 -11 -25 -22 -2 -10 0 -16 5 -13 5 3 8 -6 7 -21 -1 -15
-2 -27 -3 -27 -2 0 -4 -7 -6 -16 -7 -36 -17 -59 -26 -59 -5 0 -9 -7 -9 -15 0
-8 -4 -15 -10 -15 -5 0 -10 -6 -10 -13 0 -7 -9 -31 -20 -52 l-20 -40 390 -3
390 -2 233 80 c127 44 246 87 262 94 17 8 71 31 120 51 50 20 104 43 120 50
121 54 288 131 385 177 63 30 131 61 150 68 19 8 49 22 65 32 17 10 37 18 46
18 8 0 42 11 75 24 55 23 59 26 59 58 0 22 4 32 13 30 43 -9 65 96 55 256 l-6
82 -29 0 c-100 0 -185 61 -175 126 3 18 17 50 31 71 29 42 34 38 11 -7 -9 -17
-20 -41 -25 -55 -11 -28 -17 -29 105 23 l69 30 -3 43 c-1 24 -7 52 -12 61 -5
9 -10 61 -10 115 -2 115 1 143 10 143 4 0 15 26 24 58 11 41 30 73 64 113 27
30 62 82 78 114 17 33 36 66 43 73 7 7 10 17 7 22 -8 13 79 103 140 145 30 21
55 45 54 54 0 10 -3 11 -5 4 -4 -9 -11 -9 -28 -2 -49 23 -213 -104 -273 -212
-27 -46 -53 -69 -38 -32 4 10 8 25 9 33 0 8 4 17 8 20 14 11 47 95 38 98 -5 2
-2 18 7 35 14 27 14 30 1 19 -13 -10 -17 -10 -21 2 -3 8 2 17 11 21 14 5 14 7
2 15 -12 8 -12 14 3 46 15 30 16 39 5 45 -9 6 -8 9 6 9 11 0 17 3 13 6 -3 3 3
16 14 27 19 21 19 22 2 36 -15 12 -16 13 -1 8 22 -8 45 18 23 27 -8 3 -15 10
-15 16 0 11 22 9 31 -3 3 -4 25 18 48 49 23 31 40 58 38 60 -2 3 -12 -7 -21
-20 -15 -24 -46 -27 -46 -4 0 6 7 8 15 5 17 -7 30 9 15 18 -6 3 0 17 15 32 29
32 24 43 -20 43 -30 0 -40 -8 -88 -67 -29 -38 -68 -94 -87 -125 -18 -31 -43
-61 -54 -68 -16 -8 -17 -9 -2 -5 14 4 17 2 11 -12 -4 -10 -9 -29 -10 -41 -5
-39 -15 -38 -15 1 0 39 -8 45 -28 25 -7 -7 -12 -8 -12 -4 0 5 -9 -3 -20 -17
-11 -14 -20 -27 -20 -30 0 -6 59 -66 65 -67 3 0 8 0 11 0 4 0 1 -6 -5 -14 -9
-11 -6 -12 15 -8 35 6 49 -16 22 -37 -15 -13 -21 -32 -24 -89 -2 -39 -8 -89
-12 -109 -8 -34 -8 -116 0 -139 5 -14 -9 -16 -52 -9 -44 7 -54 30 -45 97 4 30
1 39 -15 48 -10 6 -23 10 -27 9 -4 -1 -21 -1 -37 0 -22 1 -27 4 -21 18 5 15 4
16 -6 6 -7 -7 -35 -13 -61 -13 -54 0 -76 -16 -98 -70 -7 -19 -22 -45 -33 -57
-10 -12 -16 -26 -12 -32 3 -7 -2 -11 -14 -11 -12 0 -21 -5 -21 -11 0 -6 7 -9
15 -5 8 3 15 1 15 -4 0 -6 -6 -10 -14 -10 -7 0 -16 -9 -19 -20 -3 -11 0 -20 6
-20 6 0 0 -11 -13 -24 -14 -13 -28 -21 -32 -19 -5 2 -8 0 -8 -6 0 -5 -6 -16
-14 -24 -13 -12 -13 -18 0 -42 18 -34 16 -37 -23 -26 -28 8 -29 7 -25 -15 2
-13 0 -24 -6 -24 -6 0 -31 -20 -55 -44 -41 -40 -43 -44 -25 -55 11 -7 16 -17
12 -23 -6 -9 -9 -9 -12 0 -2 7 -12 12 -23 12 -14 0 -19 -7 -19 -30 0 -25 -4
-30 -25 -30 -30 0 -95 -58 -95 -83 0 -10 -11 -19 -27 -23 -54 -11 -143 -61
-143 -80 0 -11 -35 -28 -52 -25 -4 0 -15 -10 -24 -24 -11 -17 -25 -25 -44 -25
-16 0 -31 -6 -33 -12 -3 -7 -6 3 -7 22 -1 19 -4 27 -7 17 -3 -12 -10 -16 -24
-12 -14 5 -17 3 -13 -9 8 -20 -3 -20 -40 -1 -15 8 -32 12 -37 9 -5 -3 -9 -1
-9 5 0 6 -6 9 -12 7 -7 -1 -10 -1 -5 1 4 3 7 13 7 24 0 10 7 19 15 19 8 0 14
3 14 8 -4 21 3 41 19 60 9 12 28 38 42 58 36 52 81 104 89 104 19 0 -27 -121
-65 -175 -40 -57 -66 -105 -56 -105 6 0 21 17 33 38 22 36 32 49 73 91 11 12
16 28 13 41 -3 13 0 20 8 20 8 0 20 12 27 27 7 15 22 29 33 31 11 2 28 11 37
20 10 8 18 12 18 7 0 -4 10 5 22 21 22 28 26 32 58 53 12 8 12 13 2 23 -6 6
-12 17 -12 23 0 5 4 4 9 -3 6 -11 11 -10 24 3 9 9 21 14 25 11 5 -3 7 6 4 19
-5 30 -22 33 -22 4 0 -28 -24 -19 -28 12 -2 13 -9 30 -14 37 -8 9 -6 18 8 33
15 16 28 20 68 17 l49 -3 34 90 c46 125 64 157 81 150 10 -3 12 0 9 10 -7 17
28 45 55 45 10 0 22 10 27 23 16 41 35 50 93 41 70 -11 71 -11 76 4 2 7 -2 10
-12 6 -13 -5 -15 -1 -13 17 2 13 10 24 17 24 7 0 15 6 18 13 5 17 -8 15 -31
-6 -10 -9 -29 -17 -42 -17 -18 -1 -22 4 -20 24 1 14 8 27 14 29 6 2 11 9 11
17 0 11 51 28 66 22 9 -4 25 32 19 43 -4 6 1 7 10 3 13 -4 16 -1 13 13 -4 20
38 61 58 56 6 -1 17 9 24 23 8 14 24 28 36 31 12 3 25 12 28 20 3 8 12 14 21
14 14 0 20 12 16 33 -1 5 2 6 7 3 5 -3 27 8 48 23 38 28 44 31 64 31 6 0 10 7
10 16 0 10 5 14 16 10 10 -4 13 -2 8 6 -5 8 -2 9 9 5 10 -3 17 -2 17 3 0 6 -6
10 -12 11 -14 1 39 20 59 21 7 1 10 5 7 9 -2 4 6 13 18 20 12 7 29 19 37 27
13 13 12 14 -8 7 l-23 -7 20 20 c34 34 80 39 55 6 -5 -5 0 -1 9 8 13 14 14 25
8 48 -8 29 -7 30 22 30 17 0 28 3 25 7 -4 3 -1 13 5 22 10 13 10 14 -2 4 -15
-14 -52 -17 -63 -6 -4 3 -2 12 5 20 6 7 8 16 4 20 -3 3 -6 1 -6 -5 0 -7 -4
-12 -10 -12 -5 0 -10 14 -10 30 0 17 -4 30 -10 30 -5 0 -10 7 -10 15 0 8 7 15
15 15 8 0 19 9 25 19 15 29 12 33 -11 21 -18 -10 -20 -9 -17 12 2 15 9 22 20
20 9 -1 19 2 23 8 3 5 14 10 23 10 13 0 14 -2 3 -9 -11 -7 -11 -9 0 -13 11 -4
10 -8 -4 -22 -25 -26 -21 -37 11 -25 l27 10 -27 -23 c-32 -28 -48 -71 -22 -61
14 5 15 3 5 -15 -10 -18 -9 -22 3 -22 8 0 16 6 19 13 3 9 8 8 22 -3 10 -8 28
-15 39 -15 20 0 28 5 78 50 21 18 22 20 4 23 -11 2 -28 -6 -40 -21 -22 -25
-66 -45 -66 -29 0 5 15 20 34 33 l34 23 -29 34 c-17 19 -28 40 -25 48 4 10 0
11 -19 4 -20 -7 -23 -6 -22 9 1 12 7 17 18 14 17 -5 52 24 44 36 -2 5 4 16 15
26 11 10 17 22 13 28 -3 5 -1 7 5 4 12 -8 44 2 38 12 -3 4 4 12 15 19 15 10
19 10 19 0 0 -9 3 -9 12 0 18 18 -11 43 -55 45 -21 1 -37 5 -37 8 0 9 -198
105 -233 113 -18 4 -26 3 -25 -5 2 -6 -2 -13 -9 -16 -7 -3 -10 3 -6 15 4 16
-2 21 -26 27 -25 5 -31 11 -26 26 3 10 6 47 6 81 1 35 5 77 10 93 7 26 31 460
44 830 3 61 7 166 9 235 6 144 24 498 31 613 l6 78 -91 -2 c-86 -2 -109 -10
-74 -23 8 -3 24 -1 34 4 10 6 28 10 40 10 16 0 20 -4 15 -19 -3 -11 -1 -22 5
-26 21 -13 -58 -49 -130 -58 -14 -2 -32 -7 -40 -10 -8 -3 -40 -11 -70 -17 -79
-16 -110 -30 -111 -49 -5 -58 -4 -123 0 -125 10 -5 222 39 279 58 55 19 68 17
59 -7 -3 -8 -27 -17 -57 -21 -58 -8 -100 -24 -101 -40 0 -6 -2 -36 -5 -68 -3
-31 -1 -59 3 -61 5 -3 40 1 77 9 38 8 72 12 75 9 8 -9 -21 -25 -46 -25 -29 0
-33 -1 -62 -16 -24 -12 -45 -10 -69 9 -9 7 -12 7 -10 -3 2 -7 -3 -15 -9 -17
-15 -5 -11 78 6 134 5 17 7 34 5 36 -3 3 -26 -2 -52 -10 -26 -9 -67 -19 -92
-23 -25 -4 -51 -9 -59 -11 -25 -7 -23 21 3 31 25 9 26 13 26 80 0 82 5 80
-127 50 -107 -25 -148 -22 -85 6 l42 19 -2 75 c-3 66 -5 75 -22 73 -22 -2 -8
13 19 20 11 3 -19 5 -67 6 l-88 1 0 -34 c0 -19 5 -38 11 -42 7 -4 9 -22 6 -47
-4 -27 -2 -36 4 -26 7 11 9 9 9 -8 0 -16 -4 -21 -15 -17 -9 4 -15 0 -15 -9 0
-9 -15 -25 -34 -36 -38 -24 -46 -26 -46 -10 0 5 4 7 10 4 6 -3 10 -3 10 1 0
10 -49 54 -61 54 -5 0 -9 16 -9 35 0 19 -4 35 -10 35 -5 0 -10 -5 -10 -11 0
-5 -4 -7 -10 -4 -16 10 -12 23 10 30 16 5 20 15 20 46 l0 39 -60 0 -60 0 0
-109 c0 -60 -2 -115 -5 -123 -4 -9 -22 -12 -56 -11 -44 1 -54 -2 -73 -24 -28
-32 -45 -24 -41 20 2 19 -1 40 -6 48 -6 9 -9 -2 -9 -33 0 -27 -4 -48 -10 -48
-5 0 -10 15 -10 33 0 19 -2 36 -5 39 -5 5 -224 -48 -233 -56 -7 -7 -12 -88 -6
-107 4 -15 12 -14 85 3 45 11 84 17 87 13 9 -9 -17 -30 -41 -32 -19 -2 -126
-26 -214 -48 -17 -4 -23 -12 -22 -28 1 -12 1 -38 0 -57 l-3 -35 -9 35 c-4 19
-6 43 -3 53 7 22 -7 22 -100 1 -39 -9 -81 -18 -94 -20 -21 -4 -22 -8 -16 -58
3 -35 1 -56 -6 -61 -17 -11 -24 2 -26 48 -1 23 -4 44 -8 45 -11 6 -86 -9 -91
-18 -3 -5 -11 -7 -19 -4 -7 3 -25 0 -39 -5 -25 -10 -27 -15 -27 -63 -1 -41 -3
-49 -11 -35 -5 9 -7 21 -4 27 3 5 3 20 0 33 -7 28 -8 28 -117 -5 -63 -18 -68
-21 -62 -43 3 -13 2 -34 -2 -47 -7 -20 -9 -16 -14 22 -5 44 -6 45 -40 45 -19
-1 -60 -4 -90 -8 -78 -10 -36 6 85 33 55 12 105 23 110 25 6 1 8 25 6 55 l-3
52 -37 -7 c-97 -17 -111 -24 -111 -55 0 -16 -4 -32 -10 -35 -6 -4 -10 8 -10
29 0 20 -2 36 -5 36 -5 0 -113 -28 -137 -36 -10 -3 -18 -1 -18 5 0 6 11 11 24
11 14 0 31 7 39 15 8 8 17 12 19 10 6 -6 149 36 166 48 8 7 11 25 8 51 -2 23
-5 42 -5 42 -1 1 -28 -4 -60 -11 -56 -11 -59 -11 -53 6 4 10 6 38 4 62 -4 41
-5 44 -30 40 -22 -3 -19 0 13 16 22 11 47 20 55 20 37 2 60 31 60 77 0 52 -1
52 -96 21 l-69 -24 -1 -62 c-1 -35 -5 -66 -10 -70 -17 -16 -73 -30 -79 -20 -6
8 13 19 57 33 12 3 16 17 16 53 0 60 -4 66 -32 48 -20 -13 -25 -13 -35 -1 -9
11 -1 17 47 31 76 23 92 35 99 79 l6 36 -39 -1 c-22 0 -58 -7 -81 -16z m997
-543 c0 -4 -19 -11 -42 -15 -24 -4 -47 -14 -53 -21 -5 -8 -19 -16 -30 -19 -38
-8 -560 -114 -740 -149 -99 -20 -189 -36 -200 -36 -43 0 5 19 100 39 55 12
127 28 160 36 33 8 128 28 210 45 83 17 179 37 215 45 36 8 110 24 165 36 55
12 105 26 111 30 13 11 87 27 97 22 4 -2 7 -8 7 -13z m592 -999 c3 -1 20 -12
36 -26 32 -27 79 -38 75 -17 -2 7 8 12 25 11 24 0 25 -1 7 -9 -19 -8 -19 -8 5
-18 19 -8 28 -7 36 4 14 18 24 18 24 0 0 -8 14 -24 30 -36 32 -23 43 -64 13
-53 -10 4 -14 2 -10 -4 4 -6 3 -13 -3 -15 -5 -1 -11 -14 -13 -28 -2 -15 -12
-27 -23 -29 -25 -5 -102 -58 -116 -80 -10 -17 -14 -17 -60 -3 -26 9 -48 20
-48 25 0 5 -6 5 -12 -1 -10 -8 -13 -4 -14 13 -1 17 5 25 25 30 44 11 55 26 29
39 -17 9 -23 21 -25 49 0 24 -8 43 -19 52 -16 11 -17 16 -6 40 9 20 10 31 2
39 -21 21 -14 24 42 17z m-922 -92 c0 -4 -7 -15 -17 -24 -14 -14 -14 -18 -2
-26 8 -5 9 -9 3 -9 -6 0 -18 10 -26 22 -9 14 -19 19 -28 13 -10 -6 -9 -11 5
-21 17 -13 17 -15 -7 -46 -31 -41 -63 -102 -49 -94 6 4 16 -5 23 -20 10 -22
10 -28 0 -32 -6 -2 -12 -10 -12 -18 0 -12 -4 -12 -20 -4 -16 9 -20 21 -20 63
-1 29 -7 63 -15 77 -8 14 -14 36 -14 50 l-1 25 20 -25 c11 -14 20 -33 20 -42
0 -10 4 -18 9 -18 14 0 21 41 10 61 -7 13 -5 20 8 27 15 9 15 12 3 27 -13 16
-12 17 16 11 23 -5 34 -2 49 14 14 15 21 17 32 9 7 -6 13 -15 13 -20z m-654
-415 c-3 -8 -2 -12 4 -9 6 3 10 1 10 -4 0 -6 -7 -11 -15 -11 -8 0 -15 -4 -15
-9 0 -4 -15 -12 -32 -17 -18 -6 -34 -17 -36 -26 -3 -13 6 -16 42 -16 50 1 60
13 24 28 -22 8 -22 9 4 9 16 1 33 -7 41 -19 12 -18 15 -18 20 -5 7 16 32 20
41 6 4 -5 -4 -7 -16 -4 -22 4 -22 4 -3 -8 30 -18 30 -18 10 -33 -16 -12 -23
-12 -39 -1 -20 15 -25 12 -56 -30 -11 -16 -11 -17 0 -7 25 22 57 14 68 -17 8
-23 7 -32 -6 -45 -15 -15 -15 -18 -2 -26 8 -5 12 -10 8 -10 -3 0 -14 -3 -23
-6 -13 -5 -15 -2 -9 21 5 22 4 26 -6 20 -9 -5 -11 -4 -6 3 4 7 14 12 23 12 9
0 13 3 9 7 -10 11 -89 3 -105 -10 -12 -10 -12 -9 -3 9 11 20 9 22 -28 22 -22
1 -50 4 -61 7 -16 5 -30 -2 -56 -27 -22 -21 -32 -26 -25 -13 5 11 20 29 32 40
13 11 29 35 37 53 9 23 22 34 43 38 19 4 27 11 23 20 -3 9 1 14 12 14 9 0 14
4 11 8 -2 4 5 9 17 9 12 1 28 11 36 23 16 23 36 27 27 4z m1975 -306 c-9 -25
-9 -25 33 -22 39 3 43 1 66 -37 29 -47 58 -63 78 -43 20 20 35 17 56 -13 11
-14 15 -23 9 -20 -6 4 -17 -1 -24 -10 -11 -13 -11 -17 -1 -20 6 -3 12 -9 12
-14 0 -4 -6 -6 -14 -3 -9 3 -17 -3 -21 -15 -6 -21 -16 -26 -28 -14 -4 3 -2 12
4 19 8 10 6 12 -10 9 -12 -2 -21 0 -21 6 0 5 -3 8 -7 7 -12 -4 -153 83 -153
93 0 5 3 8 8 8 4 -1 14 -1 22 0 12 1 12 4 -3 12 -9 5 -21 8 -26 5 -12 -8 -41
-94 -41 -122 0 -33 -27 -91 -46 -98 -24 -9 -35 12 -29 54 4 32 3 31 -15 -13
-11 -27 -18 -53 -14 -58 3 -6 0 -16 -6 -24 -6 -8 -9 -19 -5 -25 11 -18 -24
-60 -65 -76 -24 -10 -47 -29 -58 -48 -22 -37 -82 -85 -82 -65 0 6 17 27 38 46
l37 34 -37 -5 c-46 -6 -115 -51 -134 -88 -8 -15 -19 -28 -25 -28 -5 0 0 13 12
29 21 28 21 31 5 55 -9 14 -16 36 -16 48 0 13 -6 32 -14 43 -7 11 -17 40 -21
65 -4 25 -12 51 -18 58 -22 27 9 262 35 262 4 0 5 7 2 15 -5 11 1 15 17 15 34
0 69 -11 69 -21 0 -10 9 -22 63 -81 24 -27 43 -38 63 -39 16 0 23 -3 17 -6
-25 -9 -13 -23 18 -19 17 2 51 -2 75 -10 43 -13 45 -13 80 18 19 17 47 52 61
77 43 75 54 93 59 88 3 -2 0 -15 -5 -29z m-1700 -429 c33 -17 17 -105 -16 -93
-11 5 -14 1 -9 -12 4 -13 3 -15 -3 -6 -7 9 -15 5 -33 -18 -13 -17 -25 -28 -28
-25 -3 3 3 14 13 25 10 11 13 20 7 20 -6 0 -18 -10 -26 -22 -19 -27 -7 -38 40
-38 32 0 84 32 84 52 0 6 12 27 26 46 25 32 26 35 9 44 -18 10 -13 15 43 44
22 11 27 -5 6 -22 -17 -14 -17 -15 -1 -10 22 7 72 -17 80 -38 4 -9 0 -22 -9
-30 -13 -13 -12 -19 4 -45 10 -17 23 -28 28 -23 4 4 2 -1 -5 -10 -7 -9 -32
-26 -55 -38 -49 -23 -70 -44 -81 -79 -4 -13 -16 -39 -27 -57 -16 -28 -24 -33
-44 -28 -14 4 -31 1 -39 -6 -12 -10 -15 -10 -15 1 0 8 -9 3 -20 -11 -10 -14
-22 -21 -26 -17 -9 8 -44 -21 -44 -37 0 -11 -50 -39 -57 -32 -2 1 9 16 24 32
22 24 24 30 10 32 -13 3 -13 7 6 28 30 35 40 64 22 64 -9 0 -12 6 -8 17 4 11
3 14 -5 9 -7 -4 -12 -2 -12 3 0 6 7 11 15 11 15 0 41 38 32 47 -3 2 -10 -5
-17 -16 -6 -12 -16 -21 -23 -21 -8 0 -8 3 -2 8 15 10 36 62 26 62 -5 0 -12 -8
-15 -17 -6 -15 -8 -15 -17 -3 -8 13 -13 11 -30 -10 -13 -16 -19 -19 -15 -8 4
15 1 16 -21 7 -14 -5 -28 -7 -31 -5 -3 3 3 8 12 12 9 3 16 12 16 18 0 18 52
62 70 58 9 -1 21 10 28 28 8 16 18 30 23 30 14 0 10 -26 -6 -40 -8 -7 -15 -18
-15 -24 0 -6 11 1 24 15 12 15 39 32 59 38 21 7 37 17 37 23 0 6 -7 7 -16 4
-9 -4 -23 2 -33 15 -12 16 -31 22 -67 24 -47 3 -48 3 -15 -7 43 -12 86 -44 71
-53 -5 -3 -10 -2 -10 3 0 19 -33 22 -54 5 -12 -10 -15 -11 -8 -3 6 8 12 18 12
23 0 5 -5 5 -12 -1 -21 -16 -62 -26 -54 -13 4 6 16 11 27 11 10 0 19 4 19 10
0 5 -6 7 -14 4 -9 -4 -15 4 -18 25 -4 27 -1 30 26 34 43 7 134 -1 157 -14z
m1627 -29 c-7 -11 -18 -20 -24 -20 -6 0 -17 -6 -23 -14 -7 -8 -27 -17 -46 -20
-21 -4 -35 -13 -35 -21 0 -8 -3 -15 -7 -15 -5 -1 -23 -14 -42 -29 -33 -29 -33
-29 -11 -41 18 -10 30 -9 60 5 20 9 48 15 61 13 24 -3 24 -3 -7 -25 -18 -13
-48 -25 -68 -28 -44 -5 -56 -12 -56 -30 0 -21 -19 -28 -38 -14 -14 11 -15 11
-5 0 9 -11 7 -18 -12 -33 -13 -10 -37 -21 -54 -24 -18 -4 -42 -19 -54 -34 -12
-15 -33 -33 -47 -40 -24 -13 -24 -12 -11 6 8 10 28 33 43 50 28 30 28 31 12
63 -15 31 -15 36 0 67 13 29 20 33 41 28 41 -10 72 4 128 59 29 28 61 51 69
49 9 -2 19 2 23 7 3 6 14 11 23 11 9 1 31 12 47 25 36 30 50 32 33 5z m-2128
-870 c-8 -15 -8 -20 2 -20 8 -1 4 -8 -8 -18 -11 -10 -24 -32 -27 -50 -6 -31
-5 -33 16 -27 12 4 28 14 34 23 7 8 16 12 20 9 3 -4 -4 -18 -16 -31 -32 -34
-67 -27 -84 17 -5 14 -11 16 -27 7 -22 -12 -28 -25 -7 -17 8 3 14 -2 14 -10 0
-9 -9 -18 -19 -21 -10 -2 -18 -11 -18 -18 0 -8 -2 -14 -4 -14 -2 0 -13 -3 -23
-7 -15 -6 -16 -5 -5 9 11 14 10 16 -7 11 -26 -7 -60 32 -53 59 4 18 5 18 18 1
13 -17 13 -17 14 2 1 11 4 14 7 8 8 -22 43 -14 55 12 6 14 20 25 30 25 10 0
23 11 28 25 6 15 15 23 23 19 8 -3 17 2 20 10 4 9 11 16 17 16 8 0 8 -6 0 -20z
m1707 -700 c81 -10 173 -42 173 -60 0 -11 -53 -40 -74 -40 -20 0 -146 58 -168
78 -15 13 -24 32 -15 32 1 0 39 -5 84 -10z"/>
<path d="M1009 5105 c-8 -7 -44 -22 -81 -34 l-66 -22 5 -47 c2 -26 7 -49 9
-51 5 -6 146 39 162 51 17 14 16 104 -2 111 -7 3 -20 0 -27 -8z"/>
<path d="M1070 5065 c0 -33 4 -55 11 -55 14 0 162 51 170 59 4 3 10 16 14 29
6 22 5 22 -94 22 l-101 0 0 -55z"/>
<path d="M1440 5102 l-45 -18 1 -71 c0 -69 -1 -72 -25 -78 -72 -16 -76 -21
-73 -80 2 -30 7 -55 10 -55 18 1 192 47 198 52 3 4 7 32 9 63 3 63 8 61 -75
39 -17 -5 -22 -3 -15 4 6 5 53 24 105 40 l95 30 3 46 3 46 -73 -1 c-44 0 -91
-7 -118 -17z"/>
<path d="M2533 5110 c-19 -8 -22 -18 -25 -83 -4 -85 -16 -80 122 -48 47 10
114 25 149 32 l64 14 4 48 4 47 -148 -1 c-81 0 -158 -4 -170 -9z"/>
<path d="M3376 5083 c-8 -53 -7 -143 3 -120 6 17 10 16 40 -12 18 -17 37 -31
41 -31 5 0 6 -18 3 -40 -3 -23 -1 -46 6 -53 6 -8 8 -17 4 -21 -3 -3 -15 6 -25
21 -17 27 -18 27 -18 6 0 -13 5 -23 11 -23 6 0 8 -8 4 -19 -11 -36 41 -50 91
-23 16 8 24 8 32 0 9 -9 12 -8 12 5 0 11 9 18 25 19 14 0 30 1 37 2 7 1 15
-10 19 -24 5 -16 7 -19 8 -7 1 10 8 20 16 23 12 5 13 9 4 20 -9 12 -8 18 7 29
10 8 27 15 37 15 9 0 17 7 17 15 0 8 6 15 13 15 6 0 4 5 -5 11 -10 5 -18 22
-18 37 l0 26 30 -34 c27 -32 31 -34 43 -18 14 18 49 15 75 -5 9 -7 11 -6 7 6
-8 19 23 30 57 22 16 -4 29 -1 37 9 8 9 20 16 27 16 9 0 14 11 14 30 0 17 5
30 11 30 6 0 9 -6 6 -13 -3 -7 2 -22 10 -32 12 -15 14 -16 10 -3 -6 18 13 78
25 78 4 0 8 -7 8 -15 0 -8 9 -15 20 -15 11 0 19 3 19 8 -1 4 -1 9 1 12 7 20 8
50 1 46 -11 -7 -23 22 -15 35 3 5 -2 9 -10 9 -8 0 -18 -5 -21 -10 -4 -6 -10
-8 -15 -5 -4 3 -10 -4 -13 -16 -3 -12 0 -22 9 -26 11 -4 9 -9 -8 -22 -17 -14
-26 -15 -44 -7 -23 11 -26 17 -28 61 -1 19 -9 20 -169 23 -143 2 -170 0 -184
-13 -9 -9 -24 -14 -34 -12 -11 3 -19 1 -19 -4 0 -5 -5 -9 -11 -9 -15 0 -48
-42 -49 -62 0 -37 -110 7 -110 45 0 5 -7 15 -16 21 -12 9 -7 11 25 8 32 -3 40
-1 36 10 -3 8 -22 15 -44 16 -37 3 -38 1 -45 -35z m266 -73 c15 -30 23 -59 19
-63 -14 -14 -1 -45 17 -40 11 2 21 -5 28 -21 10 -21 9 -24 -7 -21 -10 2 -21 0
-24 -5 -10 -16 -35 1 -51 36 -17 35 -39 48 -27 17 6 -16 5 -16 -10 -4 -27 21
-21 42 10 39 18 -2 28 2 31 13 3 16 -23 20 -45 6 -10 -6 -43 32 -43 49 0 11
54 54 65 51 6 -2 22 -27 37 -57z"/>
<path d="M1845 5072 c-27 -9 -53 -20 -56 -24 -3 -5 -5 -35 -5 -66 1 -45 4 -56
16 -53 8 2 35 8 60 15 l45 11 2 68 c1 37 -2 67 -5 66 -4 0 -29 -8 -57 -17z"/>
<path d="M1342 5073 c-6 -2 -10 -8 -8 -12 3 -4 -7 -8 -22 -8 -44 0 -147 -33
-133 -43 11 -6 11 -8 0 -12 -8 -3 -10 -9 -4 -19 13 -20 15 -39 4 -39 -5 0 -9
-9 -9 -20 0 -24 17 -25 56 -5 16 8 36 15 45 15 23 0 84 26 97 42 12 15 9 101
-4 104 -5 1 -15 0 -22 -3z"/>
<path d="M1710 5029 c-14 -6 -59 -20 -100 -33 l-75 -23 4 -54 c1 -30 4 -55 5
-56 1 -1 51 10 111 25 l110 27 3 40 c6 79 -5 93 -58 74z"/>
<path d="M1095 4994 c-22 -9 -62 -22 -88 -31 -47 -14 -48 -16 -41 -46 4 -18 7
-42 6 -55 -2 -21 1 -22 36 -16 20 4 48 12 62 19 14 7 37 15 52 19 30 7 35 20
29 83 -3 48 -2 48 -56 27z"/>
<path d="M855 4920 l-80 -27 -1 -39 c-1 -74 2 -76 57 -49 26 14 54 22 61 20
26 -10 46 19 50 73 3 28 2 52 -1 51 -3 -1 -42 -13 -86 -29z"/>
<path d="M1196 4888 c-11 -6 -40 -16 -65 -23 -44 -11 -46 -12 -47 -51 0 -21 1
-47 3 -57 5 -19 18 -18 124 14 l66 21 2 54 2 54 -33 0 c-18 0 -42 -6 -52 -12z"/>
<path d="M1511 4825 c-51 -13 -98 -28 -104 -34 -12 -12 -18 -99 -8 -105 4 -3
25 0 47 5 21 5 52 12 68 14 16 2 44 9 62 15 33 11 34 12 34 71 0 32 -1 59 -2
58 -2 0 -45 -11 -97 -24z"/>
<path d="M1004 4826 c-11 -8 -27 -14 -35 -13 -8 1 -31 -3 -52 -7 -33 -7 -38
-12 -33 -30 3 -11 6 -35 6 -52 l0 -31 89 21 c75 18 88 23 80 37 -4 9 -4 20 1
25 5 5 6 21 3 37 -6 30 -27 35 -59 13z"/>
<path d="M1222 4752 c-13 -4 -23 -11 -23 -17 0 -5 -6 -9 -14 -7 -9 2 -12 -11
-11 -50 0 -29 6 -52 11 -51 37 6 152 39 163 46 17 13 15 25 -5 30 -15 3 -14 6
7 15 25 11 25 11 -7 11 -17 1 -33 5 -35 10 -4 12 -59 20 -86 13z"/>
<path d="M1108 4720 c-9 -6 -45 -16 -80 -23 l-63 -13 -3 -57 -3 -56 48 14 c26
7 65 16 87 19 21 4 42 9 47 12 14 8 11 44 -3 42 -14 -3 -14 1 -4 45 7 29 1 32
-26 17z"/>
<path d="M4810 4424 c-14 -2 -56 -9 -95 -14 -79 -12 -120 -17 -217 -26 -37 -4
-66 -10 -64 -13 2 -3 -19 -6 -47 -6 -29 0 -74 -4 -102 -8 -27 -5 -70 -10 -95
-12 -25 -3 -115 -14 -200 -25 -85 -11 -175 -22 -200 -25 -25 -3 -61 -8 -80
-11 -19 -3 -51 -7 -70 -9 -19 -2 -103 -12 -186 -21 l-151 -17 -12 -241 c-7
-133 -19 -331 -26 -441 -6 -110 -10 -202 -8 -204 2 -3 9 3 16 11 6 9 29 19 50
22 22 4 38 13 38 21 3 27 4 33 9 38 9 9 863 34 1285 38 l180 2 4 51 c3 28 5
98 5 156 0 58 2 92 6 75 5 -23 8 -11 12 45 24 289 48 588 48 603 0 17 -32 21
-100 11z"/>
<path d="M1090 4179 c-69 -10 -144 -21 -167 -24 l-43 -6 0 -256 0 -256 112 6
c72 4 115 11 121 19 7 10 10 10 14 1 2 -7 20 -13 38 -13 24 0 37 7 49 25 16
25 46 34 46 15 0 -5 -5 -10 -11 -10 -5 0 -7 -5 -4 -11 4 -6 38 -8 93 -5 105 7
116 8 135 24 8 7 23 10 33 6 18 -5 18 -5 2 6 -22 14 -24 40 -3 40 12 0 15 13
15 60 0 33 -4 60 -8 60 -5 0 -17 8 -28 18 -11 11 -26 22 -34 25 -9 3 -3 6 13
6 50 2 24 39 -28 39 -16 0 -31 5 -33 11 -2 6 -9 11 -16 11 -7 0 -21 16 -32 35
-10 19 -22 35 -25 35 -4 0 -9 10 -13 23 -3 12 -20 39 -38 59 -18 20 -40 45
-48 56 -15 18 -18 18 -140 1z m238 -194 c31 -38 60 -72 63 -75 3 -3 9 -19 12
-37 4 -22 2 -33 -8 -37 -8 -3 -12 -12 -9 -20 4 -11 0 -13 -16 -9 -16 4 -18 8
-8 14 7 5 11 9 8 10 -3 0 -13 2 -22 4 -10 2 -16 -2 -15 -8 1 -6 -9 -13 -23
-15 -29 -5 -44 -23 -28 -33 20 -13 -16 -37 -45 -32 -15 3 -27 7 -27 10 0 10
29 33 41 33 9 0 10 3 2 11 -13 13 -53 -17 -53 -41 -1 -8 -6 -25 -13 -37 -12
-22 -13 -22 -37 14 -17 25 -21 38 -12 41 6 2 12 11 12 19 0 9 6 13 15 9 8 -3
22 -9 30 -12 8 -3 15 -1 15 5 0 6 -4 11 -9 11 -16 0 -23 52 -9 61 7 5 9 9 3 9
-5 0 -4 4 3 9 10 6 2 13 -27 24 -29 12 -39 21 -35 32 4 8 14 15 23 15 14 1 14
2 -1 14 -14 10 -18 28 -18 70 0 48 3 56 19 56 10 0 22 8 25 17 6 14 13 10 47
-23 22 -21 66 -70 97 -109z"/>
<path d="M1550 3158 c0 -15 4 -28 10 -28 6 0 6 -9 0 -26 -6 -14 -10 -27 -10
-30 0 -8 39 -4 45 6 3 5 12 7 20 3 8 -3 15 0 15 6 0 6 5 11 10 11 6 0 10 -8 8
-17 -3 -15 6 -18 53 -21 51 -3 57 -1 62 19 8 30 0 41 -26 33 -20 -5 -20 -5 -5
7 16 13 16 15 0 35 -15 18 -32 22 -100 26 l-82 5 0 -29z"/>
<path d="M4246 3080 c-17 -12 -91 -14 -462 -15 -243 0 -446 -4 -451 -8 -4 -5
-3 -7 2 -6 6 2 27 -5 49 -14 22 -10 64 -17 101 -17 99 0 215 -12 215 -22 0 -6
-17 -7 -40 -3 -24 4 -40 3 -40 -3 0 -13 35 -22 90 -22 25 -1 63 -5 85 -10 29
-7 8 -8 -77 -5 -65 2 -120 -1 -124 -6 -3 -5 -14 -9 -25 -9 -10 0 -19 -3 -19
-6 0 -10 69 -71 75 -66 3 3 5 23 5 45 0 26 4 37 13 34 8 -2 11 -21 10 -54 -2
-36 1 -52 11 -56 8 -3 34 -18 57 -33 45 -28 48 -29 274 -35 l110 -3 5 89 c3
58 9 90 18 93 9 3 12 -16 13 -70 1 -40 1 -77 0 -82 -4 -22 25 -36 78 -36 129
-1 380 -28 403 -44 21 -15 19 -16 -52 -17 -41 -1 -78 -1 -83 0 -7 1 -43 4
-172 16 -85 8 -316 19 -390 20 l-70 0 -2 -30 c-2 -31 26 -105 40 -105 4 0 7
-8 6 -17 0 -11 -3 -13 -6 -5 -5 14 -44 37 -42 25 4 -21 -2 -33 -16 -33 -9 0
-35 -41 -66 -102 -40 -82 -109 -182 -149 -218 -25 -22 -80 -100 -71 -100 6 0
30 12 53 28 55 36 120 35 202 -1 32 -15 67 -27 77 -27 26 0 25 -40 -1 -47 -11
-3 -20 -10 -20 -16 0 -14 -26 -33 -80 -58 -25 -11 -53 -25 -62 -30 -10 -5 -25
-9 -33 -9 -13 0 -15 -8 -10 -37 l5 -38 -15 33 c-18 38 -24 41 -17 7 4 -25 -12
-35 -21 -12 -3 7 -6 5 -6 -6 -1 -23 -18 -53 -59 -102 -33 -40 -33 -40 -10 -46
22 -5 22 -6 -9 -22 -18 -9 -37 -17 -44 -17 -20 0 -109 -102 -109 -124 0 -15
-3 -17 -9 -8 -7 11 -11 10 -24 -2 -9 -9 -19 -26 -22 -39 -4 -12 -19 -33 -34
-47 -34 -31 -72 -85 -65 -93 3 -2 16 6 29 19 13 13 30 24 37 24 16 1 68 74 68
95 0 18 17 20 23 3 3 -10 7 -10 19 -1 8 7 19 9 23 5 5 -4 5 -1 1 6 -5 7 -1 12
11 13 11 0 13 3 5 6 -20 8 -3 23 26 23 15 0 38 9 52 20 14 11 31 20 38 20 18
0 15 17 -5 24 -10 4 -34 16 -53 26 l-35 20 35 0 c27 0 41 -7 61 -31 25 -31 26
-31 55 -15 l29 16 -31 -5 c-32 -5 -52 9 -48 33 1 6 2 17 3 22 0 6 8 10 16 10
9 0 15 -6 13 -14 -3 -16 -1 -16 35 -15 12 0 16 3 10 6 -18 7 -16 23 3 23 13 0
14 3 5 14 -13 16 4 26 46 26 24 0 25 3 20 36 -5 30 -4 34 8 24 20 -17 35 -4
35 31 0 17 5 29 13 29 18 0 43 32 69 88 12 26 27 50 32 54 7 5 7 8 1 8 -5 0
-2 7 7 14 10 7 19 25 20 39 1 15 6 23 11 18 9 -9 -16 -129 -34 -163 -6 -11
-13 -30 -15 -43 -5 -28 -52 -116 -70 -131 -7 -6 -39 -47 -71 -91 -76 -106
-117 -154 -214 -252 -73 -74 -93 -104 -43 -66 21 16 59 20 49 6 -9 -16 12 -22
37 -11 13 6 34 31 48 56 13 25 33 50 44 56 18 10 19 9 8 -4 -7 -9 -23 -43 -36
-77 -23 -58 -25 -101 -4 -101 6 0 8 -9 5 -21 -3 -13 -1 -19 6 -16 7 3 11 11 9
18 -2 7 5 19 14 26 23 17 64 17 64 0 0 -8 11 -24 25 -37 27 -25 33 -54 13 -66
-6 -4 -8 -3 -5 2 3 5 -3 20 -13 34 -15 20 -20 22 -34 11 -18 -15 -20 -51 -7
-99 9 -29 8 -33 -7 -30 -12 2 -22 22 -32 63 -12 45 -20 61 -35 64 -19 3 -19 2
-2 -17 17 -18 17 -20 -3 -33 -17 -12 -19 -19 -11 -44 l8 -30 8 28 c8 31 25 36
25 7 0 -11 -6 -20 -12 -20 -9 0 -8 -3 2 -10 12 -7 11 -9 -5 -9 -11 0 -37 -1
-58 -2 -21 0 -41 1 -43 4 -3 3 2 19 10 36 18 34 20 57 6 66 -5 3 -16 -9 -23
-27 -8 -18 -10 -34 -5 -36 14 -6 9 -22 -7 -22 -12 0 -11 -4 3 -18 12 -12 35
-19 67 -20 54 -3 93 -30 72 -51 -8 -8 -8 -11 2 -11 9 0 9 -3 -2 -14 -7 -8 -13
-25 -12 -38 1 -12 -5 -25 -13 -29 -13 -5 -24 -53 -23 -101 0 -10 -4 -18 -9
-18 -4 0 -11 -19 -15 -42 -4 -24 -12 -46 -17 -49 -6 -4 -14 -28 -19 -55 -5
-26 -14 -53 -20 -59 -7 -7 -8 -4 -4 10 6 16 5 17 -4 5 -6 -8 -11 -22 -11 -31
0 -9 -9 -24 -20 -34 -11 -10 -19 -25 -18 -34 2 -9 -4 -17 -12 -17 -8 -1 -21
-2 -29 -3 -11 -1 -11 -4 -1 -16 14 -17 6 -31 -23 -37 -10 -1 -18 -7 -18 -13 0
-5 -7 -14 -15 -18 -8 -4 -14 -15 -14 -22 0 -8 -4 -15 -10 -15 -5 0 -10 4 -10
10 0 16 -28 0 -33 -20 -3 -10 -18 -21 -36 -25 -26 -6 -30 -9 -20 -21 9 -11 8
-14 -5 -14 -9 0 -16 -4 -16 -9 0 -4 -12 -6 -27 -3 -23 4 -25 2 -20 -17 6 -24
-2 -27 -22 -8 -11 9 -13 9 -7 0 5 -9 0 -13 -16 -14 -13 0 -17 -3 -10 -6 10 -4
10 -8 1 -19 -9 -11 -8 -14 5 -14 9 0 16 -4 16 -10 0 -5 -7 -7 -15 -4 -18 7
-20 -7 -3 -24 9 -9 8 -12 -3 -15 -68 -19 -74 -23 -71 -45 2 -16 -3 -25 -20
-31 -13 -5 -28 -6 -34 -4 -6 2 -14 -2 -17 -10 -3 -10 -14 -13 -31 -10 -22 5
-26 2 -26 -17 0 -15 -5 -20 -14 -17 -10 4 -13 1 -9 -9 4 -10 -2 -14 -22 -14
-17 0 -25 -5 -22 -12 6 -20 -44 -47 -65 -36 -13 6 -18 5 -18 -7 0 -13 123 -15
1154 -15 635 0 1161 3 1170 6 14 5 16 39 16 279 l0 273 -22 -4 -23 -5 23 10
22 10 0 361 0 360 -36 15 c-31 13 -38 13 -50 1 -8 -8 -14 -19 -14 -25 0 -6
-10 -10 -22 -10 -17 1 -19 2 -5 6 16 4 25 34 10 32 -5 -1 -21 0 -38 1 l-30 2
30 13 c17 8 26 14 22 15 -5 0 -1 7 7 16 14 14 21 14 59 1 23 -8 41 -20 39 -26
-1 -6 5 -11 13 -11 13 0 15 27 15 185 l0 185 -27 12 -28 11 25 6 c19 5 26 14
28 41 3 30 2 32 -12 21 -9 -8 -16 -10 -16 -5 0 10 -51 11 -67 1 -6 -4 -17 0
-24 9 -7 9 -23 20 -36 25 -23 8 -33 39 -13 39 5 0 9 -6 7 -12 -1 -7 4 -12 12
-10 7 1 19 -2 27 -9 11 -9 20 -8 39 5 13 9 32 16 41 16 13 0 14 3 5 13 -13 16
-5 27 21 27 16 0 18 10 18 119 0 86 -3 121 -12 124 -10 4 -9 8 2 16 12 9 11
11 -7 11 -16 0 -25 8 -29 24 -5 22 -13 25 -70 32 -36 3 -68 3 -72 0 -4 -4 -7
-23 -7 -41 -1 -19 -4 -38 -8 -41 -4 -4 -7 -26 -7 -49 0 -45 19 -71 45 -61 8 3
15 1 15 -3 0 -5 16 -8 35 -7 19 2 32 -1 29 -5 -3 -5 6 -9 20 -9 15 0 26 -6 26
-14 0 -10 -11 -12 -45 -8 -38 4 -48 1 -65 -19 -12 -13 -19 -17 -17 -9 5 18
-29 50 -55 51 -10 1 -21 3 -25 4 -5 2 -18 6 -30 10 -31 10 -29 25 2 25 24 0
25 2 26 73 0 39 2 80 4 89 2 10 -1 21 -7 24 -19 12 -474 65 -510 59 -22 -3
-46 0 -56 6 -24 15 -72 4 -72 -17 0 -9 -6 -14 -12 -11 -7 2 -12 11 -12 19 1
10 -5 14 -16 11 -17 -5 -37 13 -27 24 10 9 110 11 133 3 11 -5 65 -11 120 -13
54 -3 126 -8 159 -12 33 -4 55 -3 48 2 -11 8 -14 93 -3 93 13 0 -4 71 -19 79
-9 5 -86 16 -171 25 -85 10 -168 19 -183 21 -54 7 -40 15 26 15 53 0 67 3 67
15 0 17 17 20 22 5 2 -6 26 -13 53 -15 27 -3 88 -12 135 -19 47 -8 113 -18
148 -21 34 -4 62 -12 62 -17 0 -7 -24 -8 -70 -4 -47 5 -70 4 -70 -3 0 -6 6
-11 14 -11 19 0 22 -20 16 -103 -3 -43 -1 -71 5 -73 5 -2 55 -6 110 -9 122 -6
183 -10 264 -20 55 -6 60 -9 44 -21 -10 -7 -13 -13 -8 -13 6 0 20 8 33 18 20
17 22 28 22 104 l0 85 -37 6 c-21 3 -81 8 -134 12 -94 6 -131 16 -116 30 4 4
23 7 42 6 21 -1 36 4 37 11 4 33 9 97 11 137 2 38 -1 45 -18 47 -71 7 -85 8
-85 10 0 2 8 12 17 23 13 14 20 17 30 8 8 -7 17 -7 26 -1 10 8 92 10 107 3 3
-2 31 -3 62 -4 l58 -1 0 180 c0 120 -4 175 -10 165 -8 -13 -10 -13 -10 2 0 24
-16 31 -40 16 -17 -11 -22 -11 -30 2 -5 8 -12 11 -16 7 -4 -4 -16 1 -26 10
-16 15 -21 15 -28 3 -5 -9 -22 -13 -44 -12 -20 2 -36 -2 -36 -7 0 -6 -20 -8
-47 -5 -114 11 -133 12 -137 6 -2 -4 -55 -7 -116 -6 -84 1 -114 4 -120 15 -13
20 -185 19 -214 -1z m593 -2285 c21 -4 35 -14 38 -26 6 -22 19 -25 27 -6 3 8
8 7 16 -5 6 -10 15 -18 20 -18 5 0 6 8 3 18 -6 15 -5 15 11 3 15 -12 15 -16 3
-28 -11 -11 -25 -12 -66 -5 -44 8 -51 7 -51 -6 0 -13 -3 -13 -12 -4 -16 16
-28 15 -25 0 2 -7 -1 -3 -7 10 -15 33 -33 26 -27 -10 0 -5 -3 -8 -9 -8 -5 0
-10 11 -10 25 0 22 -3 24 -19 15 -26 -13 -31 -13 -31 5 0 8 -5 15 -11 15 -5 0
-8 -4 -5 -9 3 -5 -2 -15 -11 -22 -12 -10 -14 -10 -9 -1 5 8 0 12 -13 12 -12 0
-21 4 -21 9 0 15 24 27 50 25 14 -1 37 7 53 18 22 16 27 17 27 5 0 -9 -6 -18
-12 -20 -8 -3 -6 -6 5 -6 17 -1 21 10 17 39 -2 13 1 12 16 -1 11 -9 34 -20 53
-24z"/>
<path d="M4954 2654 c-2 -8 -6 -21 -9 -29 -2 -8 -1 -15 4 -15 4 0 6 -31 4 -70
-3 -79 -9 -74 105 -84 l62 -6 0 100 0 100 -27 1 c-16 1 -36 1 -45 0 -10 -1
-33 2 -53 8 -29 8 -37 7 -41 -5z"/>
<path d="M1393 2379 c3 -12 0 -16 -9 -12 -16 6 -19 -13 -4 -22 6 -4 8 -11 4
-16 -3 -5 0 -8 8 -7 9 2 13 -9 13 -37 1 -48 12 -68 32 -61 9 4 13 1 10 -6 -2
-7 -10 -12 -16 -10 -6 1 -11 -2 -11 -8 0 -5 6 -10 14 -10 20 0 37 -25 30 -44
-5 -13 -10 -14 -27 -4 -12 6 -19 7 -15 3 4 -5 2 -15 -4 -23 -11 -13 -8 -14 20
-8 23 6 32 4 33 -6 0 -7 15 -25 33 -40 l33 -27 -11 39 c-5 22 -14 40 -19 40
-4 0 -5 5 -2 10 3 6 2 10 -2 10 -5 0 -10 9 -11 20 -1 11 -2 26 -3 33 -1 6 1
32 4 57 4 28 3 36 -2 20 -6 -21 -10 -13 -21 47 -13 71 -13 71 -47 75 -29 3
-34 1 -30 -13z"/>
<path d="M3406 2008 c-35 -34 -56 -78 -37 -78 21 0 11 -27 -19 -48 l-30 -23 0
27 c0 32 -13 24 -15 -9 -1 -12 -5 -30 -10 -39 -5 -13 -3 -18 9 -18 23 0 20
-27 -4 -33 -13 -3 -18 -10 -14 -21 7 -19 24 -21 24 -3 0 14 49 39 61 31 13 -8
49 15 49 31 0 8 -4 15 -10 15 -5 0 -10 -4 -10 -10 0 -5 -7 -7 -15 -4 -8 4 -12
10 -9 15 3 5 -4 9 -16 9 -32 0 -19 23 19 32 17 5 29 13 26 18 -10 16 13 20 29
4 13 -12 16 -13 16 -1 0 21 43 56 78 63 42 9 40 18 -7 32 -21 7 -44 19 -51 27
-18 21 -26 19 -64 -17z"/>
<path d="M576 589 c-11 -11 -14 -19 -7 -19 8 0 10 -11 5 -37 -8 -44 -43 -90
-55 -71 -12 18 -24 -42 -13 -61 14 -22 18 -91 6 -91 -5 0 -13 -15 -16 -34 -4
-22 -14 -37 -26 -41 -24 -8 -43 2 -34 18 4 7 -2 3 -13 -8 -11 -11 -18 -23 -16
-28 10 -17 -29 -18 -41 -1 -13 17 -15 16 -40 -11 -14 -15 -26 -31 -26 -36 0
-4 -20 -15 -45 -25 -44 -16 -49 -24 -47 -72 1 -12 -3 -20 -7 -18 -4 3 -16 -1
-27 -8 -10 -8 -23 -12 -29 -10 -6 3 -20 -4 -30 -16 l-18 -20 136 0 c85 0 137
4 137 10 0 6 5 10 11 10 19 0 41 29 79 106 22 44 32 73 24 70 -8 -3 -14 1 -14
10 0 8 4 13 8 10 21 -13 34 17 67 154 7 30 17 66 23 80 5 14 10 28 10 33 0 4
6 32 12 63 7 31 10 57 8 59 -1 1 -12 -6 -22 -16z"/>
</g>
</svg>
