<?xml version="1.0" standalone="no"?>
<!DOCTYPE svg PUBLIC "-//W3C//DTD SVG 20010904//EN"
 "http://www.w3.org/TR/2001/REC-SVG-20010904/DTD/svg10.dtd">
<svg version="1.0" xmlns="http://www.w3.org/2000/svg"
 width="1280.000000pt" height="720.000000pt" viewBox="0 0 1280.000000 720.000000"
 preserveAspectRatio="xMidYMid meet">

<g transform="translate(0.000000,720.000000) scale(0.100000,-0.100000)"
fill="#000000" stroke="none">
<path d="M0 6259 c0 -823 2 -942 15 -955 20 -20 20 -74 0 -74 -13 0 -15 -56
-15 -440 0 -389 2 -441 15 -447 23 -8 39 19 65 109 12 43 27 81 33 85 6 3 18
-4 28 -15 20 -25 47 -29 55 -7 4 8 11 15 17 15 6 0 31 10 56 22 44 21 46 21
110 4 36 -9 68 -21 69 -26 2 -6 8 -10 14 -10 6 0 8 6 5 14 -5 12 3 14 36 11
23 -3 69 1 102 8 40 8 73 9 100 4 51 -12 127 -13 232 -3 117 10 128 0 58 -53
-54 -41 -69 -65 -27 -42 11 6 74 28 139 48 104 32 130 37 218 36 93 0 235 -9
241 -15 1 -2 -6 -37 -17 -79 -22 -88 -130 -341 -187 -437 -83 -138 -216 -272
-322 -322 l-45 -21 77 5 c96 7 228 36 344 76 103 36 330 145 405 196 29 19 53
33 55 31 2 -2 -9 -41 -25 -88 -28 -83 -40 -124 -100 -345 -39 -139 -47 -182
-71 -374 -32 -249 -26 -777 11 -1040 6 -41 12 -88 15 -105 23 -158 215 -858
231 -841 2 2 -11 60 -30 127 -61 218 -80 376 -85 695 -3 208 0 328 13 465 24
268 48 429 65 429 4 0 10 -45 13 -101 15 -252 80 -552 175 -814 13 -38 29 -76
35 -82 8 -12 -2 -101 -20 -168 -3 -11 -2 -17 3 -12 8 8 60 248 89 412 30 166
74 378 140 675 37 162 78 347 91 410 40 186 186 781 236 965 17 61 65 245 108
410 43 165 91 342 108 393 16 50 28 92 26 92 -14 0 -82 -213 -134 -414 -50
-197 -94 -354 -101 -360 -16 -15 -173 -77 -319 -126 -190 -64 -409 -115 -415
-96 -2 6 -6 34 -10 61 -3 28 -14 93 -25 145 -45 224 -58 417 -54 774 5 369 53
778 128 1089 16 68 20 97 11 97 -6 0 -35 46 -63 103 -74 146 -72 175 33 353
69 116 202 320 274 418 50 69 62 109 15 51 -30 -37 -231 -336 -262 -389 -20
-33 -25 -37 -36 -25 -19 20 -80 205 -109 329 l-25 105 -906 3 -906 2 0 -941z
m1338 264 c-4 -22 -22 -20 -26 1 -2 10 3 16 13 16 10 0 15 -7 13 -17z m2 -308
c0 -16 -6 -25 -15 -25 -16 0 -19 9 -9 34 9 25 24 19 24 -9z m-952 -18 c-2 -12
-17 -29 -34 -39 -27 -16 -32 -16 -50 -3 -19 15 -19 16 0 28 10 7 26 19 34 28
20 22 54 13 50 -14z m338 -8 c1 -22 -3 -26 -20 -22 -17 4 -18 3 -6 -6 9 -7 10
-11 3 -11 -6 0 -18 9 -26 21 -11 14 -17 17 -22 9 -4 -7 -1 -17 6 -22 11 -8 10
-8 -4 -4 -10 3 -21 6 -23 6 -2 0 -4 9 -4 20 0 25 27 41 65 37 25 -2 30 -7 31
-28z m649 -9 c9 7 16 6 26 -6 11 -14 10 -19 -11 -34 -23 -18 -25 -18 -29 -2
-2 9 -8 20 -13 23 -6 4 -7 13 -2 20 6 10 9 10 12 1 3 -9 8 -10 17 -2z m-493
-112 c16 -29 20 -68 7 -68 -6 0 -7 5 -4 10 3 6 1 10 -4 10 -6 0 -11 -6 -11
-13 0 -7 -6 -21 -13 -31 -13 -18 -15 -18 -40 -1 -42 27 -34 101 12 108 14 2
29 5 33 6 4 0 13 -9 20 -21z m-356 -15 c36 -38 29 -75 -14 -84 -26 -5 -35 -3
-47 14 -20 28 -19 56 2 79 22 24 29 23 59 -9z m941 -80 c-3 -52 -10 -99 -15
-106 -15 -20 -21 -84 -9 -96 6 -6 8 -11 5 -11 -3 0 -2 -17 2 -37 10 -41 -7
-276 -20 -281 -4 -2 -6 -12 -3 -23 6 -23 -21 -170 -53 -284 -28 -102 -49 -108
-50 -15 0 36 -6 76 -13 89 -9 17 -10 26 -2 34 14 14 14 30 1 22 -5 -3 -10 -1
-10 5 0 7 -7 10 -15 6 -10 -3 -15 1 -15 14 0 23 -18 36 -25 18 -3 -8 -22 -14
-45 -15 -32 -2 -44 3 -64 27 -26 32 -25 66 2 86 9 6 13 18 9 27 -9 23 14 33
28 14 7 -10 19 -17 28 -17 9 0 19 -4 22 -10 12 -20 25 -9 25 20 0 17 5 30 10
30 6 0 10 -8 10 -17 0 -14 2 -15 9 -5 6 10 13 4 25 -22 9 -20 21 -36 26 -36
16 0 11 37 -5 44 -8 3 -15 16 -15 30 0 24 -23 56 -40 56 -5 0 -7 7 -4 15 4 8
10 13 14 10 5 -3 12 5 16 17 4 13 2 24 -4 26 -6 2 -8 10 -5 18 3 8 1 14 -5 14
-6 0 -8 10 -4 22 3 12 7 17 10 10 11 -33 21 -5 19 53 -1 36 2 66 6 68 5 1 3
15 -2 30 -22 58 -4 105 46 121 12 4 23 21 29 44 6 23 17 41 32 47 15 7 22 18
22 37 0 21 4 26 16 21 15 -5 16 -19 11 -100z m-1254 63 c12 -36 -13 -67 -37
-47 -11 10 -19 10 -34 0 -16 -10 -23 -10 -36 0 -21 18 -20 34 3 55 20 18 48
13 67 -12 7 -10 13 -11 18 -4 3 6 2 13 -4 17 -14 9 -13 28 2 23 6 -2 16 -17
21 -32z m1027 8 c0 -20 -13 -17 -27 5 -10 16 -9 18 8 14 10 -3 19 -12 19 -19z
m-80 -3 c0 -17 -12 -41 -21 -41 -5 0 -9 11 -9 25 0 16 6 25 15 25 8 0 15 -4
15 -9z m49 -43 c8 3 12 -1 9 -9 -7 -21 -52 -17 -56 4 -3 15 0 17 15 9 10 -5
24 -7 32 -4z m-491 -92 c28 -31 41 -86 19 -86 -8 0 -17 -7 -21 -15 -8 -22 -56
-18 -83 7 -28 26 -30 54 -3 68 11 6 20 17 20 25 0 13 14 23 35 24 6 0 20 -10
33 -23z m-343 -16 c21 -41 11 -76 -27 -89 -26 -9 -33 -7 -54 14 -30 30 -30 52
-2 82 31 33 64 30 83 -7z m694 -19 c-1 -13 -2 -13 -6 2 -2 9 -9 17 -14 17 -5
0 -9 5 -9 11 0 8 5 8 15 -1 8 -7 14 -20 14 -29z m-69 9 c0 -11 9 -25 20 -32
24 -15 26 -31 6 -47 -12 -10 -21 -7 -45 16 -29 28 -33 45 -18 71 13 19 37 14
37 -8z m-820 -106 c0 -8 9 -14 19 -14 11 0 22 -9 26 -19 3 -11 26 -32 50 -47
33 -21 45 -36 50 -61 4 -25 11 -33 26 -33 12 0 29 -10 39 -22 19 -23 19 -23
33 -3 9 11 13 23 11 27 -3 5 5 8 18 8 16 0 34 -14 56 -42 18 -23 32 -45 32
-49 0 -10 40 -32 46 -26 10 10 -10 38 -23 32 -12 -4 -14 0 -9 17 3 13 6 31 6
41 0 20 45 24 54 5 3 -10 8 -8 16 4 6 9 17 15 24 12 8 -3 25 6 40 19 30 28 32
37 11 37 -8 0 -15 5 -15 10 0 11 13 14 44 10 13 -1 17 3 13 14 -4 11 -1 16 12
16 9 0 28 11 41 25 13 14 31 25 41 25 22 0 78 -53 75 -71 -9 -58 -71 -86 -109
-51 -12 11 -34 24 -49 27 -26 7 -28 5 -28 -24 0 -22 -5 -31 -17 -31 -13 0 -11
-6 10 -28 33 -34 36 -83 7 -112 -11 -11 -15 -22 -10 -25 6 -4 10 -17 10 -31 0
-36 26 -41 56 -9 21 23 31 26 68 23 49 -5 107 -42 81 -52 -13 -5 -13 -11 5
-43 24 -45 24 -49 4 -57 -8 -3 -12 -2 -9 4 3 6 -4 10 -16 10 -18 0 -19 2 -9
15 17 21 -2 19 -31 -4 -16 -12 -36 -17 -61 -15 -21 2 -40 -1 -43 -6 -4 -6 -11
-10 -16 -10 -6 0 -7 5 -4 10 3 6 2 10 -4 10 -5 0 -13 -5 -16 -11 -5 -7 -28 -8
-64 -5 -47 5 -146 9 -573 20 -25 1 -28 5 -28 33 0 33 -14 51 -25 33 -11 -17
-21 -11 -23 15 -1 13 6 30 16 37 32 25 43 58 41 126 -1 37 1 74 5 83 4 10 3
20 -3 24 -6 3 -11 17 -11 30 0 13 -10 33 -22 44 l-21 20 26 10 c15 6 27 16 27
22 0 6 9 9 20 6 11 -3 22 -2 24 1 8 14 56 10 56 -4z m370 -14 c-13 -9 -11 -14
13 -33 30 -25 34 -42 13 -54 -7 -4 -19 -25 -25 -45 -13 -40 -28 -48 -37 -23
-4 8 -14 15 -23 15 -33 0 -61 30 -61 64 0 48 46 81 120 85 13 1 13 0 0 -9z
m674 -25 c41 -18 40 -15 22 -60 -11 -25 -23 -36 -48 -43 -31 -9 -34 -7 -49 26
-20 41 -14 70 15 82 11 5 22 9 22 9 1 1 18 -6 38 -14z m-578 -50 c12 -12 12
-18 2 -35 -12 -19 -30 -24 -29 -7 1 4 1 18 1 32 0 29 6 31 26 10z m421 -120
c33 -33 34 -35 18 -65 -8 -16 -22 -30 -30 -30 -9 0 -15 -10 -15 -25 0 -14 4
-25 10 -25 9 0 40 -51 40 -65 0 -4 -9 -4 -19 0 -11 3 -22 1 -26 -5 -10 -17
-25 -11 -25 10 0 11 7 20 15 20 8 0 15 4 15 9 0 16 -27 31 -45 25 -15 -6 -17
-3 -11 19 5 22 2 28 -18 33 -47 12 -38 114 12 127 35 9 45 6 79 -28z m153 -74
c0 -14 -18 -23 -30 -16 -6 4 -8 11 -5 16 8 12 35 12 35 0z m-126 -45 c-3 -9
-10 -16 -15 -16 -6 0 -5 9 1 21 13 24 24 20 14 -5z m-114 -54 c0 -15 -2 -15
-10 -2 -13 20 -13 33 0 25 6 -3 10 -14 10 -23z m30 -62 c0 -5 -9 -10 -20 -10
-11 0 -20 5 -20 10 0 6 9 10 20 10 11 0 20 -4 20 -10z m97 -34 c-4 -13 -47
-21 -47 -9 0 5 5 14 11 20 14 14 41 5 36 -11z m-727 -58 c0 -6 -7 -7 -16 -4
-9 3 -25 6 -37 6 -16 0 -18 3 -9 9 17 10 62 2 62 -11z m290 3 c0 -6 -5 -13
-10 -16 -15 -9 -43 3 -35 15 8 13 45 13 45 1z m50 -6 c0 -8 -6 -15 -14 -15
-17 0 -28 14 -19 24 12 12 33 6 33 -9z m298 3 c-3 -7 -13 -15 -24 -17 -16 -3
-17 -1 -5 13 16 19 34 21 29 4z m232 -1433 c-7 -9 -15 -13 -17 -11 -7 7 7 26
19 26 6 0 6 -6 -2 -15z m-33 -35 c-3 -11 -1 -20 4 -20 5 0 9 -5 9 -11 0 -13
-52 -34 -105 -43 l-40 -7 31 20 c18 11 35 24 38 30 4 6 17 11 28 11 12 0 19 3
15 6 -3 3 0 12 6 20 17 19 20 17 14 -6z m50 -36 c-3 -3 -12 -4 -19 -1 -8 3 -5
6 6 6 11 1 17 -2 13 -5z m450 -526 c-3 -7 -5 -2 -5 12 0 14 2 19 5 13 2 -7 2
-19 0 -25z m-20 -775 c-3 -10 -5 -2 -5 17 0 19 2 27 5 18 2 -10 2 -26 0 -35z
m300 -10 c-3 -10 -5 -4 -5 12 0 17 2 24 5 18 2 -7 2 -21 0 -30z m-190 5 c-3
-8 -6 -5 -6 6 -1 11 2 17 5 13 3 -3 4 -12 1 -19z m-91 -105 c-9 -10 -14 -1
-20 42 l-7 40 17 -38 c9 -21 14 -41 10 -44z m81 5 c-3 -7 -5 -2 -5 12 0 14 2
19 5 13 2 -7 2 -19 0 -25z m-81 -85 c-11 -11 -17 4 -9 23 7 18 8 18 11 1 2
-10 1 -21 -2 -24z m14 -88 c-7 -8 -10 -22 -6 -30 3 -9 2 -13 -4 -10 -14 9 -12
42 3 48 20 8 20 8 7 -8z m437 -7 c-3 -8 -6 -5 -6 6 -1 11 2 17 5 13 3 -3 4
-12 1 -19z m-10 -40 c-3 -8 -6 -5 -6 6 -1 11 2 17 5 13 3 -3 4 -12 1 -19z
m-354 -355 c2 -13 1 -23 -2 -23 -7 0 -41 141 -48 203 -4 25 -1 37 7 37 8 0 11
-11 8 -30 -3 -16 -1 -30 4 -30 4 0 9 48 10 108 1 93 2 85 9 -68 4 -96 10 -185
12 -197z m-76 315 c-3 -7 -5 -2 -5 12 0 14 2 19 5 13 2 -7 2 -19 0 -25z m422
-24 c-6 -16 -11 -46 -11 -66 1 -53 -11 -47 -31 15 -18 57 -22 88 -7 50 13 -32
29 -29 42 8 6 16 12 28 14 26 3 -2 0 -17 -7 -33z m-383 -10 c-4 -9 -9 -15 -11
-12 -3 3 -3 13 1 22 4 9 9 15 11 12 3 -3 3 -13 -1 -22z m-16 -49 c0 -5 -5 -3
-10 5 -5 8 -10 20 -10 25 0 6 5 3 10 -5 5 -8 10 -19 10 -25z m57 -287 c-3 -8
-6 -5 -6 6 -1 11 2 17 5 13 3 -3 4 -12 1 -19z"/>
<path d="M840 6040 c0 -5 5 -10 10 -10 6 0 10 5 10 10 0 6 -4 10 -10 10 -5 0
-10 -4 -10 -10z"/>
<path d="M1350 5430 c0 -5 5 -10 10 -10 6 0 10 5 10 10 0 6 -4 10 -10 10 -5 0
-10 -4 -10 -10z"/>
<path d="M1270 5403 c-8 -43 7 -103 26 -103 17 0 19 21 3 37 -6 6 -15 26 -19
45 -4 18 -9 27 -10 21z"/>
<path d="M450 5546 c0 -2 7 -6 15 -10 8 -3 15 -1 15 4 0 6 -7 10 -15 10 -8 0
-15 -2 -15 -4z"/>
<path d="M466 5505 c4 -8 7 -15 9 -15 1 0 8 7 15 15 10 13 9 15 -8 15 -15 0
-20 -5 -16 -15z"/>
<path d="M400 5446 c0 -21 26 -40 33 -23 3 7 -4 19 -14 25 -15 10 -19 9 -19
-2z"/>
<path d="M585 5440 c-10 -11 -14 -20 -9 -20 12 1 44 25 44 34 0 12 -17 6 -35
-14z"/>
<path d="M333 5423 c-17 -6 -16 -23 1 -23 8 0 16 7 20 15 6 15 1 17 -21 8z"/>
<path d="M681 5376 c-7 -9 -20 -16 -27 -16 -17 0 -17 -10 0 -33 12 -16 15 -16
27 -1 12 14 14 14 25 -1 7 -9 19 -15 26 -12 7 2 21 0 31 -5 11 -6 17 -5 17 2
0 6 -7 13 -15 16 -8 4 -15 14 -15 23 0 13 -2 14 -9 2 -8 -12 -11 -12 -23 0 -8
8 -17 20 -19 28 -4 10 -8 10 -18 -3z"/>
<path d="M240 5370 c0 -5 4 -10 9 -10 5 0 12 -11 15 -25 7 -29 26 -34 26 -6 0
10 -11 26 -25 35 -14 9 -25 12 -25 6z"/>
<path d="M340 5371 c0 -5 -10 -11 -22 -15 -20 -5 -21 -7 -8 -20 8 -9 31 -19
50 -22 30 -6 33 -5 23 8 -7 8 -10 18 -6 21 7 8 -15 37 -28 37 -5 0 -9 -4 -9
-9z"/>
<path d="M1170 5720 c0 -5 7 -7 15 -4 8 4 15 8 15 10 0 2 -7 4 -15 4 -8 0 -15
-4 -15 -10z"/>
<path d="M4094 7108 c-98 -102 -227 -244 -271 -299 -15 -20 -37 -44 -47 -54
-24 -24 -252 -293 -368 -434 -48 -58 -99 -119 -113 -135 -14 -16 -25 -32 -25
-37 0 -10 139 143 227 251 34 41 102 122 152 180 50 58 117 137 148 175 80 97
190 221 307 342 54 57 94 103 89 103 -5 0 -50 -42 -99 -92z"/>
<path d="M4192 7073 c-85 -214 -119 -319 -189 -593 -85 -331 -95 -403 -100
-770 -5 -343 14 -582 62 -780 9 -37 15 -167 20 -405 5 -295 11 -388 35 -595
56 -469 73 -571 91 -553 5 5 5 32 -1 68 -6 33 -21 164 -35 290 -14 127 -28
237 -31 246 -21 73 -47 577 -34 684 4 33 8 49 9 36 2 -44 61 -226 101 -316 5
-11 21 -51 36 -90 14 -38 40 -99 56 -135 17 -36 38 -86 49 -112 27 -69 98
-208 123 -243 12 -16 30 -48 41 -70 42 -84 111 -194 177 -279 37 -49 68 -92
68 -97 0 -16 188 -307 327 -504 93 -133 164 -226 228 -300 34 -38 75 -88 91
-110 34 -47 31 -43 96 -125 100 -127 100 -127 157 -375 40 -172 54 -243 50
-252 -2 -4 -13 -9 -23 -10 -26 -4 -103 -31 -128 -44 -16 -9 -49 -1 -157 34
-185 61 -366 117 -379 117 -6 0 -50 14 -99 31 -94 33 -323 98 -438 126 -104
25 -191 21 -340 -15 -185 -44 -434 -100 -545 -123 -164 -32 -241 -49 -368 -81
-128 -33 -163 -51 -45 -24 37 8 84 18 103 21 19 3 145 30 280 60 135 29 272
59 305 65 75 14 379 87 421 100 22 7 50 6 100 -4 152 -31 212 -46 269 -69 33
-14 76 -28 95 -32 19 -3 54 -14 77 -22 52 -19 58 -41 51 -174 -3 -49 -1 -92 4
-95 15 -9 -3 -215 -20 -235 -17 -20 -26 -52 -12 -44 14 9 43 -82 35 -112 -3
-15 -6 -84 -4 -153 2 -166 0 -201 -13 -217 -13 -16 -90 -17 -105 -2 -7 7 -9 3
-6 -15 4 -21 2 -24 -16 -19 -17 4 -21 1 -21 -21 0 -14 3 -26 8 -26 4 0 24 -16
44 -35 20 -19 41 -35 47 -35 6 0 11 -7 11 -15 0 -8 6 -15 14 -15 19 0 46 -60
46 -102 0 -26 19 -81 20 -56 0 7 42 -15 108 -57 18 -11 32 -28 32 -38 0 -27
19 -57 35 -57 8 0 15 -6 15 -14 0 -17 47 -49 60 -41 23 14 19 -28 -10 -118
-17 -54 -34 -97 -38 -97 -4 1 -23 21 -42 47 -19 25 -42 54 -52 64 -9 9 -14 20
-11 23 4 3 -1 6 -9 6 -9 0 -21 7 -29 16 -10 13 -10 17 2 25 12 8 11 11 -4 20
-10 6 -17 22 -17 39 0 17 -4 30 -9 30 -6 0 -16 12 -23 27 -22 46 -33 22 -34
-72 -2 -161 -2 -163 -25 -170 -13 -4 -25 -2 -29 5 -10 15 -31 4 -24 -13 2 -7
-5 -18 -15 -24 -17 -11 -21 -10 -26 6 -8 26 -55 25 -55 0 0 -11 5 -19 10 -19
6 0 10 -9 10 -20 0 -23 10 -26 28 -8 9 9 12 9 12 0 0 -19 30 -14 31 6 0 15 1
14 8 -3 7 -16 9 -14 14 15 4 18 10 30 14 27 3 -4 12 1 19 11 11 15 14 12 20
-26 6 -38 9 -42 34 -42 23 0 30 5 35 30 7 30 30 50 59 50 8 0 23 -18 33 -40
l18 -39 609 -1 c575 0 608 1 601 18 -4 9 -27 73 -51 142 -94 269 -114 315
-171 390 -41 54 -39 56 75 93 43 14 100 34 127 45 28 11 100 32 160 46 61 15
137 35 170 46 33 10 123 32 200 50 77 17 153 36 169 41 82 26 375 85 551 110
364 54 369 54 433 41 78 -16 110 -15 157 6 22 10 65 20 95 21 30 1 86 6 124
11 50 6 92 4 154 -6 101 -18 117 -25 136 -62 15 -31 70 -227 166 -592 5 -19
16 -49 24 -66 9 -17 19 -45 22 -62 8 -38 3 -40 -156 -45 -192 -7 -420 -50
-605 -114 -88 -30 -187 -64 -220 -75 -33 -11 -69 -23 -80 -28 -30 -13 801 -12
848 1 20 5 90 21 155 34 l117 25 120 -20 c66 -12 158 -27 205 -35 68 -12 196
-15 624 -15 l538 0 -6 38 c-4 20 -10 60 -15 87 -4 28 -9 43 -10 36 0 -10 -4
-11 -10 -5 -6 5 -5 26 1 54 6 25 10 66 9 93 -1 49 12 64 23 24 3 -12 6 -41 6
-63 0 -26 7 -51 19 -65 18 -22 18 -22 38 -3 25 23 38 86 24 113 -8 14 -7 31 4
60 7 22 10 43 5 46 -11 7 -5 67 9 94 9 16 8 26 -5 45 -13 21 -19 23 -35 13
-15 -9 -23 -9 -38 0 -17 11 -20 9 -23 -9 -2 -18 -11 -22 -52 -24 l-48 -4 6 33
c4 23 0 39 -14 57 l-20 25 0 -41 c0 -34 -4 -43 -22 -49 -13 -4 -30 -6 -40 -6
-9 1 -19 -3 -23 -9 -8 -13 -55 -13 -55 0 0 14 -43 30 -54 20 -5 -5 -14 -6 -21
-4 -8 4 -11 -2 -8 -19 4 -21 2 -23 -32 -19 -26 3 -39 11 -45 26 -12 34 -16
111 -5 112 15 1 48 16 64 28 7 6 28 9 46 7 25 -2 37 3 48 20 9 12 22 19 30 16
8 -3 19 -1 25 5 14 14 60 -18 64 -44 2 -12 8 -23 13 -25 17 -5 65 47 65 71 0
13 9 31 20 41 11 10 20 26 20 37 0 31 28 20 40 -17 11 -33 30 -48 30 -24 0 6
7 9 15 5 8 -3 15 0 15 7 0 7 6 23 13 37 8 14 14 43 15 64 2 56 10 76 28 69 10
-4 14 -14 11 -29 -5 -26 10 -33 19 -9 9 23 31 18 38 -7 3 -13 14 -29 26 -36
18 -11 20 -10 20 8 0 11 -5 20 -11 20 -19 0 46 47 75 54 26 6 34 2 71 -39 35
-38 44 -43 49 -29 4 11 13 14 28 11 11 -3 34 1 51 9 24 13 34 14 52 4 18 -10
27 -9 48 5 14 9 28 23 31 32 4 9 13 13 22 9 8 -3 12 -2 9 4 -3 6 3 10 14 10
32 0 52 11 62 36 11 29 49 33 49 5 0 -10 7 -24 15 -31 13 -10 19 -10 35 5 11
10 20 29 20 42 0 35 23 24 34 -17 8 -26 6 -35 -7 -45 -21 -15 -12 -45 13 -45
20 0 32 22 24 43 -3 8 6 18 21 25 29 13 31 24 10 42 -12 10 -10 16 16 37 28
24 31 25 43 8 7 -10 18 -15 23 -12 6 4 28 0 49 -7 22 -8 33 -15 27 -15 -7 -1
-13 -10 -13 -21 0 -16 7 -20 30 -20 23 0 30 -5 30 -19 0 -31 29 -90 50 -101
10 -6 22 -26 26 -44 3 -19 15 -42 25 -52 21 -19 26 -64 7 -64 -6 0 0 -13 15
-28 18 -18 27 -39 27 -59 0 -18 4 -34 9 -37 5 -3 20 -27 34 -54 l25 -48 -21
-18 -22 -17 27 6 c38 10 49 0 38 -31 -9 -22 -6 -32 19 -63 26 -32 28 -38 15
-56 -19 -26 -18 -38 7 -54 16 -9 24 -10 29 -1 5 8 10 7 19 -4 13 -15 -1 -32
-18 -22 -4 3 -13 -6 -19 -19 -7 -15 -20 -25 -31 -25 -11 0 -25 -9 -31 -19 -8
-17 -6 -20 18 -26 32 -7 56 -47 38 -65 -8 -8 -6 -9 7 -4 21 7 47 -12 47 -35 0
-9 9 -22 20 -29 18 -11 20 -10 20 10 0 19 2 20 11 8 8 -11 9 -6 4 22 -3 20 -1
39 4 43 10 6 18 -15 23 -65 3 -22 9 -25 46 -28 l42 -3 0 78 c0 43 -5 135 -12
205 -9 98 -9 133 0 153 19 42 32 19 32 -56 0 -40 8 -93 19 -126 19 -59 41
-182 41 -228 l0 -25 395 0 395 0 -1 1243 c0 683 -3 1236 -6 1229 -9 -22 -43
34 -43 71 0 26 -7 41 -26 56 -15 12 -23 25 -18 32 5 9 -3 10 -31 5 -24 -5 -40
-3 -44 3 -5 8 -17 7 -40 -2 -29 -10 -34 -10 -43 6 -7 14 -17 17 -39 12 -26 -6
-29 -4 -29 18 0 59 -12 87 -36 87 -20 0 -24 -5 -24 -30 0 -32 -56 -100 -83
-100 -19 0 -29 -25 -21 -55 3 -13 3 -33 -1 -44 -7 -24 -35 -29 -35 -6 0 8 -9
15 -20 15 -24 0 -24 -3 -5 -39 8 -16 12 -31 9 -34 -3 -3 -8 -27 -12 -54 -6
-40 -11 -49 -30 -51 -16 -3 -22 -10 -22 -28 0 -26 -31 -47 -38 -26 -7 23 -27
11 -44 -27 -24 -51 -23 -81 2 -81 13 0 20 7 20 19 0 10 9 21 20 24 27 7 34
-22 15 -59 -11 -22 -23 -30 -52 -34 -41 -5 -39 2 -30 -90 2 -21 -2 -25 -24
-22 -29 3 -74 -17 -74 -33 1 -5 7 -21 14 -34 9 -17 11 -43 7 -90 -4 -36 -8
-81 -9 -99 -5 -47 -17 -55 -60 -37 -37 15 -37 15 -44 -12 -3 -16 -7 -51 -7
-80 -1 -67 -12 -55 -19 21 -3 34 -12 65 -21 74 -15 15 -16 9 -16 -68 -1 -80
-20 -213 -33 -226 -3 -3 -11 -3 -17 1 -8 5 -10 29 -7 71 4 53 2 66 -12 77 -10
6 -21 25 -25 40 -4 16 -17 31 -31 37 -32 12 -32 28 -1 40 13 5 27 13 30 18 3
6 15 8 26 5 14 -4 20 0 20 11 0 10 -8 15 -22 13 -31 -3 -36 35 -8 61 20 19 21
29 25 328 4 350 8 394 36 387 18 -5 18 -18 12 -304 -6 -276 -5 -299 11 -299
13 0 16 8 15 37 -1 21 0 64 1 97 l2 58 35 -5 c49 -8 74 22 66 78 -6 47 -7 61
-5 98 2 29 29 48 41 28 5 -8 14 -5 30 10 20 19 21 22 7 38 -24 26 -19 54 14
81 19 16 30 34 30 50 0 14 4 30 8 35 10 13 48 112 56 148 4 15 16 35 27 45 34
28 47 41 51 52 2 8 12 8 32 0 16 -6 33 -7 37 -3 16 16 -29 51 -91 70 -46 14
-68 27 -77 44 -7 14 -8 26 -3 29 10 6 -23 40 -39 40 -5 0 -14 -7 -21 -15 -17
-21 -41 -19 -47 4 -4 17 -36 35 -56 32 -4 -1 -10 6 -13 14 -13 33 -24 12 -24
-45 0 -52 -2 -60 -19 -60 -26 0 -42 109 -17 125 13 8 11 14 -17 41 l-32 32
-10 -41 c-9 -37 -35 -65 -35 -38 0 7 -7 27 -15 47 -13 31 -17 34 -36 24 -16
-9 -24 -8 -39 5 -12 11 -35 17 -59 17 -23 0 -43 3 -45 7 -3 4 11 7 30 6 18 -1
34 2 34 8 0 5 35 53 77 106 43 53 79 98 80 100 2 3 10 -5 19 -17 8 -12 23 -22
33 -22 10 0 26 -9 36 -20 10 -11 31 -20 47 -20 36 0 68 -16 68 -34 0 -8 9 -24
19 -37 17 -21 22 -22 40 -11 18 10 27 9 61 -13 21 -13 44 -34 50 -45 8 -14 17
-19 30 -15 15 5 25 -4 44 -34 17 -27 31 -39 41 -35 8 4 15 10 15 15 0 5 11 9
24 9 15 0 35 12 51 32 24 28 28 30 37 15 11 -21 28 -22 28 -1 0 9 -9 18 -21
21 -17 5 -20 11 -15 35 10 52 55 77 74 42 13 -24 25 1 12 25 -20 39 -12 85 21
119 33 34 57 40 77 20 9 -9 12 -9 12 -1 0 7 -4 15 -10 18 -15 9 -12 51 4 68
21 20 77 12 98 -14 20 -24 16 -39 -11 -39 -9 0 -28 -14 -41 -32 -21 -28 -21
-32 -6 -43 26 -19 21 -55 -8 -55 -31 0 -50 -24 -43 -56 8 -44 -49 -74 -81 -42
-9 9 -12 5 -12 -19 0 -18 5 -35 11 -38 6 -4 8 -13 5 -20 -3 -8 1 -19 9 -25 7
-6 12 -17 11 -25 -4 -26 -41 -85 -53 -85 -21 0 -33 -33 -19 -52 7 -10 16 -15
19 -11 4 3 7 1 7 -5 0 -7 -6 -12 -12 -12 -13 -1 51 -59 64 -60 4 0 19 -5 35
-11 l28 -11 -21 -17 c-28 -22 -50 -89 -35 -104 11 -11 11 -11 28 48 6 19 21
36 43 47 18 9 38 22 43 27 16 16 38 13 52 -6 10 -14 13 5 17 103 3 76 11 132
21 154 15 34 15 34 21 10 3 -14 7 -54 9 -90 2 -36 4 249 5 634 l2 698 -24 -6
c-29 -7 -76 41 -76 79 0 28 33 42 75 31 l25 -6 0 580 c0 319 -3 580 -7 580 -5
0 -35 -7 -68 -15 -48 -12 -320 -55 -346 -55 -4 0 -10 33 -14 73 -7 77 -41 315
-50 357 -3 14 -8 36 -11 50 -8 45 -14 54 -25 43 -7 -7 -5 -44 6 -119 19 -126
45 -340 45 -369 0 -17 -2 -17 -10 -5 -5 8 -10 11 -10 6 0 -5 -7 -3 -16 5 -13
11 -15 9 -10 -17 4 -21 2 -19 -7 8 -14 44 -31 63 -23 28 11 -53 16 -246 7
-260 -14 -21 -19 -12 -24 55 -11 120 -20 180 -30 187 -6 3 -10 20 -10 37 0 30
-1 31 -49 31 l-48 0 0 -40 c0 -22 -4 -40 -10 -40 -5 0 -10 5 -10 11 0 7 -12
23 -27 36 -20 19 -23 27 -13 33 10 6 6 14 -15 34 -25 23 -36 26 -106 26 l-79
0 0 40 0 40 -120 0 c-73 0 -120 4 -120 10 0 6 14 10 30 10 28 0 30 2 30 40 l0
40 -70 0 c-40 0 -70 -4 -70 -10 0 -5 -18 -10 -40 -10 -33 0 -40 3 -40 20 0 17
-7 20 -40 20 -22 0 -40 5 -40 10 0 6 -32 10 -75 10 -43 0 -75 4 -75 10 0 6
-35 10 -85 10 -50 0 -85 4 -85 10 0 6 33 10 80 10 47 0 80 4 80 10 0 6 -47 10
-120 10 -113 0 -120 1 -120 20 0 18 -7 20 -80 20 -47 0 -80 4 -80 10 0 6 18
10 40 10 22 0 40 5 40 10 0 6 -67 10 -180 10 -175 0 -180 -1 -180 -21 0 -28
-34 -21 -38 9 -4 26 -22 30 -23 5 0 -12 -2 -13 -6 -5 -3 7 3 22 13 33 19 21
12 38 -9 21 -18 -15 -26 -6 -20 19 6 22 19 25 26 7 3 -7 6 -3 6 10 1 26 -17
29 -34 6 -10 -14 -15 -8 -35 40 -12 31 -20 59 -16 63 3 3 0 11 -7 17 -7 6 -34
56 -59 111 -189 411 -257 545 -349 683 -27 40 -49 75 -49 77 0 3 -6 13 -14 22
-8 10 -27 33 -41 51 -17 21 -36 32 -52 32 -29 0 -29 15 7 -150 37 -168 49
-267 54 -478 3 -114 3 -199 0 -189 -8 26 -24 20 -25 -10 -1 -17 -3 -21 -6 -10
-3 12 -15 17 -44 17 -32 0 -39 3 -39 20 0 17 -7 20 -40 20 -33 0 -40 3 -40 20
0 16 -7 20 -35 20 -29 0 -35 -4 -36 -22 -1 -18 -2 -19 -6 -5 -2 9 -9 15 -14
12 -5 -4 -9 -2 -9 4 0 5 5 13 10 16 6 4 8 11 4 16 -3 5 -10 7 -15 4 -8 -6 -13
19 -11 55 0 8 -3 17 -7 20 -4 3 -12 21 -17 40 -9 30 -6 44 22 105 63 141 173
479 160 492 -13 13 -25 -14 -60 -128 -38 -127 -138 -379 -166 -419 -9 -14 -20
-37 -24 -52 -6 -27 -26 -39 -26 -16 0 6 -3 8 -6 5 -4 -4 -1 -13 6 -22 10 -12
9 -16 -4 -21 -9 -3 -14 -9 -12 -13 7 -11 -22 -43 -33 -36 -11 6 -12 3 -15 -47
-1 -15 -11 -40 -22 -55 -10 -16 -25 -40 -33 -55 -7 -14 -21 -28 -30 -31 -13
-3 -17 3 -16 30 0 33 8 42 20 23 12 -19 24 -10 36 29 10 35 9 41 -11 61 -17
17 -19 24 -10 30 10 6 6 15 -15 34 -33 31 -105 38 -105 11 0 -9 -6 -22 -12
-29 -11 -11 -17 -9 -38 13 l-25 26 -3 -27 c-4 -37 -15 -35 -35 7 -9 19 -23 35
-32 35 -15 0 -21 31 -8 44 13 12 103 312 103 341 0 9 4 23 10 33 11 20 39 127
50 190 l7 42 -70 0 c-78 0 -68 7 -149 -109 -28 -41 -61 -86 -74 -100 -12 -14
-38 -48 -57 -76 -19 -27 -40 -49 -47 -47 -6 1 -9 -2 -5 -7 3 -6 -20 -38 -52
-71 -32 -34 -67 -75 -78 -91 -18 -26 -45 -43 -30 -19 3 6 1 10 -5 10 -7 0 -10
-7 -6 -15 3 -9 -15 -37 -50 -75 -49 -52 -58 -58 -75 -47 -13 8 -19 23 -19 49
0 20 -6 39 -12 41 -10 4 -10 7 0 14 10 8 9 16 -4 42 -13 25 -20 30 -37 25 -11
-4 -29 -16 -38 -28 l-18 -21 6 22 c3 12 13 25 22 28 9 3 22 19 28 36 8 21 16
28 25 23 7 -4 10 -3 5 1 -8 9 13 46 48 85 22 25 39 72 29 82 -3 3 -31 -21 -64
-53 -32 -33 -67 -59 -77 -59 -15 0 -15 -2 -3 -10 12 -8 12 -10 -3 -16 -9 -3
-38 -26 -64 -50 -52 -47 -70 -56 -53 -25 13 26 13 31 -5 31 -10 0 -15 -10 -15
-34 0 -32 -19 -63 -21 -34 0 7 -5 4 -10 -7 -8 -17 -8 -15 -4 8 9 48 12 72 8
60 -6 -16 -31 -5 -44 20 -11 19 -9 20 32 14 24 -3 36 -3 27 0 -10 2 -18 9 -18
14 0 5 -36 9 -80 9 -73 0 -80 2 -80 20 0 17 -7 20 -40 20 -33 0 -40 -3 -40
-20 0 -17 -7 -20 -40 -20 -33 0 -40 3 -40 20 0 18 -7 20 -80 20 -47 0 -80 4
-80 10 0 6 18 10 40 10 22 0 40 5 40 10 0 6 -60 10 -160 10 l-160 0 0 30 c0
20 -5 30 -15 30 -8 0 -15 7 -15 15 0 8 4 15 9 15 5 0 11 -7 15 -15 6 -17 86
-22 86 -5 0 6 -18 10 -40 10 -25 0 -40 5 -40 13 0 6 -3 22 -6 34 -5 19 -3 21
17 16 19 -5 21 -3 15 12 -8 21 31 68 47 58 6 -3 7 -2 4 4 -3 5 7 25 24 44 l29
34 -98 3 c-80 3 -104 0 -137 -16 -22 -11 -56 -27 -75 -36 -19 -9 -66 -34 -105
-56 -38 -21 -81 -45 -95 -53 -14 -8 -63 -38 -110 -67 -47 -30 -119 -71 -160
-93 -41 -22 -92 -51 -112 -63 -21 -13 -46 -24 -57 -24 -11 0 -23 -9 -26 -20
-3 -11 -12 -20 -18 -20 -7 0 -30 -9 -51 -21 -21 -11 -35 -16 -32 -11 3 5 26
19 52 31 25 12 44 27 41 34 -2 7 -26 13 -55 15 -29 2 -52 7 -52 13 0 5 -18 9
-40 9 -29 0 -40 4 -40 15 0 11 11 15 40 15 36 0 40 3 40 25 0 21 -5 25 -29 25
-16 0 -31 6 -34 13 -2 6 -8 8 -13 4 -5 -4 -2 -12 5 -17 12 -7 12 -11 -2 -24
-17 -17 -87 -22 -87 -6 0 6 -9 10 -20 10 -11 0 -20 -6 -20 -14 0 -14 -41 -26
-87 -26 -16 0 -27 7 -30 20 -4 16 -14 20 -53 20 -43 0 -49 -3 -54 -25 -4 -14
-10 -25 -15 -25 -9 0 -41 77 -41 98 0 9 -32 12 -120 12 -73 0 -120 4 -120 10
0 6 47 10 120 10 73 0 120 4 120 10 0 6 -100 10 -280 10 -180 0 -280 -4 -280
-10 0 -6 35 -11 83 -12 45 -1 63 -3 40 -5 -40 -4 -43 -6 -43 -33 0 -27 3 -29
43 -33 l42 -4 -42 -1 c-36 -2 -43 -5 -43 -22 0 -17 -7 -20 -40 -20 -38 0 -40
2 -40 30 0 28 -2 30 -40 30 -22 0 -40 -4 -40 -10 0 -5 -4 -10 -10 -10 -5 0
-10 18 -10 40 0 38 -2 40 -30 40 -16 0 -30 -5 -30 -11 0 -14 -55 -69 -69 -69
-6 0 -11 -13 -11 -30 0 -29 -2 -30 -43 -30 -24 0 -48 5 -55 12 -9 9 -12 7 -12
-9 0 -12 -4 -25 -10 -28 -6 -4 -7 1 -3 12 6 16 5 16 -10 5 -14 -12 -15 -10
-11 25 3 21 13 58 21 83 14 38 17 41 25 25 6 -15 7 -13 3 8 -3 15 0 37 6 48
15 28 -7 54 -22 27 -6 -10 -15 -18 -22 -18 -17 0 -75 -93 -83 -133 -2 -11 -13
-30 -24 -42 -11 -12 -20 -29 -20 -38 0 -24 -28 -21 -51 6 l-20 22 6 -22 c6
-21 3 -23 -36 -23 -28 0 -46 -6 -55 -17 -13 -17 -13 -17 -14 1 0 22 45 173 65
221 8 17 21 53 30 80 10 28 26 68 36 89 10 22 16 42 13 45 -12 12 -39 -18 -52
-57 -7 -23 -19 -42 -25 -42 -40 0 -316 65 -380 89 -16 6 -47 11 -70 10 l-42
-1 70 -24 c65 -22 213 -64 278 -78 l27 -6 -25 -28 c-14 -15 -25 -32 -25 -38 0
-6 -11 -21 -25 -34 -14 -13 -25 -28 -25 -34 0 -6 -18 -34 -40 -63 -40 -53 -95
-146 -127 -215 -18 -39 -39 -53 -28 -19 3 10 -1 23 -8 30 -12 9 -14 5 -13 -19
1 -16 4 -30 9 -30 4 0 7 -9 7 -20 0 -11 -7 -20 -15 -20 -8 0 -20 9 -27 20 -13
21 -48 28 -48 10 0 -5 6 -10 13 -10 6 0 17 -15 23 -34 9 -29 8 -33 -8 -32 -10
1 -22 6 -26 11 -4 6 -17 19 -30 29 -23 20 -23 20 -17 0 5 -13 -1 -10 -19 11
-14 17 -26 35 -26 41 0 7 -7 14 -15 18 -8 3 -15 12 -15 21 0 8 -5 15 -11 15
-6 0 -9 7 -6 14 4 9 1 13 -6 11 -7 -3 -28 20 -47 52 -19 31 -42 63 -50 71 -18
18 -19 97 -2 114 7 7 12 18 12 26 0 8 6 28 14 45 23 49 66 156 66 162 0 3 -4
5 -8 5 -5 0 -32 -57 -60 -127z m3286 -121 c2 -7 -6 -12 -17 -12 -12 0 -21 -5
-21 -12 0 -6 -3 -9 -6 -6 -3 4 0 16 6 28 12 22 31 23 38 2z m-58 -53 c0 -6 -4
-7 -10 -4 -5 3 -10 11 -10 16 0 6 5 7 10 4 6 -3 10 -11 10 -16z m-1502 -36
c-3 -15 -15 -18 -78 -18 -63 0 -75 3 -78 18 -3 15 6 17 78 17 72 0 81 -2 78
-17z m2953 -88 c-7 -38 -23 -117 -37 -175 -13 -58 -29 -127 -36 -155 -16 -73
-79 -261 -138 -416 -105 -270 -347 -714 -467 -857 l-28 -33 -67 43 c-37 24
-109 69 -160 102 -50 32 -126 86 -167 120 -133 108 -206 156 -136 89 23 -21
59 -53 80 -71 22 -18 36 -31 30 -29 -5 3 -36 17 -69 31 -32 15 -61 25 -63 22
-5 -4 31 -22 161 -81 32 -14 77 -41 100 -60 23 -18 70 -53 106 -77 139 -94
160 -110 160 -118 0 -5 -27 -39 -59 -77 -33 -37 -58 -69 -57 -70 6 -6 81 30
132 64 52 34 55 35 78 19 35 -23 67 -20 110 9 53 36 60 31 31 -18 -14 -24 -25
-47 -25 -51 0 -4 20 7 45 24 47 32 64 55 19 25 -14 -9 -28 -14 -31 -11 -6 6
29 59 65 99 32 34 17 35 -29 1 -64 -48 -102 -64 -122 -49 -24 17 -21 32 11 52
15 10 29 20 32 23 3 3 25 23 50 44 58 50 221 210 381 373 162 165 273 298 373
444 45 65 113 164 152 221 39 57 86 130 104 163 18 33 38 67 44 75 7 8 25 42
41 75 l29 60 17 -75 c20 -88 63 -338 85 -495 20 -140 28 -594 16 -890 -4 -121
-7 -222 -6 -224 6 -7 34 68 80 209 42 132 56 187 100 390 38 173 77 409 90
535 8 77 15 144 17 149 3 10 88 -150 115 -219 11 -27 34 -79 50 -115 38 -83
73 -167 102 -250 12 -36 37 -105 55 -155 18 -49 47 -146 66 -214 l33 -123 -22
-17 c-12 -9 -48 -29 -80 -46 -31 -16 -71 -39 -88 -52 -17 -13 -151 -84 -297
-158 -146 -74 -262 -135 -258 -135 23 0 187 54 214 71 29 18 43 19 152 13 140
-8 152 3 15 14 l-93 7 49 31 c27 17 60 37 74 44 14 7 27 16 30 19 4 5 270 141
311 159 7 3 55 -196 63 -268 4 -25 11 -71 17 -104 15 -85 11 -90 -53 -66 -29
12 -66 27 -83 35 -60 29 -253 58 -340 51 -217 -18 -473 -82 -505 -126 -8 -11
-27 -37 -43 -57 -30 -40 -30 -50 3 -33 18 10 150 60 157 60 1 0 -16 -35 -38
-77 -43 -85 -127 -328 -117 -339 4 -3 20 -2 35 4 39 13 94 -6 110 -38 15 -30
17 -99 4 -133 -5 -14 -21 -36 -36 -51 -26 -26 -33 -29 -115 -43 l-45 -9 -3
-72 c-2 -40 2 -98 8 -130 7 -38 7 -58 0 -60 -21 -7 -9 -33 29 -60 92 -67 297
-154 460 -197 71 -18 92 -15 31 5 -22 7 -40 17 -40 22 0 5 32 40 70 77 72 70
81 89 55 111 -13 11 -29 -1 -105 -74 -49 -47 -96 -86 -104 -86 -9 0 -76 29
-149 64 -143 69 -142 68 -167 161 -6 22 -13 83 -17 136 l-6 95 40 12 c22 6 48
21 58 32 24 27 42 25 49 -4 3 -14 27 -48 54 -76 41 -45 53 -53 94 -57 75 -9
132 13 189 70 27 27 59 71 71 98 13 27 27 49 33 49 6 0 23 -21 38 -47 l29 -47
-32 -85 c-44 -120 -44 -115 -15 -128 14 -6 27 -8 29 -4 13 20 87 227 106 294
33 119 70 351 70 438 0 52 4 79 11 79 6 0 29 -17 50 -39 35 -34 39 -44 39 -87
-1 -99 -45 -371 -76 -462 -27 -81 -31 -111 -8 -69 8 15 19 27 24 27 10 0 -2
-44 -50 -185 l-30 -90 65 65 c37 36 91 96 122 133 31 37 58 65 60 63 4 -4 -40
-165 -87 -321 -5 -16 -23 -84 -41 -150 -132 -496 -320 -1092 -381 -1208 -61
-115 -322 -331 -598 -494 -59 -35 -419 -217 -515 -261 -49 -22 -160 -74 -245
-115 -85 -41 -182 -86 -215 -100 -145 -61 -229 -99 -302 -136 -126 -64 -130
-64 -295 15 -184 89 -253 127 -481 262 -194 116 -465 291 -574 372 -34 25 -92
68 -129 95 -38 28 -75 57 -84 65 -8 8 -58 51 -109 95 -86 73 -252 238 -378
375 -28 30 -108 142 -179 249 -70 106 -139 200 -152 209 -24 16 -92 19 -252
12 -70 -3 -79 -1 -129 29 -120 71 -275 204 -436 372 -55 57 -114 117 -131 134
-77 73 -202 246 -245 339 -55 117 -48 257 22 473 55 171 89 242 148 317 76 95
161 144 161 93 0 -8 11 -48 24 -88 l24 -74 -57 -57 c-68 -69 -156 -209 -147
-235 5 -13 19 4 54 65 55 96 90 142 131 171 l29 21 16 -47 c16 -48 16 -48 -8
-66 -31 -23 -97 -127 -129 -203 -43 -104 -70 -228 -65 -303 3 -63 7 -72 55
-138 63 -83 260 -277 358 -350 107 -81 217 -134 214 -105 0 4 -30 22 -67 39
-149 72 -461 366 -529 497 -9 17 -15 50 -14 73 2 57 44 216 75 283 47 102 106
190 126 190 4 0 20 -33 35 -72 74 -190 140 -331 201 -426 39 -61 40 -65 15
-100 -32 -47 -102 -175 -97 -179 10 -10 27 10 65 75 22 37 47 76 55 87 17 22
17 22 54 -32 117 -169 154 -218 204 -275 l60 -68 -22 -35 c-29 -48 -16 -59 19
-16 l28 34 13 -32 c8 -20 16 -29 22 -23 6 6 -18 67 -65 163 -64 133 -159 360
-182 438 -4 13 43 -43 105 -125 61 -82 149 -186 193 -232 81 -82 197 -182 213
-182 4 0 15 -6 23 -14 9 -8 42 -29 75 -46 l59 -33 -31 45 c-16 24 -41 64 -54
88 -90 164 -119 222 -115 226 2 2 44 -30 93 -72 111 -95 232 -186 395 -296
137 -92 314 -188 307 -166 -3 7 -13 18 -24 23 -37 19 -44 26 -38 37 5 7 12 4
21 -7 8 -12 13 -14 13 -6 0 13 25 -16 46 -54 20 -35 37 -30 20 6 -69 158 -164
369 -197 441 -48 107 -165 455 -156 465 4 4 38 -22 75 -58 152 -147 439 -359
341 -251 -14 15 -45 65 -68 112 -24 47 -47 90 -51 95 -7 9 -106 218 -179 378
-140 305 -212 571 -210 769 1 56 4 92 6 78 10 -56 42 -169 68 -235 15 -38 35
-92 45 -120 20 -53 99 -215 100 -203 0 4 -9 42 -21 84 -11 41 -18 78 -16 81 3
3 17 -18 31 -45 26 -52 53 -80 43 -46 -49 165 -78 565 -48 656 11 34 16 37
119 71 125 42 372 87 372 68 0 -4 -8 -16 -19 -27 -22 -24 -63 -89 -98 -153
-22 -41 -94 -275 -105 -343 l-5 -27 35 14 c51 22 150 19 189 -5 43 -26 56 -54
50 -104 l-6 -41 16 29 c13 25 14 35 3 64 -10 28 -10 36 1 43 34 21 42 11 36
-47 -13 -127 70 -311 174 -385 37 -26 97 -27 153 -4 55 23 196 168 225 233 14
28 27 52 31 52 10 0 45 -41 65 -76 17 -31 17 -34 -5 -115 l-22 -82 24 -19 c31
-24 35 -23 47 15 55 173 93 418 94 624 1 90 4 163 6 163 6 0 102 -51 162 -87
69 -40 76 -41 51 -5 -23 32 -54 103 -48 109 2 3 14 0 25 -7 12 -6 21 -9 21 -6
0 14 -249 145 -375 198 -247 103 -416 148 -595 157 -145 8 -147 6 60 77 74 25
176 64 227 85 51 21 97 39 104 39 7 0 37 -20 67 -45 76 -63 89 -56 19 11 -33
30 -57 56 -55 58 5 3 166 95 213 121 60 33 151 92 240 155 44 31 136 97 205
146 311 220 537 423 736 661 77 92 83 90 65 -22z m-1221 35 c0 -5 -4 -10 -10
-10 -5 0 -10 5 -10 10 0 6 5 10 10 10 6 0 10 -4 10 -10z m-1270 -18 c0 -5 -7
-17 -16 -28 -15 -18 -15 -18 -5 2 6 12 7 24 4 28 -3 3 -1 6 5 6 7 0 12 -4 12
-8z m133 1 c-7 -2 -19 -2 -25 0 -7 3 -2 5 12 5 14 0 19 -2 13 -5z m1647 -8 c0
-17 -16 -20 -25 -5 -10 16 -45 12 -52 -6 -3 -8 -1 -20 6 -27 14 -14 14 -27 1
-27 -5 0 -10 7 -10 15 0 8 -8 19 -19 24 -10 6 -21 17 -25 26 -4 12 5 15 59 15
51 0 65 -3 65 -15z m-1820 1 c0 -3 -4 -8 -10 -11 -5 -3 -10 -1 -10 4 0 6 5 11
10 11 6 0 10 -2 10 -4z m217 -2 c-3 -3 -12 -4 -19 -1 -8 3 -5 6 6 6 11 1 17
-2 13 -5z m-1577 -15 c0 -5 5 -7 10 -4 6 3 10 -1 10 -9 0 -20 -17 -30 -23 -14
-4 8 -6 7 -6 -4 -1 -9 -5 -19 -9 -22 -4 -2 -6 11 -4 30 4 30 22 50 22 23z
m-764 -51 c9 -18 13 -40 9 -55 -4 -16 -2 -22 5 -18 5 3 10 14 10 23 0 9 12 -1
30 -25 17 -23 28 -48 24 -56 -3 -10 2 -18 15 -22 12 -3 19 -11 15 -16 -3 -6
-21 5 -39 24 -33 34 -34 35 -52 15 -17 -19 -18 -19 -25 8 -4 14 -5 41 -2 58 4
24 3 27 -5 16 -9 -12 -11 -10 -11 13 0 15 6 27 13 27 6 0 4 5 -5 11 -10 5 -18
17 -18 25 0 22 17 8 36 -28z m654 -5 c-11 -17 -11 -17 -6 0 3 10 6 24 7 30 0
9 2 9 5 0 3 -7 0 -20 -6 -30z m-30 -8 c0 -14 -4 -25 -9 -25 -4 0 -6 11 -3 25
2 14 6 25 8 25 2 0 4 -11 4 -25z m1580 4 c0 -5 -6 -9 -13 -9 -8 0 -14 6 -14
14 0 8 6 12 14 9 7 -3 13 -9 13 -14z m68 4 c-20 -5 -25 -23 -7 -23 8 0 8 -5
-1 -15 -10 -12 -10 -15 1 -16 8 0 5 -4 -6 -8 -28 -12 -42 -1 -19 16 15 11 16
15 5 22 -19 12 -5 31 22 30 17 -1 18 -2 5 -6z m1732 -2 c0 -6 -4 -13 -10 -16
-5 -3 -10 1 -10 9 0 9 5 16 10 16 6 0 10 -4 10 -9z m-3253 -43 c-3 -7 -5 -2
-5 12 0 14 2 19 5 13 2 -7 2 -19 0 -25z m3540 -121 c13 5 13 2 -2 -20 -9 -15
-18 -27 -20 -27 -1 0 -2 15 -2 33 -1 17 1 27 4 20 2 -7 11 -9 20 -6z m-4077
-33 c0 -8 -4 -12 -10 -9 -5 3 -10 10 -10 16 0 5 5 9 10 9 6 0 10 -7 10 -16z
m4002 -41 c-15 -3 -22 -10 -18 -18 3 -9 0 -12 -10 -8 -30 11 -9 32 31 31 16
-1 15 -2 -3 -5z m978 -7 c0 -3 -4 -8 -10 -11 -5 -3 -10 -1 -10 4 0 6 5 11 10
11 6 0 10 -2 10 -4z m-5163 -28 c-3 -8 -6 -5 -6 6 -1 11 2 17 5 13 3 -3 4 -12
1 -19z m5359 -38 c18 0 28 -43 15 -67 -5 -11 -7 -30 -4 -43 4 -14 2 -21 -4
-17 -6 4 -13 31 -17 61 -3 30 -7 60 -9 68 -2 7 -2 10 0 6 3 -5 11 -8 19 -8z
m-282 -15 c-4 -8 -8 -15 -10 -15 -2 0 -4 7 -4 15 0 8 4 15 10 15 5 0 7 -7 4
-15z m546 -92 c0 -28 -3 -34 -10 -23 -13 20 -13 60 0 60 6 0 10 -17 10 -37z
m-604 -61 c-15 -15 -15 -15 -4 10 7 15 15 23 17 17 2 -6 -4 -18 -13 -27z m611
-39 c-3 -10 -5 -2 -5 17 0 19 2 27 5 18 2 -10 2 -26 0 -35z m-250 0 c-3 -10
-5 -4 -5 12 0 17 2 24 5 18 2 -7 2 -21 0 -30z m-411 2 c-9 -9 -16 -13 -16 -8
0 12 22 34 28 28 2 -2 -3 -11 -12 -20z m421 -57 c-3 -8 -6 -5 -6 6 -1 11 2 17
5 13 3 -3 4 -12 1 -19z m10 -60 c-3 -7 -5 -2 -5 12 0 14 2 19 5 13 2 -7 2 -19
0 -25z m-2124 -41 c-95 -82 -216 -180 -251 -201 -15 -9 -52 19 -52 39 0 6 39
31 86 54 47 23 120 64 162 91 89 58 108 64 55 17z m2134 -69 c-3 -7 -5 -2 -5
12 0 14 2 19 5 13 2 -7 2 -19 0 -25z m10 -65 c-3 -10 -5 -4 -5 12 0 17 2 24 5
18 2 -7 2 -21 0 -30z m863 -18 c0 -8 -2 -15 -4 -15 -2 0 -6 7 -10 15 -3 8 -1
15 4 15 6 0 10 -7 10 -15z m-3314 -48 l27 -24 -42 -29 c-23 -16 -67 -47 -99
-70 -31 -22 -79 -53 -107 -69 -27 -16 -79 -48 -115 -71 -118 -75 -145 -85
-274 -100 -67 -8 -156 -21 -200 -29 -43 -9 -81 -14 -83 -11 -3 3 5 22 18 43
13 21 29 46 34 57 10 19 65 40 230 86 111 31 245 85 415 168 80 39 150 71 157
72 7 0 24 -10 39 -23z m2461 -114 c-3 -10 -5 -4 -5 12 0 17 2 24 5 18 2 -7 2
-21 0 -30z m134 -85 c-6 -17 -8 -35 -4 -42 4 -7 2 -8 -5 -1 -6 6 -8 30 -5 59
5 37 8 44 15 32 6 -11 6 -28 -1 -48z m-134 -15 c-2 -16 -4 -5 -4 22 0 28 2 40
4 28 2 -13 2 -35 0 -50z m108 -130 c-3 -23 -11 -43 -17 -43 -9 0 -8 17 6 70 3
8 5 26 7 40 l2 25 4 -24 c3 -13 2 -44 -2 -68z m2422 -20 c-3 -10 -5 -2 -5 17
0 19 2 27 5 18 2 -10 2 -26 0 -35z m-2510 -25 c-3 -8 -6 -5 -6 6 -1 11 2 17 5
13 3 -3 4 -12 1 -19z m59 -8 c12 0 13 -8 8 -37 -9 -53 -22 -63 -22 -17 1 22
-1 48 -4 59 -3 11 -3 14 -1 8 3 -7 11 -13 19 -13z m-3429 -56 c-16 -9 -32 -13
-35 -9 -9 9 19 25 43 24 16 0 15 -2 -8 -15z m3401 -128 c-7 -31 -16 -56 -20
-56 -5 0 -8 -12 -9 -27 0 -16 -9 -50 -19 -78 l-18 -50 0 53 c0 29 4 55 8 57 5
3 6 22 3 43 -4 32 -1 38 19 47 12 6 23 15 23 20 1 19 17 57 22 52 2 -3 -1 -30
-9 -61z m-37 24 c5 0 9 -5 9 -11 0 -8 -5 -8 -15 1 -8 7 -14 20 -14 29 1 13 2
13 6 -1 2 -10 9 -18 14 -18z m2803 -278 c-14 -21 -74 -29 -74 -9 0 18 62 48
75 36 6 -6 6 -16 -1 -27z m107 -200 c-18 -6 -13 -30 9 -42 20 -11 20 -11 -1
-52 -11 -22 -18 -49 -16 -59 3 -12 0 -19 -9 -19 -8 0 -13 5 -11 11 5 24 -21
19 -27 -5 -3 -14 -17 -37 -31 -52 -26 -28 -34 -77 -14 -90 6 -3 24 4 41 16
l30 22 27 -26 c15 -14 31 -26 35 -26 9 0 70 -60 65 -64 -17 -15 -50 -24 -68
-19 -13 3 -29 -1 -41 -12 -22 -20 -40 -13 -40 16 0 24 0 24 -71 -2 -65 -24
-102 -21 -75 7 29 29 19 40 -40 40 -30 1 -59 5 -64 10 -9 9 45 294 58 305 4 3
36 13 71 22 60 14 65 14 97 -4 33 -18 34 -18 44 1 5 10 10 26 10 36 0 14 2 14
16 3 10 -8 12 -15 5 -17z m-795 -348 c31 -146 41 -416 24 -627 -11 -131 -32
-262 -44 -275 -3 -3 -7 21 -8 54 -2 81 -2 82 -15 95 -10 10 -14 7 -21 -12 -7
-18 -5 -27 6 -35 13 -10 10 -18 -26 -61 -25 -30 -42 -59 -41 -74 l0 -24 11 23
c6 12 17 22 25 22 23 0 27 -29 8 -64 -17 -31 -17 -35 -1 -66 9 -18 16 -41 16
-52 0 -33 -39 -132 -71 -178 -30 -44 -32 -45 -77 -41 -26 2 -52 7 -59 13 -18
14 -24 -6 -12 -41 16 -46 0 -103 -34 -119 -34 -16 -34 -42 -2 -72 33 -31 32
-40 -8 -72 -23 -18 -38 -23 -48 -17 -8 5 -22 9 -32 9 -15 0 -18 -7 -15 -32 4
-37 19 -45 42 -23 9 9 20 13 26 10 14 -9 12 -33 -4 -42 -7 -4 -23 -26 -34 -49
-18 -34 -26 -41 -52 -42 -18 0 -34 -3 -36 -5 -12 -11 -5 -97 9 -117 12 -17 13
-29 6 -48 -6 -15 -8 -36 -5 -48 5 -18 -1 -26 -32 -41 -43 -21 -52 -56 -14 -61
27 -4 29 -18 2 -25 -13 -3 -20 -14 -20 -30 0 -18 -8 -28 -32 -37 -18 -7 -45
-24 -59 -37 -31 -28 -53 -23 -69 17 -7 16 -19 31 -27 34 -21 8 -15 38 33 166
7 19 18 54 24 78 11 45 32 55 49 24 14 -27 67 -82 79 -82 23 0 33 28 20 52
-18 33 -29 39 -58 34 -15 -3 -34 3 -49 15 -23 19 -23 22 -11 62 19 59 40 75
31 24 -1 -7 58 0 67 8 1 1 -2 15 -8 30 -8 22 -15 26 -35 23 -22 -5 -25 -2 -25
24 0 46 17 70 40 58 25 -13 30 -13 30 5 0 8 -10 19 -21 26 -23 12 -23 13 1
139 5 25 12 65 16 88 4 24 13 46 20 49 8 3 14 12 14 20 0 8 -4 12 -9 9 -10 -6
-9 99 1 110 4 4 19 -1 33 -10 14 -9 30 -14 35 -11 17 10 0 31 -35 44 l-35 12
16 37 c13 33 13 38 -1 48 -12 9 -15 34 -15 123 0 61 2 111 3 111 2 0 19 -8 38
-17 19 -9 41 -18 49 -19 8 -1 25 -6 38 -9 19 -6 22 -4 22 19 0 21 7 29 30 37
32 12 39 35 18 68 -10 16 -6 25 25 62 38 43 42 63 20 87 -17 17 -16 62 0 87 7
11 21 41 31 68 10 26 21 45 26 42 4 -3 19 5 34 16 23 18 24 23 14 42 -20 36
-18 46 13 76 19 20 25 32 18 37 -7 4 -9 26 -6 57 6 63 99 358 110 348 4 -4 19
-61 33 -127z m864 -134 c0 -4 -6 -13 -14 -19 -10 -9 -16 -8 -26 3 -6 9 -9 19
-6 25 7 10 46 3 46 -9z m-11 -74 c7 -8 12 -40 12 -71 1 -64 2 -64 -110 -146
-67 -48 -87 -56 -142 -58 -22 -1 -39 -7 -42 -15 -3 -8 -23 -18 -44 -22 -44 -8
-135 -48 -175 -76 -16 -11 -28 -16 -28 -11 0 4 -4 1 -10 -7 -16 -26 -24 0 -11
38 27 77 126 320 129 317 2 -2 23 2 47 10 24 7 46 10 49 7 4 -3 6 -20 6 -39 0
-26 4 -33 19 -33 11 0 22 4 26 10 3 5 13 6 23 3 9 -3 14 -3 10 2 -10 11 10 45
27 45 8 0 21 10 30 22 12 17 29 24 73 29 93 10 99 10 111 -5z m131 -517 c0 -5
-7 -9 -15 -9 -15 0 -20 12 -9 23 8 8 24 -1 24 -14z m-6278 2 c2 6 9 -1 16 -15
11 -24 10 -26 -6 -17 -10 6 -25 18 -33 28 -13 16 -12 17 3 5 12 -9 17 -10 20
-1z m42 -6 c3 -8 1 -15 -4 -15 -6 0 -10 7 -10 15 0 8 2 15 4 15 2 0 6 -7 10
-15z m24 -65 c-2 -5 -9 -6 -16 -1 -7 4 -10 15 -6 25 6 17 8 17 16 2 5 -9 8
-21 6 -26z m5332 -261 c0 -5 -9 -9 -20 -9 -13 0 -18 5 -14 14 6 15 34 11 34
-5z m-5435 -347 c-6 -7 -34 11 -29 19 3 5 11 3 19 -4 7 -6 12 -13 10 -15z
m5345 -192 c0 -5 -4 -10 -10 -10 -5 0 -10 5 -10 10 0 6 5 10 10 10 6 0 10 -4
10 -10z m-81 -341 c1 -140 -2 -173 -17 -207 l-18 -40 -12 93 c-7 51 -11 103
-8 116 7 32 16 109 22 194 14 189 31 104 33 -156z m169 234 c2 -20 -2 -32 -12
-36 -13 -5 -16 2 -16 34 0 48 23 50 28 2z m702 -154 c0 -18 -2 -19 -15 -9 -15
12 -12 30 6 30 5 0 9 -10 9 -21z m-6416 -479 c55 -52 104 -101 110 -108 6 -7
19 -22 28 -32 9 -10 13 -21 10 -25 -4 -4 1 -13 11 -20 10 -7 18 -17 18 -22 -1
-18 303 -343 321 -343 7 0 78 -66 212 -195 60 -58 182 -159 301 -248 59 -44
96 -71 129 -93 45 -30 39 -38 -39 -48 -58 -8 -284 -56 -429 -92 -56 -13 -141
-34 -191 -45 -49 -12 -139 -36 -200 -55 -60 -18 -170 -52 -244 -74 -73 -23
-136 -38 -140 -35 -3 4 -7 50 -9 103 -3 132 -30 611 -42 747 -32 383 -45 498
-71 650 -17 94 -33 181 -36 194 -4 16 23 -8 78 -70 46 -52 129 -137 183 -189z
m5109 98 c-4 -28 -10 -38 -23 -38 -25 0 -37 40 -16 52 9 5 16 19 16 31 0 18 2
19 14 7 9 -10 12 -29 9 -52z m432 -15 c-4 -32 -7 -82 -6 -113 0 -30 -2 -63 -5
-73 -6 -18 -6 -18 -20 0 -18 24 -17 68 2 122 10 31 12 47 4 55 -11 11 -14 49
-3 59 3 4 13 7 21 7 12 0 13 -11 7 -57z m-6097 -161 c106 -140 222 -302 222
-308 0 -3 6 -11 13 -18 6 -8 23 -26 36 -41 19 -23 20 -27 5 -21 -16 6 -66 14
-218 34 -55 8 -58 13 -75 117 -5 28 -22 112 -40 187 -17 76 -31 140 -31 143 0
18 24 -7 88 -93z m5297 -66 c-14 -14 -28 -26 -30 -26 -6 0 15 49 35 80 l15 24
3 -26 c2 -17 -5 -34 -23 -52z m-4527 -71 c-3 -3 -9 2 -12 12 -6 14 -5 15 5 6
7 -7 10 -15 7 -18z m-1448 -165 c0 -5 7 -7 15 -4 12 5 13 -4 9 -48 -7 -81 -12
-98 -29 -92 -9 4 -23 -4 -36 -20 -27 -35 -40 -33 -40 7 0 17 -2 56 -5 85 -8
72 -3 82 46 82 22 0 40 -4 40 -10z m4513 -21 c-4 -13 -9 -17 -15 -11 -11 11
-3 32 12 32 4 0 6 -9 3 -21z m-4186 -69 c30 0 21 -17 -12 -20 -34 -4 -46 0
-40 10 3 5 -6 12 -20 16 -13 3 -22 10 -19 15 3 5 18 2 34 -6 16 -8 41 -15 57
-15z m580 -11 c23 -11 49 -19 57 -19 22 0 25 -10 16 -55 -7 -39 -10 -34 -14
25 -1 9 -12 15 -28 16 -15 1 -25 -3 -22 -7 3 -5 0 -18 -6 -30 -7 -12 -9 -37
-5 -59 5 -30 12 -39 30 -42 26 -5 38 11 29 37 -4 8 -1 15 5 15 6 0 11 -17 11
-40 0 -33 -3 -40 -20 -40 -11 0 -20 -6 -20 -14 0 -8 8 -13 18 -12 14 3 19 -9
27 -68 7 -48 7 -77 0 -88 -13 -24 -29 -23 -22 2 4 16 0 20 -19 20 -16 0 -24 6
-25 18 0 14 -2 14 -9 -3 -12 -28 -12 -65 0 -65 6 0 10 8 10 18 0 14 2 15 10 2
5 -8 10 -30 10 -47 0 -18 5 -33 10 -33 10 0 14 14 11 38 -3 21 16 13 25 -10 6
-19 8 -16 11 20 2 23 8 42 14 42 5 0 9 9 9 20 0 11 -4 20 -10 20 -6 0 -10 57
-10 152 l0 153 28 -28 c30 -31 26 0 57 -405 12 -164 14 -240 7 -256 -8 -18
-27 -26 -88 -41 -71 -16 -145 -44 -119 -44 6 0 48 11 94 24 136 40 131 43 131
-75 l0 -100 -32 -14 c-18 -8 -80 -33 -139 -55 -139 -53 -246 -103 -288 -135
-19 -14 -43 -26 -53 -26 -10 0 -33 21 -53 49 -52 72 -78 86 -152 82 -38 -1
-63 2 -63 8 0 40 141 112 332 171 43 13 76 25 74 27 -2 2 -40 -7 -85 -19 -90
-24 -107 -19 -94 29 4 18 1 23 -13 23 -9 0 -25 -6 -33 -14 -30 -25 -69 -28
-91 -6 -24 24 -25 33 -4 65 17 27 37 25 27 -2 -4 -11 -3 -14 5 -9 7 4 12 16
12 26 0 29 17 33 40 10 30 -30 56 -22 52 15 -2 16 -7 34 -11 40 -4 5 -6 29 -5
53 3 32 0 42 -11 42 -8 0 -15 -9 -15 -19 0 -10 -7 -21 -15 -25 -8 -3 -15 0
-15 6 0 16 31 48 47 48 8 0 13 12 13 35 0 31 -3 35 -25 35 -14 0 -34 -5 -44
-11 -11 -7 -29 -9 -47 -4 -16 4 -24 9 -18 12 9 3 8 13 -3 34 -18 35 -6 75 24
85 10 3 28 11 41 17 19 9 25 7 38 -11 28 -40 61 -20 41 24 -7 16 -5 28 8 47
13 20 14 33 7 59 -7 26 -6 37 5 47 11 10 13 25 9 55 -6 35 -3 46 14 61 17 16
25 17 59 7 65 -20 75 -17 67 21 -14 74 -15 70 49 88 65 18 78 17 142 -12z
m-219 -56 l3 -32 -50 17 c-28 9 -51 19 -51 23 0 10 51 28 75 26 15 -1 21 -11
23 -34z m-516 -10 c21 -19 24 -71 5 -97 -8 -10 -29 -20 -49 -22 -39 -5 -61 13
-71 56 -13 56 71 103 115 63z m4403 1 c26 -10 35 -20 31 -30 -3 -9 1 -22 9
-30 13 -14 13 -18 -3 -39 -22 -31 -62 -34 -62 -5 0 11 -6 23 -14 26 -15 6 -20
94 -6 94 4 0 24 -7 45 -16z m-4551 -13 c7 -11 -3 -41 -13 -41 -4 0 -8 11 -9
25 -2 25 11 34 22 16z m338 -13 c-7 -7 -12 -8 -12 -2 0 14 12 26 19 19 2 -3
-1 -11 -7 -17z m211 -3 c-3 -9 -8 -14 -10 -11 -3 3 -2 9 2 15 9 16 15 13 8 -4z
m-45 -29 c5 -44 -28 -66 -81 -54 -44 10 -72 4 -62 -12 4 -6 11 -7 17 -4 7 4 8
2 4 -4 -5 -9 -12 -8 -27 1 -19 12 -19 13 12 37 50 39 103 69 119 67 9 -1 16
-15 18 -31z m-548 -17 c3 -21 11 -34 20 -34 12 0 15 -16 17 -75 2 -70 0 -76
-25 -97 -51 -42 -82 -21 -82 55 0 44 24 100 35 83 3 -6 10 -9 15 -6 8 5 -2 63
-14 84 -4 6 -4 16 -1 22 12 19 30 3 35 -32z m57 -15 c-9 -9 -28 6 -21 18 4 6
10 6 17 -1 6 -6 8 -13 4 -17z m-110 -16 c-3 -7 -5 -2 -5 12 0 14 2 19 5 13 2
-7 2 -19 0 -25z m437 -96 c7 -50 -8 -76 -53 -93 -19 -8 -29 -5 -48 12 -12 13
-23 28 -23 36 0 24 67 88 93 89 22 2 25 -3 31 -44z m6573 -89 c-2 -21 -4 -6
-4 32 0 39 2 55 4 38 2 -18 2 -50 0 -70z m-2237 48 c0 -5 -7 -14 -15 -21 -13
-10 -15 -9 -15 9 0 12 6 21 15 21 8 0 15 -4 15 -9z m-1037 -174 c0 -83 -1
-201 -2 -261 -1 -126 -10 -129 -42 -15 -11 41 -31 92 -44 115 -21 36 -32 43
-87 59 -43 13 -103 20 -192 21 -70 2 -131 5 -133 8 -3 3 7 10 23 17 16 6 63
26 104 44 234 103 317 140 335 152 11 7 24 13 30 13 6 0 9 -54 8 -153z m982
113 c4 -12 1 -27 -5 -35 -13 -16 -4 -75 11 -75 6 0 7 -5 4 -10 -4 -6 -11 -8
-16 -5 -5 4 -9 1 -9 -4 0 -6 -4 -11 -10 -11 -5 0 -10 8 -10 17 0 9 -7 24 -15
33 -12 13 -12 23 -3 55 17 56 41 72 53 35z m657 -52 c7 -94 3 -233 -7 -233 -6
0 -9 27 -7 66 2 49 -2 70 -13 79 -17 14 -20 76 -5 114 15 41 27 31 32 -26z
m-5208 -27 c-16 -41 -34 -47 -34 -10 0 19 38 65 46 56 3 -2 -3 -23 -12 -46z
m86 20 c17 -33 12 -72 -10 -78 -11 -3 -20 -12 -20 -21 0 -12 -5 -10 -21 7
l-22 23 22 44 c25 49 35 54 51 25z m-240 -26 c0 -8 -4 -15 -10 -15 -5 0 -10 7
-10 15 0 8 5 15 10 15 6 0 10 -7 10 -15z m358 -17 c7 -7 12 -20 12 -29 0 -10
3 -19 8 -21 17 -7 49 -66 55 -100 5 -34 3 -37 -25 -47 -47 -16 -70 -13 -101
15 l-29 25 26 53 c14 29 26 67 26 84 0 34 8 40 28 20z m49 6 c-3 -3 -12 -4
-19 -1 -8 3 -5 6 6 6 11 1 17 -2 13 -5z m-408 -67 c6 -15 23 -27 50 -36 23 -6
41 -16 41 -22 0 -27 -23 -98 -31 -94 -14 9 -49 -19 -50 -40 0 -14 -2 -15 -5
-5 -3 8 -14 33 -24 55 -16 35 -17 49 -8 103 6 34 12 62 15 62 2 0 7 -10 12
-23z m5491 -68 c0 -4 -4 -10 -9 -13 -14 -9 -32 20 -25 39 7 17 8 17 21 -1 7
-10 13 -21 13 -25z m-5346 -17 c-4 -18 -10 -29 -14 -27 -5 3 -3 18 3 35 14 37
19 33 11 -8z m4648 26 c-19 -19 -14 -37 13 -50 29 -13 31 -23 9 -45 -14 -14
-16 -14 -30 3 -9 11 -12 12 -8 4 5 -8 -10 0 -33 18 -44 35 -48 62 -9 62 11 0
28 5 36 10 21 14 36 12 22 -2z m-4672 -78 c0 -5 -5 -10 -11 -10 -5 0 -7 5 -4
10 3 6 8 10 11 10 2 0 4 -4 4 -10z m-5 -39 c3 -5 1 -12 -5 -16 -5 -3 -10 1
-10 9 0 18 6 21 15 7z m122 -50 c18 -18 20 -24 10 -46 -7 -15 -18 -23 -26 -20
-11 5 -12 3 -1 -10 11 -13 7 -15 -27 -15 -50 0 -83 23 -83 59 0 37 13 47 63
49 31 2 48 -3 64 -17z m4563 -61 c0 -5 -4 -10 -10 -10 -5 0 -10 5 -10 10 0 6
5 10 10 10 6 0 10 -4 10 -10z m30 -30 c0 -5 -4 -10 -10 -10 -5 0 -10 5 -10 10
0 6 5 10 10 10 6 0 10 -4 10 -10z m-4464 -48 c7 -4 18 -23 27 -43 18 -44 3
-70 -42 -71 -60 -2 -93 60 -46 86 11 6 24 17 28 24 9 14 17 15 33 4z m4479
-27 c28 -27 34 -39 26 -49 -6 -7 -8 -16 -4 -20 4 -4 -1 -4 -11 0 -9 4 -22 17
-27 31 -5 13 -20 28 -34 33 -25 9 -31 21 -18 33 13 14 31 6 68 -28z m-4975 1
c0 -8 7 -16 15 -20 8 -3 15 -15 15 -27 0 -19 -4 -17 -35 17 -19 21 -35 39 -35
41 0 2 9 3 20 3 11 0 20 -6 20 -14z m174 -1 c8 -8 19 -15 24 -15 13 0 24 -29
16 -42 -4 -5 -20 -16 -37 -23 -42 -18 -76 -3 -69 31 5 26 22 33 22 9 0 -8 5
-15 10 -15 17 0 24 31 11 51 -13 23 1 25 23 4z m6896 -70 c0 -14 -4 -25 -10
-25 -11 0 -14 33 -3 43 11 11 13 8 13 -18z m-2136 6 c3 -5 -1 -11 -9 -14 -9
-4 -12 -1 -8 9 6 16 10 17 17 5z m-4575 -100 c10 -10 24 -20 32 -23 10 -3 7
-12 -10 -36 -24 -35 -63 -42 -117 -22 -24 9 -26 14 -21 47 4 20 12 40 19 45
23 14 77 9 97 -11z m5122 -46 c2 24 18 -34 18 -67 1 -54 -26 -52 -31 2 -2 22
1 40 6 40 6 0 5 5 -2 12 -7 7 -12 17 -12 23 0 5 5 3 10 -5 5 -8 10 -10 11 -5z
m1595 -94 c4 -42 2 -61 -10 -76 -13 -17 -17 -18 -26 -5 -13 20 -13 122 1 157
l11 28 9 -24 c5 -14 12 -50 15 -80z m-86 -283 c0 -23 -4 -29 -17 -26 -19 3
-28 30 -19 53 9 25 36 5 36 -27z"/>
<path d="M7528 5473 c7 -3 16 -2 19 1 4 3 -2 6 -13 5 -11 0 -14 -3 -6 -6z"/>
<path d="M7568 5458 c5 -5 16 -8 23 -6 8 3 3 7 -10 11 -17 4 -21 3 -13 -5z"/>
<path d="M6820 4545 c-19 -23 -131 -75 -160 -75 -49 0 -60 -18 -49 -82 11 -69
55 -191 103 -287 20 -39 36 -73 36 -77 0 -3 -11 -4 -25 -2 -14 3 -25 2 -25 -2
0 -8 74 -19 255 -41 202 -24 499 -30 603 -13 28 4 31 8 22 20 -7 8 -28 14 -46
14 -40 0 -41 5 -13 45 25 37 71 126 67 129 -51 38 -68 43 -68 22 0 -16 -112
-190 -130 -201 -15 -9 -339 -9 -452 0 -48 4 -94 12 -103 19 -29 21 -111 277
-130 406 l-7 46 49 23 c52 24 99 59 91 66 -3 3 -11 -2 -18 -10z"/>
<path d="M8953 3507 c9 -24 -13 -111 -44 -175 -39 -80 -33 -98 13 -41 105 129
121 173 74 211 -25 21 -50 23 -43 5z"/>
<path d="M9938 3343 c6 -2 18 -2 25 0 6 3 1 5 -13 5 -14 0 -19 -2 -12 -5z"/>
<path d="M5360 3161 c0 -5 24 -15 53 -21 28 -7 64 -19 79 -26 30 -16 58 -18
58 -6 0 13 -69 41 -129 52 -65 12 -61 12 -61 1z"/>
<path d="M7750 3036 c-214 -83 -530 -378 -530 -494 0 -48 49 -135 108 -192 53
-51 197 -138 209 -127 3 3 -27 22 -67 42 -91 46 -158 108 -199 184 -35 67 -40
123 -14 161 58 85 157 181 330 320 7 6 15 10 19 10 4 0 22 11 39 25 92 70 216
78 450 30 77 -15 142 -31 145 -34 3 -3 14 -7 25 -7 11 -1 47 -12 80 -24 33
-12 85 -28 115 -36 65 -17 73 -20 165 -65 64 -31 105 -62 105 -79 0 -3 -5 -11
-12 -18 -14 -14 -42 -16 -33 -3 5 10 -41 51 -57 51 -6 0 -24 10 -41 22 -17 12
-28 18 -25 12 4 -5 -14 -10 -40 -10 -30 -1 -40 1 -27 6 16 5 12 8 -20 14 -22
4 -53 14 -70 21 -16 7 -43 16 -58 19 -15 4 -25 11 -22 16 3 6 -1 10 -9 10 -8
0 -22 7 -30 15 -11 12 -20 13 -34 6 -21 -11 -132 -3 -132 10 0 5 -27 9 -59 9
-33 0 -61 4 -63 9 -1 6 -55 13 -119 17 -102 6 -117 5 -122 -10 -4 -9 -13 -16
-22 -16 -8 0 -15 -4 -15 -10 0 -5 -5 -10 -12 -10 -6 0 -20 -8 -30 -17 -18 -16
-18 -16 -12 3 7 16 5 17 -8 7 -8 -7 -19 -9 -23 -5 -5 4 -5 2 -2 -4 8 -13 -75
-94 -97 -94 -12 0 -16 -10 -16 -35 0 -24 -8 -42 -27 -62 l-28 -28 28 -3 c17
-2 27 -9 27 -20 0 -12 9 -17 31 -18 17 -1 25 2 19 6 -8 5 -6 9 5 14 26 10 486
20 540 12 39 -6 45 -10 40 -26 -5 -17 -3 -18 27 -9 46 13 56 11 61 -8 4 -17 5
-17 6 0 0 9 8 17 17 17 10 0 14 -6 10 -15 -3 -8 -1 -15 4 -15 6 0 10 7 10 15
0 8 5 15 11 15 6 0 9 -7 6 -15 -4 -8 -2 -17 3 -20 6 -4 10 -1 10 4 0 6 18 10
43 10 23 -1 32 -4 20 -6 -13 -2 -23 -11 -23 -19 0 -11 12 -12 60 -7 42 4 60 2
60 -6 0 -6 10 -12 23 -12 16 -1 18 -2 5 -6 -23 -6 -23 -15 1 -34 13 -12 23
-14 36 -6 16 8 17 6 11 -17 l-6 -26 32 20 c18 11 39 20 46 20 18 0 45 28 38
39 -3 4 3 27 14 49 11 23 20 48 20 56 0 8 5 18 10 21 6 3 10 15 10 26 0 38 17
18 30 -36 15 -63 13 -72 -57 -248 -24 -60 -43 -116 -42 -125 1 -32 59 109 142
341 l32 89 -35 29 c-50 42 -242 135 -330 159 -396 108 -448 119 -580 126 -66
3 -106 0 -130 -10z m530 -146 c0 -5 -4 -10 -10 -10 -5 0 -10 5 -10 10 0 6 5
10 10 10 6 0 10 -4 10 -10z"/>
<path d="M8018 2633 c7 -3 16 -2 19 1 4 3 -2 6 -13 5 -11 0 -14 -3 -6 -6z"/>
<path d="M7470 2620 c0 -5 5 -10 11 -10 5 0 7 5 4 10 -3 6 -8 10 -11 10 -2 0
-4 -4 -4 -10z"/>
<path d="M7658 2623 c7 -3 16 -2 19 1 4 3 -2 6 -13 5 -11 0 -14 -3 -6 -6z"/>
<path d="M8627 2235 c-9 -25 -12 -43 -7 -40 10 6 32 76 26 82 -2 2 -11 -17
-19 -42z"/>
<path d="M8393 1983 c9 -2 23 -2 30 0 6 3 -1 5 -18 5 -16 0 -22 -2 -12 -5z"/>
<path d="M9685 5220 c-3 -5 -1 -10 4 -10 6 0 11 5 11 10 0 6 -2 10 -4 10 -3 0
-8 -4 -11 -10z"/>
<path d="M11677 3723 c-5 -8 9 -53 16 -53 2 0 2 14 -1 30 -4 31 -8 36 -15 23z"/>
<path d="M11257 2624 c-8 -8 1 -24 14 -24 5 0 9 7 9 15 0 15 -12 20 -23 9z"/>
<path d="M12430 4130 c0 -5 5 -10 10 -10 6 0 10 5 10 10 0 6 -4 10 -10 10 -5
0 -10 -4 -10 -10z"/>
<path d="M5945 1088 c-4 -18 -8 -54 -8 -80 0 -27 -4 -48 -8 -48 -17 0 -9 -18
11 -23 19 -5 20 0 20 89 0 52 -2 94 -4 94 -2 0 -7 -15 -11 -32z"/>
<path d="M5725 800 c-13 -5 -14 -9 -5 -9 8 0 24 4 35 9 13 5 14 9 5 9 -8 0
-24 -4 -35 -9z"/>
<path d="M5090 1154 c0 -8 5 -12 10 -9 6 3 10 10 10 16 0 5 -4 9 -10 9 -5 0
-10 -7 -10 -16z"/>
<path d="M11790 7193 c0 -3 20 -40 45 -82 24 -42 67 -131 94 -198 60 -145 209
-452 245 -506 14 -21 26 -39 26 -41 0 -2 15 -28 33 -57 45 -76 116 -165 181
-228 30 -30 52 -59 49 -64 -3 -6 -1 -7 5 -3 6 4 19 -1 29 -11 33 -32 101 -83
111 -83 6 0 12 -4 14 -9 3 -9 162 -111 173 -111 3 0 5 315 5 700 l0 700 -505
0 c-278 0 -505 -3 -505 -7z m690 -963 c0 -11 5 -20 10 -20 6 0 9 -16 6 -36 -3
-29 0 -37 15 -41 23 -6 25 -19 4 -27 -8 -3 -15 -10 -15 -16 0 -5 7 -10 15 -10
20 0 19 -29 -1 -37 -9 -3 -28 7 -50 28 -48 46 -54 60 -47 102 9 55 63 104 63
57z"/>
<path d="M7566 7055 c-3 -8 -1 -15 4 -15 13 0 22 18 11 24 -5 3 -11 -1 -15 -9z"/>
<path d="M5165 6895 c1 -13 9 -30 18 -39 15 -15 16 -15 14 13 -2 36 -33 61
-32 26z"/>
<path d="M5260 6910 c0 -5 5 -10 10 -10 6 0 10 5 10 10 0 6 -4 10 -10 10 -5 0
-10 -4 -10 -10z"/>
<path d="M6763 6913 c-50 -5 -58 -28 -11 -31 17 -2 37 -7 43 -12 9 -7 12 -2
13 20 0 17 0 29 -1 28 -1 -1 -21 -3 -44 -5z"/>
<path d="M6871 6904 c0 -11 3 -14 6 -6 3 7 2 16 -1 19 -3 4 -6 -2 -5 -13z"/>
<path d="M5040 6891 c0 -6 4 -13 10 -16 6 -3 7 1 4 9 -7 18 -14 21 -14 7z"/>
<path d="M8000 6890 c0 -5 18 -10 40 -10 22 0 40 5 40 10 0 6 -18 10 -40 10
-22 0 -40 -4 -40 -10z"/>
<path d="M6725 6829 c-12 -19 5 -23 22 -6 16 16 16 17 1 17 -9 0 -20 -5 -23
-11z"/>
<path d="M8480 6735 c0 -8 7 -15 16 -15 14 0 14 3 4 15 -7 8 -14 15 -16 15 -2
0 -4 -7 -4 -15z"/>
<path d="M8565 6630 c3 -5 11 -10 16 -10 6 0 7 5 4 10 -3 6 -11 10 -16 10 -6
0 -7 -4 -4 -10z"/>
<path d="M9067 6604 c-4 -10 -10 -25 -13 -31 -4 -9 6 -13 35 -13 31 0 39 3 35
14 -3 8 -12 12 -20 9 -8 -3 -17 4 -22 18 -8 21 -9 21 -15 3z"/>
<path d="M9582 6600 c0 -14 2 -19 5 -12 2 6 2 18 0 25 -3 6 -5 1 -5 -13z"/>
<path d="M11690 6610 c-8 -5 -10 -10 -5 -10 6 0 17 5 25 10 8 5 11 10 5 10 -5
0 -17 -5 -25 -10z"/>
<path d="M11645 6564 c-14 -15 -25 -32 -25 -37 0 -6 1 -8 3 -6 1 2 15 19 31
37 17 17 26 32 22 32 -4 0 -18 -12 -31 -26z"/>
<path d="M9576 6545 c-4 -11 -2 -22 6 -26 17 -11 20 -6 10 21 -8 21 -9 22 -16
5z"/>
<path d="M9367 6516 c-4 -10 -5 -21 -2 -24 9 -9 17 6 13 25 -3 17 -4 17 -11
-1z"/>
<path d="M11582 6460 c-11 -27 -17 -50 -12 -50 8 0 43 91 36 97 -2 2 -13 -19
-24 -47z"/>
<path d="M9605 6490 c3 -5 22 -10 41 -10 19 0 34 5 34 10 0 6 -18 10 -41 10
-24 0 -38 -4 -34 -10z"/>
<path d="M9862 6460 c0 -14 2 -19 5 -12 2 6 2 18 0 25 -3 6 -5 1 -5 -13z"/>
<path d="M11483 6445 c0 -22 2 -30 4 -17 2 12 2 30 0 40 -3 9 -5 -1 -4 -23z"/>
<path d="M11676 6425 c-3 -8 -1 -15 4 -15 6 0 10 7 10 15 0 8 -2 15 -4 15 -2
0 -6 -7 -10 -15z"/>
<path d="M12096 6423 c-6 -14 -5 -15 5 -6 7 7 10 15 7 18 -3 3 -9 -2 -12 -12z"/>
<path d="M11877 6305 c-20 -14 -37 -28 -37 -31 0 -8 56 24 69 40 19 22 12 20
-32 -9z"/>
<path d="M11745 6270 c28 -12 55 -12 55 0 0 6 -17 10 -37 9 -31 0 -34 -2 -18
-9z"/>
<path d="M3236 6115 c-8 -8 -18 -25 -21 -38 -4 -12 -26 -83 -50 -157 -23 -74
-53 -166 -65 -205 -12 -38 -25 -72 -30 -75 -69 -44 -261 -220 -338 -311 -59
-69 -200 -275 -367 -539 -38 -61 -101 -159 -139 -218 -84 -128 -179 -309 -171
-322 4 -6 18 -10 33 -10 32 1 118 23 128 33 15 15 -24 17 -71 3 -27 -9 -51
-14 -53 -12 -10 11 138 275 160 284 4 2 8 7 8 12 0 4 17 35 38 69 95 153 170
272 214 337 26 39 48 74 48 77 0 14 129 194 201 282 65 78 270 272 300 283 10
4 -9 -58 -22 -72 -5 -6 -9 -18 -9 -29 0 -10 -18 -76 -41 -145 -22 -70 -49
-153 -59 -184 -10 -32 -15 -58 -10 -58 13 0 46 97 90 265 10 41 55 180 95 295
18 52 53 162 79 243 25 82 53 161 61 178 17 32 14 37 -9 14z"/>
<path d="M11680 5785 c0 -20 5 -25 25 -25 22 0 24 3 16 19 -17 31 -41 34 -41
6z"/>
<path d="M12291 5595 c1 -19 18 -51 18 -35 0 8 -4 22 -9 30 -5 8 -9 11 -9 5z"/>
<path d="M110 4495 c0 -20 28 -31 43 -16 8 8 7 11 -6 11 -9 0 -17 5 -17 10 0
6 -4 10 -10 10 -5 0 -10 -7 -10 -15z"/>
<path d="M30 4051 c0 -12 5 -21 10 -21 6 0 10 6 10 14 0 8 -4 18 -10 21 -5 3
-10 -3 -10 -14z"/>
<path d="M18 3884 c-9 -14 7 -50 16 -36 4 7 3 19 -2 28 -5 9 -12 13 -14 8z"/>
<path d="M2 3800 c0 -14 2 -19 5 -12 2 6 2 18 0 25 -3 6 -5 1 -5 -13z"/>
<path d="M0 3747 c0 -7 5 -18 11 -24 8 -8 8 -17 0 -31 -16 -29 -10 -1037 6
-1053 18 -18 35 -1 20 22 -10 17 -9 22 5 30 14 8 16 35 15 246 -1 155 -5 241
-11 246 -7 4 -8 10 -1 15 11 8 17 282 6 282 -4 0 -8 26 -9 58 -1 31 -4 69 -7
83 -4 17 0 30 10 39 19 16 20 50 0 50 -8 0 -15 9 -15 19 0 10 -7 21 -15 25 -8
3 -15 0 -15 -7z"/>
<path d="M12488 3048 c2 -10 9 -17 15 -15 19 6 18 24 -1 29 -15 4 -18 1 -14
-14z"/>
<path d="M12632 2709 c-7 -12 -11 -24 -7 -27 7 -8 25 17 25 36 0 17 -3 15 -18
-9z"/>
<path d="M12701 2680 c-5 -16 -6 -30 -1 -30 13 0 40 42 34 52 -10 16 -22 8
-33 -22z"/>
<path d="M12190 2547 c0 -19 10 -27 26 -20 21 8 17 33 -6 33 -11 0 -20 -6 -20
-13z"/>
<path d="M11925 2036 c17 -13 33 -22 37 -19 10 6 10 33 1 34 -5 1 -21 3 -38 5
l-29 3 29 -23z"/>
<path d="M11916 1904 c-11 -28 -6 -39 9 -20 8 11 15 23 15 28 0 14 -18 9 -24
-8z"/>
<path d="M11775 1689 c-4 -6 -3 -15 3 -21 6 -6 11 -4 15 6 7 18 -9 31 -18 15z"/>
<path d="M2895 1670 c-150 -38 -771 -120 -794 -105 -6 3 -7 22 -5 43 4 28 3
33 -5 22 -6 -8 -11 -30 -11 -47 l0 -33 90 0 90 0 31 -42 c17 -24 35 -52 39
-63 8 -19 114 -142 275 -320 40 -44 96 -107 124 -140 58 -67 150 -150 214
-193 61 -41 67 -44 67 -33 0 5 -20 24 -45 41 -25 17 -54 40 -64 51 -23 25 -67
187 -81 299 -12 100 -14 470 -3 480 4 4 49 18 98 30 50 13 92 24 94 26 10 9
-48 0 -114 -16z m-577 -133 c5 -24 -15 -21 -21 4 -3 13 -1 19 6 16 7 -2 13
-11 15 -20z"/>
<path d="M4720 1626 c0 -9 7 -16 16 -16 17 0 14 22 -4 28 -7 2 -12 -3 -12 -12z"/>
<path d="M4640 1437 c25 -20 31 -87 10 -112 -8 -9 -14 -31 -14 -48 -1 -18 -6
-31 -12 -30 -12 2 -27 -75 -18 -89 10 -17 21 2 33 59 19 88 31 115 50 108 29
-11 35 -10 39 8 2 11 -3 17 -14 17 -10 0 -14 3 -11 7 4 3 -2 13 -13 20 -13 9
-19 22 -16 38 3 18 -1 24 -22 28 -22 4 -24 3 -12 -6z"/>
<path d="M4635 1130 c-18 -8 -17 -9 8 -9 16 -1 26 3 22 9 -3 6 -7 10 -8 9 -1
0 -11 -4 -22 -9z"/>
<path d="M4680 988 c0 -7 3 -23 6 -35 5 -17 9 -19 19 -10 9 9 10 18 2 34 -11
25 -27 31 -27 11z"/>
<path d="M4741 961 c-8 -5 -11 -16 -8 -25 9 -22 44 -20 50 3 3 15 0 17 -16 13
-14 -3 -18 -1 -13 6 9 14 6 15 -13 3z"/>
<path d="M10945 930 c-3 -5 -1 -10 4 -10 6 0 11 5 11 10 0 6 -2 10 -4 10 -3 0
-8 -4 -11 -10z"/>
<path d="M10970 930 c0 -5 5 -10 10 -10 6 0 10 5 10 10 0 6 -4 10 -10 10 -5 0
-10 -4 -10 -10z"/>
<path d="M11253 933 c-42 -8 -39 -63 3 -63 14 0 24 -6 24 -14 0 -17 -100 -39
-114 -25 -17 15 -29 10 -23 -10 5 -20 -28 -37 -39 -20 -3 5 -14 9 -25 9 -14 0
-21 -9 -26 -31 -8 -43 -29 -47 -66 -11 l-32 31 -13 -29 c-8 -16 -10 -35 -7
-41 6 -8 2 -8 -12 -1 -15 8 -20 23 -21 56 -2 47 4 55 27 34 11 -11 12 -7 6 22
-12 59 -28 67 -47 25 -6 -14 -19 -25 -28 -25 -22 0 -35 -71 -20 -101 6 -10 8
-24 5 -29 -8 -13 -55 10 -55 27 0 7 -4 13 -10 13 -14 0 -13 -23 2 -38 9 -9 9
-15 0 -24 -9 -9 -15 -8 -27 8 -14 18 -15 18 -40 -13 -15 -18 -35 -33 -46 -33
-11 0 -22 -7 -25 -15 -4 -8 -17 -15 -29 -15 -14 0 -25 -7 -28 -17 -8 -32 -2
-80 10 -95 16 -18 18 -66 8 -140 -8 -60 4 -88 39 -88 8 0 17 -8 20 -17 11 -35
175 -61 286 -47 67 9 89 34 85 97 -1 29 -1 42 2 29 2 -12 15 -34 27 -47 40
-43 69 -140 67 -222 l-2 -73 220 0 221 0 0 33 c0 18 5 38 11 44 7 7 12 30 12
52 0 23 3 41 7 41 13 0 8 49 -6 61 -15 13 -8 39 12 39 17 0 18 16 3 26 -6 3
-15 0 -20 -7 -8 -11 -12 -10 -24 5 -8 11 -15 30 -15 43 0 13 -3 23 -7 23 -11
0 -43 59 -43 79 0 9 -9 24 -20 34 -11 9 -20 26 -20 36 0 11 -5 23 -10 26 -6 4
-8 10 -5 15 3 4 -1 10 -9 13 -13 5 -23 42 -30 110 -1 16 -9 32 -16 37 -7 4
-10 17 -7 29 3 14 -1 26 -13 34 -9 6 -20 26 -24 43 -8 38 -43 77 -62 70 -10
-4 -12 2 -7 24 3 17 4 29 2 29 -2 -1 -14 -4 -26 -6z m-215 -353 c4 -21 2 -22
-12 -7 -19 19 -21 40 -3 35 6 -3 14 -15 15 -28z m12 -52 c0 -7 -5 -20 -10 -28
-9 -13 -11 -13 -20 0 -16 24 -12 40 10 40 11 0 20 -6 20 -12z m-1 -121 c1 -22
-3 -28 -16 -25 -13 2 -18 13 -19 40 -1 21 3 35 7 32 5 -3 9 3 10 13 1 26 17
-25 18 -60z"/>
<path d="M11057 893 c-12 -11 -8 -23 7 -23 7 0 19 7 26 15 10 12 9 15 -7 15
-11 0 -23 -3 -26 -7z"/>
<path d="M10400 859 c0 -11 4 -18 10 -14 5 3 7 12 3 20 -7 21 -13 19 -13 -6z"/>
<path d="M10734 855 c-9 -23 10 -40 25 -22 9 11 8 17 -4 27 -12 10 -16 9 -21
-5z"/>
<path d="M10990 841 c0 -6 5 -13 10 -16 6 -3 10 1 10 9 0 9 -4 16 -10 16 -5 0
-10 -4 -10 -9z"/>
<path d="M10305 610 c3 -5 10 -10 16 -10 5 0 9 5 9 10 0 6 -7 10 -16 10 -8 0
-12 -4 -9 -10z"/>
<path d="M9992 583 c2 -12 14 -19 36 -21 31 -3 33 -2 22 17 -14 27 -63 30 -58
4z"/>
<path d="M10450 575 c-49 -36 -57 -54 -33 -74 11 -9 23 -24 27 -35 4 -12 13
-17 26 -13 23 6 37 -10 22 -25 -11 -11 -4 -98 10 -115 8 -10 13 -9 24 2 16 15
19 85 4 85 -6 0 -6 9 -1 23 5 12 12 54 16 93 7 69 6 71 -17 77 -36 10 -42 9
-78 -18z m73 -86 c-9 -9 -12 -7 -10 9 1 14 5 18 11 12 7 -7 6 -14 -1 -21z
m-23 -5 c0 -2 -9 -4 -21 -4 -11 0 -18 4 -14 10 5 8 35 3 35 -6z"/>
<path d="M4630 399 c0 -18 2 -19 15 -5 8 8 15 17 15 20 0 3 -7 6 -15 6 -9 0
-15 -9 -15 -21z"/>
<path d="M10421 344 c0 -11 3 -14 6 -6 3 7 2 16 -1 19 -3 4 -6 -2 -5 -13z"/>
<path d="M10331 32 c-1 -24 19 -38 41 -29 8 4 5 8 -9 12 -12 4 -24 14 -26 24
-3 11 -5 8 -6 -7z"/>
<path d="M10689 18 c-10 -4 -19 -10 -19 -13 0 -3 60 -5 133 -4 99 0 126 3 107
10 -14 6 -39 8 -57 6 -17 -3 -34 -3 -37 0 -8 8 -105 9 -127 1z"/>
<path d="M10445 10 c-4 -6 6 -10 22 -10 22 0 25 2 13 10 -19 12 -27 12 -35 0z"/>
</g>
</svg>
