<svg width="609" height="609" viewBox="0 0 609 609" fill="none" xmlns="http://www.w3.org/2000/svg">
<path fill-rule="evenodd" clip-rule="evenodd" d="M0.386108 319.969C2.27488 357.716 11.0374 393.653 25.4475 426.552L426.552 25.4475C393.653 11.0374 357.716 2.27491 319.969 0.386139L0.386108 319.969ZM89.186 519.814C68.6877 499.316 51.0984 475.909 37.0904 450.265L450.265 37.0904C475.909 51.0985 499.316 68.6878 519.814 89.186L89.186 519.814ZM107.586 536.769C130.75 556.427 156.892 572.681 185.241 584.759L584.759 185.241C572.681 156.892 556.427 130.75 536.769 107.586L107.586 536.769ZM286.522 608.478C260.315 606.952 234.999 602.112 210.985 594.371L594.371 210.985C602.112 234.999 606.952 260.315 608.478 286.522L286.522 608.478ZM321.841 608.515C476.204 599.848 599.848 476.204 608.515 321.841L321.841 608.515ZM0.656506 284.343C10.597 132.232 132.232 10.5971 284.343 0.656536L0.656506 284.343Z" fill="url(#paint0_linear_101:55)"/>
<defs>
<linearGradient id="paint0_linear_101:55" x1="304.45" y1="0.386139" x2="304.45" y2="608.515" gradientUnits="userSpaceOnUse">
<stop stop-color="white"/>
<stop offset="0.0001" stop-color="#EC6E8E"/>
<stop offset="1" stop-color="#EC6EAD"/>
</linearGradient>
</defs>
</svg>
